<svg viewBox="0 0 50 50" version="1.1" xmlns="http://www.w3.org/2000/svg" xmlns:xlink="http://www.w3.org/1999/xlink">
    <path d="M22.7939966,0.495696965 C23.0832456,0.206540635 23.5377801,-5.16250509e-09 23.9923147,-5.16250509e-09 C24.4468493,-5.16250509e-09 24.9013838,0.206540635 25.1906328,0.495696965 L47.5041443,22.8020658 C48.1652852,23.4629951 48.1652852,24.5370056 47.5041443,25.1979349 C47.1735736,25.5283996 46.7603607,25.6936319 46.3058262,25.6936319 C45.8512916,25.6936319 45.4380783,25.5283996 45.1075081,25.1979349 L25.6864886,5.78313272 L25.6864886,46.3063692 C25.6864886,47.2564553 24.9427051,48 23.9923147,48 C23.0419243,48 22.2981408,47.2564553 22.2981408,46.3063692 L22.2981408,5.78313272 L2.8771213,25.1979349 C2.2159804,25.8588642 1.1416261,25.8588642 0.480485098,25.1979349 C-0.180655802,24.5370056 -0.139334502,23.4629951 0.480485098,22.8020658 L22.7939966,0.495696965 Z" fill-rule="nonzero"></path>
</svg>