<svg viewBox="0 0 48 48" version="1.1" xmlns="http://www.w3.org/2000/svg" xmlns:xlink="http://www.w3.org/1999/xlink">
    <path d="M0.495696975,25.2060034 C0.206540645,24.9167544 5.16263299e-09,24.4622199 5.16263299e-09,24.0076853 C5.16263299e-09,23.5531507 0.206540645,23.0986162 0.495696975,22.8093672 L22.8020658,0.495855722 C23.4629951,-0.165285239 24.5370056,-0.165285239 25.1979349,0.495855722 C25.5283996,0.826426442 25.6936319,1.23963925 25.6936319,1.69417381 C25.6936319,2.14870837 25.5283996,2.56192165 25.1979349,2.8924919 L5.78313274,22.3135114 L46.3063692,22.3135114 C47.2564553,22.3135114 48,23.0572949 48,24.0076853 C48,24.9580757 47.2564553,25.7018592 46.3063692,25.7018592 L5.78313274,25.7018592 L25.1979349,45.1228787 C25.8588642,45.7840196 25.8588642,46.8583739 25.1979349,47.5195149 C24.5370056,48.1806558 23.4629951,48.1393345 22.8020658,47.5195149 L0.495696975,25.2060034 Z" fill-rule="nonzero"></path>
</svg>