<svg viewBox="0 0 50 50" version="1.1" xmlns="http://www.w3.org/2000/svg" xmlns:xlink="http://www.w3.org/1999/xlink">
    <path d="M25.2060034,47.504303 C24.9167544,47.7934594 24.4622199,48 24.0076853,48 C23.5531507,48 23.0986162,47.7934594 22.8093672,47.504303 L0.495855732,25.1979342 C-0.165285229,24.5370049 -0.165285229,23.4629944 0.495855732,22.8020651 C0.826426452,22.4716004 1.23963926,22.3063681 1.69417382,22.3063681 C2.14870838,22.3063681 2.56192166,22.4716004 2.89249191,22.8020651 L22.3135114,42.2168673 L22.3135114,1.69363079 C22.3135114,0.743544695 23.0572949,-5.16237719e-09 24.0076853,-5.16237719e-09 C24.9580757,-5.16237719e-09 25.7018592,0.743544695 25.7018592,1.69363079 L25.7018592,42.2168673 L45.1228787,22.8020651 C45.7840196,22.1411358 46.8583739,22.1411358 47.5195149,22.8020651 C48.1806558,23.4629944 48.1393345,24.5370049 47.5195149,25.1979342 L25.2060034,47.504303 Z" fill-rule="nonzero"></path>
</svg>