<svg viewBox="0 0 50 50" version="1.1" xmlns="http://www.w3.org/2000/svg" xmlns:xlink="http://www.w3.org/1999/xlink">
    <path d="M26.2060034,1.49569697 C25.9167544,1.20654064 25.4622199,1 25.0076853,1 C24.5531507,1 24.0986162,1.20654064 23.8093672,1.49569697 L1.49585572,23.8020658 C0.834714759,24.4629951 0.834714759,25.5370056 1.49585572,26.1979349 C1.82642644,26.5283996 2.23963925,26.6936319 2.69417381,26.6936319 C3.14870837,26.6936319 3.56192165,26.5283996 3.8924919,26.1979349 L23.3135114,6.78313273 L23.3135114,47.3063692 C23.3135114,48.2564553 24.0572949,49 25.0076853,49 C25.9580757,49 26.7018592,48.2564553 26.7018592,47.3063692 L26.7018592,6.78313273 L46.1228787,26.1979349 C46.7840196,26.8588642 47.8583739,26.8588642 48.5195149,26.1979349 C49.1806558,25.5370056 49.1393345,24.4629951 48.5195149,23.8020658 L26.2060034,1.49569697 Z" transform="translate(25.000000, 25.000000) scale(1, -1) rotate(-135.000000) translate(-25.000000, -25.000000) "></path>
</svg>