<svg viewBox="0 0 50 50" version="1.1" xmlns="http://www.w3.org/2000/svg" xmlns:xlink="http://www.w3.org/1999/xlink">
    <path d="M47.504303,22.7939966 C47.7934594,23.0832456 48,23.5377801 48,23.9923147 C48,24.4468493 47.7934594,24.9013838 47.504303,25.1906328 L25.1979342,47.5041443 C24.5370049,48.1652852 23.4629944,48.1652852 22.8020651,47.5041443 C22.4716004,47.1735735 22.3063681,46.7603607 22.3063681,46.3058262 C22.3063681,45.8512916 22.4716004,45.4380783 22.8020651,45.1075081 L42.2168673,25.6864886 L1.69363081,25.6864886 C0.743544705,25.6864886 5.16274667e-09,24.9427051 5.16274667e-09,23.9923147 C5.16274667e-09,23.0419243 0.743544705,22.2981408 1.69363081,22.2981408 L42.2168673,22.2981408 L22.8020651,2.87712129 C22.1411358,2.21598039 22.1411358,1.14162609 22.8020651,0.480485088 C23.4629944,-0.180655812 24.5370049,-0.139334512 25.1979342,0.480485088 L47.504303,22.7939966 Z" fill-rule="nonzero"></path>
</svg>