<svg  viewBox="0 0 51 52" version="1.1" xmlns="http://www.w3.org/2000/svg" xmlns:xlink="http://www.w3.org/1999/xlink">
    <path d="M48.8702128,43.5770834 L0.017021275,43.5770834 L0.022340425,42.5302084 C0.04468085,38.2958334 3.07553192,34.6677083 7.21276595,33.7416666 L7.21276595,21.559375 C7.21276595,12.25625 14.9414894,4.6875 24.4425532,4.6875 C33.9446809,4.6875 41.6744681,12.25625 41.6744681,21.559375 L41.6744681,33.7416666 C45.8117022,34.66875 48.8414894,38.2958334 48.8648936,42.5302084 L48.8702128,43.5770834 Z M2.23617022,41.49375 L46.6510638,41.49375 C46.1638298,38.4645833 43.6680851,36.034375 40.480851,35.65 L39.5468085,35.5385416 L39.5468085,21.559375 C39.5468085,13.4052084 32.7712766,6.77083335 24.4425532,6.77083335 C16.1148936,6.77083335 9.34042555,13.4052084 9.34042555,21.559375 L9.34042555,35.5375 L8.406383,35.6489584 C5.2180851,36.0333333 2.72340426,38.4635417 2.23617022,41.49375 Z"></path>
    <path d="M21.4734043,6.2375 L19.3457447,6.2375 L19.3457447,4.99166667 C19.3457447,2.23854167 21.6319149,0 24.443617,0 C27.2542553,0 29.5404256,2.23854167 29.5404256,4.99166667 L29.5404256,6.21666665 L27.412766,6.21666665 L27.412766,4.99166667 C27.412766,3.38854166 26.080851,2.08333333 24.443617,2.08333333 C22.806383,2.08333333 21.4734043,3.38854166 21.4734043,4.99166667 L21.4734043,6.2375 Z" ></path>
    <path d="M24.4287234,49.8270834 C20.2361702,49.8270834 16.5829787,46.9114583 15.743617,42.89375 L17.8276595,42.4770834 C18.4659575,45.5291667 21.2414893,47.7447917 24.4287234,47.7447917 C27.6819149,47.7447917 30.4680851,45.475 31.0542553,42.3489583 L33.1468085,42.725 C32.3755319,46.840625 28.7095744,49.8270834 24.4287234,49.8270834 Z" ></path>
    <polygon  points="8.27659575 33.5739583 12.193617 33.5739583 12.193617 35.6572916 8.27659575 35.6572916"></polygon>
    <polygon  points="18.3265957 33.5739583 40.6106383 33.5739583 40.6106383 35.6572916 18.3265957 35.6572916"></polygon>
</svg>