<svg  viewBox="0 0 50 50" version="1.1" xmlns="http://www.w3.org/2000/svg" xmlns:xlink="http://www.w3.org/1999/xlink">
    <path d="M40.4609162,0.052832756 C40.7179337,-0.042878745 41.0039961,-0.0071087645 41.2269006,0.148446791 C41.451462,0.303904881 41.5853801,0.559265505 41.5853801,0.832072522 L41.5853801,0.832072522 L41.5853801,34.93217 C41.5853801,35.2906495 41.3566277,35.6075111 41.0164717,35.7214487 C33.7024366,38.159168 25.4618908,43.0812928 25.3795322,43.1303181 C25.1225146,43.2849965 24.801462,43.2891875 24.5411306,43.1411368 C24.2807992,42.9939634 24.1194932,42.7169653 24.1194932,42.4175501 L24.1194932,42.4175501 L24.1194932,9.68811541 C23.0989279,9.26140975 20.4982456,8.31745264 17.4657895,8.31745264 C11.5565302,8.31745264 6.65107212,9.38450917 4.99015595,9.79289124 L4.99015595,9.79289124 L4.99015595,44.6739829 C7.01783626,44.1940608 11.7369396,43.2492265 17.4657895,43.2492265 C21.0455166,43.2492265 24.0046784,44.4103376 24.9836257,44.8427938 C26.0848928,44.4393825 29.6445419,43.2492265 33.2683236,43.2492265 C38.8424951,43.2492265 43.0275828,44.144938 44.9122807,44.6389926 L44.9122807,44.6389926 L44.9122807,9.82534738 C44.6378168,9.77037662 44.2818713,9.70137077 43.8568226,9.62320313 C43.4051657,9.54006472 43.1066277,9.10673139 43.1897661,8.65429474 C43.2730019,8.20351502 43.7078947,7.90409981 44.1578947,7.98723821 C45.2724172,8.19191658 45.9244639,8.33743315 45.9244639,8.33743315 C46.3054581,8.42144874 46.575731,8.75916804 46.575731,9.14922652 L46.575731,9.14922652 L46.575731,45.7442558 C46.575731,46.0113123 46.4476608,46.2624819 46.2306043,46.4188172 C46.0118908,46.5752499 45.7323587,46.6167704 45.4820663,46.533632 C45.4330409,46.5170628 40.5134503,44.9126768 33.2684211,44.9126768 C30.1544834,44.9126768 26.9957115,45.9015657 25.7830409,46.3257372 L25.7830409,46.3257372 L25.7830409,48.2394799 L45.7440546,48.2394799 C47.1196881,48.2394799 48.2391813,47.1199868 48.2391813,45.7443532 L48.2391813,45.7443532 L48.2391813,13.3077061 C48.2391813,12.8486417 48.6109162,12.4760296 49.0708577,12.4760296 C49.5307992,12.4760296 49.9026316,12.8486417 49.9026316,13.3078035 L49.9026316,13.3078035 L49.9026316,45.7444507 C49.9026316,48.0375306 48.037037,49.9030277 45.7440546,49.9030277 L45.7440546,49.9030277 L4.158577,49.9030277 C1.86549708,49.9030277 8.52651283e-14,48.0374331 8.52651283e-14,45.7444507 L8.52651283e-14,45.7444507 L8.52651283e-14,13.3078035 C8.52651283e-14,12.8487392 0.372612086,12.4761271 0.831676413,12.4761271 C1.29074074,12.4761271 1.66335283,12.8487392 1.66335283,13.3078035 L1.66335283,13.3078035 L1.66335283,45.7444507 C1.66335283,47.1200842 2.782846,48.2395774 4.15847953,48.2395774 L4.15847953,48.2395774 L24.1194932,48.2395774 L24.1194932,46.2842168 C23.1047758,45.8592655 20.5065302,44.9127743 17.4657895,44.9127743 C10.1950292,44.9127743 4.44376218,46.527979 4.38635478,46.5437684 C4.31150097,46.5654059 4.23499025,46.5762246 4.15847953,46.5762246 C3.97962963,46.5762246 3.80331384,46.5188172 3.65692008,46.4081934 C3.44980507,46.2509809 3.32670565,46.0047821 3.32670565,45.7444507 L3.32670565,45.7444507 L3.32670565,9.14922652 C3.32670565,8.77827135 3.57290448,8.45137077 3.9297271,8.34990878 C4.17261209,8.2801232 9.95048733,6.65409981 17.4657895,6.65409981 C21.77154,6.65409981 25.1798246,8.33421677 25.3229045,8.40487954 C25.6048733,8.54620508 25.782846,8.83402184 25.782846,9.14922652 L25.782846,9.14922652 L25.782846,40.9729107 C28.3170565,39.5308055 34.2446394,36.3095579 39.9219298,34.3367509 L39.9219298,34.3367509 L39.9219298,2.04815439 C33.8064327,4.50751112 27.9486355,8.15205303 27.8871345,8.19113685 C27.497076,8.43480157 26.9839181,8.31589318 26.7410331,7.92661443 C26.4973684,7.53733568 26.6162768,7.02417779 27.0055556,6.78051307 C27.0730019,6.73889513 33.8064327,2.54873919 40.4609162,0.052832756 Z M8.9334308,35.792209 C9.17875244,35.726517 15.0149123,34.1911368 20.1506823,35.3963025 C20.5981481,35.5010784 20.8759259,35.9485443 20.7712476,36.395133 C20.6664717,36.8425988 20.2164717,37.1187197 19.77154,37.0156008 C15.0390838,35.9052694 9.42007797,37.3832421 9.36432749,37.3990316 C9.29191033,37.4182324 9.21959064,37.4281739 9.14805068,37.4281739 C8.78118908,37.4281739 8.44522417,37.1827548 8.3454191,36.8110199 C8.22651072,36.3669653 8.49015595,35.9111174 8.9334308,35.792209 Z M36.3440546,29.1484468 C36.7856725,29.0103376 37.2497076,29.2540998 37.3878168,29.6915267 C37.5267057,30.1289536 37.2839181,30.5964 36.8463938,30.7352889 C34.4319688,31.4979595 29.5364522,33.9848016 29.4874269,34.0097528 C29.3667641,34.0712538 29.237037,34.1003961 29.1106238,34.1003961 C28.8078947,34.1003961 28.5151072,33.9341193 28.3679337,33.6463025 C28.160039,33.236361 28.3230019,32.7355813 28.7322612,32.5276866 C28.938499,32.4229107 33.8006823,29.9527353 36.3440546,29.1484468 Z M8.9334308,30.8019556 C9.17875244,30.7353864 15.0149123,29.2008834 20.1506823,30.4060491 C20.5981481,30.510825 20.8759259,30.9582908 20.7712476,31.4048795 C20.6664717,31.8523454 20.2164717,32.1293435 19.77154,32.0253474 C15.0390838,30.915016 9.42007797,32.3929887 9.36432749,32.4087782 C9.29191033,32.427979 9.21959064,32.4379205 9.14805068,32.4379205 C8.78118908,32.4379205 8.44522417,32.1925014 8.3454191,31.8207665 C8.22651072,31.3767119 8.49015595,30.9208639 8.9334308,30.8019556 Z M36.3440546,24.1581934 C36.7856725,24.0200842 37.2497076,24.2637489 37.3878168,24.7012733 C37.5267057,25.1387002 37.2839181,25.6061466 36.8463938,25.7450355 C34.4319688,26.5077061 29.5364522,28.9945482 29.4874269,29.0194994 C29.3667641,29.0810004 29.237037,29.1101427 29.1106238,29.1101427 C28.8078947,29.1101427 28.5151072,28.9438659 28.3679337,28.6560491 C28.160039,28.2461076 28.3230019,27.7453279 28.7322612,27.5374331 C28.938499,27.4326573 33.8006823,24.9624819 36.3440546,24.1581934 Z M8.9334308,25.8117022 C9.17875244,25.745133 15.0149123,24.2115072 20.1506823,25.4157957 C20.5981481,25.5205715 20.8759259,25.9680374 20.7712476,26.4146261 C20.6664717,26.862092 20.2164717,27.1390901 19.77154,27.035094 C15.0390838,25.9247626 9.42007797,27.4027353 9.36432749,27.4185248 C9.29191033,27.4377255 9.21959064,27.4476671 9.14805068,27.4476671 C8.78118908,27.4476671 8.44522417,27.202248 8.3454191,26.8305131 C8.22651072,26.3864585 8.49015595,25.9306105 8.9334308,25.8117022 Z M36.3440546,19.16794 C36.7856725,19.0298308 37.2497076,19.2734955 37.3878168,19.7110199 C37.5267057,20.1484468 37.2839181,20.6158932 36.8463938,20.7547821 C34.4319688,21.5174526 29.5364522,24.0042947 29.4874269,24.029246 C29.3667641,24.090747 29.237037,24.1198893 29.1106238,24.1198893 C28.8078947,24.1198893 28.5151072,23.9536125 28.3679337,23.6657957 C28.160039,23.2558542 28.3230019,22.7550745 28.7322612,22.5471797 C28.938499,22.4424039 33.8006823,19.9722285 36.3440546,19.16794 Z M8.9334308,20.8214487 C9.17875244,20.7557567 15.0149123,19.2212538 20.1506823,20.4255423 C20.5981481,20.5303181 20.8759259,20.977784 20.7712476,21.4243727 C20.6664717,21.8718386 20.2164717,22.1488367 19.77154,22.0448406 C15.0390838,20.9345092 9.42007797,22.4124819 9.36432749,22.4282714 C9.29191033,22.4473747 9.21959064,22.4565365 9.14805068,22.4565365 C8.78118908,22.4565365 8.44522417,22.2119945 8.3454191,21.8402597 C8.22651072,21.3962051 8.49015595,20.9403571 8.9334308,20.8214487 Z M36.3440546,14.1776866 C36.7856725,14.0395774 37.2497076,14.2832421 37.3878168,14.7207665 C37.5267057,15.1581934 37.2839181,15.6256398 36.8463938,15.7645287 C34.4319688,16.5271992 29.5364522,19.0140413 29.4874269,19.0389926 C29.3667641,19.1004936 29.237037,19.1296359 29.1106238,19.1296359 C28.8078947,19.1296359 28.5151072,18.9633591 28.3679337,18.6755423 C28.160039,18.2656008 28.3230019,17.7648211 28.7322612,17.5569263 C28.938499,17.4521505 33.8006823,14.9819751 36.3440546,14.1776866 Z M8.9334308,15.8311953 C9.17875244,15.7655033 15.0149123,14.2301232 20.1506823,15.4352889 C20.5981481,15.5400647 20.8759259,15.9875306 20.7712476,16.4341193 C20.6664717,16.8815852 20.2164717,17.1585832 19.77154,17.0545871 C15.0390838,15.9442558 9.42007797,17.4222285 9.36432749,17.4380179 C9.29191033,17.4571213 9.21959064,17.466283 9.14805068,17.466283 C8.78118908,17.466283 8.44522417,17.2217411 8.3454191,16.8500062 C8.22651072,16.4058542 8.49015595,15.9501037 8.9334308,15.8311953 Z M36.3440546,9.18753061 C36.7856725,9.04942145 37.2497076,9.29308617 37.3878168,9.73061053 C37.5267057,10.1680374 37.2839181,10.6354838 36.8463938,10.7743727 C34.4319688,11.5370433 29.5364522,14.0238854 29.4874269,14.0488367 C29.3667641,14.1103376 29.237037,14.1394799 29.1106238,14.1394799 C28.8078947,14.1394799 28.5151072,13.9731057 28.3679337,13.6853864 C28.160039,13.2753474 28.3230994,12.7746651 28.7322612,12.5667704 C28.938499,12.4619945 33.8006823,9.99181911 36.3440546,9.18753061 Z"></path>
</svg>