<?xml version="1.0" encoding="utf-8"?>
<svg viewBox="-14.393 11.655 541.937 453.564" xmlns="http://www.w3.org/2000/svg">
  <g transform="matrix(1, 0, 0, 1, -93.424881, -41.557922)">
    <path d="m122.43 119.38h35.984v15.344c-0.082031 4.5469 1.6641 8.9375 4.8477 12.184 3.1836 3.2422 7.543 5.0742 12.09 5.0742s8.9023-1.832 12.09-5.0742c3.1836-3.2461 4.9297-7.6367 4.8438-12.184v-15.344h140.77v15.344c-0.085938 4.5469 1.6602 8.9375 4.8438 12.184 3.1875 3.2422 7.543 5.0742 12.09 5.0742s8.9062-1.832 12.09-5.0742c3.1875-3.2461 4.9336-7.6367 4.8477-12.184v-15.344h140.78v15.344c0 6.0508 3.2266 11.641 8.4688 14.668 5.2383 3.0273 11.695 3.0273 16.938 0 5.2422-3.0273 8.4688-8.6172 8.4688-14.668v-15.344h35.984c5.2578 0.003907 9.5195 4.2617 9.5273 9.5195v46.324h-474.2v-46.324c0.011718-5.2578 4.2734-9.5156 9.5312-9.5195zm455.14 353.53h-455.14c-5.2617-0.003906-9.5234-4.2695-9.5312-9.5312v-254.28h474.2v254.28c-0.007812 5.2578-4.2695 9.5234-9.5273 9.5312zm-455.14 33.867h455.14c11.508-0.015625 22.535-4.5898 30.672-12.727 8.1367-8.1367 12.711-19.168 12.727-30.672v-334.48c-0.015625-11.504-4.5898-22.535-12.727-30.672-8.1367-8.1367-19.164-12.711-30.672-12.727h-35.984v-15.348c0-6.0508-3.2266-11.645-8.4688-14.668-5.2422-3.0273-11.699-3.0273-16.938 0-5.2422 3.0234-8.4688 8.6172-8.4688 14.668v15.348h-140.78v-15.348c-0.11328-5.9727-3.3672-11.445-8.5586-14.402-5.1953-2.957-11.562-2.957-16.754 0-5.1953 2.957-8.4453 8.4297-8.5586 14.402v15.348h-140.77v-15.348c-0.10937-5.9727-3.3633-11.445-8.5586-14.402-5.1914-2.957-11.559-2.957-16.754 0-5.1914 2.957-8.4453 8.4297-8.5586 14.402v15.348h-35.984c-11.504 0.015625-22.535 4.5898-30.672 12.727s-12.715 19.164-12.73 30.672v334.48c0.015625 11.508 4.5938 22.535 12.73 30.672s19.168 12.711 30.672 12.727z" fill-rule="evenodd"/>
  </g>
</svg>