<svg viewBox="0 0 50 50" version="1.1" xmlns="http://www.w3.org/2000/svg" xmlns:xlink="http://www.w3.org/1999/xlink">
    <path d="M9.54430172,2.89209355 C10.8336226,2.89209355 12.0595342,3.43028872 13.08465,4.44336197 C13.7715832,5.07653276 14.43738,5.75191493 15.0714723,6.40619141 C15.3885184,6.74388249 15.7267009,7.08157358 16.0543152,7.40871182 L16.0543152,7.40871182 L18.9394348,10.2896389 C21.1587576,12.5057366 21.1587576,15.3761109 18.9394348,17.5922086 C18.6435251,17.8876883 18.3476154,18.1937209 18.0517057,18.4892006 C17.2696586,19.2806641 16.4664751,20.1037861 15.5998824,20.8952496 C16.2445429,22.3198838 17.132272,23.7234124 18.4532974,25.3907621 C21.179894,28.7360144 24.0227408,31.3214618 27.1509291,33.305397 C27.457407,33.4953482 27.8167259,33.6747466 28.1971812,33.8646978 C28.4613863,34.0018848 28.7361596,34.1390718 29.0109329,34.2868117 L29.0109329,34.2868117 L32.3504853,30.962665 C33.4178739,29.8968276 34.6649219,29.3375267 35.964811,29.3375267 C37.2752682,29.3375267 38.5117481,29.9073804 39.5368638,30.9732179 L39.5368638,30.9732179 L45.3388076,36.7878363 C46.4061962,37.8431209 46.966311,39.0989096 46.966311,40.4074626 C46.966311,41.7054627 46.4167644,42.9718043 45.3705123,44.0587475 C44.9160795,44.5336256 44.4510785,44.9873979 43.9966458,45.4200647 C43.3308489,46.0637883 42.6967567,46.6653005 42.1472101,47.3301299 C42.1366419,47.3512355 42.1155055,47.3617884 42.1049373,47.3828941 C40.4985704,49.1241137 38.4483388,50 36.0070838,50 C35.7957197,50 35.5632192,49.9894472 35.3412869,49.9788943 C31.7163931,49.7467317 28.4719545,48.3854145 26.0412677,47.2351542 C19.6792091,44.1642759 14.1097657,39.8059504 9.4808925,34.2868117 C5.66577096,29.7068763 3.10826567,25.4329735 1.39621667,20.8213796 C0.698715224,18.942973 -0.210150294,16.0725987 0.043486595,12.9911676 C0.212577854,11.0811024 0.984056724,9.43485833 2.3367868,8.08409399 L2.3367868,8.08409399 L5.92997606,4.46446767 C5.94054426,4.45391482 5.94054426,4.45391482 5.95111246,4.44336197 C7.00793283,3.43028872 8.25498087,2.89209355 9.54430172,2.89209355 Z M9.56543813,5.74136208 C9.02645974,5.74136208 8.47691315,6.00518325 7.95907117,6.49061418 L7.95907117,6.49061418 L4.3553137,10.0891348 C3.4781528,10.9650211 3.00258363,11.9886472 2.89690159,13.2233302 C2.73837854,15.1545011 3.09769746,17.2017533 4.08054041,19.8294121 C5.67633917,24.1349734 8.08588961,28.145055 11.6896471,32.4822749 C16.0543152,37.6848282 21.3067124,41.7898855 27.2883157,44.6813654 C29.4759339,45.7260972 32.3927581,46.9502274 35.5315146,47.1507315 C35.6900377,47.1612843 35.8591289,47.1612843 36.017652,47.1612843 C37.6662918,47.1612843 38.923908,46.6230891 39.9912966,45.4833817 C40.6465252,44.7130239 41.3440266,44.0270889 42.0309599,43.3728124 C42.4853926,42.9295929 42.9081208,42.5285847 43.3202807,42.0853652 L43.3202807,42.0853652 L43.4494102,41.9455965 C44.3963477,40.874481 44.3528823,39.813865 43.3097125,38.7823242 L43.3097125,38.7823242 L37.4866323,32.9677059 L37.4866323,32.9677059 L37.4654959,32.9466002 C37.1378816,32.5878034 36.5989032,32.1762424 35.9436746,32.1762424 C35.2778777,32.1762424 34.7071947,32.6089091 34.3478758,32.9677059 L34.3478758,32.9677059 L30.7335501,36.5767793 C30.5538907,36.7561777 30.0043441,37.3049257 29.1271832,37.3049257 C28.7784325,37.3049257 28.4402499,37.220503 28.080931,37.0411046 L28.080931,37.0411046 L27.9541126,36.9672347 C27.6476347,36.7772834 27.2883157,36.597885 26.9078604,36.4079338 C26.4851322,36.1968769 26.0412677,35.9752671 25.6079713,35.7008931 C22.215578,33.5586653 19.1402307,30.762161 16.2234065,27.1741932 L16.2234065,27.1741932 L16.2128383,27.1636403 C14.6064713,25.126941 13.5496509,23.4173798 12.7993085,21.6022903 C12.7887403,21.5706317 12.7781721,21.5389732 12.7676038,21.5073146 C12.5773762,20.9058024 12.4082849,20.0193633 13.3171504,19.1118185 C13.3277186,19.0907128 13.3488551,19.08016 13.3699915,19.0590543 C14.2894252,18.2359323 15.1348815,17.3917045 16.0226106,16.4841597 C16.3290885,16.18868 16.6249982,15.8826475 16.9314761,15.576615 C18.0517057,14.4580132 18.0517057,13.4238343 16.9314761,12.3052326 L16.9314761,12.3052326 L14.0463565,9.42430549 C13.708174,9.07606156 13.3699915,8.73837047 13.0423771,8.40067938 C12.3977167,7.73585006 11.7847609,7.11323212 11.1401005,6.51171987 C11.1295323,6.50116703 11.1189641,6.49061418 11.1083959,6.48006133 C10.7702133,6.14237025 10.231235,5.74136208 9.56543813,5.74136208 Z M25.8721764,10.2474275 C26.0095631,9.47706972 26.7387691,8.95998024 27.5208162,9.0866144 C30.8709368,9.65646811 33.9251477,11.2393951 36.3452663,13.6559969 C38.7653849,16.0725987 40.3506155,19.1223714 40.9212985,22.4676237 C41.0481169,23.2485343 40.530275,23.9872336 39.7482279,24.1138677 C39.6636823,24.1244206 39.5897048,24.1349734 39.5051592,24.1349734 C38.818226,24.1349734 38.2158384,23.6495425 38.0995881,22.9530546 C37.6240189,20.1882088 36.3241299,17.6766314 34.3161712,15.6715906 C32.3082125,13.6665498 29.79298,12.3579968 27.0241106,11.8936716 C26.2420636,11.7670374 25.7347898,11.0177853 25.8721764,10.2474275 Z M26.2737682,1.18253243 C26.4111548,0.412174639 27.1403609,-0.115467683 27.9118397,0.0217193208 C33.4284421,0.960922653 38.4483388,3.55692287 42.4431198,7.54589882 C46.4379008,11.5348748 49.0376789,16.5474768 49.9782491,22.0560627 C50.1156357,22.8264204 49.5872255,23.5651197 48.8157467,23.681201 C48.731201,23.6917539 48.6572236,23.7023067 48.572678,23.7023067 C47.8857447,23.7023067 47.2833571,23.2168758 47.1671069,22.5203879 C46.3322188,17.6027615 44.007214,13.1178017 40.4351611,9.55093964 C36.8631083,5.9946304 32.3716217,3.66245134 27.4468388,2.82877647 C26.6647917,2.69158947 26.1469497,1.96344306 26.2737682,1.18253243 Z"></path>
</svg>