<svg viewBox="0 0 30 30" xmlns="http://www.w3.org/2000/svg">
  <path fill-rule="evenodd" clip-rule="evenodd" d="M29.99 8.3576C29.9891 6.80901 28.7265 5.54877 27.1774 5.54877H23.0693L21.4524 2.31799C21.2931 2.0004 20.969 1.79999 20.6137 1.79999H9.36338C9.00814 1.79999 8.68311 2.0004 8.52472 2.31799L6.90966 5.54969L2.80804 5.55515C1.25981 5.55792 0 6.81914 0 8.36682V25.2392C0 26.7897 1.26165 28.0508 2.81258 28.0508H27.1874C28.7383 28.0508 30 26.7887 30 25.2374L29.99 8.3576ZM27.1875 26.1764H2.81263C2.29537 26.1764 1.87509 25.7563 1.87509 25.2392V8.36677C1.87509 7.85055 2.29531 7.43051 2.81079 7.42959L7.4911 7.4232C7.84634 7.42228 8.17045 7.22187 8.32884 6.9052L9.94297 3.67436H20.0342L21.6511 6.90514C21.8104 7.22273 22.1345 7.42314 22.4898 7.42314H27.1775C27.6939 7.42314 28.126 7.84324 28.126 8.3594V25.2383C28.1259 25.7553 27.7047 26.1764 27.1875 26.1764ZM15.0005 8.36264C10.8649 8.36264 7.50026 11.7273 7.50026 15.8629C7.50026 19.9985 10.865 23.3632 15.0005 23.3632C19.1361 23.3632 22.5008 19.9985 22.5008 15.8629C22.5008 11.7273 19.1361 8.36264 15.0005 8.36264ZM15.0005 21.4881C11.8986 21.4881 9.37535 18.9648 9.37535 15.8629C9.37535 12.761 11.8986 10.2378 15.0005 10.2378C18.1024 10.2378 20.6257 12.761 20.6257 15.8629C20.6257 18.9648 18.1024 21.4881 15.0005 21.4881Z" fill="white"/>
</svg>
