<svg viewBox="0 0 42 50" version="1.1" xmlns="http://www.w3.org/2000/svg" xmlns:xlink="http://www.w3.org/1999/xlink">
    <path d="M27.7932185,-1.42108547e-13 C31.5753806,-1.42108547e-13 34.6520518,3.07705189 34.6520518,6.85921402 L34.6520518,6.85921402 L34.6520518,30.8207756 C38.5769872,32.0920298 41.4233174,35.7820555 41.4233174,40.1254122 C41.4233174,45.5165351 37.0376998,49.9029141 31.6465768,49.9029141 C27.3332978,49.9029141 23.6638315,47.0946568 22.3689721,43.2108401 L22.3689721,43.2108401 L6.8588333,43.2108401 C3.07667119,43.2108401 0,40.1337882 0,36.3512454 L0,36.3512454 L0,6.85921402 C0,3.07705189 3.07667119,-1.42108547e-13 6.8588333,-1.42108547e-13 L6.8588333,-1.42108547e-13 L27.7932185,-1.42108547e-13 Z M31.6465768,33.2715283 C27.8678413,33.2715283 24.7938352,36.3459152 24.7938352,40.1254122 C24.7938352,43.9041477 27.8678413,46.9789152 31.6465768,46.9789152 C35.4253124,46.9789152 38.4993185,43.9041477 38.4993185,40.1254122 C38.4993185,36.3459152 35.4253124,33.2715283 31.6465768,33.2715283 Z M33.1146679,36.5895817 C33.6853808,36.0188689 34.6113137,36.0188689 35.1820266,36.5895817 C35.7531201,37.1606753 35.7531201,38.0862275 35.1820266,38.6569404 L35.1820266,38.6569404 L33.7139355,40.1250315 L35.1820266,41.5931226 C35.7527393,42.164216 35.7527393,43.0897683 35.1820266,43.6608618 C34.8964798,43.9464086 34.5222231,44.0891819 34.1483473,44.0891819 C33.7740906,44.0891819 33.3998341,43.9464086 33.1146679,43.6608618 L33.1146679,43.6608618 L31.6465768,42.1927707 L30.1784857,43.6608618 C29.892939,43.9464086 29.5186824,44.0891819 29.1448065,44.0891819 C28.7705499,44.0891819 28.3962932,43.9464086 28.1107464,43.6608618 C27.5400337,43.0897683 27.5400337,42.164216 28.1107464,41.5931226 L28.1107464,41.5931226 L29.5788375,40.1250315 L28.1107464,38.6569404 C27.5400337,38.0862275 27.5400337,37.1602946 28.1107464,36.5895817 C28.68184,36.0188689 29.607773,36.0188689 30.1784857,36.5895817 L30.1784857,36.5895817 L31.6465768,38.0576728 L33.1146679,36.5895817 Z M27.7932185,2.92399887 L6.8588333,2.92399887 C4.68905861,2.92399887 2.92399887,4.68943931 2.92399887,6.85921402 L2.92399887,6.85921402 L2.92399887,36.3512454 C2.92399887,38.5214007 4.68905861,40.2868413 6.8588333,40.2868413 L6.8588333,40.2868413 L21.87174,40.2868413 C21.8709785,40.2327777 21.8698363,40.1790949 21.8698363,40.1254122 C21.8698363,34.7335277 26.2554539,30.3475294 31.6465768,30.3475294 C31.6739893,30.3475294 31.7010211,30.3482909 31.7280529,30.3482909 L31.7280529,30.3482909 L31.7280529,6.85921402 C31.7280529,4.68943931 29.9629932,2.92399887 27.7932185,2.92399887 L27.7932185,2.92399887 Z M12.3405697,34.6337768 C13.148096,34.6337768 13.8025691,35.28825 13.8025691,36.0957762 C13.8025691,36.9029217 13.148096,37.5577757 12.3405697,37.5577757 L12.3405697,37.5577757 L7.5814569,37.5577757 C6.7743114,37.5577757 6.1194575,36.9029217 6.1194575,36.0957762 C6.1194575,35.28825 6.7743114,34.6337768 7.5814569,34.6337768 L7.5814569,34.6337768 L12.3405697,34.6337768 Z M27.1768181,15.8543178 C27.9843445,15.8543178 28.6388176,16.508791 28.6388176,17.3163172 C28.6388176,18.1234628 27.9843445,18.7783167 27.1768181,18.7783167 L27.1768181,18.7783167 L7.5814569,18.7783167 C6.7743114,18.7783167 6.1194575,18.1234628 6.1194575,17.3163172 C6.1194575,16.508791 6.7743114,15.8543178 7.5814569,15.8543178 L7.5814569,15.8543178 L27.1768181,15.8543178 Z M24.3590427,10.8366901 C25.1665689,10.8366901 25.8210421,11.491544 25.8210421,12.2986896 C25.8210421,13.1062158 25.1665689,13.760689 24.3590427,13.760689 L24.3590427,13.760689 L7.5814569,13.760689 C6.7739307,13.760689 6.1194575,13.1062158 6.1194575,12.2986896 C6.1194575,11.491544 6.7743114,10.8366901 7.5814569,10.8366901 L7.5814569,10.8366901 L24.3590427,10.8366901 Z M27.2830416,5.81944305 C28.0905678,5.81944305 28.745041,6.47391625 28.745041,7.28144248 C28.745041,8.088588 28.0905678,8.74344192 27.2830416,8.74344192 L27.2830416,8.74344192 L7.5814569,8.74344192 C6.7743114,8.74344192 6.1194575,8.088588 6.1194575,7.28144248 C6.1194575,6.47391625 6.7743114,5.81944305 7.5814569,5.81944305 L7.5814569,5.81944305 L27.2830416,5.81944305 Z"></path>
</svg>