<svg  viewBox="0 0 50 35" version="1.1" xmlns="http://www.w3.org/2000/svg" xmlns:xlink="http://www.w3.org/1999/xlink">
    <path d="M47.7340892,0 C48.983635,0 50,1.03127797 50,2.2996855 L50,32.2457689 C50,33.5137477 48.983635,34.5454545 47.7340892,34.5454545 L2.2663332,34.5454545 C1.01678737,34.5454545 0,33.5137477 0,32.2457689 L0,2.2996855 C0,1.03127797 1.01678737,0 2.2663332,0 L47.7340892,0 Z M47.0127259,2.7084601 L2.98768278,2.7084601 C2.83307122,2.7084601 2.70790939,2.8336472 2.70790939,2.9874721 L2.707,9.09 L47.2727273,9.0909091 L47.2727273,12.7272727 L2.707,12.727 L2.70790939,31.5579823 C2.70790939,31.7118072 2.83307122,31.8369945 2.98768278,31.8369945 L47.0127259,31.8369945 C47.1669284,31.8369945 47.2920902,31.7118072 47.2920902,31.5579823 L47.2920902,2.9874721 C47.2920902,2.8336472 47.1669284,2.7084601 47.0127259,2.7084601 Z M16.100853,23.4856351 C16.6342814,23.4856351 17.0658885,24.1046459 17.0658885,24.8683682 C17.0658885,25.6320904 16.6342814,26.2511013 16.100853,26.2511013 L6.48059126,26.2511013 C5.9471629,26.2511013 5.51596802,25.6320904 5.51596802,24.8683682 C5.51596802,24.1046459 5.9471629,23.4856351 6.48059126,23.4856351 L16.100853,23.4856351 Z M25.7223515,18.7811549 C26.2553677,18.7811549 26.6869746,19.4001658 26.6869746,20.163888 C26.6869746,20.9276103 26.2553677,21.5466212 25.7223515,21.5466212 L6.48059126,21.5466212 C5.9471629,21.5466212 5.51596802,20.9276103 5.51596802,20.163888 C5.51596802,19.4001658 5.9471629,18.7811549 6.48059126,18.7811549 L25.7223515,18.7811549 Z"></path>
</svg>