<svg viewBox="0 0 50 50" version="1.1" xmlns="http://www.w3.org/2000/svg" xmlns:xlink="http://www.w3.org/1999/xlink">
    <path d="M24.9710993,1 C28.975916,1 32.2375712,4.26614992 32.2375712,8.2764856 L32.2375712,8.2764856 L32.2375712,12.1627907 L41.7335283,12.1627907 C42.5592637,12.1627907 43.2611389,12.7416021 43.3849995,13.5684755 L43.3849995,13.5684755 L48.9174267,46.7674418 C48.9587134,46.9328166 49,47.098191 49,47.3049098 C49,48.2558138 48.2568382,49 47.3072427,49 L47.3072427,49 L2.67624318,49 C2.18080158,49 1.72664718,48.7932818 1.39635294,48.4211886 C1.06605918,48.0490955 0.942198542,47.5529714 1.02477198,47.0568477 L1.02477198,47.0568477 L6.55719966,13.5684755 C6.68105982,12.7416021 7.38293502,12.1627907 8.20867038,12.1627907 L8.20867038,12.1627907 L17.7046275,12.1627907 L17.7046275,8.2764856 C17.7046275,4.26614992 20.9662827,1 24.9710993,1 Z M17.7046275,15.5529717 L9.6537075,15.5529717 L4.65800814,45.6511629 L45.2841905,45.6511629 L40.2884917,15.5529717 L32.2375712,15.5529717 L32.2375712,25.0206717 C32.2375712,25.9715762 31.4944093,26.7157624 30.5448133,26.7157624 C29.5952177,26.7157624 28.8520558,25.9715762 28.8520558,25.0206717 L28.8520558,25.0206717 L28.8520558,15.5529717 L21.0901429,15.5529717 L21.0901429,25.0206717 C21.0901429,25.9715762 20.3469809,26.7157624 19.3973854,26.7157624 C18.4477894,26.7157624 17.7046275,25.9715762 17.7046275,25.0206717 L17.7046275,25.0206717 L17.7046275,15.5529717 Z M24.9710993,4.39018096 C22.8241875,4.39018096 21.0901429,6.12661504 21.0901429,8.2764856 L21.0901429,8.2764856 L21.0901429,12.1627907 L28.8520558,12.1627907 L28.8520558,8.2764856 C28.8520558,6.12661504 27.1180117,4.39018096 24.9710993,4.39018096 Z"></path>
</svg>