<svg viewBox="0 0 41 50" version="1.1" xmlns="http://www.w3.org/2000/svg" xmlns:xlink="http://www.w3.org/1999/xlink">
    <path d="M20.4589844,0 C27.3535156,0 32.9589844,5.60546875 32.9589844,12.5 L32.958,18.75 L36.2304688,18.75 C38.7464735,18.75 40.800947,20.7345845 40.9131431,23.2230073 L40.9179688,23.4375 L40.9179688,36.7285156 L40.9085631,36.8684913 C40.8209153,37.65197 40.1578776,38.2617188 39.3554688,38.2617188 C38.5058594,38.2617188 37.8125,37.578125 37.7929688,36.7285156 L37.7929688,36.7285156 L37.7929688,23.4375 C37.7929688,22.578125 37.0898438,21.875 36.2304688,21.875 L36.2304688,21.875 L4.6875,21.875 C3.828125,21.875 3.125,22.578125 3.125,23.4375 L3.125,23.4375 L3.125,45.3125 C3.125,46.171875 3.828125,46.875 4.6875,46.875 L4.6875,46.875 L36.2304688,46.875 C37.0898438,46.875 37.7929688,46.171875 37.7929688,45.3125 L37.7929688,45.3125 L37.7929688,42.5 L37.8027344,42.5 C37.8613281,41.6894531 38.5351562,41.0546875 39.3554688,41.0546875 C40.1757812,41.0546875 40.8496094,41.6894531 40.9082031,42.5 L40.9082031,42.5 L40.9179688,42.5 L40.9179688,45.3125 C40.9179688,47.9003906 38.8183594,50 36.2304688,50 L36.2304688,50 L4.6875,50 C2.09960937,50 0,47.9003906 0,45.3125 L0,45.3125 L0,23.4375 C0,20.8496094 2.09960937,18.75 4.6875,18.75 L4.6875,18.75 L7.958,18.75 L7.9589844,12.5 C7.9589844,5.60546875 13.5644531,0 20.4589844,0 Z M31.4941406,31.5429687 C32.5728218,31.5429687 33.4472656,32.4174126 33.4472656,33.4960938 C33.4472656,34.5747749 32.5728218,35.4492188 31.4941406,35.4492188 C30.4154595,35.4492188 29.5410156,34.5747749 29.5410156,33.4960938 C29.5410156,32.4174126 30.4154595,31.5429687 31.4941406,31.5429687 Z M16.7480469,31.5429687 C17.826728,31.5429687 18.7011719,32.4174126 18.7011719,33.4960938 C18.7011719,34.5747749 17.826728,35.4492188 16.7480469,35.4492188 C15.6693657,35.4492188 14.7949219,34.5747749 14.7949219,33.4960938 C14.7949219,32.4174126 15.6693657,31.5429687 16.7480469,31.5429687 Z M9.4238281,31.5429687 C10.5025093,31.5429687 11.3769531,32.4174126 11.3769531,33.4960938 C11.3769531,34.5747749 10.5025093,35.4492188 9.4238281,35.4492188 C8.345147,35.4492188 7.4707031,34.5747749 7.4707031,33.4960938 C7.4707031,32.4174126 8.345147,31.5429687 9.4238281,31.5429687 Z M24.0722656,31.5429687 C25.1509468,31.5429687 26.0253906,32.4174126 26.0253906,33.4960938 C26.0253906,34.5747749 25.1509468,35.4492188 24.0722656,35.4492188 C22.9935845,35.4492188 22.1191406,34.5747749 22.1191406,33.4960938 C22.1191406,32.4174126 22.9935845,31.5429687 24.0722656,31.5429687 Z M20.4589844,3.125 C15.2929688,3.125 11.0839844,7.33398437 11.0839844,12.5 L11.083,18.75 L29.833,18.75 L29.8339844,12.5 C29.8339844,7.33398437 25.625,3.125 20.4589844,3.125 Z"></path>
</svg>