<svg  viewBox="0 0 48 48" version="1.1" xmlns="http://www.w3.org/2000/svg" xmlns:xlink="http://www.w3.org/1999/xlink">
    <g  transform="translate(-1.000000, -1.000000)">
        <path d="M36.00625,1 L13.99375,1 C6.83125,1 1,6.83125 1,13.99375 L1,36.00625 C1,43.16875 6.83125,49 13.99375,49 L36.00625,49 C43.16875,49 49,43.16875 49,36.00625 L49,13.99375 C49,6.83125 43.16875,1 36.00625,1 Z M46.1875,36.00625 C46.1875,41.621875 41.621875,46.1875 36.00625,46.1875 L13.99375,46.1875 C8.378125,46.1875 3.8125,41.621875 3.8125,36.00625 L3.8125,13.99375 C3.8125,8.378125 8.378125,3.8125 13.99375,3.8125 L36.00625,3.8125 C41.621875,3.8125 46.1875,8.378125 46.1875,13.99375 L46.1875,36.00625 Z" ></path>
        <path d="M36.2984724,14.6230059 L19.7297297,30.8597967 L13.6839013,24.8686814 C12.8378378,24.0351349 11.480611,24.0351349 10.6345476,24.8686814 C9.78848414,25.7022279 9.78848414,27.0393754 10.6345476,27.8729218 L18.213866,35.3748401 C18.6368978,35.7916134 19.1833137,36 19.7473561,36 C20.293772,36 20.840188,35.7916134 21.2632197,35.3748401 L39.3654524,17.6446119 C40.2115159,16.8110655 40.2115159,15.473918 39.3654524,14.6403715 C38.5017626,13.7894595 37.1445358,13.7894595 36.2984724,14.6230059 Z"></path>
    </g>
</svg>