<svg  viewBox="0 0 48 48" version="1.1" xmlns="http://www.w3.org/2000/svg" xmlns:xlink="http://www.w3.org/1999/xlink">
    <path d="M35.00625,0 L12.99375,0 C5.83125,0 0,5.83125 0,12.99375 L0,35.00625 C0,42.16875 5.83125,48 12.99375,48 L35.00625,48 C42.16875,48 48,42.16875 48,35.00625 L48,12.99375 C48,5.83125 42.16875,0 35.00625,0 Z M45.1875,35.00625 C45.1875,40.621875 40.621875,45.1875 35.00625,45.1875 L12.99375,45.1875 C7.378125,45.1875 2.8125,40.621875 2.8125,35.00625 L2.8125,12.99375 C2.8125,7.378125 7.378125,2.8125 12.99375,2.8125 L35.00625,2.8125 C40.621875,2.8125 45.1875,7.378125 45.1875,12.99375 L45.1875,35.00625 Z"></path>
</svg>