<svg viewBox="0 0 50 50" version="1.1" xmlns="http://www.w3.org/2000/svg" xmlns:xlink="http://www.w3.org/1999/xlink">
    <path d="M9.3327073,6.57091346 L24.9477576,22.186 L40.5640524,6.57091346 C41.3252704,5.80969551 42.559395,5.80969551 43.320613,6.57091346 C44.0818309,7.33213141 44.0818309,8.56625595 43.320613,9.32794975 L27.7037576,24.943 L43.320613,40.5592949 C44.0818309,41.3205128 44.0818309,42.5546374 43.320613,43.3158553 C42.9385767,43.6955128 42.4399789,43.8877204 41.9437601,43.8877204 C41.4446865,43.8877204 40.9460887,43.6978916 40.5664313,43.3158553 L24.9477576,27.699 L9.3327073,43.3158553 C8.95067101,43.6955128 8.45159753,43.8877204 7.95299977,43.8877204 C7.45392628,43.8877204 6.95485279,43.6978916 6.57567101,43.3158553 C5.81445306,42.5546374 5.81445306,41.3205128 6.57567101,40.5592949 L22.1917576,24.942 L6.57567101,9.32794975 C5.81445306,8.56625595 5.81445306,7.33213141 6.57567101,6.57091346 C7.33688896,5.80969551 8.57101362,5.80969551 9.3327073,6.57091346 Z"></path>
</svg>