<svg  viewBox="0 0 32 21" version="1.1" xmlns="http://www.w3.org/2000/svg" xmlns:xlink="http://www.w3.org/1999/xlink">
    <g id="Page-1" stroke="none" stroke-width="1" fill="none" fill-rule="evenodd">
        <g id="trash" transform="translate(-53.000000, 0.000000)" fill-rule="nonzero">
            <g id="color-visa" transform="translate(53.000000, 0.000000)">
                <path d="M32,19.1999082 C32,20.1940713 31.153125,21 30.1084375,21 L1.8915625,21 C0.846875002,21 0,20.1940713 0,19.1999082 L0,1.80003228 C0,0.805869207 0.846875002,0 1.8915625,0 L30.1084375,0 C31.1531875,0 32,0.80592868 32,1.80003228 L32,19.1999082 L32,19.1999082 Z" id="Path" fill="#FFFFFF"></path>
                <path d="M7,11 L6.27698525,6.77829671 C6.15339555,6.19611141 5.79375256,6.02291261 5.34437923,6 L2.02952922,6 L2,6.19289049 C4.58179172,6.95471648 6.290096,8.7925567 7,11 Z" id="Path" fill="#FF7058"></path>
                <g id="Group" fill="#27A2DB">
                    <polygon id="Path" points="15.084625 6.82934569 12.8588125 6.82934569 11.4686875 14.7960815 13.6908125 14.7960815"></polygon>
                    <path d="M8.4590625,14.7880859 L11.9596875,6.83477784 L9.604,6.83477784 L7.42631251,12.2686157 L7.19387501,11.4481812 C6.767,10.4611817 5.547,9.04058838 4.11474998,8.14630128 L6.10537501,14.7907715 L8.4590625,14.7880859 Z" id="Path"></path>
                    <path d="M21.4331875,12.1917725 C21.4414375,11.2872925 20.84675,10.5974121 19.56525,10.0275879 C18.7864375,9.65954591 18.31175,9.41412353 18.3174375,9.04064941 C18.3174375,8.71069337 18.7194375,8.35626222 19.5904375,8.35626222 C20.31925,8.34533691 20.844,8.50073244 21.2544375,8.66162109 L21.4555625,8.75164794 L21.7571875,7.02575684 C21.316,6.86480712 20.6263125,6.69305419 19.76375,6.69305419 C17.5664375,6.69305419 16.01975,7.77282716 16.00575,9.32147216 C15.99175,10.4666748 17.1115,11.1046753 17.9545625,11.4863281 C18.82,11.8753662 19.110375,12.1243286 19.1048125,12.4733276 C19.09925,13.006958 18.415125,13.2503052 17.7758125,13.2503052 C16.8851875,13.2503052 16.4133125,13.1303711 15.6815,12.8326416 L15.397125,12.7050781 L15.08475,14.4902954 C15.6036875,14.711792 16.564,14.9053955 17.560875,14.9134522 C19.8975625,14.9134522 21.4164375,13.8474121 21.4331875,12.1917725 Z" id="Path"></path>
                    <path d="M24.0770625,13.6019898 C24.331125,13.6019898 26.6009375,13.6047363 26.9249375,13.6047363 C26.9919375,13.8821411 27.19575,14.7988892 27.19575,14.7988892 L29.2589375,14.7988892 L27.458125,6.83758544 L25.741125,6.83758544 C25.2078125,6.83758544 24.8115,6.97937013 24.576875,7.49731444 L21.2740625,14.7988892 L23.6110625,14.7988892 C23.610875,14.7988892 23.9905,13.8175049 24.0770625,13.6019898 Z M25.601375,9.74395753 C25.590375,9.76574706 25.78575,9.28320313 25.8974375,8.98327638 L26.048125,9.67028809 C26.048125,9.67028809 26.472625,11.5734863 26.561875,11.9715576 L24.716375,11.9715576 C24.9006875,11.5135498 25.601375,9.74395753 25.601375,9.74395753 Z" id="Shape"></path>
                    <path d="M30.1084375,0.0275268555 L1.8915625,0.0275268555 C0.846875002,0.0275268555 0,0.854553222 0,1.87481689 L0,3.79205322 L32,3.79205322 L32,1.87481689 C32,0.854553222 31.1531875,0.0275268555 30.1084375,0.0275268555 Z" id="Path"></path>
                </g>
                <path d="M30.1084375,21 L1.8915625,21 C0.846875002,21 0,20.1211777 0,19.0371607 L0,17 L32,17 L32,19.0371607 C32,20.1211777 31.1531875,21 30.1084375,21 Z" id="Path" fill="#FFD15C"></path>
            </g>
        </g>
    </g>
</svg>