<svg viewBox="0 0 43 50" fill="none" xmlns="http://www.w3.org/2000/svg">
<path d="M9.06859 49.0015C8.7569 48.8788 8.43172 48.7867 8.13599 48.6295C7.04632 48.0516 6.40332 47.126 6.29902 45.8514C6.24625 45.2058 6.2892 44.5526 6.2892 43.8456C5.28052 43.8456 4.35038 43.8392 3.42147 43.8481C2.67662 43.8558 2.00048 43.6474 1.40043 43.1897C0.423657 42.4431 -0.000920326 41.4165 0.000306775 40.1739C0.00153388 38.0364 0.000306775 35.9001 0.000306775 33.7625C0.000306775 24.4491 -0.000920326 15.1357 0.00153388 5.82225C0.00153388 4.08102 0.834736 2.75783 2.28149 2.27842C2.70852 2.13651 3.18218 2.09432 3.63498 2.09304C11.0896 2.08282 18.5443 2.08793 25.9989 2.07387C26.2799 2.07387 26.6063 1.97543 26.837 1.80923C32.7971 -2.47737 41.0174 1.2595 41.912 8.74732C42.4151 12.9623 40.8076 16.2748 37.3999 18.6105C37.0723 18.8355 36.9606 19.049 36.9667 19.4427C36.9901 20.7659 36.9729 22.0904 36.9766 23.4136C36.9778 23.8815 36.8391 24.2701 36.406 24.467C35.7924 24.7457 35.1543 24.288 35.1433 23.5504C35.1273 22.4662 35.1384 21.3821 35.1384 20.2967C35.1384 20.1229 35.1384 19.949 35.1384 19.7035C33.6769 20.1101 32.2314 20.2175 30.7171 19.9771C30.7171 20.2379 30.7171 20.4412 30.7171 20.6432C30.7171 27.1185 30.7183 33.5925 30.7159 40.0678C30.7159 41.864 29.8667 43.2012 28.3856 43.6692C27.9696 43.8008 27.5132 43.8379 27.0751 43.8379C20.9518 43.8481 14.8286 43.8456 8.70659 43.8456C8.52621 43.8456 8.3446 43.8456 8.15685 43.8456C8.15685 44.5653 8.09918 45.2531 8.17403 45.923C8.24398 46.5456 8.85507 47.0212 9.47967 47.08C9.61587 47.0928 9.75454 47.0877 9.8932 47.0877C17.7 47.0877 25.5068 47.0877 33.3137 47.0877C34.5763 47.0877 35.1396 46.5047 35.1408 45.1969C35.142 41.0023 35.1408 36.8078 35.1408 32.6145C35.1408 31.7247 35.439 31.2951 36.0538 31.2964C36.6612 31.2977 36.9778 31.7477 36.9778 32.6183C36.9778 36.6531 36.9778 40.6878 36.9778 44.7226C36.9778 47.2513 36.3826 48.1526 34.1481 49.0015C25.7866 49.0015 17.4276 49.0015 9.06859 49.0015ZM24.6577 4.00048C24.4 4.00048 24.2368 4.00048 24.0748 4.00048C22.6661 4.00048 21.2586 4.00048 19.8499 4.00048C14.4163 4.00048 8.98269 4.00048 3.54908 4.00048C2.72815 4.00048 2.15632 4.34438 1.94894 5.01044C1.86182 5.2917 1.84096 5.60492 1.84096 5.90407C1.83605 17.2732 1.83605 28.6437 1.83728 40.0128C1.83728 40.1407 1.8336 40.2685 1.84219 40.3951C1.906 41.3181 2.50973 41.9266 3.4006 41.9266C11.3755 41.9305 19.3492 41.9305 27.3242 41.9266C28.0359 41.9266 28.6163 41.506 28.7906 40.854C28.863 40.583 28.8752 40.2864 28.8752 40.0026C28.8801 33.3215 28.8789 26.6391 28.8789 19.9579C28.8789 19.8621 28.9022 19.7572 28.8728 19.6729C28.8298 19.554 28.7697 19.3916 28.6764 19.3494C26.8027 18.5235 25.3289 17.2042 24.2319 15.4706C23.9349 15.5141 23.6674 15.5882 23.4011 15.5882C18.0436 15.5946 12.6873 15.5946 7.32978 15.5921C6.49658 15.5921 6.16404 15.2443 6.16036 14.3724C6.15545 13.2564 6.15913 12.1403 6.15913 11.0242C6.15913 9.90942 6.41927 9.63583 7.48195 9.63583C12.3646 9.63583 17.2472 9.63583 22.1299 9.63583C22.3225 9.63583 22.5152 9.63583 22.725 9.63583C22.8232 7.54303 23.4784 5.72125 24.6577 4.00048ZM24.5607 10.0539C24.5571 14.5386 28.0371 18.1809 32.3369 18.1924C36.6538 18.2039 40.1732 14.5553 40.1793 10.0616C40.1854 5.59852 36.6784 1.93324 32.3897 1.91918C28.0703 1.90511 24.5644 5.54866 24.5607 10.0539ZM22.6906 11.597C17.7884 11.597 12.9094 11.597 8.0231 11.597C8.0231 12.3039 8.0231 12.9662 8.0231 13.6552C12.9205 13.6552 17.7908 13.6552 22.6906 13.6552C22.6906 12.9636 22.6906 12.2873 22.6906 11.597Z" fill="#EE346E"/>
<path d="M35.1426 27.8903C35.1476 27.361 35.5415 26.9558 36.0482 26.957C36.5661 26.957 36.987 27.407 36.9661 27.9376C36.9465 28.449 36.5195 28.8632 36.0262 28.8517C35.5267 28.8389 35.1365 28.4145 35.1426 27.8903Z" fill="#EE346E"/>
<path d="M15.3152 29.9041C12.699 29.9041 10.0816 29.9041 7.46544 29.9028C7.29733 29.9028 7.12799 29.9066 6.9611 29.8836C6.50462 29.8197 6.18189 29.4438 6.1684 28.9772C6.1549 28.5144 6.4629 28.113 6.91325 28.0286C7.0924 27.9953 7.27892 27.9928 7.46176 27.9915C12.726 27.9902 17.9903 27.9902 23.2533 27.9902C24.1209 27.9902 24.5626 28.3277 24.5479 28.9734C24.5332 29.6023 24.1172 29.9028 23.257 29.9028C20.6089 29.9041 17.9621 29.9041 15.3152 29.9041Z" fill="#EE346E"/>
<path d="M15.3283 20.835C12.7121 20.835 10.0947 20.835 7.47854 20.835C7.34111 20.835 7.20244 20.8414 7.06624 20.8286C6.52876 20.7762 6.16432 20.3837 6.168 19.8685C6.17168 19.3559 6.54349 18.9698 7.08096 18.9302C7.23312 18.9187 7.38651 18.9225 7.5399 18.9225C12.7588 18.9225 17.9764 18.9225 23.1953 18.9225C23.3781 18.9225 23.5634 18.9187 23.745 18.9417C24.2039 18.9979 24.5291 19.3674 24.5475 19.8353C24.5672 20.3045 24.2763 20.7021 23.8199 20.798C23.6419 20.835 23.4554 20.8338 23.2726 20.835C20.6233 20.835 17.9764 20.835 15.3283 20.835Z" fill="#EE346E"/>
<path d="M15.3456 34.4513C12.6828 34.4513 10.0199 34.4526 7.35713 34.4488C7.1608 34.4488 6.95587 34.4347 6.7718 34.3734C6.36809 34.2366 6.13494 33.8326 6.17421 33.4069C6.21593 32.9607 6.54234 32.6066 6.97059 32.5477C7.0614 32.535 7.15343 32.5401 7.24547 32.5401C12.6484 32.5401 18.0501 32.5401 23.453 32.5401C23.5291 32.5401 23.6064 32.5375 23.6825 32.5439C24.1635 32.5861 24.5157 32.9504 24.5439 33.435C24.5721 33.9182 24.2641 34.3388 23.7917 34.4296C23.6285 34.4616 23.4567 34.4526 23.2886 34.4526C20.6405 34.4526 17.9936 34.4513 15.3456 34.4513Z" fill="#EE346E"/>
<path d="M15.3543 25.3686C12.7221 25.3686 10.09 25.3686 7.45788 25.3686C7.30449 25.3686 7.1511 25.3762 6.99894 25.3596C6.52896 25.3072 6.17924 24.9109 6.16819 24.4327C6.15837 23.9789 6.47374 23.5634 6.91672 23.4777C7.07993 23.4458 7.25172 23.456 7.41984 23.4547C12.7148 23.4535 18.0097 23.4535 23.3059 23.4547C23.4593 23.4547 23.6139 23.4458 23.7636 23.4701C24.2348 23.5481 24.56 23.9597 24.5465 24.4404C24.5318 24.9237 24.1857 25.3085 23.7108 25.3596C23.5746 25.3737 23.436 25.3673 23.2985 25.3673C20.6504 25.3686 18.0024 25.3686 15.3543 25.3686Z" fill="#EE346E"/>
<path d="M31.4569 12.0546C31.4569 11.0191 31.452 9.98481 31.4582 8.94928C31.4631 8.27171 31.8054 7.86261 32.3527 7.85366C32.8939 7.84471 33.2853 8.26404 33.289 8.91987C33.2988 11.0216 33.2988 13.1247 33.289 15.2264C33.2853 15.8925 32.9123 16.2965 32.3589 16.2926C31.8054 16.2888 31.4631 15.8861 31.4582 15.2085C31.452 14.1564 31.4569 13.1055 31.4569 12.0546Z" fill="#EE346E"/>
<path d="M32.3808 4.78035C32.8802 4.78674 33.2827 5.21246 33.279 5.73023C33.2753 6.24416 32.863 6.67755 32.3722 6.68395C31.8617 6.68906 31.4482 6.24288 31.4592 5.69827C31.4715 5.169 31.8691 4.77396 32.3808 4.78035Z" fill="#EE346E"/>
</svg>
