<svg  viewBox="0 0 20 12" version="1.1" xmlns="http://www.w3.org/2000/svg" xmlns:xlink="http://www.w3.org/1999/xlink">
    <g transform="translate(0.000000, 0.013867)">
        <path d="M19.3548438,-1.15463195e-14 L4.51613281,-1.15463195e-14 L4.51613281,0.322578125 C4.51613281,0.500898437 4.37183594,0.64515625 4.19355469,0.64515625 C4.01523438,0.64515625 3.87097656,0.500859375 3.87097656,0.322578125 L3.87097656,-1.15463195e-14 L0.64515625,-1.15463195e-14 C0.288867187,-1.15463195e-14 0,0.288828125 0,0.64515625 L0,3.48488281 C0,3.6475 0.0799609375,3.80203125 0.218242187,3.88757812 C0.861171875,4.28523437 1.2903125,4.99488281 1.2903125,5.80644531 C1.2903125,6.61796875 0.861171875,7.32765625 0.218242187,7.7253125 C0.0799609375,7.81085937 0,7.96542969 0,8.12800781 L0,10.9677344 C0,11.3240234 0.288867187,11.6128906 0.64515625,11.6128906 L3.87097656,11.6128906 L3.87097656,11.2903125 C3.87097656,11.1119922 4.01527344,10.9677344 4.19355469,10.9677344 C4.371875,10.9677344 4.51613281,11.1120312 4.51613281,11.2903125 L4.51613281,11.6128906 L19.3548438,11.6128906 C19.7111328,11.6128906 20,11.3240234 20,10.9677344 L20,0.64515625 C20,0.288828125 19.7111328,-1.15463195e-14 19.3548438,-1.15463195e-14 Z M4.51613281,10 C4.51613281,10.1783203 4.37183594,10.3225781 4.19355469,10.3225781 C4.01523438,10.3225781 3.87097656,10.1782812 3.87097656,10 L3.87097656,9.35484375 C3.87097656,9.17652344 4.01527344,9.03226562 4.19355469,9.03226562 C4.371875,9.03226562 4.51613281,9.1765625 4.51613281,9.35484375 L4.51613281,10 Z M4.51613281,8.06449219 C4.51613281,8.2428125 4.37183594,8.38707031 4.19355469,8.38707031 C4.01523438,8.38707031 3.87097656,8.24277344 3.87097656,8.06449219 L3.87097656,7.41933594 C3.87097656,7.24101562 4.01527344,7.09675781 4.19355469,7.09675781 C4.371875,7.09675781 4.51613281,7.24105469 4.51613281,7.41933594 L4.51613281,8.06449219 Z M4.51613281,6.12902344 C4.51613281,6.30734375 4.37183594,6.45160156 4.19355469,6.45160156 C4.01523438,6.45160156 3.87097656,6.30730469 3.87097656,6.12902344 L3.87097656,5.48386719 C3.87097656,5.30554687 4.01527344,5.16128906 4.19355469,5.16128906 C4.371875,5.16128906 4.51613281,5.30558594 4.51613281,5.48386719 L4.51613281,6.12902344 Z M4.51613281,4.19355469 C4.51613281,4.371875 4.37183594,4.51613281 4.19355469,4.51613281 C4.01523438,4.51613281 3.87097656,4.37183594 3.87097656,4.19355469 L3.87097656,3.54839844 C3.87097656,3.37007812 4.01527344,3.22582031 4.19355469,3.22582031 C4.371875,3.22582031 4.51613281,3.37011719 4.51613281,3.54839844 L4.51613281,4.19355469 Z M4.51613281,2.25804687 C4.51613281,2.43636719 4.37183594,2.580625 4.19355469,2.580625 C4.01523438,2.580625 3.87097656,2.43632812 3.87097656,2.25804687 L3.87097656,1.61289062 C3.87097656,1.43457031 4.01527344,1.2903125 4.19355469,1.2903125 C4.371875,1.2903125 4.51613281,1.43460937 4.51613281,1.61289062 L4.51613281,2.25804687 Z"  fill="#FE2C6D"></path>
        <path d="M19.0322656,10.9677344 L5.48386719,10.9677344 C5.30570313,10.9677344 5.16128906,10.8233203 5.16128906,10.6451562 L5.16128906,0.967734375 C5.16128906,0.789570312 5.30570313,0.64515625 5.48386719,0.64515625 L19.0322656,0.64515625 C19.2104297,0.64515625 19.3548438,0.789570312 19.3548438,0.967734375 L19.3548438,10.6451562 C19.3548438,10.8233203 19.2104297,10.9677344 19.0322656,10.9677344 Z"  fill="#FAF8F4" fill-rule="nonzero" opacity="0.189429874"></path>
        <path d="M11.9911719,8.03566406 L10.3191406,9.08535156 C9.95066406,9.31667969 9.48824219,8.98074219 9.594375,8.55878906 L10.0760156,6.64421875 L8.56101563,5.37839844 C8.22710938,5.09941406 8.40375,4.55582031 8.83785156,4.52640625 L10.8075391,4.39285156 L11.5432422,2.56082031 C11.7053906,2.15707031 12.2769531,2.15707031 12.4391016,2.56082031 L13.1748047,4.39285156 L15.1444922,4.52640625 C15.5785938,4.55585938 15.7552344,5.09945313 15.4213281,5.37839844 L13.9063281,6.64421875 L14.3879688,8.55878906 C14.4941016,8.98074219 14.0317188,9.31671875 13.6632031,9.08535156 L11.9911719,8.03566406 Z"  fill="#FFFFFF" fill-rule="nonzero"></path>
        <path d="M14.178125,7.72484375 C12.0878516,7.59707031 10.3156641,6.30316406 9.50585938,4.48113281 L8.83785156,4.52640625 C8.40375,4.55585938 8.22710938,5.09945313 8.56101563,5.37839844 L10.0760156,6.64421875 L9.59433594,8.55878906 C9.48820313,8.98074219 9.95058594,9.31667969 10.3191016,9.08535156 L11.9911328,8.03566406 L13.663125,9.08535156 C14.0316016,9.31667969 14.4940234,8.98074219 14.3878516,8.55878906 L14.178125,7.72484375 Z"  fill="#FFE8EF" fill-rule="nonzero"></path>
    </g>
</svg>