<svg  viewBox="0 0 56 58" fill="none" xmlns="http://www.w3.org/2000/svg">
<g clip-path="url(#clip0_3287_88279)">
<path d="M56 39.9377V29.2856C56 26.405 53.7025 24.0664 50.8726 24.0664H5.12742C2.29753 24.0664 0 26.4003 0 29.2856V39.9377H56Z" fill="#FFEFAE"/>
<path d="M44.7925 30.8018C41.9953 30.8018 41.9953 33.9104 39.1935 33.9104C36.3916 33.9104 36.3916 30.8018 33.5944 30.8018C30.7972 30.8018 30.7972 33.9104 27.9953 33.9104C25.1935 33.9104 25.1935 30.8018 22.3963 30.8018C19.5944 30.8018 19.5944 33.9104 16.7972 33.9104C14 33.9104 14 30.8018 11.1981 30.8018C8.40093 30.8018 8.40093 33.9104 5.59907 33.9104C2.80187 33.9104 2.80187 30.8018 0 30.8018V52.3153C0 55.4572 1.9006 58.005 4.24016 58.005H51.7552C54.0994 58.005 55.9953 55.4572 55.9953 52.3153V30.8018C53.1935 30.8018 53.1935 33.9104 50.3916 33.9104C47.5944 33.9104 47.5944 30.8018 44.7925 30.8018Z" fill="#FA376F"/>
<path d="M50.3963 35.2031C48.435 35.2031 47.4076 34.0623 46.6558 33.2305C45.9646 32.4652 45.5957 32.0945 44.7925 32.0945C43.9893 32.0945 43.6204 32.4605 42.934 33.2305C42.1821 34.0623 41.1548 35.2031 39.1981 35.2031C37.2368 35.2031 36.2095 34.0623 35.4576 33.2305C34.7665 32.4652 34.4023 32.0945 33.5944 32.0945C32.7912 32.0945 32.4223 32.4605 31.7312 33.2305C30.9793 34.0623 29.952 35.2031 27.9953 35.2031C26.034 35.2031 25.0067 34.0623 24.2595 33.2305C23.5684 32.4652 23.2041 32.0945 22.3963 32.0945C21.5931 32.0945 21.2242 32.4605 20.533 33.2305C19.7812 34.0623 18.7538 35.2031 16.7972 35.2031C14.8406 35.2031 13.8085 34.0623 13.0614 33.2305C12.3702 32.4652 12.006 32.0945 11.1981 32.0945C10.3949 32.0945 10.026 32.4605 9.33489 33.2305C8.58306 34.0623 7.5557 35.2031 5.59907 35.2031C3.63776 35.2031 2.61041 34.0623 1.86324 33.2305C1.17211 32.4652 0.803202 32.0945 0 32.0945V29.5039C1.96131 29.5039 2.98866 30.6447 3.73582 31.4765C4.42695 32.2418 4.79119 32.6126 5.59907 32.6126C6.40227 32.6126 6.77118 32.2466 7.46231 31.4765C8.21414 30.6447 9.24149 29.5039 11.1981 29.5039C13.1548 29.5039 14.1868 30.6447 14.934 31.4765C15.6251 32.2418 15.9893 32.6126 16.7972 32.6126C17.6004 32.6126 17.9693 32.2466 18.6604 31.4765C19.4123 30.6447 20.4396 29.5039 22.3963 29.5039C24.3576 29.5039 25.3849 30.6447 26.1321 31.4765C26.8232 32.2418 27.1875 32.6126 27.9953 32.6126C28.7985 32.6126 29.1674 32.2466 29.8539 31.4765C30.6057 30.6447 31.6331 29.5039 33.5897 29.5039C35.551 29.5039 36.5784 30.6447 37.3256 31.4765C38.0167 32.2418 38.3809 32.6126 39.1888 32.6126C39.992 32.6126 40.3609 32.2466 41.052 31.4765C41.8039 30.6447 42.8312 29.5039 44.7879 29.5039C46.7492 29.5039 47.7765 30.6447 48.5284 31.4765C49.2195 32.2418 49.5884 32.6126 50.3916 32.6126C51.1948 32.6126 51.5637 32.2466 52.2548 31.4765C53.0067 30.6447 54.034 29.5039 55.9953 29.5039V32.0945C55.1921 32.0945 54.8232 32.4605 54.1321 33.2305C53.3849 34.0623 52.3576 35.2031 50.3963 35.2031Z" fill="white"/>
<path d="M20.3641 26.1382C19.2387 26.1382 18.3281 25.2113 18.3281 24.0657V11.631C18.3281 10.4855 19.2387 9.55859 20.3641 9.55859C21.4896 9.55859 22.4002 10.4855 22.4002 11.631V24.0657C22.4002 25.2113 21.4896 26.1382 20.3641 26.1382Z" fill="#262E3D"/>
<path d="M20.3641 7.515C19.2387 7.515 18.3281 6.5881 18.3281 5.44255V2.07245C18.3281 0.926897 19.2387 0 20.3641 0C21.4896 0 22.4002 0.926897 22.4002 2.07245V5.4378C22.4002 6.58335 21.4896 7.515 20.3641 7.515Z" fill="#FA376F"/>
<path d="M35.6337 26.1382C34.5083 26.1382 33.5977 25.2113 33.5977 24.0657V11.631C33.5977 10.4855 34.5083 9.55859 35.6337 9.55859C36.7591 9.55859 37.6697 10.4855 37.6697 11.631V24.0657C37.6697 25.2113 36.7591 26.1382 35.6337 26.1382Z" fill="#262E3D"/>
<path d="M35.6337 7.515C34.5083 7.515 33.5977 6.5881 33.5977 5.44255V2.07245C33.5977 0.926897 34.5083 0 35.6337 0C36.7591 0 37.6697 0.926897 37.6697 2.07245V5.4378C37.6697 6.58335 36.7591 7.515 35.6337 7.515Z" fill="#FA376F"/>
<path d="M6.32766 29.3424C6.13153 29.3424 5.9354 29.2664 5.78597 29.1142L4.16556 27.4648C3.86669 27.1606 3.86669 26.671 4.16556 26.3668C4.46442 26.0626 4.94541 26.0626 5.24427 26.3668L6.86469 28.0162C7.16355 28.3204 7.16355 28.81 6.86469 29.1142C6.71993 29.2664 6.52379 29.3424 6.32766 29.3424Z" fill="#262E3D"/>
<path d="M28.8081 28.9098C28.612 28.9098 28.4159 28.8337 28.2664 28.6816L26.646 27.0322C26.3472 26.728 26.3472 26.2384 26.646 25.9342C26.9449 25.63 27.4259 25.63 27.7247 25.9342L29.3452 27.5836C29.644 27.8878 29.644 28.3774 29.3452 28.6816C29.2004 28.8337 29.0043 28.9098 28.8081 28.9098Z" fill="#262E3D"/>
<path d="M51.8433 28.9098C51.6472 28.9098 51.451 28.8337 51.3016 28.6816L49.6812 27.0322C49.3823 26.728 49.3823 26.2384 49.6812 25.9342C49.98 25.63 50.461 25.63 50.7599 25.9342L52.3803 27.5836C52.6792 27.8878 52.6792 28.3774 52.3803 28.6816C52.2309 28.8337 52.0347 28.9098 51.8433 28.9098Z" fill="#262E3D"/>
<path d="M13.3594 27.7922C13.3594 27.5926 13.4341 27.3929 13.5835 27.2408L15.2039 25.5914C15.5028 25.2872 15.9838 25.2872 16.2827 25.5914C16.5815 25.8957 16.5815 26.3852 16.2827 26.6895L14.6622 28.3389C14.3634 28.6431 13.8824 28.6431 13.5835 28.3389C13.4341 28.1915 13.3594 27.9919 13.3594 27.7922Z" fill="#262E3D"/>
<path d="M40.1367 27.7922C40.1367 27.5926 40.2114 27.3929 40.3609 27.2408L41.9813 25.5914C42.2801 25.2872 42.7611 25.2872 43.06 25.5914C43.3589 25.8957 43.3589 26.3852 43.06 26.6895L41.4396 28.3389C41.1407 28.6431 40.6597 28.6431 40.3609 28.3389C40.2114 28.1915 40.1367 27.9919 40.1367 27.7922Z" fill="#262E3D"/>
<path d="M50.3963 48.6738C48.435 48.6738 47.4076 47.533 46.6558 46.7012C45.9646 45.9359 45.5957 45.5652 44.7925 45.5652C43.9893 45.5652 43.6204 45.9312 42.934 46.7012C42.1821 47.533 41.1548 48.6738 39.1981 48.6738C37.2368 48.6738 36.2095 47.533 35.4576 46.7012C34.7665 45.9359 34.4023 45.5652 33.5944 45.5652C32.7912 45.5652 32.4223 45.9312 31.7312 46.7012C30.9793 47.533 29.952 48.6738 27.9953 48.6738C26.034 48.6738 25.0067 47.533 24.2595 46.7012C23.5684 45.9359 23.2041 45.5652 22.3963 45.5652C21.5931 45.5652 21.2242 45.9312 20.533 46.7012C19.7812 47.533 18.7538 48.6738 16.7972 48.6738C14.8406 48.6738 13.8085 47.533 13.0614 46.7012C12.3702 45.9359 12.006 45.5652 11.1981 45.5652C10.3949 45.5652 10.026 45.9312 9.33489 46.7012C8.58306 47.533 7.5557 48.6738 5.59907 48.6738C3.63776 48.6738 2.61041 47.533 1.86324 46.7012C1.17211 45.9359 0.803202 45.5652 0 45.5652V42.9746C1.96131 42.9746 2.98866 44.1154 3.73582 44.9472C4.42695 45.7125 4.79119 46.0833 5.59907 46.0833C6.40227 46.0833 6.77118 45.7173 7.46231 44.9472C8.21414 44.1154 9.24149 42.9746 11.1981 42.9746C13.1548 42.9746 14.1868 44.1154 14.934 44.9472C15.6251 45.7125 15.9893 46.0833 16.7972 46.0833C17.6004 46.0833 17.9693 45.7173 18.6604 44.9472C19.4123 44.1154 20.4396 42.9746 22.3963 42.9746C24.3576 42.9746 25.3849 44.1154 26.1321 44.9472C26.8232 45.7125 27.1875 46.0833 27.9953 46.0833C28.7985 46.0833 29.1674 45.7173 29.8539 44.9472C30.6057 44.1154 31.6331 42.9746 33.5897 42.9746C35.551 42.9746 36.5784 44.1154 37.3256 44.9472C38.0167 45.7125 38.3809 46.0833 39.1888 46.0833C39.992 46.0833 40.3609 45.7173 41.052 44.9472C41.8039 44.1154 42.8312 42.9746 44.7879 42.9746C46.7492 42.9746 47.7765 44.1154 48.5284 44.9472C49.2195 45.7125 49.5884 46.0833 50.3916 46.0833C51.1948 46.0833 51.5637 45.7173 52.2548 44.9472C53.0067 44.1154 54.034 42.9746 55.9953 42.9746V45.5652C55.1921 45.5652 54.8232 45.9312 54.1321 46.7012C53.3849 47.533 52.3576 48.6738 50.3963 48.6738Z" fill="#262E3D"/>
</g>
<defs>
<clipPath id="clip0_3287_88279">
<rect width="56" height="58" fill="white"/>
</clipPath>
</defs>
</svg>
