<svg viewBox="0 0 30 30" version="1.1" xmlns="http://www.w3.org/2000/svg" xmlns:xlink="http://www.w3.org/1999/xlink">
    <g stroke="none" stroke-width="1" fill="none" fill-rule="evenodd">
        <g transform="translate(-29.000000, -520.000000)" fill-rule="nonzero">
            <g transform="translate(16.000000, 505.000000)">
                <g transform="translate(13.000000, 15.000000)">
                    <path d="M0,1.40820197 L0,5.86452531 C0,6.64223065 0.685532348,7.27272727 1.53122084,7.27272727 L28.4687792,7.27272727 C29.3144677,7.27272727 30,6.64223065 30,5.86452531 L30,1.40820197 C30,0.630496623 29.3144036,0 28.4687792,0 L1.53122084,0 C0.685532348,0 0,0.630496623 0,1.40820197 Z"  fill="#334A5E"></path>
                    <path d="M26.4535231,2.72727273 L4.45556779,2.72727273 C4.00312624,2.72727273 3.63636364,3.13428756 3.63636364,3.63636365 C3.63636364,4.13843972 4.00312624,4.54545455 4.45556779,4.54545455 L26.4535231,4.54545455 C26.9059647,4.54545455 27.2727273,4.13843972 27.2727273,3.63636365 C27.2727273,3.13428756 26.9059647,2.72727273 26.4535231,2.72727273 Z"  fill="#EBF0F3"></path>
                    <path d="M5.45454545,2.72727273 L5.45454545,28.0483683 C5.45454545,29.1272129 6.32295341,30 7.39626368,30 L23.5128272,30 C24.5862018,30 25.4545455,29.1272129 25.4545455,28.0483683 L25.4545455,2.72727273 L5.45454545,2.72727273 Z"  fill="#27A2DB"></path>
                    <g  transform="translate(20.000000, 3.636364)" fill="#FFFFFF">
                        <rect x="0.0288815662" y="22.3033921" width="1.61775538" height="2.94510336"></rect>
                        <rect x="0.0288815662" y="17.7747626" width="1.61775538" height="2.94108069"></rect>
                        <rect x="0.0288815662" y="13.2413441" width="1.61775538" height="2.94510336"></rect>
                        <rect x="0.0288815662" y="8.70824487" width="1.61775538" height="2.94510336"></rect>
                        <rect x="0.0288815662" y="4.18082847" width="1.61775538" height="2.94108069"></rect>
                        <rect x="0.0288815662" y="0.0464203049" width="1.61775538" height="2.54679543"></rect>
                    </g>
                    <ellipse fill="#FFD15C" cx="15.4545455" cy="5.90909091" rx="1.81818182" ry="1.36363636"></ellipse>
                    <ellipse fill="#FF7058" cx="15.4545455" cy="7.72727273" rx="1.81818182" ry="1.36363636"></ellipse>
                    <g  transform="translate(8.181818, 10.909091)" fill="#FFFFFF">
                        <path d="M3.26660205,13.4808925 L3.57325063,12.6646527 C4.11234735,12.7897977 4.51273502,12.9978898 4.77441364,13.288929 C5.03609225,13.5799683 5.16697033,13.949215 5.16697033,14.396669 C5.16697033,14.9503085 4.94289593,15.405333 4.49474705,15.7618085 C4.04659818,16.1182839 3.4339213,16.2964886 2.65671642,16.2964886 C1.83461911,16.2964886 1.19612328,16.1172964 0.74122892,15.7589777 C0.286334561,15.4006591 0.0589261484,14.92944 0.0589261484,14.3455182 C0.0589261484,13.8354588 0.237487885,13.4211837 0.594688895,13.1026929 C0.80581508,12.9130993 1.10905214,12.7709041 1.50440008,12.6761073 L1.74025974,13.5093974 C1.4841636,13.5587049 1.2820314,13.661533 1.13378562,13.8179477 C0.985539833,13.9743624 0.911416942,14.1644168 0.911416942,14.3881767 C0.911416942,14.6972538 1.04283776,14.9480044 1.30560186,15.1404287 C1.5684435,15.332853 1.99410739,15.4290981 2.58259353,15.4290981 C3.20705563,15.4290981 3.65179298,15.3343013 3.91688313,15.1447077 C4.18197324,14.9551142 4.31447956,14.7086425 4.31447956,14.405227 C4.31447956,14.1814671 4.2302772,13.9890428 4.06179491,13.8278882 C3.89331265,13.6666679 3.62830006,13.5510026 3.26660205,13.4808925 Z" ></path>
                        <path d="M5.08269044,8.18241067 L5.08269044,9.0981871 L3.96069007,9.46223305 L3.96069007,11.1288132 L5.08269044,11.4729123 L5.08269044,12.3659112 L0.143206048,10.7419896 L0.143206048,9.8518215 L5.08269044,8.18241067 Z M3.12851328,9.73240388 L1.29559992,10.3069119 L3.12851328,10.8700311 L3.12851328,9.73240388 L3.12851328,9.73240388 Z" id="Shape"></path>
                        <path d="M5.08269044,7.73304758 L0.143206048,7.73304758 L0.143206048,5.96120354 C0.143206048,5.51565864 0.187555728,5.19190132 0.276332623,4.98999733 C0.365031982,4.78809333 0.522892033,4.62641218 0.749757705,4.50508545 C0.976623378,4.38375875 1.2360535,4.32306247 1.52804807,4.32306247 C1.89866253,4.32306247 2.20476837,4.41502851 2.44621051,4.5989606 C2.68765265,4.78289269 2.83985268,5.05780336 2.90273309,5.42375846 C3.02849389,5.24173545 3.16666021,5.0915089 3.31715449,4.97294707 C3.46764877,4.85445109 3.73498742,4.69467902 4.11909284,4.49369667 L5.08276796,3.98462477 L5.08276796,4.9914456 L4.00790851,5.60005413 C3.62380306,5.81617763 3.38174065,5.96410012 3.2817988,6.04375574 C3.18185695,6.12341136 3.11331653,6.20774102 3.07625509,6.29687631 C3.03919364,6.38601163 3.02066292,6.52721934 3.02066292,6.7206311 L3.02066292,6.8912653 L5.08269044,6.8912653 L5.08269044,7.73304758 Z M2.23221555,6.8912653 L2.23221555,6.26843729 C2.23221555,5.86456348 2.21197907,5.61243038 2.17158364,5.51190628 C2.13118821,5.41144803 2.06148479,5.33271402 1.96270595,5.27583597 C1.86384958,5.21895788 1.74033728,5.19051887 1.59209149,5.19051887 C1.42585772,5.19051887 1.29164567,5.22797675 1.18945532,5.30289253 C1.08726497,5.37780835 1.02267881,5.48346727 0.99569684,5.62000094 C0.984454353,5.68826781 0.978871873,5.89300252 0.978871873,6.23433677 L0.978871873,6.89133115 L2.23221555,6.89133115 L2.23221555,6.8912653 Z" id="Shape"></path>
                        <path d="M0.143206048,3.53243096 L0.143206048,1.99382651 C0.143206048,1.64683078 0.174685016,1.38238725 0.23756542,1.20036426 C0.3229308,0.955801732 0.474510564,0.746261342 0.692459778,0.57180893 C0.910408993,0.397356515 1.17704981,0.264641019 1.49269238,0.17366244 C1.80825741,0.0826838608 2.19748013,0.0371287402 2.66020547,0.0371287402 C3.06679589,0.0371287402 3.41717387,0.0797872925 3.71141695,0.165104397 C4.07078891,0.269380859 4.361698,0.418224974 4.58406669,0.611636743 C4.75254895,0.757650121 4.88396975,0.954814264 4.9782516,1.203195 C5.04787749,1.3890362 5.08269044,1.6373511 5.08269044,1.94833722 L5.08269044,3.53249679 L0.143206048,3.53249679 L0.143206048,3.53243096 Z M0.978794338,2.69058286 L4.25043615,2.69058286 L4.25043615,2.06202753 C4.25043615,1.82694467 4.23469665,1.6572321 4.2032952,1.55295563 C4.16289978,1.41642193 4.09435938,1.30312661 3.99775149,1.21306967 C3.90114364,1.12301272 3.74227564,1.04954522 3.52099244,0.992667146 C3.29970925,0.935789076 2.99817794,0.907350042 2.61632099,0.907350042 C2.23446404,0.907350042 1.94130645,0.935789076 1.73692576,0.992667146 C1.53254507,1.04954522 1.37305679,1.12920085 1.25846094,1.23156821 C1.14386509,1.33393557 1.06640822,1.46382033 1.02601279,1.62122248 C0.994533825,1.73879683 0.978871873,1.96913984 0.978871873,2.31231736 L0.978871873,2.69058286 L0.978794338,2.69058286 Z" id="Shape"></path>
                    </g>
                </g>
            </g>
        </g>
    </g>
</svg>