<svg viewBox="0 0 16 16" fill="none" xmlns="http://www.w3.org/2000/svg">
    <path d="M11.6484 1.90529C11.5382 1.81136 11.4089 1.7425 11.2695 1.70347C11.13 1.66445 10.9838 1.6562 10.8408 1.67929L2.54151 3.01792C2.11078 3.08586 1.71858 3.30569 1.43585 3.63767C1.15311 3.96964 0.998514 4.39183 1.00001 4.82789V5.66642C1.00001 5.75483 1.03513 5.83961 1.09764 5.90213C1.16016 5.96464 1.24495 5.99976 1.33335 5.99976H11.6667C11.7551 5.99976 11.8399 5.96464 11.9024 5.90213C11.9649 5.83961 12 5.75483 12 5.66642V2.66661C12.0001 2.5218 11.9687 2.37871 11.908 2.24725C11.8473 2.11579 11.7588 1.9991 11.6484 1.90529Z" fill="#00B157"/>
    <path d="M12.6667 4.33301H2C1.73487 4.3333 1.48069 4.43875 1.29321 4.62622C1.10574 4.81369 1.00029 5.06788 1 5.33301V12.6663C1.0005 13.1082 1.17626 13.5318 1.48871 13.8443C1.80116 14.1567 2.22479 14.3325 2.66666 14.333H12.6667C13.1085 14.3325 13.5322 14.1567 13.8446 13.8443C14.1571 13.5318 14.3328 13.1082 14.3333 12.6663V5.99966C14.3328 5.55779 14.1571 5.13417 13.8446 4.82172C13.5322 4.50927 13.1085 4.33351 12.6667 4.33301Z" fill="#00CF66"/>
    <path d="M12.6667 13.3332H2.66666C2.22478 13.3327 1.80115 13.1569 1.4887 12.8445C1.17625 12.532 1.0005 12.1084 1 11.6665V12.6665C1.0005 13.1084 1.17626 13.532 1.48871 13.8445C1.80116 14.1569 2.22479 14.3327 2.66666 14.3332H12.6667C13.1085 14.3327 13.5322 14.1569 13.8446 13.8445C14.1571 13.532 14.3328 13.1084 14.3333 12.6665V11.6665C14.3328 12.1084 14.1571 12.532 13.8446 12.8445C13.5322 13.1569 13.1085 13.3327 12.6667 13.3332ZM10 7.6665C9.55797 7.6665 9.13405 7.8421 8.82148 8.15466C8.50892 8.46722 8.33333 8.89115 8.33333 9.33318C8.33333 9.7752 8.50892 10.1991 8.82148 10.5117C9.13405 10.8243 9.55797 10.9998 10 10.9998H14.3333V7.6665H10Z" fill="#00B157"/>
    <path d="M14.332 7H9.9987C9.55667 7 9.13275 7.1756 8.82019 7.48816C8.50763 7.80072 8.33203 8.22464 8.33203 8.66667C8.33203 9.1087 8.50763 9.53263 8.82019 9.84519C9.13275 10.1577 9.55667 10.3333 9.9987 10.3333H14.332C14.5088 10.3332 14.6783 10.2629 14.8032 10.1379C14.9282 10.0129 14.9985 9.84341 14.9987 9.66666V7.66666C14.9985 7.48991 14.9282 7.32045 14.8032 7.19547C14.6783 7.07049 14.5088 7.00019 14.332 7Z" fill="#FAC100"/>
    <path d="M9.99869 9.33331C10.3669 9.33331 10.6653 9.03484 10.6653 8.66666C10.6653 8.29847 10.3669 8 9.99869 8C9.6305 8 9.33203 8.29847 9.33203 8.66666C9.33203 9.03484 9.6305 9.33331 9.99869 9.33331Z" fill="#EAEFF0"/>
</svg>
