<svg  viewBox="0 0 44 41" version="1.1" xmlns="http://www.w3.org/2000/svg" xmlns:xlink="http://www.w3.org/1999/xlink">
    <g  stroke="none" stroke-width="1" fill="none" fill-rule="evenodd">
        <g  transform="translate(-45.000000, -361.000000)">
            <g  transform="translate(0.000000, 286.000000)">
                <g  transform="translate(17.000000, 49.000000)">
                    <rect  fill="#FFFFFF" x="0" y="0" width="100" height="134" rx="8"></rect>
                    <rect  x="15" y="10" width="70" height="70"></rect>
                    <g transform="translate(28.000000, 26.000000)" fill-rule="nonzero">
                        <path d="M40.0079489,15.1433491 C41.8946647,15.1433491 43.6573709,13.6254843 43.9585368,11.7458028 C44.2508449,9.86612139 42.966461,8.34825656 41.088603,8.34825656 L36.9608587,8.34825656 L37.7403469,3.39754628 C38.032655,1.51786483 36.748271,0 34.8704131,0 C32.9836973,0 31.2121332,1.52668963 30.9198252,3.39754628 L30.140337,8.34825656 L17.7039571,8.34825656 L18.4834453,3.39754628 C18.7757534,1.51786483 17.4913694,0 15.6135115,0 C13.7267957,0 11.9640895,1.51786483 11.6629236,3.39754628 L10.8834354,8.34825656 L6.75569105,8.34825656 C4.86897529,8.34825656 3.10626903,9.86612139 2.80510314,11.7458028 C2.51279506,13.6254843 3.79717902,15.1433491 5.67503695,15.1433491 L9.80278127,15.1433491 L8.11979539,25.8566509 L3.99205107,25.8566509 C2.10533532,25.8566509 0.342629056,27.3745157 0.0414631619,29.2541972 C-0.250844912,31.1338786 1.03353905,32.6517434 2.91139698,32.6517434 L7.0391413,32.6517434 L6.2596531,37.6024537 C5.96734503,39.4821352 7.25172899,41 9.12958692,41 C11.0163027,41 12.7790089,39.4821352 13.0801748,37.6024537 L13.859663,32.6517434 L26.2871851,32.6517434 L25.5076969,37.6024537 C25.2153888,39.4821352 26.4997728,41 28.3776307,41 C30.2643465,41 32.0270527,39.4821352 32.3282186,37.6024537 L33.1077068,32.6517434 L37.2354511,32.6517434 C39.1221669,32.6517434 40.8848732,31.1338786 41.186039,29.2541972 C41.4783471,27.3745157 40.1939632,25.8566509 38.3161052,25.8566509 L34.1883609,25.8566509 L35.8802046,15.1433491 L40.0079489,15.1433491 Z M27.3678392,25.8566509 L14.9403171,25.8566509 L16.6321608,15.1433491 L29.0596829,15.1433491 L27.3678392,25.8566509 Z"  fill="#FEDD60"></path>
                        <g id="Group" transform="translate(13.000000, 10.000000)" fill="#494A59">
                            <path d="M0.617647059,3.17 C0.273529412,3.17 0,2.86 0,2.47 L0,0.75 C0,0.36 0.273529412,0.05 0.617647059,0.05 C0.961764706,0.05 1.23529412,0.36 1.23529412,0.75 L1.23529412,2.47 C1.23529412,2.85 0.961764706,3.17 0.617647059,3.17 Z" ></path>
                            <path d="M17.3823529,3.17 C17.0382353,3.17 16.7647059,2.86 16.7647059,2.47 L16.7647059,0.75 C16.7647059,0.36 17.0382353,0.05 17.3823529,0.05 C17.7264706,0.05 18,0.36 18,0.75 L18,2.47 C18,2.85 17.7264706,3.17 17.3823529,3.17 Z" ></path>
                            <path d="M9,3.92 C8.27647059,3.92 7.59705882,3.58 7.13823529,2.98 C6.91764706,2.69 6.93529412,2.25 7.2,1.99 C7.45588235,1.74 7.84411765,1.76 8.07352941,2.06 C8.30294118,2.35 8.63823529,2.52 9.00882353,2.52 C9.37941176,2.52 9.71470588,2.35 9.94411765,2.06 C10.1735294,1.77 10.5617647,1.74 10.8176471,1.99 C11.0735294,2.24 11.1,2.69 10.8794118,2.98 C10.4029412,3.57 9.72352941,3.92 9,3.92 Z" ></path>
                        </g>
                    </g>
                </g>
            </g>
        </g>
    </g>
</svg>