<svg viewBox="0 0 27 28" version="1.1" xmlns="http://www.w3.org/2000/svg" xmlns:xlink="http://www.w3.org/1999/xlink">
    <g  stroke="none" stroke-width="1" fill="none" fill-rule="evenodd">
        <g  transform="translate(-31.000000, -140.000000)" fill-rule="nonzero">
            <g  transform="translate(16.000000, 124.000000)">
                <g transform="translate(15.000000, 16.000000)">
                    <path d="M23.516129,1.83334662 C21.7167551,6.38547931 20.8126232,10.786621 20.0982293,15.6774194 C17.6313641,15.4885686 16.5015538,15.3471545 14.0613577,14.919608 C14.4959169,9.9935821 14.6332437,5.49622287 13.9354839,0.630627013 C18.0720315,-0.434654924 19.7450408,-0.22463404 23.516129,1.83334662 Z"  fill="#FF7058"></path>
                    <path d="M19.1748007,14.8064516 C17.7029985,14.6524236 16.9868993,14.5667013 15.5201032,14.3694039 C15.5795093,13.8341702 15.2603964,13.3579896 14.8064516,13.3002971 C15.1076538,9.52410724 15.197931,6.09086094 14.9488482,2.32201866 C15.6158872,2.13593322 16.1440896,1.62927359 16.1123284,1.11036792 C18.4471319,0.666516877 19.6486031,0.810203787 21.8083588,1.79162891 C21.6521676,2.28805629 22.0425345,2.90460377 22.6451613,3.24254012 C21.4913039,6.84352998 20.7477824,10.1988914 20.1261879,13.9365471 C19.6718538,13.8855492 19.2468333,14.2727418 19.1748007,14.8064516 Z"  fill="#FFFFFF"></path>
                    <g  transform="translate(15.677419, 1.741935)">
                        <path d="M2.33482494,4.30839764 C3.58275963,4.48365335 4.37736034,5.78146081 4.18794256,6.8748598 C3.99852479,7.96825878 2.99105035,8.63882937 1.89801337,8.48532526 C0.805074745,8.33182114 -0.0350118017,7.40175687 0.0062942565,6.28756674 C0.0476986626,5.17337663 1.08708694,4.13319842 2.33482494,4.30839764 Z"  fill="#FF7058"></path>
                        <path d="M2.78437253,0.00915261899 C3.06043469,0.0479100056 3.25408144,0.307912182 3.21975806,0.567292884 C3.18543469,0.826673586 2.94753148,0.99108174 2.68558222,0.954301772 C2.42373131,0.917521804 2.22659323,0.691983192 2.24675452,0.43068157 C2.26681747,0.169266953 2.50840873,-0.0296047676 2.78437253,0.00915261899 Z"  fill="#3EA69B"></path>
                        <circle  fill="#3EA69B" transform="translate(1.496930, 12.315230) rotate(-173.142208) translate(-1.496930, -12.315230) " cx="1.49693017" cy="12.3152302" r="1"></circle>
                    </g>
                    <path d="M20.8383886,7.75332267 C20.6896775,7.72384562 20.6152906,7.70969056 20.466077,7.68259807 C20.3315021,8.08502811 20.0735352,8.42297392 19.6987107,8.70967742 C19.5501253,8.55199304 19.4752358,8.47330306 19.3233206,8.31688703 C19.6118212,8.09136998 19.8084062,7.85139341 19.908238,7.58838318 C19.5099162,7.52628354 19.3098757,7.49969841 18.9084125,7.45621851 C18.7612094,7.79340332 18.6027602,8.03561221 18.4312431,8.183454 C18.2596631,8.33124506 18.0305967,8.39283733 17.7401484,8.37315215 C17.4495745,8.35351771 17.222707,8.24925729 17.0541427,8.05768193 C16.8858298,7.86615731 16.8036524,7.62587636 16.810312,7.33176554 C16.7056426,7.33044645 16.6533078,7.33004057 16.5483871,7.32983761 C16.5569315,7.21426329 16.5610153,7.15647614 16.5689315,7.04095254 C16.6770564,7.04049591 16.7309618,7.04054666 16.8388353,7.04130767 C16.8934947,6.70853682 17.0493051,6.39306658 17.3192089,6.09677419 C17.5113961,6.21757421 17.6060132,6.27992753 17.7922946,6.40762754 C17.601364,6.60326169 17.4772811,6.81878396 17.4148313,7.05287525 C17.8115825,7.06606635 18.0096753,7.07717731 18.4043532,7.10924184 C18.4051071,7.10366099 18.4054213,7.10087056 18.4061752,7.09534046 C18.5489805,6.74922628 18.7157856,6.50016818 18.9060251,6.3509058 C19.0967044,6.20133902 19.3533518,6.14502316 19.6689308,6.19048174 C19.9848238,6.23599101 20.2224976,6.37601961 20.3771771,6.59874628 C20.5324221,6.82152365 20.5815527,7.08717212 20.5328619,7.39609753 C20.6811959,7.42395105 20.7553944,7.43851199 20.9032258,7.46885152 C20.8769642,7.58249793 20.8640847,7.6394226 20.8383886,7.75332267 Z M17.4728833,7.6749371 C17.5416158,7.75667117 17.6329031,7.80060769 17.7476248,7.80750764 C17.862158,7.8144076 17.956461,7.7895982 18.0309736,7.7330794 C18.1054234,7.67661135 18.1852134,7.56438553 18.2706578,7.39685856 C17.9110373,7.36885284 17.7306616,7.3586551 17.3694075,7.34546401 C17.3693447,7.48366614 17.4039623,7.59320299 17.4728833,7.6749371 Z M19.9005731,6.9302995 C19.8366154,6.83268536 19.7423124,6.77408643 19.6186693,6.75653213 C19.4952147,6.73897782 19.3911107,6.75977916 19.3074254,6.81802293 C19.2237401,6.8766726 19.1354057,6.99442854 19.0433016,7.17134148 C19.4192571,7.21395888 19.6067322,7.239783 19.9797977,7.29970102 C19.990918,7.15145336 19.9647193,7.02831951 19.9005731,6.9302995 Z" id="Shape" fill="#FFFFFF"></path>
                    <path d="M27,6.409435 C23.7032693,10.0673887 21.3857614,13.9115591 19.1126673,18.2903226 C16.6034052,17.2032051 15.4713359,16.653131 13.0645161,15.3492806 C15.0572099,10.8340844 16.6064307,6.61642279 17.4014025,1.74193548 C22.0411986,2.25325157 23.7173075,3.06839478 27,6.409435 Z"  fill="#FF7058"></path>
                    <path d="M18.502893,17.4193548 C17.1517237,16.7224634 16.4974673,16.3726796 15.1640247,15.6343926 C15.380572,15.1218737 15.2201312,14.5286135 14.8064516,14.3035288 C16.2223938,10.6439235 17.3354625,7.24891948 18.2268065,3.39349679 C18.9157847,3.45379649 19.568803,3.14273203 19.6939592,2.61290323 C22.0433957,3.03118612 23.1410449,3.61801208 24.8977902,5.39494572 C24.6009381,5.83298688 24.7870405,6.59274032 25.2580645,7.15251967 C23.0851073,10.3225529 21.3751268,13.3988055 19.6664969,16.9017682 C19.2503975,16.6831747 18.7309767,16.9129854 18.502893,17.4193548 Z"  fill="#FFFFFF"></path>
                    <g  transform="translate(16.548387, 3.483871)">
                        <path d="M3.81213613,4.11742631 C5.16443745,4.81534501 5.66689613,6.414754 5.1231314,7.39941358 C4.57930762,8.38407315 3.24217153,8.61139095 2.0577498,8.00009973 C0.873446107,7.38886613 0.208536585,6.12835892 0.591915815,5.06087588 C0.975236034,3.99339285 2.46007081,3.41962288 3.81213613,4.11742631 Z"  fill="#FF7058"></path>
                        <path d="M5.61785995,0.121036357 C5.91703383,0.275444166 6.05647129,0.610426693 5.93945713,0.84846486 C5.82244296,1.08650303 5.50479937,1.14609903 5.22096773,0.999587397 C4.93725414,0.853191042 4.78341856,0.550254331 4.88509049,0.304319982 C4.98670339,0.0582703603 5.31886311,-0.0333138163 5.61785995,0.121036357 Z"  fill="#FF7058"></path>
                        <path d="M0.648859166,11.117881 C0.849311565,11.2213383 0.922010229,11.5017968 0.811546026,11.7437542 C0.701199842,11.9857693 0.450531078,12.0989095 0.251789929,11.9963167 C0.0531077891,11.8937817 -0.0197088906,11.6137266 0.0889850511,11.370847 C0.197619984,11.1279674 0.448406768,11.0144237 0.648859166,11.117881 Z"  fill="#3EA69B"></path>
                    </g>
                    <path d="M22.4696176,11.3994148 C22.3304704,11.3018641 22.2606596,11.2538167 22.1200214,11.1591086 C21.8282393,11.6304998 21.4363499,11.9687033 20.9461154,12.1935484 C20.8567169,11.9287679 20.8112382,11.7963429 20.7179764,11.5318398 C21.0972592,11.3524768 21.3890412,11.1176479 21.5917637,10.8142492 C21.2125487,10.574775 21.020264,10.4605152 20.630679,10.2441287 C20.3513002,10.6253877 20.0972702,10.8783123 19.8664201,11.0029027 C19.63557,11.1274931 19.3799134,11.1166079 19.093418,10.9754471 C18.8068548,10.8342169 18.6175523,10.6079852 18.5209016,10.2910667 C18.4245898,9.97428692 18.4342819,9.62817945 18.5547225,9.2471978 C18.4492608,9.2037957 18.3964621,9.18251064 18.2903226,9.1404952 C18.3436635,8.99309448 18.3700967,8.91939412 18.4228275,8.77185473 C18.5324915,8.81421681 18.5870524,8.8357792 18.695903,8.87966665 C18.8798511,8.46734671 19.1595688,8.11777266 19.5473915,7.83870968 C19.6952142,8.0727066 19.7669228,8.191681 19.9061377,8.43233387 C19.6371967,8.61155818 19.4282387,8.84333644 19.2745872,9.12385541 C19.6711532,9.29885047 19.867369,9.3921719 20.254514,9.59094795 C20.2574284,9.58401471 20.2588518,9.58047874 20.2617662,9.5735455 C20.5401283,9.17890535 20.8053416,8.92036476 21.055576,8.80139032 C21.3064205,8.68213856 21.5879681,8.71077285 21.8899168,8.89561308 C22.1920688,9.08059201 22.3785247,9.35785233 22.4490133,9.70985305 C22.5199763,10.0622004 22.4670421,10.4282756 22.2983439,10.8118225 C22.4377622,10.9071546 22.5071664,10.9556873 22.6451613,11.05407 C22.5746727,11.1919722 22.5396318,11.2610966 22.4696176,11.3994148 Z M19.0928757,9.95847911 C19.1308989,10.0924293 19.2062675,10.1860281 19.319727,10.2406621 C19.4330509,10.2952267 19.5380382,10.3003573 19.6353667,10.2563312 C19.7326274,10.2123051 19.8567279,10.0976293 20.0080073,9.91313572 C19.6548188,9.73356474 19.4761574,9.64856318 19.1155134,9.48757331 C19.062037,9.66776826 19.054717,9.82445953 19.0928757,9.95847911 Z M21.8384059,9.95286319 C21.8113627,9.80012388 21.7385697,9.6862107 21.6201624,9.61403564 C21.5019585,9.54199924 21.388499,9.52778612 21.2813428,9.57049487 C21.1739155,9.61368897 21.0389706,9.73210875 20.8773213,9.92623953 C21.2414219,10.1313942 21.4212355,10.2396221 21.7757795,10.4662004 C21.8443704,10.2772696 21.8654491,10.1062265 21.8384059,9.95286319 Z" id="Shape" fill="#FFFFFF"></path>
                    <path d="M23.516129,13.2158107 L23.516129,13.2158107 C23.516129,12.1612447 22.6529869,11.3064007 21.5884547,11.3064007 L21.4575192,11.3064007 C19.6161881,11.1401062 18.1585594,11.2001071 17.1375757,11.3064007 L16.8812135,11.3064007 L16.8812135,11.3349967 C15.9483706,11.4468522 15.4466059,11.5888206 15.4466059,11.5888206 L15.3442002,8.70967742 L13.9925144,8.98664775 C13.2219202,9.15367267 12.5223025,9.54463344 11.987253,10.1073383 L9.03720329,13.2099117 C8.3031411,13.9819454 7.26911023,14.4211653 6.1856161,14.4211653 L5.81246735,14.4211653 L4.35483871,24.6752478 L8.04747476,24.7065965 C13.2949263,26.7150528 19.6112012,26.0085257 19.6112012,26.0085257 L20.153847,26.0085257 C21.2184953,26.0085257 22.0815214,25.1536256 22.0815214,24.0991719 L22.0815214,24.0991719 C22.0815214,23.3309023 21.6223193,22.6703308 20.9619591,22.3674051 L21.0952721,22.3674051 C22.1599203,22.3674051 23.0229464,21.5125049 23.0229464,20.4580513 L23.0229464,20.4580513 C23.0229464,19.7001751 22.5759797,19.0473566 21.9300003,18.7389812 C22.8313561,18.5790351 23.516129,17.8001473 23.516129,16.8613134 L23.516129,16.8613134 C23.516129,16.005402 22.9475048,15.2810655 22.1639214,15.0385901 C22.9474468,14.7960023 23.516129,14.071722 23.516129,13.2158107 Z"  fill="#FFD15C"></path>
                    <rect id="Rectangle-path" fill="#27A2DB" x="0" y="13.0645161" width="6.09677419" height="14.8064516"></rect>
                    <circle  fill="#334A5E" cx="3.0483871" cy="25.6935484" r="1.30645161"></circle>
                </g>
            </g>
        </g>
    </g>
</svg>