<svg viewBox="0 0 28 28" version="1.1" xmlns="http://www.w3.org/2000/svg" xmlns:xlink="http://www.w3.org/1999/xlink">
    <g  stroke="none" stroke-width="1" fill="none" fill-rule="evenodd">
        <g fill-rule="nonzero">
            <path d="M15.4482759,0 L27.0344828,0 C27.5676859,0 28,0.432314086 28,0.965517241 L28,8.68965517 C28,9.22285833 27.5676859,9.65517241 27.0344828,9.65517241 L15.4482759,9.65517241 C14.9150727,9.65517241 14.4827586,9.22285833 14.4827586,8.68965517 L14.4827586,0.965517241 C14.4827586,0.432314086 14.9150727,0 15.4482759,0 Z"  fill="#00CCB3"></path>
            <path d="M28,0.965517241 L28,8.68965517 C27.9983499,9.22215115 27.5669787,9.65352234 27.0344828,9.65517241 L17.9344356,9.65517241 C20.943191,6.84418778 23.5026603,3.58768858 25.5235049,0 L27.0344828,0 C27.5669787,0.0016500569 27.9983499,0.433021267 28,0.965517241 L28,0.965517241 Z"  fill="#00B8A1"></path>
            <path d="M25.1034483,1.93103448 C24.8250606,1.93103448 24.5605805,2.05266703 24.3793103,2.26410963 C24.7010708,2.62429282 24.7010708,3.16881063 24.3793103,3.52899382 C24.5605805,3.74043642 24.8250606,3.86206897 25.1034483,3.86206897 C25.6366514,3.86206897 26.0689655,3.42975488 26.0689655,2.89655172 C26.0689655,2.36334857 25.6366514,1.93103448 25.1034483,1.93103448 Z"  fill="#FFA733"></path>
            <polygon  fill="#FFB655" points="16.4137931 1.93103448 19.3103448 1.93103448 19.3103448 3.86206897 16.4137931 3.86206897"></polygon>
            <polygon  fill="#FF9811" points="16.4137931 12.5517241 16.4137931 15.4482759 0 15.4482759 0 12.5517241 8.20689655 10.6206897"></polygon>
            <path d="M9.17241379,13.0344828 C9.17241379,13.5676859 8.74009971,14 8.20689655,14 C7.6736934,14 7.24137931,13.5676859 7.24137931,13.0344828 C7.24137931,12.5012796 7.6736934,12.0689655 8.20689655,12.0689655 C8.74009971,12.0689655 9.17241379,12.5012796 9.17241379,13.0344828 Z"  fill="#FF6243"></path>
            <polygon  fill="#FFB655" points="3.37931034 15.4482759 13.0344828 15.4482759 13.0344828 24.137931 3.37931034 24.137931"></polygon>
            <polygon  fill="#FFA733" points="1.44827586 15.4482759 3.37931034 15.4482759 3.37931034 24.137931 1.44827586 24.137931"></polygon>
            <polygon  fill="#FFA733" points="13.0344828 15.4482759 14.9655172 15.4482759 14.9655172 24.137931 13.0344828 24.137931"></polygon>
            <polygon  fill="#FF9811" points="15.4482759 24.137931 0.965517241 24.137931 0.965517241 26.0689655 15.4482759 26.0689655"></polygon>
            <polygon  fill="#EE8700" points="16.4137931 26.0689655 0 26.0689655 0 28 16.4137931 28"></polygon>
            <path d="M24.3793103,2.26410963 C24.1153017,1.95955683 23.6898236,1.85112472 23.3121969,1.99185072 C22.9345703,2.1328125 22.6842336,2.4934671 22.6842336,2.89655172 C22.6842336,3.29963634 22.9345703,3.66029095 23.3121969,3.80125272 C23.6898236,3.94197873 24.1153017,3.83354662 24.3793103,3.52899382 C24.7010708,3.16881063 24.7010708,2.62429282 24.3793103,2.26410963 Z"  fill="#FF6243"></path>
            <polygon  fill="#F29010" points="13.0344828 15.4482759 14.9655172 15.4482759 14.9655172 16.4137931 13.0344828 16.4137931"></polygon>
            <polygon  fill="#F29010" points="1.44827586 15.4482759 3.37931034 15.4482759 3.37931034 16.4137931 1.44827586 16.4137931"></polygon>
            <polygon  fill="#FFA733" points="3.37931034 15.4482759 13.0344828 15.4482759 13.0344828 16.4137931 3.37931034 16.4137931"></polygon>
            <polygon  fill="#ACABB1" points="16.8965517 5.31034483 17.862069 5.31034483 17.862069 6.27586207 16.8965517 6.27586207"></polygon>
            <polygon  fill="#ACABB1" points="18.8275862 5.31034483 19.7931034 5.31034483 19.7931034 6.27586207 18.8275862 6.27586207"></polygon>
            <polygon  fill="#ACABB1" points="20.7586207 5.31034483 21.7241379 5.31034483 21.7241379 6.27586207 20.7586207 6.27586207"></polygon>
            <polygon  fill="#ACABB1" points="22.6896552 5.31034483 23.6551724 5.31034483 23.6551724 6.27586207 22.6896552 6.27586207"></polygon>
            <polygon  fill="#ACABB1" points="24.6206897 5.31034483 25.5862069 5.31034483 25.5862069 6.27586207 24.6206897 6.27586207"></polygon>
            <polygon  fill="#898890" points="16.8965517 7.24137931 20.7586207 7.24137931 20.7586207 8.20689655 16.8965517 8.20689655"></polygon>
            <polygon  fill="#898890" points="21.7241379 7.24137931 25.5862069 7.24137931 25.5862069 8.20689655 21.7241379 8.20689655"></polygon>
            <g  transform="translate(6.275862, 1.413793)" fill="#FF6243">
                <path d="M2.4137931,17.8965517 L1.44827586,17.8965517 C1.18167428,17.8965517 0.965517241,17.6803947 0.965517241,17.4137931 C0.965517241,17.1471915 1.18167428,16.9310345 1.44827586,16.9310345 L2.4137931,16.9310345 C2.68039468,16.9310345 2.89655172,17.1471915 2.89655172,17.4137931 L3.86206897,17.4137931 C3.86206897,16.6139884 3.21359778,15.9655172 2.4137931,15.9655172 L2.4137931,15.4827586 L1.44827586,15.4827586 L1.44827586,15.9655172 C0.64847119,15.9655172 0,16.6139884 0,17.4137931 C0,18.2135978 0.64847119,18.862069 1.44827586,18.862069 L2.4137931,18.862069 C2.68039468,18.862069 2.89655172,19.078226 2.89655172,19.3448276 C2.89655172,19.6114292 2.68039468,19.8275862 2.4137931,19.8275862 L1.44827586,19.8275862 C1.18167428,19.8275862 0.965517241,19.6114292 0.965517241,19.3448276 L0,19.3448276 C0,20.1446323 0.64847119,20.7931034 1.44827586,20.7931034 L1.44827586,21.2758621 L2.4137931,21.2758621 L2.4137931,20.7931034 C3.21359778,20.7931034 3.86206897,20.1446323 3.86206897,19.3448276 C3.86206897,18.5450229 3.21359778,17.8965517 2.4137931,17.8965517 Z" ></path>
                <polygon  points="11.5862069 19.3448276 12.5517241 19.3448276 12.5517241 20.3103448 11.5862069 20.3103448"></polygon>
                <polygon  points="13.5172414 19.3448276 14.4827586 19.3448276 14.4827586 20.3103448 13.5172414 20.3103448"></polygon>
                <polygon  points="15.4482759 19.3448276 16.4137931 19.3448276 16.4137931 20.3103448 15.4482759 20.3103448"></polygon>
                <polygon  points="15.4482759 17.4137931 16.4137931 17.4137931 16.4137931 18.3793103 15.4482759 18.3793103"></polygon>
                <polygon  points="15.4482759 15.4827586 16.4137931 15.4827586 16.4137931 16.4482759 15.4482759 16.4482759"></polygon>
                <polygon  points="15.4482759 13.5517241 16.4137931 13.5517241 16.4137931 14.5172414 15.4482759 14.5172414"></polygon>
                <polygon  points="15.4482759 11.6206897 16.4137931 11.6206897 16.4137931 12.5862069 15.4482759 12.5862069"></polygon>
                <polygon  points="15.4482759 9.68965517 16.4137931 9.68965517 16.4137931 10.6551724 15.4482759 10.6551724"></polygon>
                <polygon  points="5.79310345 1 6.75862069 1 6.75862069 1.96551724 5.79310345 1.96551724"></polygon>
                <polygon  points="3.86206897 1 4.82758621 1 4.82758621 1.96551724 3.86206897 1.96551724"></polygon>
                <polygon  points="1.93103448 1 2.89655172 1 2.89655172 1.96551724 1.93103448 1.96551724"></polygon>
                <polygon  points="1.93103448 2.93103448 2.89655172 2.93103448 2.89655172 3.89655172 1.93103448 3.89655172"></polygon>
                <polygon  points="1.93103448 4.86206897 2.89655172 4.86206897 2.89655172 5.82758621 1.93103448 5.82758621"></polygon>
                <polygon  points="1.93103448 6.79310345 2.89655172 6.79310345 2.89655172 7.75862069 1.93103448 7.75862069"></polygon>
            </g>
        </g>
    </g>
</svg>