<svg viewBox="0 0 17 16" fill="none" xmlns="http://www.w3.org/2000/svg">
    <circle cx="8.5" cy="8" r="8" fill="url(#paint0_linear_8127_27555)"/>
    <g clip-path="url(#clip0_8127_27555)">
        <path d="M8.5 0C4.0797 0 0.5 3.5797 0.5 8C0.5 12.4203 4.0797 16 8.5 16C12.9203 16 16.5 12.4203 16.5 8C16.5 3.5797 12.9203 0 8.5 0ZM6.10972 12.5861V4.69478C6.10972 4.15726 5.77234 3.69407 5.00608 3.47677V3.41387H8.16262H8.41422H9.1862H9.25483C10.347 3.41387 11.5307 3.9228 11.6394 5.05504C11.7023 5.72981 11.5079 6.15869 11.2563 6.45032C11.119 6.61044 10.9189 6.83345 10.53 6.98785C10.856 7.10793 11.9596 7.59971 11.9768 8.65189C11.9825 9.06934 11.8167 10.436 9.90672 10.5447C9.56934 10.5618 8.74589 10.5733 8.60293 10.5733H8.31129V10.4303H8.60293C8.74589 10.4303 9.02609 10.4189 9.07184 10.4189C9.68942 10.3617 10.2155 10.0586 10.4843 9.5554C10.5014 9.52109 10.5186 9.48678 10.5357 9.45247C10.6215 9.25232 10.673 9.03502 10.673 8.80057C10.673 7.90851 9.95247 7.17656 9.0604 7.17656C9.05468 7.17656 8.89457 7.17656 8.81451 7.17656C8.68299 7.17656 8.24839 7.17656 8.24839 7.17656V7.0336H8.41422C8.55718 7.0336 8.84882 7.02788 8.87741 7.02788C9.76376 6.96498 10.49 6.29593 10.49 5.40386C10.49 4.51751 9.7752 3.79128 8.89457 3.78556C8.7802 3.78556 8.26555 3.77984 8.26555 3.77984H8.04253H7.75661V4.38599V6.43317V7.86276V9.74982V11.1451H11.6851L12.0054 12.5919H6.10972V12.5861Z" fill="url(#paint1_linear_8127_27555)"/>
    </g>
    <defs>
        <linearGradient id="paint0_linear_8127_27555" x1="8.5" y1="0" x2="8.5" y2="16" gradientUnits="userSpaceOnUse">
            <stop stop-color="#FFBD12"/>
            <stop offset="1" stop-color="#D8860A"/>
        </linearGradient>
        <linearGradient id="paint1_linear_8127_27555" x1="9.08182" y1="0" x2="9.08182" y2="16" gradientUnits="userSpaceOnUse">
            <stop stop-color="#FFEAB4"/>
            <stop offset="1" stop-color="#F0C164"/>
        </linearGradient>
        <clipPath id="clip0_8127_27555">
            <rect width="16" height="16" fill="white" transform="translate(0.5)"/>
        </clipPath>
    </defs>
</svg>
