<svg viewBox="0 0 87 86" xmlns="http://www.w3.org/2000/svg">
  <path d="M66.484 71H19.516C18.127 71 17 69.873 17 68.482V24H69V68.482C69 69.873 67.874 71 66.484 71Z" fill="#FF5389"/>
  <path d="M43 71H66.484C67.874 71 69 69.873 69 68.482V24H43V71Z" fill="#FE2C6D"/>
  <path d="M70.471 27H16.529C15.132 27 14 25.909 14 24.563V16.438C14 15.091 15.132 14 16.529 14H70.471C71.868 14 73 15.091 73 16.438V24.563C73 25.909 71.868 27 70.471 27Z" fill="#FF719D"/>
  <path d="M69.429 14H42V27H69.429C70.849 27 72 25.909 72 24.563V16.438C72 15.091 70.849 14 69.429 14Z" fill="#FF5389"/>
  <path d="M41 13H46V70H41V13Z" fill="#FFDD54"/>
  <path d="M43 13H45V70H43V13Z" fill="#FFB454"/>
  <path d="M49.737 0C47.084 0 44.69 1.151 43 2.99C41.31 1.151 38.916 0 36.263 0C31.155 0 27 4.262 27 9.5C27 14.738 31.155 19 36.263 19H49.737C54.845 19 59 14.738 59 9.5C59 4.262 54.845 0 49.737 0ZM32.053 9.5C32.053 7.119 33.941 5.182 36.263 5.182C38.585 5.182 40.474 7.119 40.474 9.5V13.818H36.263C33.941 13.818 32.053 11.881 32.053 9.5ZM49.737 13.818H45.526V9.5C45.526 7.119 47.415 5.182 49.737 5.182C52.059 5.182 53.947 7.119 53.947 9.5C53.947 11.881 52.059 13.818 49.737 13.818Z" fill="#FFDD54"/>
  <path d="M49.737 19C54.844 19 59 14.738 59 9.5C59 4.262 54.844 0 49.737 0C47.084 0 44.69 1.151 43 2.99V19H49.737ZM45.526 9.5C45.526 7.119 47.415 5.182 49.737 5.182C52.059 5.182 53.947 7.119 53.947 9.5C53.947 11.881 52.059 13.818 49.737 13.818H45.526V9.5Z" fill="#FFB454"/>
  <path d="M12.5898 86C11.6128 86 10.6838 85.425 10.2748 84.465L0.203825 60.828C-0.0591752 60.211 -0.0681752 59.514 0.179825 58.89C0.427825 58.266 0.911825 57.767 1.52582 57.503L10.7818 53.513C12.0598 52.962 13.5398 53.558 14.0878 54.843L24.1588 78.48C24.4218 79.097 24.4308 79.794 24.1828 80.418C23.9348 81.041 23.4508 81.54 22.8368 81.805L13.5808 85.795C13.2568 85.934 12.9208 86 12.5898 86Z" fill="#696E73"/>
  <path d="M22.363 82.0087H55.403C58.513 82.0087 61.5 80.8577 63.814 78.7687L83.8689 60.6557C86.4249 58.3477 86.646 54.3957 84.363 51.8137C82.089 49.2397 78.178 48.9897 75.598 51.2517L58.614 66.1417C58.155 66.5437 57.568 66.7657 56.96 66.7657H38.971L42.136 55.3057L41.124 54.1447C37.531 50.0217 32.559 47.5247 27.123 47.1137C21.688 46.7017 16.4 48.4217 12.234 51.9557L10.002 53.8497L22.363 82.0087Z" fill="#FFC2AA"/>
  <path d="M60.5351 60.4374C60.5351 63.9324 57.7181 66.7664 54.2441 66.7664H35.7131C35.0791 66.7664 34.4541 66.5884 33.9821 66.2344C33.1761 65.6294 32.9321 64.6904 33.3121 63.8824L37.2691 55.4594C37.6481 54.6544 38.5751 54.1244 39.6081 54.1224L54.2381 54.1094C57.7151 54.1064 60.5351 56.9404 60.5351 60.4374Z" fill="#FFC2AA"/>
  <path d="M54.2397 54.1094L42.9707 54.1194V66.7664H54.2457C57.7207 66.7664 60.5367 63.9324 60.5367 60.4374C60.5367 56.9404 57.7167 54.1064 54.2397 54.1094Z" fill="#FAB493"/>
  <path d="M84.3637 51.8143C82.0887 49.2403 78.1777 48.9903 75.5977 51.2523L58.6137 66.1423C58.1547 66.5443 57.5677 66.7663 56.9597 66.7663H42.9707V82.0103H55.4027C58.5127 82.0103 61.4997 80.8593 63.8137 78.7693L83.8687 60.6563C86.4247 58.3483 86.6457 54.3963 84.3637 51.8143Z" fill="#FAB493"/>
  <path d="M35.7148 71.8308H54.2458C60.4908 71.8308 65.5728 66.7188 65.5728 60.4368C65.5728 60.3068 65.5668 60.1788 65.5628 60.0498L58.6138 66.1418C58.1548 66.5438 57.5678 66.7658 56.9598 66.7658H35.7148V71.8308Z" fill="#FAB493"/>
  <path d="M58.6137 66.1418C58.1547 66.5438 57.5677 66.7658 56.9597 66.7658H42.9707V71.8308H54.2457C60.4907 71.8308 65.5727 66.7198 65.5727 60.4368C65.5727 60.3068 65.5667 60.1788 65.5627 60.0498L58.6137 66.1418Z" fill="#F5A07D"/>
</svg>
