<svg viewBox="0 0 44 44" fill="none" xmlns="http://www.w3.org/2000/svg">
<g clip-path="url(#clip0_250_5937)">
<path d="M42.7104 15.5547H41.4214V14.2656C41.4214 13.5531 40.8448 12.9766 40.1323 12.9766C39.4198 12.9766 38.8433 13.5531 38.8433 14.2656V15.5547H37.5542C36.8417 15.5547 36.2651 16.1312 36.2651 16.8438C36.2651 17.5563 36.8417 18.1328 37.5542 18.1328H38.8433V19.4219C38.8433 20.1344 39.4198 20.7109 40.1323 20.7109C40.8448 20.7109 41.4214 20.1344 41.4214 19.4219V18.1328H42.7104C43.423 18.1328 43.9995 17.5563 43.9995 16.8438C43.9995 16.1312 43.423 15.5547 42.7104 15.5547Z" fill="#B2BCC9"/>
<path d="M37.4683 10.3984C38.1802 10.3984 38.7573 9.8213 38.7573 9.10938C38.7573 8.39745 38.1802 7.82031 37.4683 7.82031C36.7563 7.82031 36.1792 8.39745 36.1792 9.10938C36.1792 9.8213 36.7563 10.3984 37.4683 10.3984Z" fill="#B2BCC9"/>
<path d="M32.3125 18.1328C33.0244 18.1328 33.6016 17.5557 33.6016 16.8438C33.6016 16.1318 33.0244 15.5547 32.3125 15.5547C31.6006 15.5547 31.0234 16.1318 31.0234 16.8438C31.0234 17.5557 31.6006 18.1328 32.3125 18.1328Z" fill="#B2BCC9"/>
<path d="M21.0885 31.401C21.5921 30.8975 22.4079 30.8975 22.9114 31.401L23.2891 31.7787V20.7109H20.7109V31.7787L21.0885 31.401Z" fill="#B2BCC9"/>
<path d="M34.8904 20.711H25.867V34.8906C25.8672 35.1456 25.7917 35.3949 25.65 35.6069C25.5084 35.8189 25.307 35.984 25.0714 36.0815C24.8358 36.1791 24.5766 36.2047 24.3266 36.1549C24.0765 36.1052 23.8468 35.9823 23.6666 35.802L21.9998 34.1352L20.3331 35.802C20.1531 35.9827 19.9233 36.1058 19.6732 36.1556C19.423 36.2053 19.1636 36.1795 18.9282 36.0815C18.6926 35.984 18.4912 35.8188 18.3495 35.6069C18.2079 35.3949 18.1324 35.1456 18.1326 34.8906V20.711H17.4098L7.8202 26.2477V42.7109C7.8202 43.4234 8.39676 43.9999 9.10926 43.9999H34.8904C35.6029 43.9999 36.1794 43.4234 36.1794 42.7109V22.0001C36.1794 21.2876 35.6029 20.711 34.8904 20.711ZM31.8614 7.90117L29.2835 3.43588C29.1123 3.13994 28.8307 2.92399 28.5005 2.83544C28.1703 2.74826 27.819 2.79437 27.5224 2.96383L23.5566 5.25354C23.5597 4.35412 23.3465 3.37882 22.8848 2.57961C22.1962 1.3862 21.0847 0.532762 19.754 0.176467C18.4259 -0.17725 17.0349 0.00399142 15.8416 0.691315C14.1887 1.64676 13.2005 3.42549 13.2659 5.33389L13.2748 5.60579C13.2748 5.61585 13.2748 5.6247 13.2761 5.63475L13.402 9.44228L10.2234 7.46169C10.2221 7.4604 10.2197 7.4592 10.2184 7.45791L9.98676 7.3131C8.36539 6.3048 6.33358 6.26699 4.67826 7.22244C3.48485 7.91105 2.63141 9.02256 2.27512 10.3532C1.91882 11.6839 2.10144 13.0735 2.78997 14.267C3.26047 15.0803 3.92279 15.7128 4.68436 16.1497L0.644808 18.4325C0.0281235 18.7886 -0.183024 19.5769 0.172927 20.1936L2.83654 24.6592C3.1925 25.2757 3.9808 25.4871 4.59748 25.1311L31.3897 9.66211C32.0062 9.30624 32.2174 8.51785 31.8614 7.90117ZM8.54388 13.9213C7.31163 14.63 5.73271 14.2087 5.02304 12.978C4.31183 11.7469 4.73601 10.1657 5.96715 9.45577C6.7942 8.97616 7.81264 8.99627 8.62208 9.50106L12.266 11.7723L8.54388 13.9213ZM20.9097 5.91078C20.7323 6.57482 20.3059 7.13075 19.71 7.47441L15.9868 9.62403L15.8416 5.24572C15.8256 4.77825 15.9372 4.31526 16.1643 3.90634C16.3913 3.49742 16.7254 3.15799 17.1306 2.92439C17.7248 2.57823 18.4197 2.48886 19.0869 2.66632C19.7515 2.84507 20.308 3.27183 20.6516 3.86849C20.9966 4.46532 21.0884 5.24486 20.9097 5.91078Z" fill="#B2BCC9"/>
</g>
<defs>
<clipPath id="clip0_250_5937">
<rect width="44" height="44" fill="white"/>
</clipPath>
</defs>
</svg>
