<svg viewBox="0 0 48 50" version="1.1" xmlns="http://www.w3.org/2000/svg" xmlns:xlink="http://www.w3.org/1999/xlink">
    <path d="M39.153527,32.0954357 C36.280083,32.0954357 33.7178423,33.4647303 32.0788382,35.5809129 L18.3547718,27.9149378 C18.6763485,26.9917012 18.8526971,25.9958506 18.8526971,24.9688797 C18.8526971,23.9315353 18.6763485,22.9460581 18.3443983,22.0124481 L32.0580913,14.3568465 C33.686722,16.4834025 36.2593361,17.8630705 39.1431535,17.8630705 C44.060166,17.8630705 48.0746888,13.8589212 48.0746888,8.93153527 C48.0746888,4.00414938 44.0705394,0 39.1431535,0 C34.2157676,0 30.2116183,4.00414938 30.2116183,8.93153527 C30.2116183,9.96887967 30.3879668,10.9647303 30.719917,11.8879668 L17.0165975,19.5435685 C15.3879668,17.406639 12.8153527,16.0373444 9.93153527,16.0373444 C5.01452282,16.0373444 1,20.0414938 1,24.9688797 C1,29.8962656 5.01452282,33.9004149 9.94190871,33.9004149 C12.8257261,33.9004149 15.3983402,32.5207469 17.0373444,30.3838174 L30.7510373,38.0497925 C30.4190871,38.9834025 30.2323651,39.9896266 30.2323651,41.026971 C30.2323651,45.9439834 34.2365145,49.9585062 39.1639004,49.9585062 C44.0912863,49.9585062 48.0954357,45.9543568 48.0954357,41.026971 C48.0954357,36.0995851 44.0809129,32.0954357 39.153527,32.0954357 Z M39.153527,2.81120332 C42.5352697,2.81120332 45.2842324,5.56016598 45.2842324,8.94190871 C45.2842324,12.3236515 42.5352697,15.0726141 39.153527,15.0726141 C35.7717842,15.0726141 33.0228216,12.3236515 33.0228216,8.94190871 C33.0228216,5.56016598 35.7821577,2.81120332 39.153527,2.81120332 Z M9.94190871,31.0995851 C6.56016598,31.0995851 3.81120332,28.3506224 3.81120332,24.9688797 C3.81120332,21.5871369 6.56016598,18.8381743 9.94190871,18.8381743 C13.3236515,18.8381743 16.0726141,21.5871369 16.0726141,24.9688797 C16.0726141,28.3506224 13.313278,31.0995851 9.94190871,31.0995851 Z M39.153527,47.1473029 C35.7717842,47.1473029 33.0228216,44.3983402 33.0228216,41.0165975 C33.0228216,37.6348548 35.7717842,34.8858921 39.153527,34.8858921 C42.5352697,34.8858921 45.2842324,37.6348548 45.2842324,41.0165975 C45.2842324,44.3983402 42.5352697,47.1473029 39.153527,47.1473029 Z"></path>
</svg>