<svg viewBox="0 0 16 16" version="1.1" xmlns="http://www.w3.org/2000/svg" xmlns:xlink="http://www.w3.org/1999/xlink">
    <path d="M11.2914102,3.06284452 C12.2003131,3.06284452 12.9371233,3.79965472 12.9371233,4.70855765 L12.9371233,4.70855765 L12.9371233,14.0342547 C12.9371233,14.9431577 12.2003131,15.6799679 11.2914102,15.6799679 L11.2914102,15.6799679 L1.96571314,15.6799679 C1.0568102,15.6799679 0.32,14.9431577 0.32,14.0342547 L0.32,14.0342547 L0.32,4.70855765 C0.32,3.79965472 1.0568102,3.06284452 1.96571314,3.06284452 L1.96571314,3.06284452 L11.2914102,3.06284452 Z M11.2914102,4.15997589 L1.96571314,4.15997589 C1.66273478,4.15997589 1.41713138,4.40557929 1.41713138,4.70855765 L1.41713138,4.70855765 L1.41713138,14.0342869 C1.41713138,14.3372652 1.66273478,14.5828686 1.96571314,14.5828686 L1.96571314,14.5828686 L11.2914102,14.5828686 C11.5943886,14.5828686 11.839992,14.3372652 11.839992,14.0342869 L11.839992,14.0342869 L11.839992,4.70855765 C11.839992,4.40557929 11.5943886,4.15997589 11.2914102,4.15997589 L11.2914102,4.15997589 Z M14.0342869,0.32 C14.9431898,0.32 15.68,1.0568102 15.68,1.96571314 L15.68,1.96571314 L15.68,11.8400241 C15.68,12.748927 14.9431898,13.4857372 14.0342869,13.4857372 C13.7313085,13.4857372 13.4857051,13.2401338 13.4857051,12.9371555 C13.4857051,12.6341771 13.7313085,12.3885737 14.0342869,12.3885737 L14.1232709,12.3813939 C14.3839299,12.3388793 14.5828686,12.1126725 14.5828686,11.839992 L14.5828686,11.839992 L14.5828686,1.96571314 C14.5828686,1.66273478 14.3372652,1.41713138 14.0342869,1.41713138 L14.0342869,1.41713138 L4.16000804,1.41713138 C3.85702968,1.41713138 3.61142628,1.66273478 3.61142628,1.96571314 L3.6042473,2.05469717 C3.56173795,2.31535614 3.33555718,2.5142949 3.06287666,2.5142949 C2.7598983,2.5142949 2.5142949,2.2686915 2.5142949,1.96571314 C2.5142949,1.0568102 3.2511051,0.32 4.16000804,0.32 L4.16000804,0.32 L14.0342869,0.32 Z"></path>
</svg>