<svg viewBox="0 0 60 40" version="1.1" xmlns="http://www.w3.org/2000/svg" xmlns:xlink="http://www.w3.org/1999/xlink">
    <path d="M48.6693371,28.5712647 C47.2147119,28.5712647 45.8328179,29.1409929 44.7903364,30.1713525 C43.747855,31.2138339 43.1660049,32.5714842 43.1660049,34.0261094 C43.1660049,35.4807347 43.7357331,36.8383849 44.7903364,37.8808664 C45.8449397,38.911226 47.2147119,39.4809542 48.6693371,39.4809542 C51.6513189,39.4809542 54.0756944,37.032335 54.0756944,34.0261094 C54.0756944,31.0198839 51.6513189,28.5712647 48.6693371,28.5712647 Z M48.6693371,37.0565787 C46.9965181,37.0565787 45.5903803,35.6746847 45.5903803,34.0261094 C45.5903803,32.3775341 46.9965181,30.9956401 48.6693371,30.9956401 C50.3179124,30.9956401 51.6513189,32.3532904 51.6513189,34.0261094 C51.6513189,35.6989285 50.3179124,37.0565787 48.6693371,37.0565787 Z M50.0754749,11.3029771 C49.8572811,11.0969052 49.5663561,10.9878083 49.2633091,10.9878083 L43.0447861,10.9878083 C42.3780828,10.9878083 41.8325984,11.5332928 41.8325984,12.199996 L41.8325984,22.1399353 C41.8325984,22.8066386 42.3780828,23.3521231 43.0447861,23.3521231 L52.9119942,23.3521231 C53.5786974,23.3521231 54.1241819,22.8066386 54.1241819,22.1399353 L54.1241819,15.4850247 C54.1241819,15.1456122 53.9787194,14.8183215 53.7241599,14.5880058 L50.0754749,11.3029771 Z M51.6998064,20.9277476 L44.2569738,20.9277476 L44.2569738,13.4000619 L48.7905559,13.4000619 L51.6998064,16.0183873 L51.6998064,20.9277476 Z M19.0677129,28.5712647 C17.6130876,28.5712647 16.2311936,29.1409929 15.1887122,30.1713525 C14.1462307,31.2138339 13.5643806,32.5714842 13.5643806,34.0261094 C13.5643806,35.4807347 14.1341089,36.8383849 15.1887122,37.8808664 C16.2433155,38.911226 17.6130876,39.4809542 19.0677129,39.4809542 C22.0496947,39.4809542 24.4740702,37.032335 24.4740702,34.0261094 C24.4740702,31.0198839 22.0496947,28.5712647 19.0677129,28.5712647 Z M19.0677129,37.0565787 C17.3948938,37.0565787 15.9887561,35.6746847 15.9887561,34.0261094 C15.9887561,32.3775341 17.3948938,30.9956401 19.0677129,30.9956401 C20.7162882,30.9956401 22.0496947,32.3532904 22.0496947,34.0261094 C22.0496947,35.6989285 20.7162882,37.0565787 19.0677129,37.0565787 Z M10.9824208,30.964662 L8.54592346,30.964662 L8.54592346,27.7402426 C8.54592346,27.0735394 8.00043898,26.5280549 7.33373573,26.5280549 C6.66703248,26.5280549 6.12154801,27.0735394 6.12154801,27.7402426 L6.12154801,32.1768497 C6.12154801,32.843553 6.66703248,33.3890374 7.33373573,33.3890374 L10.9824208,33.3890374 C11.649124,33.3890374 12.1946085,32.843553 12.1946085,32.1768497 C12.1946085,31.5101465 11.649124,30.964662 10.9824208,30.964662 Z M17.1282125,23.4558325 C17.1282125,22.7891292 16.5827281,22.2436447 15.9160248,22.2436447 L1.21218772,22.2436447 C0.545484476,22.2436447 5.15143483e-14,22.7891292 5.15143483e-14,23.4558325 C5.15143483e-14,24.1225357 0.545484476,24.6680202 1.21218772,24.6680202 L15.9160248,24.6680202 C16.5827281,24.6680202 17.1282125,24.1346576 17.1282125,23.4558325 Z M3.67292881,19.9822412 L18.3767659,20.0670943 C19.0434692,20.0670943 19.5889536,19.5337317 19.6010755,18.8670285 C19.6131974,18.1882034 19.0677129,17.6427189 18.4010097,17.6427189 L3.69717256,17.5578658 C3.68505068,17.5578658 3.68505068,17.5578658 3.68505068,17.5578658 C3.01834743,17.5578658 2.47286296,18.0912284 2.47286296,18.7579316 C2.46074108,19.4367567 3.00622556,19.9822412 3.67292881,19.9822412 Z M6.14579176,15.3813153 L20.8496289,15.3813153 C21.5163321,15.3813153 22.0618166,14.8358309 22.0618166,14.1691276 C22.0618166,13.5024244 21.5163321,12.9569399 20.8496289,12.9569399 L6.14579176,12.9569399 C5.47908851,12.9569399 4.93360404,13.5024244 4.93360404,14.1691276 C4.93360404,14.8358309 5.47908851,15.3813153 6.14579176,15.3813153 Z M59.0820297,12.9652127 L50.4027656,5.8198864 C50.1845718,5.6391445 49.9178905,5.5427489 49.6269654,5.5427489 L39.4203448,5.5427489 L39.4203448,1.20494541 C39.4203448,0.54222544 38.8748603,0 38.2081571,0 L7.33373573,0 C6.66703248,0 6.12154801,0.54222544 6.12154801,1.20494541 L6.12154801,9.5731298 C6.12154801,10.2358498 6.66703248,10.7780752 7.33373573,10.7780752 C8.00043898,10.7780752 8.54592346,10.2358498 8.54592346,9.5731298 L8.54592346,2.40989083 L37.0080912,2.40989083 L37.0080912,30.9791466 L27.0681519,30.9791466 C26.4014486,30.9791466 25.8559642,31.521372 25.8559642,32.184092 C25.8559642,32.846812 26.4014486,33.3890374 27.0681519,33.3890374 L41.868964,33.3890374 C42.5356673,33.3890374 43.0811517,32.846812 43.0811517,32.184092 C43.0811517,31.521372 42.5356673,30.9791466 41.868964,30.9791466 L39.4324667,30.9791466 L39.4324667,7.9526397 L49.2026997,7.9526397 L57.1061637,14.459345 L57.0213106,30.9550477 L55.7606353,30.9550477 C55.0939321,30.9550477 54.5484476,31.4972731 54.5484476,32.1599931 C54.5484476,32.8227131 55.0939321,33.3649385 55.7606353,33.3649385 L58.2213764,33.3649385 C58.8880797,33.3649385 59.4335641,32.8347625 59.4335641,32.1720426 L59.5305391,13.9050701 C59.5184173,13.5435865 59.3608329,13.1941523 59.0820297,12.9652127 Z"></path>
</svg>