<svg viewBox="0 0 48 48" version="1.1" xmlns="http://www.w3.org/2000/svg" xmlns:xlink="http://www.w3.org/1999/xlink">
    <path d="M38.4537187,0.0714375 C38.8039687,-0.0736875 39.2072812,0.00646875 39.4754062,0.27459375 L39.4754062,0.27459375 L47.7254062,8.52459375 C48.0915,8.8906875 48.0915,9.4843125 47.7254062,9.8505 L47.7254062,9.8505 L39.4754062,18.1005 C39.2072812,18.368625 38.8039687,18.4487812 38.4537187,18.3036562 C38.1034687,18.1585312 37.875,17.816625 37.875,17.4375 L37.875,17.4375 L37.875,15 L33.9375,15 C31.559625,15 29.625,16.934625 29.625,19.3125 L29.625,19.3125 L29.625,47.0624062 C29.625,47.5801875 29.2052812,47.9999062 28.6875,47.9999062 L28.6875,47.9999062 L18.9375,47.9999062 C18.4197187,47.9999062 18,47.5801875 18,47.0624062 L18,47.0624062 L18,38.9999062 C18,36.6220312 16.065375,34.6874062 13.6875,34.6874062 L13.6875,34.6874062 L10.125,34.6874062 L10.125,37.1249062 C10.125,37.504125 9.896625,37.8459375 9.5462812,37.9910625 C9.1959375,38.1362812 8.79271875,38.0559375 8.52459375,37.7879062 L8.52459375,37.7879062 L0.27459375,29.5379062 C-0.0915,29.1717187 -0.0915,28.5780937 0.27459375,28.212 L0.27459375,28.212 L8.52459375,19.962 C8.792625,19.6940625 9.1960312,19.6137187 9.5462812,19.7588437 C9.8965312,19.9039687 10.125,20.245875 10.125,20.625 L10.125,20.625 L10.125,23.0625 L13.6875,23.0625 C15.1814062,23.0625 16.627875,23.2695937 18,23.65575 L18,23.65575 L18,19.3125 C18,14.9098125 19.7558437,10.8119062 22.944,7.7735625 C23.3187187,7.41628125 23.9121562,7.430625 24.2694375,7.8054375 C24.626625,8.18025 24.612375,8.7736875 24.2375625,9.130875 C21.4243125,11.8118437 19.875,15.4277812 19.875,19.3125 L19.875,19.3125 L19.875,24.31275 C23.2491562,25.739625 26.0326875,28.2968437 27.75,31.50675 L27.75,31.50675 L27.75,19.3125 C27.75,15.9006562 30.5256562,13.125 33.9375,13.125 L33.9375,13.125 L38.8125,13.125 C39.3302812,13.125 39.75,13.5447187 39.75,14.0625 L39.75,14.0625 L39.75,15.1741875 L45.7366875,9.1875 L39.75,3.2008125 L39.75,4.3125 C39.75,4.83028125 39.3302812,5.25 38.8125,5.25 L38.8125,5.25 L33.9375,5.25 C32.6594062,5.25 31.3930312,5.42128125 30.1738125,5.7590625 C29.6746875,5.8970625 29.1583125,5.60484375 29.0200312,5.10590625 C28.8818437,4.60696875 29.17425,4.09040625 29.6731875,3.952125 C31.0554375,3.56915625 32.4901875,3.375 33.9375,3.375 L33.9375,3.375 L37.875,3.375 L37.875,0.9375 C37.875,0.558375 38.1034687,0.21646875 38.4537187,0.0714375 Z M8.25,22.8883125 L2.2633125,28.875 L8.25,34.8616875 L8.25,33.75 C8.25,33.2322187 8.66971875,32.8125 9.1875,32.8125 L9.1875,32.8125 L13.6875,32.8125 C17.0993437,32.8125 19.875,35.5881562 19.875,39 L19.875,39 L19.875,46.125 L23.25,46.125 L23.25,39.8510625 C23.25,39.3332812 23.6697187,38.9135625 24.1875,38.9135625 C24.7052812,38.9135625 25.125,39.3332812 25.125,39.8510625 L25.125,39.8510625 L25.125,46.125 L27.75,46.125 L27.75,39 C27.75,31.2459375 21.4415625,24.9375 13.6875,24.9375 L13.6875,24.9375 L9.1875,24.9375 C8.66971875,24.9375 8.25,24.5177812 8.25,24 L8.25,24 L8.25,22.8883125 Z M24.1875,35.2940625 C24.4340625,35.2940625 24.6759375,35.3934375 24.8503125,35.56875 C25.0246875,35.743125 25.125,35.9840625 25.125,36.2315625 C25.125,36.478125 25.0246875,36.72 24.8503125,36.894375 C24.6759375,37.06875 24.4340625,37.1690625 24.1875,37.1690625 C23.9409375,37.1690625 23.6990625,37.06875 23.5246875,36.894375 C23.3503125,36.72 23.25,36.478125 23.25,36.2315625 C23.25,35.9840625 23.3503125,35.743125 23.5246875,35.56875 C23.6990625,35.3934375 23.9409375,35.2940625 24.1875,35.2940625 Z M26.1599062,5.3985 C26.6112187,5.144625 27.1828125,5.30475 27.4366875,5.75596875 C27.6905625,6.20728125 27.5304375,6.778875 27.0792187,7.03275 L27.0792187,7.03275 L27.0330937,7.05871875 C26.8877812,7.140375 26.7299062,7.17928125 26.5742812,7.17928125 C26.2464375,7.17928125 25.9283437,7.00715625 25.7563125,6.70125 C25.5024375,6.2499375 25.6625625,5.67834375 26.1137812,5.42446875 L26.1137812,5.42446875 L26.1599062,5.3985 Z"></path>
</svg>