<svg viewBox="0 0 46 34" version="1.1" xmlns="http://www.w3.org/2000/svg" xmlns:xlink="http://www.w3.org/1999/xlink">
    <path d="M41.6874819,0 C44.0655173,0 46,1.906444 46,4.2500119 L46,11.3333651 C46,12.1164302 45.3570758,12.7500358 44.562494,12.7500358 C42.1844585,12.7500358 40.2499758,14.6564798 40.2499758,17.0000477 C40.2499758,19.3436156 42.1844585,21.2500596 44.562494,21.2500596 C45.3570758,21.2500596 46,21.8836652 46,22.6667303 L46,29.7500835 C46,32.093556 44.0655173,34 41.6873851,34 L4.31251815,34 C1.93448266,34 0,32.093556 0,29.7499881 L0,22.6666349 C0,21.8835698 0.64292417,21.2499642 1.43750605,21.2499642 C3.81554154,21.2499642 5.7500242,19.3435202 5.7500242,16.9999523 C5.7500242,14.6563844 3.81554154,12.7499404 1.43750605,12.7499404 C0.64292417,12.7500358 0,12.1164302 0,11.3333651 L0,4.2500119 C0,1.906444 1.93448266,0 4.31251815,0 L41.6874819,0 Z M41.6874819,2.8333413 L4.31251815,2.8333413 C3.519388,2.8333413 2.8750121,3.4683775 2.8750121,4.2500119 L2.8750121,10.0591914 C6.15147677,10.7176909 8.6250363,13.5786922 8.6250363,17.0000477 C8.6250363,20.4214031 6.15147677,23.2823091 2.8750121,23.9408086 L2.8750121,29.7499881 C2.8750121,30.5316225 3.519388,31.1666587 4.31251815,31.1666587 L41.6874819,31.1666587 C42.480612,31.1666587 43.1249879,30.5316225 43.1249879,29.7499881 L43.1249879,23.9408086 C39.8485232,23.2823091 37.3749637,20.4213078 37.3749637,16.9999523 C37.3749637,13.5785969 39.8484264,10.7176909 43.1249879,10.059096 L43.1249879,4.2500119 C43.1249879,3.4683775 42.480612,2.8333413 41.6874819,2.8333413 Z M25.9642749,5.1578899 L28.6561921,6.1527274 L20.0342619,28.8112947 L17.3423447,27.8164572 L25.9642749,5.1578899 Z M30.5,18 C32.9814179,18 35,20.0185821 35,22.5 C35,24.9814179 32.9814179,27 30.5,27 C28.0185821,27 26,24.9814179 26,22.5 C26,20.0185821 28.0185821,18 30.5,18 Z M30.5,21 C29.6723894,21 29,21.6723894 29,22.5 C29,23.3276106 29.6723894,24 30.5,24 C31.3276106,24 32,23.3276106 32,22.5 C32,21.6723894 31.3276106,21 30.5,21 Z M16.5,9 C18.9814179,9 21,11.0185821 21,13.5 C21,15.9814179 18.9814179,18 16.5,18 C14.0185821,18 12,15.9814179 12,13.5 C12,11.0185821 14.0185821,9 16.5,9 Z M16.5,12 C15.6723894,12 15,12.6723894 15,13.5 C15,14.3276106 15.6723894,15 16.5,15 C17.3276106,15 18,14.3276106 18,13.5 C18,12.6723894 17.3276106,12 16.5,12 Z"></path>
</svg>