<svg viewBox="0 0 20 12" version="1.1" xmlns="http://www.w3.org/2000/svg" xmlns:xlink="http://www.w3.org/1999/xlink">
    <path d="M3.87097656,0.0138671875 L3.87097656,0.336445313 C3.87097656,0.514726563 4.01523438,0.659023438 4.19355469,0.659023438 C4.37183594,0.659023438 4.51613281,0.514765625 4.51613281,0.336445313 L4.51613281,0.336445313 L4.51613281,0.0138671875 L19.3548438,0.0138671875 C19.7111328,0.0138671875 20,0.302695313 20,0.659023438 L20,0.659023438 L20,10.9816016 C20,11.3378906 19.7111328,11.6267578 19.3548438,11.6267578 L19.3548438,11.6267578 L4.51613281,11.6267578 L4.51613281,11.3041797 C4.51613281,11.1258984 4.371875,10.9816016 4.19355469,10.9816016 C4.01527344,10.9816016 3.87097656,11.1258594 3.87097656,11.3041797 L3.87097656,11.3041797 L3.87097656,11.6267578 L0.64515625,11.6267578 C0.288867187,11.6267578 0,11.3378906 0,10.9816016 L0,10.9816016 L0,8.141875 C0,7.97929688 0.0799609375,7.82472656 0.218242187,7.73917969 C0.861171875,7.34152344 1.2903125,6.63183594 1.2903125,5.8203125 C1.2903125,5.00875 0.861171875,4.29910156 0.218242187,3.90144531 C0.0799609375,3.81589844 0,3.66136719 0,3.49875 L0,3.49875 L0,0.659023438 C0,0.302695313 0.288867187,0.0138671875 0.64515625,0.0138671875 L0.64515625,0.0138671875 L3.87097656,0.0138671875 Z M4.19355469,9.04613281 C4.01527344,9.04613281 3.87097656,9.19039063 3.87097656,9.36871094 L3.87097656,9.36871094 L3.87097656,10.0138672 C3.87097656,10.1921484 4.01523438,10.3364453 4.19355469,10.3364453 C4.37183594,10.3364453 4.51613281,10.1921875 4.51613281,10.0138672 L4.51613281,10.0138672 L4.51613281,9.36871094 C4.51613281,9.19042969 4.371875,9.04613281 4.19355469,9.04613281 Z M12.4391016,2.5746875 C12.2769531,2.1709375 11.7053906,2.1709375 11.5432422,2.5746875 L11.5432422,2.5746875 L10.8075391,4.40671875 L8.83785156,4.54027344 C8.40375,4.5696875 8.22710937,5.11328125 8.56101562,5.39226563 L8.56101562,5.39226563 L10.0760156,6.65808594 L9.594375,8.57265625 C9.48824219,8.99460938 9.95066406,9.33054688 10.3191406,9.09921875 L10.3191406,9.09921875 L11.9911719,8.04953125 L13.6632031,9.09921875 C14.0317187,9.33058594 14.4941016,8.99460938 14.3879687,8.57265625 L14.3879687,8.57265625 L13.9063281,6.65808594 L15.4213281,5.39226563 C15.7552344,5.11332031 15.5785937,4.56972656 15.1444922,4.54027344 L15.1444922,4.54027344 L13.1748047,4.40671875 Z M4.19355469,7.110625 C4.01527344,7.110625 3.87097656,7.25488281 3.87097656,7.43320313 L3.87097656,7.43320313 L3.87097656,8.07835938 C3.87097656,8.25664063 4.01523438,8.4009375 4.19355469,8.4009375 C4.37183594,8.4009375 4.51613281,8.25667969 4.51613281,8.07835938 L4.51613281,8.07835938 L4.51613281,7.43320313 C4.51613281,7.25492188 4.371875,7.110625 4.19355469,7.110625 Z M4.19355469,5.17515625 C4.01527344,5.17515625 3.87097656,5.31941406 3.87097656,5.49773438 L3.87097656,5.49773438 L3.87097656,6.14289063 C3.87097656,6.32117188 4.01523438,6.46546875 4.19355469,6.46546875 C4.37183594,6.46546875 4.51613281,6.32121094 4.51613281,6.14289063 L4.51613281,6.14289063 L4.51613281,5.49773438 C4.51613281,5.31945313 4.371875,5.17515625 4.19355469,5.17515625 Z M4.19355469,3.2396875 C4.01527344,3.2396875 3.87097656,3.38394531 3.87097656,3.56226563 L3.87097656,3.56226563 L3.87097656,4.20742188 C3.87097656,4.38570313 4.01523438,4.53 4.19355469,4.53 C4.37183594,4.53 4.51613281,4.38574219 4.51613281,4.20742188 L4.51613281,4.20742188 L4.51613281,3.56226563 C4.51613281,3.38398438 4.371875,3.2396875 4.19355469,3.2396875 Z M4.19355469,1.30417969 C4.01527344,1.30417969 3.87097656,1.4484375 3.87097656,1.62675781 L3.87097656,1.62675781 L3.87097656,2.27191406 C3.87097656,2.45019531 4.01523438,2.59449219 4.19355469,2.59449219 C4.37183594,2.59449219 4.51613281,2.45023438 4.51613281,2.27191406 L4.51613281,2.27191406 L4.51613281,1.62675781 C4.51613281,1.44847656 4.371875,1.30417969 4.19355469,1.30417969 Z" fill="#000000"></path>
</svg>