<svg viewBox="0 0 48 48" version="1.1" xmlns="http://www.w3.org/2000/svg" xmlns:xlink="http://www.w3.org/1999/xlink">
    <path d="M24.4,1.2 C37.6,1.2 48.3,11.9 48.3,25 C48.3,38.1 37.6,48.8 24.5,48.8 C13.7,48.8 4.5,41.6 1.6,31.7 L1.6,31.7 L1.55787037,31.6421296 C1.5,31.5333333 1.5,31.3666667 1.5,31.2 C1.5,30.3 2.3,29.5 3.2,29.5 C4,29.5 4.6,30.1 4.8,30.9 L4.8,30.9 L4.80399306,30.9158565 C4.83263889,31.0291667 5.00833333,31.7166667 5.1,31.9 C7.8,40 15.5,45.9 24.6,45.9 C36,45.9 45.3,36.6 45.3,25.2 C45.3,13.8 36,4.5 24.6,4.5 C19.5,4.5 14.8,6.4 11.2,9.5 L11.2,9.5 L12.6,9.5 C13.3,9.5 13.9,10.1 13.9,10.8 C13.9,11.5 13.3,12.1 12.6,12.1 L12.6,12.1 L7.6,12.1 C6.9,12.1 6.3,11.5 6.3,10.8 L6.3,10.8 L6.3,5.7 C6.3,5 6.9,4.4 7.5,4.4 C8.3,4.4 8.8,5 8.8,5.7 L8.8,5.7 L8.8,7.1 C13,3.4 18.4,1.2 24.4,1.2 Z M25.1,11.2 C25.7,11.2 26.2,11.7 26.2,12.3 L26.2,12.3 L26.2,14.3 C26.2,14.5 26.4,14.5 26.4,14.5 L26.4104461,14.5017581 C26.5828402,14.5309172 28.8461538,14.9192308 30,15.4 C30.4,15.6 30.7,16 30.5,16.5 L30.5,16.5 L30,17.9 C29.8,18.3 29.4,18.6 29,18.6 C28.8,18.6 28.7,18.6 28.5,18.5 C28.5,18.5 27,17.7 25,17.7 C22.8,17.7 22,18.9 22,19.9 C22,21.2 22.8,21.9 25.8,23.1 C29.6,24.7 31.3,26.6 31.3,29.6 C31.3,32.5 29.4,34.8 26.2,35.5 C26.2,35.5 26,35.5 26,35.7 L26,35.7 L26,37.9 C26,38.5 25.5,39 24.9,39 L24.9,39 L23.9,39 C23.3,39 22.8,38.5 22.8,37.9 L22.8,37.9 L22.8,35.8 C22.8,35.7 22.6,35.6 22.6,35.6 C22.5,35.6 19.7,35.1 18.3,34.4 C17.9,34.2 17.6,33.8 17.8,33.3 L17.8,33.3 L18.3,31.9 C18.5,31.5 18.9,31.2 19.3,31.2 C19.5,31.2 19.7,31.2 19.8,31.3 C19.8,31.3 22.2,32.4 23.9,32.4 C25.9,32.4 27.3,31.3 27.3,29.7 C27.3,28.2 26.3,27.3 23.9,26.3 C20.8,25.2 18,23.6 18,20.2 C18,17.5 19.8,15.3 22.8,14.6 C22.8,14.6 23,14.6 23,14.4 L23,14.4 L23,12.3 C23,11.7 23.5,11.2 24.1,11.2 L24.1,11.2 Z"></path>
</svg>