<svg viewBox="0 0 20 20" version="1.1" xmlns="http://www.w3.org/2000/svg" xmlns:xlink="http://www.w3.org/1999/xlink">
    <path d="M10,0.4 C4.70656,0.4 0.4,4.70656 0.4,10 C0.4,15.29344 4.70656,19.6 10,19.6 C15.29344,19.6 19.6,15.29344 19.6,10 C19.6,4.70656 15.29344,0.4 10,0.4 Z M10.0639999,18.3840006 C5.47641146,18.3840006 1.744,14.6515878 1.744,10.0639994 C1.744,5.47641088 5.47641146,1.744 10.0639999,1.744 C14.6515886,1.744 18.3840001,5.47641088 18.3840001,10.0639994 C18.3840001,14.6515878 14.6515886,18.3840006 10.0639999,18.3840006 Z M10.5454973,9.20846464 C9.3554224,8.73140032 9.01160051,8.4429184 9.01160051,7.92196672 C9.01160051,7.50506944 9.32735987,7.01801728 10.2176151,7.01801728 C11.005049,7.01801728 11.6089542,7.32850048 11.6143423,7.33119424 C11.6778757,7.36509376 11.7491546,7.38316672 11.8197599,7.38316672 C11.9920637,7.38316672 12.1444993,7.27888576 12.2076961,7.11746944 L12.4240017,6.56452672 C12.4993216,6.36303808 12.3850511,6.18747904 12.2393505,6.12450688 C11.7545427,5.91347584 10.8070399,5.75015296 10.7973866,5.74846912 C10.7821204,5.74577536 10.7290261,5.73443776 10.7290261,5.67236224 L10.7259954,4.87022464 C10.7259954,4.62866176 10.5242821,4.432 10.2766586,4.432 L9.88861024,4.432 C9.64121114,4.432 9.43960998,4.6285504 9.43960998,4.870336 L9.44062029,5.71367104 C9.44062029,5.77832704 9.37057619,5.80638976 9.34498317,5.81233792 C8.1489591,6.09722944 7.40148602,6.9733408 7.40148602,8.07844288 C7.40148602,9.45608704 8.54026259,10.0786259 9.7698496,10.5459232 C10.7528232,10.9318394 11.1537804,11.323143 11.1537804,11.8970771 C11.1537804,12.5216358 10.5859074,12.9578387 9.7723191,12.9578387 C9.07760358,12.9578387 8.13739725,12.5174829 8.12808045,12.512992 C8.06791456,12.4844819 8.00415654,12.4701126 7.93860256,12.4701126 C7.75967584,12.4701126 7.60387283,12.5783219 7.54157402,12.745911 L7.33503405,13.3051418 C7.26162246,13.5139264 7.37465824,13.683424 7.51934848,13.758855 C8.09676275,14.0595731 9.21409965,14.2358061 9.2638265,14.2435514 C9.27718413,14.2454598 9.34520781,14.2693696 9.34520781,14.3315546 L9.34520781,15.1711859 C9.34520781,15.4127488 9.54692109,15.6094106 9.79465696,15.6094106 L10.195614,15.6094106 C10.443462,15.6094106 10.6451755,15.4128602 10.6451755,15.1711859 L10.6451755,14.2875539 C10.6451755,14.2049382 10.7061272,14.1976403 10.7186992,14.1946106 C11.9928494,13.9083731 12.7777016,12.9761363 12.7777016,11.805593 C12.7773649,10.6032832 12.1097018,9.82639936 10.5454973,9.20846464 Z"></path>
</svg>