<svg  viewBox="0 0 44 44" version="1.1" xmlns="http://www.w3.org/2000/svg" xmlns:xlink="http://www.w3.org/1999/xlink">
    <path d="M41.9723059,4.49026853 L39.5041808,2.02222939 C36.6134151,-0.86870819 31.6724384,-0.63152068 28.4903446,2.55083097 L6.22058612,24.8205035 L5.99783611,25.0431676 L0,43.9942775 L18.9511959,37.9965273 L41.4435325,15.5041048 C42.9655716,13.9821516 43.8686888,12.0138391 43.9867669,9.9617374 C44.1081107,7.8537764 43.392681,5.91055763 41.9723059,4.49026853 Z M3.95914074,40.0351368 L7.7219143,28.146113 L15.8481645,36.2723632 L3.95914074,40.0351368 Z M18.2616333,35.0372694 L8.9570081,25.7326442 L24.5486492,10.1409171 L33.8534463,19.4456283 L18.2616333,35.0372694 Z M41.411134,9.8135812 C41.3294934,11.232925 40.6930403,12.6059485 39.6192512,13.6798235 L35.6777276,17.621347 L26.3730164,8.3166358 L30.31454,4.37511228 C32.4909931,2.19865909 35.7948604,1.96181533 37.6798136,3.8465107 L40.1479387,6.31454983 C41.0410012,7.2075264 41.489509,8.4502686 41.411134,9.8135812 Z"></path>
</svg>