<?xml version="1.0" encoding="utf-8"?>
<svg viewBox="-20.084 58.308 536.288 383.808" xmlns="http://www.w3.org/2000/svg">
  <g transform="matrix(1, 0, 0, 1, -101.950417, -29.803804)">
    <path d="m551.56 471.92h-403.1c-18.328 0-34.977-7.4922-47.039-19.555s-19.555-28.711-19.555-47.039v-250.62c0-18.328 7.4922-34.977 19.555-47.039s28.711-19.555 47.039-19.555h403.1c18.328 0 34.977 7.4922 47.039 19.555s19.555 28.711 19.555 47.039v250.62c0 18.328-7.4922 34.977-19.555 47.039s-28.711 19.555-47.039 19.555zm19.355-34.441-153.25-138.01c-19.555 16.684-43.613 25.031-67.652 25.031-24.043 0-48.098-8.3516-67.652-25.031l-153.25 138.01c5.6602 3.4258 12.281 5.4102 19.355 5.4102h403.1c7.0547 0 13.691-1.9805 19.355-5.4102zm-131.56-157.48 148.78 133.98c0.65625-2.7891 1.0234-5.6953 1.0234-8.668v-250.62c0-2.9922-0.35156-5.8789-1.0234-8.668zm-327.45 133.98 148.78-133.98-148.78-133.98c-0.65625 2.7891-1.0234 5.6953-1.0234 8.668v250.62c0 2.9922 0.35156 5.8789 1.0234 8.668zm17.219-291.46 162.84 146.66 0.13281 0.11719 7.4766 6.7383c14.398 12.969 32.426 19.453 50.449 19.453 18.027 0 36.055-6.4844 50.449-19.453l7.4766-6.7383 0.13281-0.11719 162.84-146.66c-5.6602-3.4258-12.281-5.4102-19.355-5.4102h-403.1c-7.0547 0-13.691 1.9805-19.355 5.4102z"/>
  </g>
</svg>