<svg viewBox="0 0 49 34" version="1.1" xmlns="http://www.w3.org/2000/svg" xmlns:xlink="http://www.w3.org/1999/xlink">
    <path d="M39.5975412,0.91703774 C40.2670114,1.58455615 40.2685936,2.6683996 39.6010752,3.3378698 C39.5998989,3.3390495 39.5987209,3.3402275 39.5975412,3.3414038 L9.81221868,33.0398887 C9.14021753,33.7099306 8.05276492,33.7099306 7.38076378,33.0398887 C6.71129357,32.3723703 6.70971131,31.2885268 7.37722972,30.6190566 C7.37840602,30.6178769 7.37958404,30.6166989 7.38076378,30.6155226 L37.1660863,0.91703774 C37.8380874,0.24699579 38.92554,0.24699579 39.5975412,0.91703774 Z M39.0799968,6.2572824 C44.7554542,10.2827681 48.4324983,15.206196 48.6886291,15.5539808 C49.1037903,16.117308 49.1037903,16.882692 48.6886291,17.4464942 C48.2508817,18.0403151 37.8208375,32 24.4997848,32 C21.2261794,32 18.1271374,31.1569599 15.3080702,29.8764072 L17.7752556,27.4257765 C19.9001802,28.2675242 22.1627177,28.7931198 24.4997848,28.7931198 C34.333214,28.7931198 42.8139713,19.5326097 45.3264728,16.5010924 C43.9667724,14.8638347 40.861359,11.407342 36.7461716,8.5751531 L39.0799968,6.2572824 Z M24.4997848,1 C27.4344361,1 30.2287785,1.67749889 32.806886,2.7403434 L30.3000562,5.2315392 C28.4476958,4.5922648 26.5010708,4.2068802 24.4997848,4.2068802 C14.6663555,4.2068802 6.18559821,13.4672953 3.67309671,16.4989075 C4.94931741,18.0354686 7.76517894,21.1769085 11.5111518,23.8995199 L9.18653209,26.209991 C3.92886755,22.2954333 0.555604354,17.7785973 0.310940365,17.4460192 C-0.103646788,16.882122 -0.103646788,16.117308 0.310940365,15.5534109 C0.748209224,14.9595899 11.178732,1 24.4997848,1 Z M33.145124,12.1529946 C33.8145455,13.4593752 34.1921472,14.9367755 34.1921472,16.5000475 C34.1921472,21.8048228 29.8440543,26.120783 24.4997848,26.120783 C22.9285325,26.120783 21.4433898,25.7477111 20.1295422,25.0861233 L22.6002806,22.6310952 C23.2010937,22.8148554 23.8390112,22.9138079 24.4997848,22.9138079 C28.0628225,22.9138079 30.9612959,20.0366593 30.9612959,16.5000475 C30.9612959,15.8417837 30.8608785,15.2063663 30.6744503,14.6080951 L33.145124,12.1529946 Z M24.4997848,6.879312 C25.7302484,6.879312 26.9079044,7.1081027 27.9918422,7.5250759 L25.3569494,10.1424814 C25.0764535,10.1054194 24.7903281,10.0862871 24.4997848,10.0862871 C20.9368427,10.0862871 18.0382736,12.9634357 18.0382736,16.5000475 C18.0382736,16.7904176 18.0578124,17.0763422 18.0956537,17.3565939 L15.4614079,19.9750299 C15.0391653,18.8966964 14.8074223,17.7247227 14.8074223,16.5000475 C14.8074223,11.1952723 19.1555151,6.879312 24.4997848,6.879312 Z"></path>
</svg>