<svg viewBox="0 0 49 31" version="1.1" xmlns="http://www.w3.org/2000/svg" xmlns:xlink="http://www.w3.org/1999/xlink">
    <path d="M24.4997848,0 C37.8208375,0 48.2508817,13.9595899 48.6886291,14.5539808 C49.1037903,15.117308 49.1037903,15.882692 48.6886291,16.4464942 C48.2508817,17.0403151 37.8208375,31 24.4997848,31 C11.178732,31 0.74820922,17.0404101 0.31094037,16.4460192 C-0.103646788,15.882122 -0.103646788,15.117308 0.31094037,14.5534109 C0.74820922,13.9595899 11.178732,0 24.4997848,0 Z M24.4997848,3.2068802 C14.6663555,3.2068802 6.18559821,12.4672953 3.67309671,15.4989075 C6.18885212,18.52786 14.6874103,27.7931198 24.4997848,27.7931198 C34.333214,27.7931198 42.8139713,18.5326097 45.3264728,15.5010924 C42.8096646,12.4705252 34.3116807,3.2068802 24.4997848,3.2068802 Z M24.4997848,5.879312 C29.8440543,5.879312 34.1921472,10.1952723 34.1921472,15.5000475 C34.1921472,20.8048228 29.8440543,25.120783 24.4997848,25.120783 C19.1555151,25.120783 14.8074223,20.8048228 14.8074223,15.5000475 C14.8074223,10.1952723 19.1555151,5.879312 24.4997848,5.879312 Z M24.4997848,9.0862871 C20.9368427,9.0862871 18.0382736,11.9634357 18.0382736,15.5000475 C18.0382736,19.0366593 20.936747,21.9138079 24.4997848,21.9138079 C28.0628225,21.9138079 30.9612959,19.0366593 30.9612959,15.5000475 C30.9612959,11.9634357 28.0627268,9.0862871 24.4997848,9.0862871 Z"></path>
</svg>