<svg viewBox="0 0 50 50" version="1.1" xmlns="http://www.w3.org/2000/svg" xmlns:xlink="http://www.w3.org/1999/xlink">
    <path d="M20.3700624,34.2160083 C23.6141372,34.2160083 26.32079,36.5318087 26.9363825,39.5902287 L26.9363825,39.5902287 L47.6027027,39.5902287 C48.3355509,39.5902287 48.9218295,40.1765073 48.9218295,40.9093555 C48.9218295,41.6422037 48.3355509,42.2284823 47.6027027,42.2284823 L47.6027027,42.2284823 L26.9461538,42.2284823 C26.3305613,45.2869023 23.6239085,47.6027027 20.3798337,47.6027027 C17.1357588,47.6027027 14.429106,45.2869023 13.8135135,42.2284823 L13.8135135,42.2284823 L3.31912682,42.2284823 C2.58627859,42.2284823 2,41.6422037 2,40.9093555 C2,40.1765073 2.58627859,39.5902287 3.31912682,39.5902287 L3.31912682,39.5902287 L13.8135135,39.5902287 C14.429106,36.5220374 17.1259875,34.2160083 20.3700624,34.2160083 Z M20.3798337,36.854262 C18.1422037,36.854262 16.3247401,38.6717256 16.3247401,40.9093555 C16.3247401,43.1469854 18.1422037,44.9644491 20.3798337,44.9644491 C22.6174636,44.9644491 24.4349272,43.1469854 24.4349272,40.9093555 C24.4349272,38.6717256 22.6174636,36.854262 20.3798337,36.854262 Z M31.4409563,18.0640333 C34.6850312,18.0640333 37.391684,20.3798337 38.0072765,23.4382536 L38.0072765,23.4382536 L47.6027027,23.4382536 C48.3355509,23.4382536 48.9218295,24.0245322 48.9218295,24.7573805 C48.9218295,25.4902287 48.3355509,26.0765073 47.6027027,26.0765073 L47.6027027,26.0765073 L38.0072765,26.0765073 C37.391684,29.1349272 34.6850312,31.4507277 31.4409563,31.4507277 C28.1968815,31.4507277 25.4902287,29.1349272 24.8746362,26.0765073 L24.8746362,26.0765073 L3.31912682,26.0765073 C2.58627859,26.0765073 2,25.4902287 2,24.7573805 C2,24.0245322 2.58627859,23.4382536 3.31912682,23.4382536 L3.31912682,23.4382536 L24.8746362,23.4382536 C25.4902287,20.3700624 28.2066528,18.0640333 31.4409563,18.0640333 Z M31.4409563,20.7022869 C29.2033264,20.7022869 27.3858628,22.5197505 27.3858628,24.7573805 C27.3858628,26.9950104 29.2033264,28.812474 31.4409563,28.812474 C33.6785863,28.812474 35.4960499,26.9950104 35.4960499,24.7573805 C35.4960499,22.5197505 33.6785863,20.7022869 31.4409563,20.7022869 Z M20.3700624,2 C23.6141372,2 26.32079,4.31580042 26.9363825,7.37422037 L26.9363825,7.37422037 L47.612474,7.37422037 C48.3453222,7.37422037 48.9316008,7.96049896 48.9316008,8.69334719 C48.9316008,9.42619543 48.3453222,10.012474 47.612474,10.012474 L47.612474,10.012474 L26.9461538,10.012474 C26.3305613,13.070894 23.6239085,15.3866944 20.3798337,15.3866944 C17.1357588,15.3866944 14.429106,13.070894 13.8135135,10.012474 L13.8135135,10.012474 L3.31912682,10.012474 C2.58627859,10.012474 2,9.42619543 2,8.69334719 C2,7.96049896 2.58627859,7.37422037 3.31912682,7.37422037 L3.31912682,7.37422037 L13.8135135,7.37422037 C14.429106,4.30602911 17.1259875,2 20.3700624,2 Z M20.3798337,4.63825364 C18.1422037,4.63825364 16.3247401,6.45571726 16.3247401,8.69334719 C16.3247401,10.9309771 18.1422037,12.7484407 20.3798337,12.7484407 C22.6174636,12.7484407 24.4349272,10.9309771 24.4349272,8.69334719 C24.4349272,6.45571726 22.6174636,4.63825364 20.3798337,4.63825364 Z"></path>
</svg>