<svg viewBox="0 0 50 50" version="1.1" xmlns="http://www.w3.org/2000/svg" xmlns:xlink="http://www.w3.org/1999/xlink">
<path d="M19.279 50C19.0845 50 18.8876 49.9611 18.6995 49.88C18.0412 49.5961 17.6852 48.8774 17.858 48.1817L22.8115 28.2426H9.46488C8.98178 28.2426 8.52973 28.0044 8.25658 27.6058C7.98344 27.2073 7.92436 26.6998 8.09867 26.2492L17.8898 0.936422C18.1081 0.372069 18.6509 0 19.256 0H32.7287C33.2237 0 33.6852 0.249999 33.9557 0.664646C34.226 1.07929 34.2688 1.60244 34.0692 2.05546L28.2714 15.2156H39.7382C40.2739 15.2156 40.7669 15.508 41.0237 15.9783C41.2806 16.4484 41.2603 17.0212 40.9707 17.472L20.5122 49.3266C20.2355 49.7574 19.765 50 19.279 50ZM11.6021 25.313H24.6847C25.1354 25.313 25.561 25.5205 25.8386 25.8755C26.1163 26.2305 26.215 26.6936 26.1063 27.131L22.8393 40.2818L37.0565 18.1451H26.0254C25.5303 18.1451 25.0688 17.8951 24.7984 17.4805C24.528 17.0659 24.4852 16.5427 24.6848 16.0898L30.4827 2.92968H20.26L11.6021 25.313Z"/>
</svg>
