<svg viewBox="0 0 50 50" version="1.1" xmlns="http://www.w3.org/2000/svg" xmlns:xlink="http://www.w3.org/1999/xlink">
    <path d="M43.9570312,12.78125 L38.4728789,12.78125 C39.3208242,11.65425 39.8242188,10.2540352 39.8242188,8.73828125 C39.8242188,5.02279297 36.8014258,2 33.0859375,2 C30.8478398,2 29.1975,2.80185547 27.8921602,4.52344141 C26.8001094,5.96381641 26.0015781,7.97487891 25,10.5158398 C23.9984219,7.97478906 23.1998906,5.96381641 22.1078398,4.52344141 C20.8025,2.80185547 19.1521602,2 16.9140625,2 C13.1985742,2 10.1757812,5.02279297 10.1757812,8.73828125 C10.1757812,10.2540352 10.6791758,11.65425 11.5271211,12.78125 L6.04296875,12.78125 C3.81367578,12.78125 2,14.5949258 2,16.8242188 L2,19.5195312 C2,21.2764258 3.12673047,22.7743906 4.6953125,23.3307031 L4.6953125,43.9570312 C4.6953125,46.1863242 6.50898828,48 8.73828125,48 L41.2617188,48 C43.4910117,48 45.3046875,46.1863242 45.3046875,43.9570312 L45.3046875,23.3307031 C46.8732695,22.7743906 48,21.2764258 48,19.5195312 L48,16.8242188 C48,14.5949258 46.1863242,12.78125 43.9570312,12.78125 Z M27.4737578,11.5899219 C29.5382773,6.35221094 30.3231523,4.6953125 33.0859375,4.6953125 C35.3152305,4.6953125 37.1289062,6.50898828 37.1289062,8.73828125 C37.1289062,10.9675742 35.3152305,12.78125 33.0859375,12.78125 L27.0023477,12.78125 C27.1674805,12.3666211 27.3249766,11.9674453 27.4737578,11.5899219 Z M16.9140625,4.6953125 C19.6768477,4.6953125 20.4617227,6.35221094 22.5262422,11.5899219 C22.6750234,11.9674453 22.8325195,12.3666211 22.9976523,12.78125 L16.9140625,12.78125 C14.6847695,12.78125 12.8710938,10.9675742 12.8710938,8.73828125 C12.8710938,6.50898828 14.6847695,4.6953125 16.9140625,4.6953125 Z M19.609375,45.3046875 L8.73828125,45.3046875 C7.99518359,45.3046875 7.390625,44.7001289 7.390625,43.9570312 L7.390625,23.5625 L19.609375,23.5625 L19.609375,45.3046875 Z M19.609375,20.8671875 L6.04296875,20.8671875 C5.29987109,20.8671875 4.6953125,20.2626289 4.6953125,19.5195312 L4.6953125,16.8242188 C4.6953125,16.0811211 5.29987109,15.4765625 6.04296875,15.4765625 L19.609375,15.4765625 L19.609375,20.8671875 Z M27.6953125,45.3046875 L22.3046875,45.3046875 L22.3046875,15.4765625 C22.5870664,15.4765625 26.1464062,15.4765625 27.6953125,15.4765625 L27.6953125,45.3046875 Z M42.609375,43.9570312 C42.609375,44.7001289 42.0048164,45.3046875 41.2617188,45.3046875 L30.390625,45.3046875 L30.390625,23.5625 L42.609375,23.5625 L42.609375,43.9570312 Z M45.3046875,19.5195312 C45.3046875,20.2626289 44.7001289,20.8671875 43.9570312,20.8671875 L30.390625,20.8671875 L30.390625,15.4765625 L43.9570312,15.4765625 C44.7001289,15.4765625 45.3046875,16.0811211 45.3046875,16.8242188 L45.3046875,19.5195312 Z"></path>
</svg>