<svg viewBox="0 0 50 45" version="1.1" xmlns="http://www.w3.org/2000/svg" xmlns:xlink="http://www.w3.org/1999/xlink">
    <g transform="translate(0.000000, -3.000000)">
        <path d="M23.0670929,46.7576294 C21.0472107,44.9914246 19.0998077,43.3316498 17.3816681,41.8675689 L17.3728943,41.8599396 C12.3355865,37.5672607 7.9856873,33.8601379 4.95910645,30.2083282 C1.57585146,26.1258393 0,22.2550659 0,18.026474 C0,13.918045 1.40876768,10.1277618 3.96652227,7.35333252 C6.55479434,4.54609678 10.1062774,3 13.9678955,3 C16.8540955,3 19.4972992,3.91247559 21.823883,5.71186826 C22.9980469,6.62014766 24.0623475,7.73175049 25,9.02836611 C25.9380341,7.73175049 27.0019531,6.62014766 28.1764984,5.71186826 C30.5030822,3.91247559 33.146286,3 36.0324859,3 C39.8937226,3 43.4455871,4.54609678 46.0338593,7.35333252 C48.5916138,10.1277618 50,13.918045 50,18.026474 C50,22.2550659 48.4245301,26.1258393 45.041275,30.2079468 C42.0146942,33.8601379 37.6651764,37.5668793 32.6286316,41.8591767 C30.9074402,43.3255463 28.9569854,44.9879913 26.9325256,46.7583924 C26.3980865,47.2260742 25.711441,47.4839478 25,47.4839478 C24.2881775,47.4839478 23.6019135,47.2260742 23.0670929,46.7576294 Z"></path>
    </g>
</svg>
