<svg viewBox="0 0 50 45" version="1.1" xmlns="http://www.w3.org/2000/svg" xmlns:xlink="http://www.w3.org/1999/xlink">
    <path d="M23.0670929,44.218236 C21.0472107,42.4334396 19.0998077,40.7561935 17.3816681,39.2767013 L17.3728943,39.2689915 C12.3355865,34.9311266 7.9856873,31.1849814 4.95910645,27.4947317 C1.57585146,23.3692691 0,19.4577508 0,15.1846474 C0,11.0329718 1.40876768,7.2027909 3.96652227,4.39915707 C6.55479434,1.56237148 10.1062774,0 13.9678955,0 C16.8540955,0 19.4972992,0.92208059 21.823883,2.74041424 C22.9980469,3.65825447 24.0623475,4.78155839 25,6.0918226 C25.9380341,4.78155839 27.0019531,3.65825447 28.1764984,2.74041424 C30.5030822,0.92208059 33.146286,0 36.0324859,0 C39.8937226,0 43.4455871,1.56237148 46.0338593,4.39915707 C48.5916138,7.2027909 50,11.0329718 50,15.1846474 C50,19.4577508 48.4245301,23.3692691 45.041275,27.4943462 C42.0146942,31.1849814 37.6651764,34.9307412 32.6286316,39.2682206 C30.9074402,40.7500257 28.9569854,42.4299702 26.9325256,44.219007 C26.3980865,44.6916118 25.711441,44.9521998 25,44.9521998 C24.2881775,44.9521998 23.6019135,44.6916118 23.0670929,44.218236 Z M13.9678955,2.95975539 C10.9340668,2.95975539 8.14704893,4.18328536 6.1195373,6.40522204 C4.06188965,8.660696 2.92854307,11.7785002 2.92854307,15.1846474 C2.92854307,18.7785259 4.25033574,21.9927015 7.21397402,25.6062397 C10.0784302,29.0991211 14.3390655,32.7681692 19.272232,37.0166015 L19.2813873,37.0243113 C21.0060119,38.5095858 22.9610443,40.1933851 24.9958038,41.9912881 C27.0427704,40.1899157 29.0008545,38.503418 30.7289123,37.0158306 C35.6616974,32.7673983 39.9219513,29.0991211 42.7864074,25.6062397 C45.7496643,21.9927015 47.0714569,18.7785259 47.0714569,15.1846474 C47.0714569,11.7785002 45.9381104,8.660696 43.8804627,6.40522204 C41.8533325,4.18328536 39.0659332,2.95975539 36.0324859,2.95975539 C33.8100434,2.95975539 31.7695617,3.67367388 29.9678803,5.08146592 C28.3622742,6.33660572 27.2438049,7.9232627 26.5880585,9.0334601 C26.2508393,9.6043637 25.6572724,9.9451326 25,9.9451326 C24.3427276,9.9451326 23.7491607,9.6043637 23.4119415,9.0334601 C22.7565766,7.9232627 21.6381073,6.33660572 20.0321197,5.08146592 C18.2304383,3.67367388 16.1899566,2.95975539 13.9678955,2.95975539 Z"></path>
</svg>