<svg viewBox="0 0 50 50" version="1.1" xmlns="http://www.w3.org/2000/svg" xmlns:xlink="http://www.w3.org/1999/xlink">
    <path d="M49,25 C49,11.735752 38.2227981,1 25,1 C11.7772019,1 1,11.735752 1,25 C1,38.2228 11.7357515,49 25,49 C38.2642485,49 49,38.2228 49,25 Z M45.6424869,25 C45.6424869,36.3989632 36.3989637,45.6424864 25,45.6424864 C13.6010363,45.6424864 4.35751312,36.3575136 4.35751312,25 C4.35751312,13.6010368 13.6010363,4.3575136 25,4.3575136 C36.3989637,4.3575136 45.6424869,13.6010368 45.6424869,25 Z M31.8808288,27.8186512 C32.8341971,27.8186512 33.580311,27.0725392 33.580311,26.1191728 C33.580311,25.1658016 32.8341971,24.4196896 31.8808288,24.4196896 L25.5803109,24.4196896 L25.5803109,14.5544032 C25.5803109,13.6010368 24.834197,12.85492 23.8808291,12.85492 C22.9274613,12.85492 22.1813474,13.6010368 22.1813474,14.5544032 L22.1813474,26.1191728 C22.1813474,27.0725392 22.9274613,27.8186512 23.8808291,27.8186512 L31.8808288,27.8186512 Z"></path>
</svg>