<svg viewBox="0 0 50 50" version="1.1" xmlns="http://www.w3.org/2000/svg" xmlns:xlink="http://www.w3.org/1999/xlink">
    <path d="M25,1 C38.254834,1 49,11.745166 49,25 C49,38.254834 38.254834,49 25,49 C11.745166,49 1,38.254834 1,25 C1,11.745166 11.745166,1 25,1 Z M25,4.2 C13.5124772,4.2 4.2,13.5124772 4.2,25 C4.2,36.4875228 13.5124772,45.8 25,45.8 C36.4875228,45.8 45.8,36.4875228 45.8,25 C45.8,13.5124772 36.4875228,4.2 25,4.2 Z M26.75,33.46875 L26.75,23.34375 C26.75,22.3081875 25.9105625,21.46875 24.875,21.46875 C23.8394375,21.46875 23,22.3081875 23,23.34375 L23,33.46875 C23,34.5043125 23.8394375,35.34375 24.875,35.34375 C25.9105625,35.34375 26.75,34.5043125 26.75,33.46875 Z M24.875,15 C23.8394375,15 23,15.8394375 23,16.875 L23,16.875 C23,17.9105625 23.8394375,18.75 24.875,18.75 C25.9105625,18.75 26.75,17.9105625 26.75,16.875 L26.75,16.875 C26.75,15.8394375 25.9105625,15 24.875,15 Z"></path>
</svg>