<svg  viewBox="0 0 50 50" version="1.1" xmlns="http://www.w3.org/2000/svg" xmlns:xlink="http://www.w3.org/1999/xlink">
    <path d="M14.5708938,46.9152565 C14.5953564,46.9962366 14.6169142,47.0870493 14.6355674,47.1876946 C14.8264996,48.2178919 15.5433711,48.8521066 16.7861821,49.0903388 C17.1647981,49.1426181 23.8957485,49.9895441 30.8054897,49.8536177 C32.0570258,49.9477206 33.2349421,50 34.3287216,50 C36.2112843,50 37.8519534,49.8536177 39.2191777,49.5608532 C42.4374134,48.8812212 44.6354894,47.5219574 45.7503031,45.524885 C46.602189,43.998327 46.602189,42.482225 46.4654665,41.5202844 C48.5583714,39.6382267 48.9264703,37.5575073 48.8528505,36.0936846 C48.8107821,35.2467587 48.6214741,34.5253032 48.421649,33.9920535 C49.4523258,32.685069 49.94663,31.2839816 49.8835273,29.8410707 C49.8204246,28.2517775 49.1052611,27.0075282 48.516303,26.2442493 C49.1999151,24.5503973 49.4628429,21.8841489 47.18063,19.8138854 C45.5084095,18.2977834 42.6687898,17.6181514 38.7353907,17.8063572 C35.9693908,17.9318277 33.6556265,18.4441656 33.5609726,18.4650774 C33.0246,18.5591802 32.4671931,18.6741949 31.8992692,18.7996654 C31.8572008,18.1304893 31.9728889,16.468005 33.2139079,12.7248013 C34.6863033,8.27059806 34.6021665,4.86198244 32.9404631,2.58260142 C31.1946228,0.188205772 28.4075887,0 27.5872541,0 C26.7984708,0 26.0727902,0.324132162 25.5574518,0.920117105 C24.3900526,2.26892514 24.5267751,4.75742367 24.6740146,5.90757005 C23.2857561,9.60895025 19.3944254,18.6846508 16.10257,21.2045169 C16.0394673,21.2463404 15.9868818,21.2986198 15.9342962,21.3508992 C15.5708795,21.7318359 14.7974349,22.7038507 14.5708938,24.8338826 L14.5708938,46.9152565 Z M13.1261194,47.5582801 C12.937321,48.9953026 11.658924,49.5922208 10.7938378,49.5922208 L5.37511776,49.5922208 C2.96669957,49.5922208 1,47.6474279 1,45.2425763 L1,28.2517775 C1,25.8573819 2.95618246,23.902133 5.37511776,23.902133 L10.7938378,23.902133 C11.4887719,23.902133 12.9226543,24.1851541 13.1261194,25.9115696 L13.1261194,47.5582801 Z"></path>
</svg>