<svg viewBox="0 0 50 50" version="1.1" xmlns="http://www.w3.org/2000/svg" xmlns:xlink="http://www.w3.org/1999/xlink">
    <path d="M48.0668059,33.9352818 C49.0897704,32.6304801 49.5803758,31.2317328 49.5177453,29.7912317 C49.4551148,28.2045929 48.7453027,26.9624217 48.1607516,26.2004175 C48.8392484,24.5093945 49.1002088,21.8475991 46.8350731,19.7807933 C45.1753654,18.2672234 42.3569938,17.5887265 38.4530272,17.7766179 C35.7077244,17.9018789 33.4112735,18.4133611 33.3173278,18.434238 L33.3068894,18.434238 C32.7849687,18.5281837 32.2317328,18.6430062 31.6680585,18.7682672 C31.6263048,18.1002087 31.7411274,16.440501 32.9728601,12.703549 C34.434238,8.25678495 34.3507307,4.85386221 32.7014614,2.5782881 C30.9686848,0.18789144 28.2025052,0 27.388309,0 C26.605428,0 25.8851775,0.323590814 25.3736952,0.918580375 C24.2150313,2.2651357 24.3507307,4.74947808 24.4968685,5.89770355 C23.1189979,9.5929019 19.256785,18.6534447 15.9895616,21.1691023 C15.9269311,21.2108559 15.8747391,21.263048 15.822547,21.3152401 C14.862213,22.3277662 14.2150313,23.4237996 13.776618,24.3841336 C13.1607516,24.0501044 12.4613779,23.8622129 11.7098121,23.8622129 L5.34237996,23.8622129 C2.94154488,23.8622129 1,25.8141962 1,28.2045929 L1,45.1670146 C1,47.5678497 2.9519833,49.5093945 5.34237996,49.5093945 L11.7098121,49.5093945 C12.6388309,49.5093945 13.5052192,49.217119 14.2150313,48.7160751 L16.6680585,49.0083507 C17.0438414,49.0605428 23.7244259,49.9060543 30.5824635,49.7703549 C31.8246347,49.8643006 32.993737,49.9164927 34.079332,49.9164927 C35.9478079,49.9164927 37.5762004,49.7703549 38.9331942,49.4780793 C42.1273487,48.7995824 44.3089771,47.4425887 45.4154489,45.4488517 C46.2609603,43.9248434 46.2609603,42.4112735 46.125261,41.4509394 C48.2025052,39.572025 48.5678497,37.4947808 48.4947808,36.0334029 C48.4530272,35.1878914 48.2651357,34.4676409 48.0668059,33.9352818 Z M5.34237996,46.6910229 C4.49686847,46.6910229 3.81837161,46.0020877 3.81837161,45.1670146 L3.81837161,28.1941545 C3.81837161,27.348643 4.50730689,26.6701461 5.34237996,26.6701461 L11.7098121,26.6701461 C12.5553236,26.6701461 13.2338205,27.3590814 13.2338205,28.1941545 L13.2338205,45.1565762 C13.2338205,46.0020877 12.5448852,46.6805845 11.7098121,46.6805845 L5.34237996,46.6805845 L5.34237996,46.6910229 Z M45.394572,32.7139874 C44.9561587,33.1732776 44.8726514,33.8726513 45.2066806,34.4154488 C45.2066806,34.4258872 45.6346555,35.1565762 45.6868476,36.1586639 C45.7599165,37.526096 45.1022965,38.736952 43.7244259,39.7703549 C43.2338205,40.1461378 43.0354906,40.7933194 43.2442589,41.3778705 C43.2442589,41.388309 43.6931107,42.7661795 42.9624217,44.0709812 C42.263048,45.3235908 40.7077244,46.2212943 38.348643,46.7223382 C36.4592902,47.1294363 33.8914405,47.2025052 30.7390397,46.9519833 C30.697286,46.9519833 30.645094,46.9519833 30.5929019,46.9519833 C23.8810021,47.0981211 17.0960334,46.2212943 17.0229645,46.2108559 L17.0125261,46.2108559 L15.9582464,46.085595 C16.0208768,45.7933194 16.0521921,45.480167 16.0521921,45.1670146 L16.0521921,28.1941545 C16.0521921,27.7453027 15.9791232,27.3068893 15.8538622,26.8997912 C16.0417537,26.2004175 16.5636743,24.6450939 17.7954071,23.3194154 C22.4822547,19.6033403 27.0647182,7.06680585 27.263048,6.52400835 C27.3465553,6.30480165 27.3674322,6.06471815 27.3256785,5.82463465 C27.1482255,4.65553236 27.210856,3.22546973 27.4613779,2.79749478 C28.0146138,2.80793319 29.5073069,2.96450939 30.4050105,4.20668058 C31.4697286,5.67849685 31.427975,8.30897705 30.2797495,11.7954071 C28.526096,17.1085595 28.3799583,19.9060543 29.7682672,21.137787 C30.4572025,21.7536534 31.3757829,21.7849687 32.0438414,21.5448852 C32.6805846,21.3987474 33.2860125,21.2734864 33.8601253,21.1795407 C33.9018789,21.1691023 33.954071,21.1586639 33.9958246,21.1482254 C37.2004176,20.4488517 42.9415449,20.0208768 44.9352819,21.8371607 C46.6263048,23.3820459 45.4258873,25.4279749 45.2901879,25.6471816 C44.9039666,26.2317328 45.0187892,26.9937369 45.5407098,27.4634655 C45.5511482,27.4739039 46.6471816,28.5073069 46.6993737,29.8956158 C46.7411274,30.8246346 46.302714,31.7745302 45.394572,32.7139874 Z"></path>
</svg>