<svg viewBox="0 0 240 240" version="1.1" xmlns="http://www.w3.org/2000/svg" xmlns:xlink="http://www.w3.org/1999/xlink">
  <g >
    <path d="M119.900005,1.50008728e-05 C53.6586638,0.0276423263 -0.0202356353,53.7453388 5.72260959e-06,119.986683 C0.0202585322,186.228027 53.7319862,239.912899 119.973332,239.90002 C186.214679,239.887135 239.905522,186.181377 239.900005,119.94003 C239.900005,88.1195658 227.255274,57.6032612 204.749182,35.1084224 C182.24309,12.6135837 151.720466,-0.0158881611 119.900005,1.50008728e-05 M82.9000054,190.79003 L82.9000054,68.84003 C82.9000054,60.51003 77.6800054,53.35003 65.9000054,50.06003 L65.9000054,49.0598589 L130.500005,49.0598589 C133.929924,49.0524535 137.35578,49.2964412 140.750005,49.79003 C143.982126,50.2816158 147.137864,51.1856556 150.140005,52.48003 C154.892899,54.5080129 158.998502,57.8007964 162.010005,62.00003 C165.123339,66.22003 166.676672,71.5866967 166.670005,78.10003 C166.670005,85.26003 165.430005,91.70003 161.430005,96.10003 C157.430005,100.50003 152.280005,104.62003 145.050005,105.86003 L145.050005,106.51003 C145.050005,106.51003 164.290005,105.16003 170.890005,121.63003 C170.980005,121.81003 171.050005,121.99003 171.120005,122.17003 C172.58826,125.738896 173.306485,129.571698 173.230005,133.43003 C173.230005,139.93003 171.676672,145.296697 168.570005,149.53003 C165.550647,153.672015 161.46127,156.914479 156.740005,158.91003 C153.741136,160.213545 150.58419,161.117931 147.350005,161.60003 C144.100005,162.08003 134.120005,163.19003 130.550005,163.19003 L114.830005,163.19003 L114.830005,157.53003 L121.610005,157.53003 C128.196672,157.53003 133.613339,156.446697 137.860005,154.28003 C141.69699,152.202996 144.829735,149.031963 146.860005,145.17003 C149.317396,140.749075 150.562776,135.757204 150.470005,130.70003 C150.470005,123.32003 148.280005,120.70003 143.900005,115.70003 C139.520005,110.70003 133.090005,107.94003 124.610005,107.39003 C123.290005,107.30003 121.560005,107.24003 119.390005,107.24003 L114.860005,107.24003 L114.860005,105.00003 L119.380005,105.00003 C121.550005,105.00003 123.290005,104.95003 124.610005,104.85003 C133.090005,104.296697 139.516672,101.526697 143.890005,96.54003 C148.270005,91.54003 150.460005,88.92003 150.460005,81.54003 C150.551096,76.4842983 149.309481,71.4936927 146.860005,67.07003 C144.82679,63.2102526 141.6948,60.0399819 137.860005,57.96003 C133.620005,55.7933634 128.203339,54.71003 121.610005,54.71003 L108.280005,54.71003 L108.280005,168.44003 L168.980005,168.44003 L173.910005,190.78003 L82.9000054,190.79003 Z"></path>
  </g>
</svg> 
