<svg viewBox="0 0 50 50" version="1.1" xmlns="http://www.w3.org/2000/svg" xmlns:xlink="http://www.w3.org/1999/xlink">
    <path d="M27.9520568,1 C31.3247792,1 34.1467885,3.36910182 34.7957435,6.50761787 L34.7957435,6.50761787 L41.9200946,6.50761787 C42.6915028,6.50761787 43.3168984,7.1241039 43.3168984,7.88452235 L43.3168984,7.88452235 L43.3168984,46.6214347 C43.3168984,47.3818531 42.6915028,47.9983391 41.9200946,47.9983391 L41.9200946,47.9983391 L11.1904114,47.9983391 C8.87981853,47.9983391 7,46.1453011 7,43.8676257 L7,43.8676257 L7,10.6383313 C7,8.3606559 8.87981853,6.50761787 11.1904114,6.50761787 L11.1904114,6.50761787 L26.555253,6.50761787 L26.555253,2.37690447 C26.555253,1.61648603 27.1806486,1 27.9520568,1 Z M22.3648416,26.5381815 L9.79360757,38.9303217 L9.79360757,43.8676257 C9.79360757,44.6268508 10.4202137,45.2445302 11.1904114,45.2445302 L11.1904114,45.2445302 L27.9520568,45.2445302 C30.2626496,45.2445302 32.1424682,43.3914922 32.1424682,41.1138168 C32.1424682,38.8361414 30.2626496,36.9831034 27.9520568,36.9831034 C27.1806486,36.9831034 26.555253,36.3666174 26.555253,35.6061989 L26.555253,35.6061989 L26.555253,30.6688949 L22.3648416,26.5381815 Z M40.5232908,9.26142679 L34.9360757,9.26142679 L34.9360757,41.1138168 C34.9360757,42.6624671 34.4143229,44.0930709 33.535454,45.2445302 L33.535454,45.2445302 L40.5232908,45.2445302 L40.5232908,9.26142679 Z M29.3488606,3.9906365 L29.3488606,34.3678111 C30.3804467,34.5750811 31.3299939,35.0073373 32.1424682,35.6099625 L32.1424682,35.6099625 L32.1424682,7.88452235 C32.1424682,6.08949788 30.974647,4.55902267 29.3488606,3.9906365 L29.3488606,3.9906365 Z M26.555253,9.26142679 L11.1904114,9.26142679 C10.4202137,9.26142679 9.79360757,9.87910614 9.79360757,10.6383313 L9.79360757,10.6383313 L9.79360757,35.0358851 L21.3771151,23.6173081 C21.9226136,23.079581 22.8070697,23.079581 23.352475,23.6173081 L23.352475,23.6173081 L26.555253,26.7744583 L26.555253,9.26142679 Z M22.7551251,18.0903052 C23.4925005,18.0903052 24.0903052,18.5685489 24.0903052,19.1584492 C24.0903052,19.7483496 23.4925005,20.2265933 22.7551251,20.2265933 L22.7551251,20.2265933 L14.7440445,20.2265933 C14.0066691,20.2265933 13.4088644,19.7483496 13.4088644,19.1584492 C13.4088644,18.5685489 14.0066691,18.0903052 14.7440445,18.0903052 L14.7440445,18.0903052 Z M22.7551251,11.6814407 C23.4925005,11.6814407 24.0903052,12.1596844 24.0903052,12.7495848 C24.0903052,13.3394851 23.4925005,13.8177288 22.7551251,13.8177288 L22.7551251,13.8177288 L14.7440445,13.8177288 C14.0066691,13.8177288 13.4088644,13.3394851 13.4088644,12.7495848 C13.4088644,12.1596844 14.0066691,11.6814407 14.7440445,11.6814407 L14.7440445,11.6814407 Z"></path>
</svg>