<svg viewBox="0 0 39 50" version="1.1" xmlns="http://www.w3.org/2000/svg" xmlns:xlink="http://www.w3.org/1999/xlink">
    <path d="M19.0429688,0 C29.5432617,0 38.0859375,8.54267578 38.0859375,19.0429688 C38.0859375,25.8097656 36.0189453,28.5360352 26.0863281,41.6367188 C24.3736328,43.8956055 22.4325195,46.4558594 20.2149414,49.4138672 C19.9382812,49.7828125 19.5041992,50 19.0430664,50 C18.5819336,50 18.1477539,49.7829102 17.8710938,49.4140625 C15.6404297,46.4400391 13.6908203,43.8700195 11.9708008,41.6025391 C2.06201172,28.5398437 0,25.8214844 0,19.0429688 C0,8.54267578 8.5426758,0 19.0429688,0 Z M19.0429688,2.9296875 C10.1581055,2.9296875 2.9296875,10.1581055 2.9296875,19.0429688 C2.9296875,24.8360352 4.6664063,27.1255859 14.3048828,39.8318359 C15.7193359,41.6964844 17.2886719,43.765332 19.0426758,46.0960938 C20.7847656,43.7801758 22.3452148,41.7219727 23.7518555,39.8666992 C33.4150391,27.1212891 35.15625,24.824707 35.15625,19.0429688 C35.15625,10.1581055 27.927832,2.9296875 19.0429688,2.9296875 Z M19.0429688,8.7890625 C24.6969727,8.7890625 29.296875,13.3889648 29.296875,19.0429688 C29.296875,24.6969727 24.6969727,29.296875 19.0429688,29.296875 C13.3889648,29.296875 8.7890625,24.6969727 8.7890625,19.0429688 C8.7890625,13.3889648 13.3889648,8.7890625 19.0429688,8.7890625 Z M19.0429688,11.71875 C15.0043945,11.71875 11.71875,15.0043945 11.71875,19.0429688 C11.71875,23.081543 15.0043945,26.3671875 19.0429688,26.3671875 C23.081543,26.3671875 26.3671875,23.081543 26.3671875,19.0429688 C26.3671875,15.0043945 23.081543,11.71875 19.0429688,11.71875 Z"></path>
</svg>