<svg viewBox="0 0 128 128" version="1.1" xmlns="http://www.w3.org/2000/svg" xmlns:xlink="http://www.w3.org/1999/xlink">
  <path id="Maximize-Alt" d="m54.828 73.172c1.563 1.563 1.563 4.094 0 5.656l-33.172 33.172h18.344c2.209 0 4 1.789 4 4s-1.791 4-4 4h-28c-2.209 0-4-1.789-4-4v-28c0-2.211 1.791-4 4-4s4 1.789 4 4v18.344l33.172-33.172c1.562-1.563 4.094-1.563 5.656 0zm61.172-65.172h-28c-2.209 0-4 1.789-4 4s1.791 4 4 4h18.344l-33.172 33.172c-1.563 1.563-1.563 4.094 0 5.656.781.781 1.805 1.172 2.828 1.172s2.047-.391 2.828-1.172l33.172-33.172v18.344c0 2.211 1.791 4 4 4s4-1.789 4-4v-28c0-2.211-1.791-4-4-4zm0 76c-2.209 0-4 1.789-4 4v18.344l-33.172-33.172c-1.563-1.563-4.094-1.563-5.656 0s-1.563 4.094 0 5.656l33.172 33.172h-18.344c-2.209 0-4 1.789-4 4s1.791 4 4 4h28c2.209 0 4-1.789 4-4v-28c0-2.211-1.791-4-4-4zm-94.344-68h18.344c2.209 0 4-1.789 4-4s-1.791-4-4-4h-28c-2.209 0-4 1.789-4 4v28c0 2.211 1.791 4 4 4s4-1.789 4-4v-18.344l33.172 33.172c.781.781 1.805 1.172 2.828 1.172s2.047-.391 2.828-1.172c1.563-1.563 1.563-4.094 0-5.656z"/>
</svg>