<svg xmlns="http://www.w3.org/2000/svg" version="1.0" viewBox="0 0 512.000000 512.000000" preserveAspectRatio="xMidYMid meet">

<g transform="translate(0.000000,512.000000) scale(0.100000,-0.100000)" fill="#000000" stroke="none">
<path d="M1623 4835 c-136 -37 -261 -135 -316 -247 -47 -97 -60 -168 -55 -298 6 -126 23 -186 79 -274 24 -38 28 -51 17 -57 -7 -5 -17 -9 -23 -9 -5 0 -47 -19 -93 -41 l-83 -41 -57 22 c-72 28 -200 37 -273 20 -193 -45 -343 -198 -379 -387 -8 -38 -11 -106 -8 -170 6 -118 24 -182 78 -267 17 -27 30 -50 28 -51 -2 -1 -31 -14 -66 -28 -191 -76 -340 -226 -418 -419 -40 -96 -54 -194 -54 -364 l0 -154 29 -32 29 -33 194 -3 c122 -2 207 1 231 8 45 13 69 47 69 97 0 29 -7 43 -31 65 -31 28 -32 28 -176 28 l-145 0 0 83 c0 45 7 112 15 150 51 243 281 427 533 427 l70 0 3 -86 c4 -79 6 -87 32 -110 38 -33 96 -33 134 0 26 23 28 31 32 110 l3 86 72 0 c205 0 398 -121 486 -305 44 -91 60 -165 60 -277 l0 -78 -161 0 -161 0 -29 -29 c-21 -22 -29 -39 -29 -66 0 -87 38 -105 229 -105 l140 0 -34 -56 c-144 -239 -187 -560 -114 -841 95 -364 376 -661 734 -776 131 -42 192 -51 345 -51 195 0 337 32 500 114 469 237 710 767 580 1275 -23 91 -70 205 -115 279 l-33 56 785 2 785 3 29 33 29 32 0 154 c0 92 -6 184 -14 228 -29 151 -101 284 -211 393 -78 76 -149 123 -247 162 -35 14 -64 27 -66 28 -2 1 11 24 28 51 54 85 72 149 78 267 8 190 -33 312 -144 423 -133 134 -344 180 -516 114 l-57 -22 -83 41 c-46 22 -88 41 -93 41 -6 0 -16 4 -23 9 -11 6 -7 19 17 57 56 88 73 148 79 274 7 185 -34 305 -144 414 -123 123 -297 173 -457 131 -186 -48 -315 -179 -363 -367 -12 -46 -15 -92 -12 -178 6 -126 23 -186 78 -274 17 -27 30 -50 28 -51 -2 -2 -28 -13 -58 -25 -30 -12 -75 -33 -99 -47 l-44 -26 -71 24 c-100 34 -245 34 -333 0 l-63 -23 -83 41 c-45 22 -87 41 -92 41 -6 0 -16 4 -23 9 -11 6 -7 19 17 57 56 88 73 148 79 274 7 185 -34 305 -144 414 -123 123 -302 173 -461 131z m207 -201 c75 -22 162 -109 184 -184 20 -69 20 -191 0 -260 -22 -75 -109 -162 -184 -184 -115 -34 -206 -12 -291 73 -69 70 -89 125 -89 247 0 116 24 178 96 243 84 77 174 98 284 65z m1640 0 c75 -22 162 -109 184 -184 20 -69 20 -191 0 -260 -22 -75 -109 -162 -184 -184 -115 -34 -206 -12 -291 73 -69 70 -89 125 -89 247 0 116 24 178 96 243 84 77 174 98 284 65z m-1829 -930 c4 -79 6 -87 32 -110 19 -16 40 -24 67 -24 27 0 48 8 67 24 26 23 28 31 32 110 l3 86 64 0 c75 0 152 -15 216 -42 l47 -20 -29 -46 c-52 -86 -65 -143 -65 -292 0 -151 11 -196 70 -295 19 -32 35 -59 35 -60 0 -1 -26 -12 -57 -23 -123 -45 -249 -139 -328 -245 -26 -34 -51 -62 -55 -62 -4 0 -29 28 -55 62 -79 106 -205 200 -327 245 -32 11 -58 22 -58 23 0 1 16 28 35 60 59 99 70 144 70 295 0 149 -13 206 -65 291 l-28 47 38 17 c61 27 138 43 216 44 l72 1 3 -86z m1640 0 c4 -79 6 -87 32 -110 19 -16 40 -24 67 -24 27 0 48 8 67 24 26 23 28 31 32 110 l3 86 64 0 c75 0 152 -15 216 -42 l47 -20 -29 -46 c-52 -86 -65 -143 -65 -292 0 -151 11 -196 70 -295 19 -32 35 -59 35 -60 0 -1 -26 -12 -57 -23 -123 -45 -249 -139 -328 -245 -26 -34 -51 -62 -55 -62 -4 0 -29 28 -55 62 -79 106 -205 200 -327 245 -32 11 -58 22 -58 23 0 1 16 28 35 60 59 99 70 144 70 295 0 149 -13 206 -65 291 l-28 47 38 17 c61 27 138 43 216 44 l72 1 3 -86z m-2233 -13 c107 -55 162 -154 162 -295 0 -111 -20 -172 -75 -234 -117 -130 -313 -130 -430 0 -55 62 -75 123 -75 234 0 157 66 261 197 310 55 21 167 13 221 -15z m1640 0 c107 -55 162 -154 162 -295 0 -111 -20 -172 -75 -234 -117 -130 -313 -130 -430 0 -55 62 -75 123 -75 234 0 157 66 261 197 310 55 21 167 13 221 -15z m1640 0 c107 -55 162 -154 162 -295 0 -111 -20 -172 -75 -234 -117 -130 -313 -130 -430 0 -55 62 -75 123 -75 234 0 157 66 261 197 310 55 21 167 13 221 -15z m-1867 -917 c4 -79 6 -87 32 -110 19 -16 40 -24 67 -24 27 0 48 8 67 24 26 23 28 31 32 110 l3 86 72 0 c303 0 546 -250 546 -562 l0 -58 -62 46 c-90 66 -176 111 -284 150 -347 124 -736 67 -1032 -150 l-62 -46 0 63 c1 307 241 553 541 556 l77 1 3 -86z m1640 0 c4 -79 6 -87 32 -110 19 -16 40 -24 67 -24 27 0 48 8 67 24 26 23 28 31 32 110 l3 86 72 0 c205 0 398 -121 486 -305 44 -91 60 -165 60 -277 l0 -78 -720 0 -720 0 0 83 c1 171 53 307 161 415 103 102 238 160 380 161 l77 1 3 -86z m-1302 -503 c407 -119 674 -470 674 -886 0 -256 -95 -478 -280 -656 -353 -340 -898 -344 -1255 -10 -137 128 -226 280 -269 457 -32 129 -30 305 4 435 89 341 354 596 702 673 102 23 324 16 424 -13z"/>
<path d="M2468 2020 c-53 -28 -81 -72 -118 -182 l-32 -98 -107 0 c-94 0 -113 -3 -157 -25 -69 -35 -98 -80 -102 -164 -3 -58 0 -71 23 -106 14 -22 64 -67 110 -100 47 -33 85 -63 85 -66 0 -3 -13 -45 -30 -94 -35 -103 -38 -170 -11 -223 38 -74 97 -106 186 -100 58 3 68 8 154 70 l93 67 73 -53 c98 -73 126 -86 185 -86 110 0 190 79 190 187 0 27 -14 89 -31 141 -17 51 -29 94 -28 96 107 74 181 136 197 165 52 92 19 210 -72 263 -35 19 -59 24 -160 28 l-119 5 -31 97 c-36 111 -57 144 -112 175 -50 29 -134 30 -186 3z m137 -327 c50 -153 49 -153 223 -153 l136 0 -101 -74 c-106 -78 -133 -107 -133 -141 0 -12 18 -74 39 -138 22 -65 35 -114 28 -110 -6 4 -54 38 -106 75 -126 92 -135 92 -269 -7 -56 -41 -104 -75 -106 -75 -3 0 13 53 35 117 21 64 39 125 39 135 0 39 -28 70 -126 140 l-103 73 141 5 c135 5 141 6 162 31 12 14 37 76 56 137 19 62 37 109 41 105 3 -5 23 -59 44 -120z"/>
<path d="M839 2171 c-53 -53 -35 -138 35 -161 100 -33 175 92 97 162 -43 39 -92 38 -132 -1z"/>
</g>
</svg>