<svg viewBox="0 0 9 9" version="1.1" xmlns="http://www.w3.org/2000/svg" xmlns:xlink="http://www.w3.org/1999/xlink">
    <path d="M0.59420295,0 L8.39130435,0 C8.72463769,0 8.9855073,0.2608695 9,0.5942025 C9,0.92753663 8.73913039,1.18840612 8.40579705,1.18840612 L0.59420295,1.18840612 C0.260869612,1.18840612 0,0.92753663 0,0.5942025 C0,0.2608695 0.260869612,0 0.59420295,0 Z M8.39130435,7.8115939 L8.39130435,7.8115939 C8.72463769,7.8115939 8.9855073,8.0724634 9,8.4057975 C9,8.7391305 8.73913039,9 8.40579705,9 L0.59420295,9 C0.260869612,9 0,8.7391305 0,8.4057975 C0,8.0724634 0.260869612,7.8115939 0.59420295,7.8115939 L8.39130435,7.8115939 Z M8.39130435,3.89855025 L8.39130435,3.89855025 C8.72463769,3.89855025 8.9855073,4.15941975 9,4.49275388 C9,4.82608687 8.73913039,5.0869564 8.40579705,5.0869564 L0.59420295,5.0869564 C0.260869612,5.0869564 0,4.82608687 0,4.49275388 C0,4.15941975 0.260869612,3.89855025 0.59420295,3.89855025 L8.39130435,3.89855025 Z"></path>
</svg>