<svg viewBox="0 0 47 47" version="1.1" xmlns="http://www.w3.org/2000/svg" xmlns:xlink="http://www.w3.org/1999/xlink">
    <path d="M16.4285237,40.4992828 L22.5951961,33.9555568 C23.2845167,33.2233796 24.2456671,32.808995 25.2506329,32.808995 L37.3974094,32.808995 C40.363478,32.808995 42.7668466,30.4104038 42.7668466,27.4530381 L42.7668466,8.6419185 C42.7668466,5.68458975 40.3634232,3.28596156 37.3974094,3.28596156 L8.6591946,3.28596156 C5.69307125,3.28596156 3.28975743,5.68451563 3.28975743,8.6419185 L3.28975743,27.4530381 C3.28975743,30.4104214 5.69314362,32.808995 8.6591946,32.808995 L12.783513,32.808995 C14.7960056,32.808995 16.4285237,34.4382561 16.4285237,36.449501 L16.4285237,40.4992828 Z M37.3974094,0 C42.1796859,0 46.056604,3.86918321 46.056604,8.6419185 L46.056604,27.4530381 C46.056604,32.2257733 42.1797778,36.0949565 37.3974094,36.0949565 L25.2506329,36.0949565 C25.1526098,36.0949565 25.0589046,36.1352978 24.9917491,36.2066284 L15.2364784,46.5583737 C14.483437,47.3576802 13.1387663,46.825726 13.1387663,45.7286277 L13.1387663,36.449501 C13.1387663,36.2536627 12.9797429,36.0949565 12.783513,36.0949565 L8.6591946,36.0949565 C3.87691812,36.0949565 0,32.225865 0,27.4530381 L0,8.6419185 C0,3.86918321 3.87673439,0 8.6591946,0 L37.3974094,0 Z M22.4908115,9.2963378 C22.6760672,8.9012207 23.3233372,8.9012207 23.5085929,9.2963378 L23.5085929,9.2963378 L25.9889194,14.5876016 L31.5225901,15.4341737 C31.7310965,15.4664742 31.9043519,15.6114506 31.9711039,15.8120138 C32.037856,16.0118259 31.9868544,16.233422 31.8398499,16.3844078 L31.8398499,16.3844078 L27.8197259,20.5113532 L28.7700052,26.3457151 C28.8045063,26.5582971 28.7152535,26.7723815 28.5389981,26.8970762 C28.4422451,26.965433 28.3289916,27 28.2149881,27 C28.1219852,27 28.0282323,26.9767006 27.9427297,26.9301278 L27.9427297,26.9301278 L23.0000772,24.193604 L18.0574248,26.9293767 C17.868419,27.0345409 17.6366618,27.0210198 17.4611564,26.8970762 C17.284901,26.7723815 17.1956482,26.5582971 17.2301493,26.3457151 L17.2301493,26.3457151 L18.1804286,20.5113532 L14.1595546,16.3844078 C14.01255,16.233422 13.9622985,16.0125771 14.0290505,15.8120138 C14.0958026,15.6114506 14.2690579,15.4664742 14.4775644,15.4341737 L14.4775644,15.4341737 L20.0112351,14.5876016 L22.4908115,9.2963378 Z"></path>
</svg>