<svg viewBox="0 0 46 46" version="1.1" xmlns="http://www.w3.org/2000/svg" xmlns:xlink="http://www.w3.org/1999/xlink">
    <path d="M40.6697388,0 L5.33026123,0 C2.39103696,0 0,2.39103696 0,5.33026123 L0,33.6019134 C0,36.5411377 2.39103696,38.9321747 5.33026123,38.9321747 L15.1881561,38.9321747 L21.7295532,45.4739227 C22.4307556,46.1751251 23.5688934,46.1751251 24.2704468,45.4739227 L30.8118439,38.9321747 L40.6697388,38.9321747 C43.608963,38.9321747 46,36.5411377 46,33.6019134 L46,5.33026123 C46,2.39103696 43.608963,0 40.6697388,0 Z M42.40625,33.6019134 C42.40625,34.5593109 41.6271362,35.3384247 40.6697388,35.3384247 L30.0678253,35.3384247 C29.5912323,35.3384247 29.1339417,35.5279388 28.7970276,35.8648529 L23,41.6618805 L17.2029724,35.8648529 C16.8660583,35.5279388 16.4087677,35.3387757 15.9325257,35.3387757 L5.33026123,35.3387757 C4.37286377,35.3387757 3.59375,34.5593109 3.59375,33.6019134 L3.59375,5.33026123 C3.59375,4.37286377 4.37286377,3.59375 5.33026123,3.59375 L40.6697388,3.59375 C41.6271362,3.59375 42.40625,4.37286377 42.40625,5.33026123 L42.40625,33.6019134 Z M30.0899353,13.832428 C30.216278,16.5814362 28.7928161,19.1019745 26.3744049,20.4106751 C25.4015656,20.9374542 24.796875,21.9204712 24.796875,22.9764862 L24.796875,23 C24.796875,23.9924927 23.9924927,24.796875 23,24.796875 C22.0075073,24.796875 21.203125,23.9924927 21.203125,23 C21.2055817,22.9908753 21.0371247,19.2132263 24.6638641,17.2503509 C25.8588562,16.6035462 26.5625153,15.3573151 26.5000458,13.9977264 C26.417923,12.21138 24.9541016,10.7475586 23.1677552,10.6654358 C21.1494293,10.5727845 19.4960938,12.1759339 19.4960938,14.1654816 C19.4960938,15.1579743 18.6917114,15.9623566 17.6992188,15.9623566 C16.7067261,15.9623566 15.9023438,15.1579743 15.9023438,14.1654816 C15.9023438,10.1060181 19.2876282,6.8849792 23.3327026,7.07554624 C26.9790954,7.24295048 29.9225311,10.1916504 30.0899353,13.832428 L30.0899353,13.832428 Z M24.796875,28.2709503 L24.796875,30.0678253 C24.796875,31.060318 23.9924927,31.8647003 23,31.8647003 C22.0075073,31.8647003 21.203125,31.060318 21.203125,30.0678253 L21.203125,28.2709503 C21.203125,27.2784577 22.0075073,26.4740753 23,26.4740753 C23.9924927,26.4740753 24.796875,27.2784577 24.796875,28.2709503 Z"></path>
</svg>