<svg viewBox="0 0 50 50" version="1.1" xmlns="http://www.w3.org/2000/svg" xmlns:xlink="http://www.w3.org/1999/xlink">
    <path d="M18.4285237,42.4992828 L24.5951961,35.9555568 C25.2845167,35.2233796 26.2456671,34.808995 27.2506329,34.808995 L39.3974094,34.808995 C42.363478,34.808995 44.7668466,32.4104038 44.7668466,29.4530381 L44.7668466,10.6419185 C44.7668466,7.68458975 42.3634232,5.28596156 39.3974094,5.28596156 L10.6591946,5.28596156 C7.69307125,5.28596156 5.28975743,7.68451563 5.28975743,10.6419185 L5.28975743,29.4530381 C5.28975743,32.4104214 7.69314362,34.808995 10.6591946,34.808995 L14.783513,34.808995 C16.7960056,34.808995 18.4285237,36.4382561 18.4285237,38.449501 L18.4285237,42.4992828 Z M39.3974094,2 C44.1796859,2 48.056604,5.86918321 48.056604,10.6419185 L48.056604,29.4530381 C48.056604,34.2257733 44.1797778,38.0949565 39.3974094,38.0949565 L27.2506329,38.0949565 C27.1526098,38.0949565 27.0589046,38.1352978 26.9917491,38.2066284 L17.2364784,48.5583737 C16.483437,49.3576802 15.1387663,48.825726 15.1387663,47.7286277 L15.1387663,38.449501 C15.1387663,38.2536627 14.9797429,38.0949565 14.783513,38.0949565 L10.6591946,38.0949565 C5.87691812,38.0949565 2,34.225865 2,29.4530381 L2,10.6419185 C2,5.86918321 5.87673439,2 10.6591946,2 L39.3974094,2 Z M33.141245,13.4100839 C31.2517758,11.529972 28.1883266,11.529972 26.2987785,13.4100839 L25.2314665,14.4721103 C24.9769949,14.7253216 24.5642977,14.7253216 24.3098262,14.4721103 L23.2595684,13.4270537 C21.3700992,11.5469418 18.30665,11.5469418 16.4171019,13.4270537 C14.5276327,15.3071656 14.5276327,18.3554437 16.4171019,20.2356341 L24.3104578,28.0898996 C24.5649294,28.3431109 24.9776265,28.3431109 25.2320981,28.0898996 L33.1411661,20.2186643 C35.0307142,18.3384738 35.0307142,15.2902744 33.141245,13.4100839 Z"></path>
</svg>