<svg viewBox="0 0 49 43" version="1.1" xmlns="http://www.w3.org/2000/svg" xmlns:xlink="http://www.w3.org/1999/xlink">
    <path d="M44.4505625,8 C46.9567792,8 49,10.0738471 49,12.6176299 L49,12.6176299 L49,30.9859895 C49,33.5297723 46.9567792,35.6036194 44.4505625,35.6036194 L44.4505625,35.6036194 L43.152161,35.6036194 L43.152161,41.1406888 C43.152161,41.9273205 42.6891652,42.6015762 41.964476,42.8774081 C41.7531083,42.959136 41.5316755,43 41.3203079,43 C40.8069864,43 40.30373,42.7752481 39.9514506,42.3563923 L39.9514506,42.3563923 L34.1941978,35.6240514 L16.2380107,35.6240514 C15.553582,35.6240514 15,35.0621716 15,34.3674839 C15,33.6727963 15.553582,33.1109165 16.2380107,33.1109165 L16.2380107,33.1109165 L34.7578449,33.1109165 C35.1201895,33.1109165 35.4624038,33.2641565 35.6939017,33.5399883 L35.6939017,33.5399883 L40.6862049,39.3937536 L40.6862049,34.357268 C40.6862049,33.6625803 41.2397869,33.1007005 41.9242155,33.1007005 L41.9242155,33.1007005 L44.4505625,33.1007005 C45.597987,33.1007005 46.5340438,32.150613 46.5340438,30.9859895 L46.5340438,30.9859895 L46.5340438,12.6176299 C46.5340438,11.4530064 45.597987,10.5029189 44.4505625,10.5029189 C43.7661338,10.5029189 43.2125518,9.9410391 43.2125518,9.2463514 C43.2125518,8.5618797 43.7661338,8 44.4505625,8 Z M36.3059777,0 C38.891844,0 41,2.07445255 41,4.6189781 L41,4.6189781 L41,22.9927007 C41,25.5372263 38.891844,27.6116788 36.3163627,27.6014599 L36.3163627,27.6014599 L15.2763425,27.6014599 L9.3465046,34.3562044 C8.98302938,34.7649635 8.46377913,35 7.92375887,35 L7.92375887,35 L7.77539941,34.9944375 C6.79666791,34.9207276 6.03368794,34.123601 6.03368794,33.150365 L6.03368794,33.150365 L6.03368794,27.6116788 L4.69402229,27.6116788 C2.10815603,27.6116788 0,25.5372263 0,22.9927007 L0,22.9927007 L0,4.6189781 C0,2.07445255 2.10815603,0 4.69402229,0 L4.69402229,0 L36.3059777,0 Z M36.3059777,2.50364964 L4.69402229,2.50364964 C3.51013171,2.50364964 2.54432624,3.4540146 2.54432624,4.6189781 L2.54432624,4.6189781 L2.54432624,22.9824818 C2.54432624,24.1474453 3.51013171,25.0978102 4.69402229,25.0978102 L4.69402229,25.0978102 L7.29027356,25.0978102 C7.9964539,25.0978102 8.56762918,25.659854 8.56762918,26.3547445 L8.56762918,26.3547445 L8.56762918,31.3927007 L13.7185917,25.5372263 C13.9678318,25.2613139 14.310537,25.1080292 14.6843972,25.1080292 L14.6843972,25.1080292 L36.3059777,25.1080292 C37.4898683,25.1080292 38.4556738,24.1576642 38.4556738,22.9927007 L38.4556738,22.9927007 L38.4556738,4.6189781 C38.4556738,3.4540146 37.4898683,2.50364964 36.3059777,2.50364964 L36.3059777,2.50364964 Z M20.5,13 C21.3284271,13 22,13.6715729 22,14.5 C22,15.3284271 21.3284271,16 20.5,16 C19.6715729,16 19,15.3284271 19,14.5 C19,13.6715729 19.6715729,13 20.5,13 Z M25.5,13 C26.3284271,13 27,13.6715729 27,14.5 C27,15.3284271 26.3284271,16 25.5,16 C24.6715729,16 24,15.3284271 24,14.5 C24,13.6715729 24.6715729,13 25.5,13 Z M15.5,13 C16.3284271,13 17,13.6715729 17,14.5 C17,15.3284271 16.3284271,16 15.5,16 C14.6715729,16 14,15.3284271 14,14.5 C14,13.6715729 14.6715729,13 15.5,13 Z"></path>
</svg>