<svg viewBox="0 0 50 45" version="1.1" xmlns="http://www.w3.org/2000/svg" xmlns:xlink="http://www.w3.org/1999/xlink">
    <path d="M16.2745098,41.7765957 L22.3529412,35.5531915 C23.0392157,34.8829787 24.0196078,34.5 25,34.5 L41.1764706,34.5 C44.1176471,34.5 46.4705882,32.2021277 46.4705882,29.3297872 L46.4705882,11.2340426 C46.4705882,8.36170213 44.1176471,6.06382979 41.1764706,6.06382979 L8.62745098,6.06382979 C5.68627451,6.06382979 3.33333333,8.36170213 3.33333333,11.2340426 L3.33333333,29.2340426 C3.33333333,32.106383 5.68627451,34.4042553 8.62745098,34.4042553 L12.6470588,34.4042553 C14.6078431,34.4042553 16.1764706,35.9361702 16.1764706,37.8510638 L16.1764706,41.7765957 L16.2745098,41.7765957 Z M41.0784314,3 C45.7843137,3 49.6078431,6.73404255 49.6078431,11.2340426 L49.6078431,29.2340426 C49.6078431,33.8297872 45.7843137,37.4680851 41.0784314,37.4680851 L24.9019608,37.4680851 C24.8039216,37.4680851 24.7058824,37.4680851 24.6078431,37.5638298 L15,47.5212766 C14.2156863,48.287234 12.9411765,47.8085106 12.9411765,46.7553191 L12.9411765,37.8510638 C12.9411765,37.6595745 12.745098,37.4680851 12.5490196,37.4680851 L8.52941176,37.4680851 C3.82352941,37.4680851 0,33.7340426 0,29.2340426 L0,11.2340426 C0.196078431,6.73404255 3.92156863,3 8.62745098,3 L41.0784314,3 Z"></path>
</svg>