<svg viewBox="0 0 128 128" version="1.1" xmlns="http://www.w3.org/2000/svg" xmlns:xlink="http://www.w3.org/1999/xlink">
  <path id="Minimize-Alt" d="m56 76v28c0 2.211-1.789 4-4 4s-4-1.789-4-4v-18.344l-33.172 33.172c-.781.781-1.805 1.172-2.828 1.172s-2.047-.391-2.828-1.172c-1.563-1.563-1.563-4.094 0-5.656l33.172-33.172h-18.344c-2.211 0-4-1.789-4-4s1.789-4 4-4h28c2.211 0 4 1.789 4 4zm20-20h28c2.211 0 4-1.789 4-4s-1.789-4-4-4h-18.344l33.172-33.172c1.563-1.563 1.563-4.094 0-5.656s-4.094-1.563-5.656 0l-33.172 33.172v-18.344c0-2.211-1.789-4-4-4s-4 1.789-4 4v28c0 2.211 1.789 4 4 4zm9.656 24h18.344c2.211 0 4-1.789 4-4s-1.789-4-4-4h-28c-2.211 0-4 1.789-4 4v28c0 2.211 1.789 4 4 4s4-1.789 4-4v-18.344l33.172 33.172c.781.781 1.805 1.172 2.828 1.172s2.047-.391 2.828-1.172c1.563-1.563 1.563-4.094 0-5.656zm-33.656-60c-2.211 0-4 1.789-4 4v18.344l-33.172-33.172c-1.563-1.563-4.094-1.563-5.656 0s-1.563 4.094 0 5.656l33.172 33.172h-18.344c-2.211 0-4 1.789-4 4s1.789 4 4 4h28c2.211 0 4-1.789 4-4v-28c0-2.211-1.789-4-4-4z"/>
</svg>