<svg  viewBox="0 0 43 11" version="1.1" xmlns="http://www.w3.org/2000/svg" xmlns:xlink="http://www.w3.org/1999/xlink">
    <path d="M5.37455325,0.0412784 C8.34267013,0.0412784 10.7491065,2.4846392 10.7491065,5.498299 C10.7491065,8.5119588 8.34267013,10.9553196 5.37455325,10.9553196 C2.40643636,10.9553196 -8.8817842e-16,8.5119588 -8.8817842e-16,5.498299 C-8.8817842e-16,2.4846392 2.40643636,0.0412784 5.37455325,0.0412784 Z M37.6219844,0.0412784 C40.5901013,0.0412784 42.9965377,2.4846392 42.9965377,5.498299 C42.9965377,8.5119588 40.5901013,10.9553196 37.6219844,10.9553196 C34.6538675,10.9553196 32.2474312,8.5119588 32.2474312,5.498299 C32.2474312,2.4846392 34.6538675,0.0412784 37.6219844,0.0412784 Z M21.4983247,0.0412784 C24.4664416,0.0412784 26.8728779,2.4846392 26.8728779,5.498299 C26.8728779,8.5119588 24.4664416,10.9553196 21.4983247,10.9553196 C18.5302078,10.9553196 16.1237714,8.5119588 16.1237714,5.498299 C16.1237714,2.4846392 18.5302078,0.0412784 21.4983247,0.0412784 Z"></path>
</svg>