<svg  viewBox="0 0 48 48" version="1.1" xmlns="http://www.w3.org/2000/svg" xmlns:xlink="http://www.w3.org/1999/xlink">
    <path d="M13.499878,9.00061289 C14.3278809,9.00061289 14.999878,9.67260989 14.999878,10.5006129 C14.999878,11.3286158 14.3278809,12.0006129 13.499878,12.0006129 L6.49975588,12.0006129 C5.1217041,12.0006129 4,13.122317 4,14.5003687 L4,43.5006129 C4,44.8782984 5.1217041,46.0003687 6.49975588,46.0003687 L43.499878,46.0003687 C44.8779297,46.0003687 46,44.8782984 46,43.5006129 L46,26.5003687 C46,25.6723658 46.6719971,25.0003687 47.5,25.0003687 C48.328003,25.0003687 49,25.6723658 49,26.5003687 L49,43.5006129 C49,46.5343043 46.5339356,49.0003687 43.499878,49.0003687 L6.49975588,49.0003687 C3.46569829,49.0003687 1,46.5343043 1,43.5006129 L1,14.5003687 C1,11.4663111 3.46569829,9.00061289 6.49975588,9.00061289 L13.499878,9.00061289 Z M35.579834,1.46032964 L48.5799561,14.9603296 C49.1398926,15.5404078 49.1398926,16.4603296 48.5799561,17.0404078 L35.579834,30.5404078 C35.1557617,30.9824244 34.501709,31.1186549 33.9399414,30.8923364 C33.3719483,30.6623561 32.999878,30.1123072 32.999878,29.5003687 L32.999878,23.0004908 L30.6239014,23.0004908 C24.3320312,23.0004908 18.6777344,26.4963404 15.8659668,32.122439 C15.607788,32.6424585 15.0657959,32.9746119 14.4978028,32.9746119 C14.3879395,32.9746119 14.2777099,32.9625269 14.1678467,32.9343286 C13.4899903,32.7764918 13,32.1964137 13,31.5006129 L13,28.5006129 C13,17.7486598 21.7480469,9.00061289 32.5,9.00061289 L32.999878,9.00061289 L32.999878,2.5003687 C32.999878,1.8884302 33.3719483,1.33838142 33.9399414,1.10840095 C34.5057374,0.880617699 35.1557617,1.01831301 35.579834,1.46032964 Z M35.999878,6.22033945 L35.999878,10.5006129 C35.999878,11.3286158 35.3278809,12.0006129 34.499878,12.0006129 L32.5,12.0006129 C24.0998535,12.0006129 17.1440429,18.3104273 16.1259765,26.4403101 C19.7617187,22.3845239 24.9758301,20.0004908 30.6239014,20.0004908 L34.499878,20.0004908 C35.3278809,20.0004908 35.999878,20.6724879 35.999878,21.5004908 L35.999878,25.780398 L45.4177246,16.0003687 L35.999878,6.22033945 Z"></path>
</svg>