<svg viewBox="0 0 50 38" version="1.1" xmlns="http://www.w3.org/2000/svg" xmlns:xlink="http://www.w3.org/1999/xlink">
    <path d="M6.10429448,21.1003728 C1.60531697,26.7380573 0,33.3768261 0,37.7078323 C0,38.2979451 0.378323108,38.8037561 0.930470348,38.9512842 C1.03271984,38.9828974 1.14519427,38.9934352 1.24744376,38.9934352 C1.68711656,38.9934352 2.10633947,38.7510674 2.34151329,38.340096 C8.71165644,26.7696705 20.7259714,26.1584823 28.5685072,26.1268691 L28.5685072,34.504363 C28.5685072,34.9996362 28.8445808,35.4632962 29.2842536,35.6740508 C29.7239264,35.8848054 30.2453988,35.821579 30.6134969,35.5054471 L49.5501022,19.3616477 C49.8364008,19.1192799 50,18.7504594 50,18.3711012 C50,17.9812053 49.8364008,17.6229225 49.5398773,17.3805548 L30.6237219,1.28944392 C30.2453988,0.97331207 29.7341513,0.89954797 29.2944785,1.12084027 C28.8548057,1.33159483 28.5787321,1.78471714 28.5787321,2.29052809 L28.5787321,10.6996351 C16.5337423,11.1527574 9.72392638,16.558612 6.10429448,21.1003728 Z M29.8364008,13.2392276 C30.5214724,13.2286899 31.0736196,12.6596526 31.0736196,11.9430871 L31.0736196,5.0197997 L46.7791411,18.3711012 L31.0736196,31.7645537 L31.0736196,24.8412663 C31.0736196,24.504059 30.9406953,24.1668517 30.7055215,23.9244839 C30.4703476,23.6821162 30.1533742,23.5451257 29.8159509,23.5451257 C22.5255624,23.5451257 10.9304703,23.5451257 3.16973415,32.6707983 C5.12269939,24.7253513 11.8404908,13.418369 29.8364008,13.2392276 Z"></path>
</svg>