<?xml version="1.0" standalone="no"?>
<!DOCTYPE svg PUBLIC "-//W3C//DTD SVG 20010904//EN"
 "http://www.w3.org/TR/2001/REC-SVG-20010904/DTD/svg10.dtd">
<svg version="1.0" xmlns="http://www.w3.org/2000/svg"
viewBox="0 0 512.000000 512.000000"
 preserveAspectRatio="xMidYMid meet">

<g transform="translate(0.000000,512.000000) scale(0.100000,-0.100000)"
fill="#000000" stroke="none">
<path d="M2380 5069 c-544 -187 -1144 -327 -1753 -409 -188 -25 -211 -31 -243
-55 -69 -53 -66 4 -61 -1044 3 -919 4 -950 25 -1086 127 -798 529 -1470 1159
-1937 200 -149 332 -222 736 -408 259 -119 292 -132 330 -127 48 5 573 246
730 334 408 228 751 548 1013 945 239 360 387 750 455 1198 24 155 24 156 24
1107 0 945 0 952 -21 979 -43 59 -59 64 -280 94 -623 85 -1165 211 -1759 410
-82 27 -163 50 -180 49 -16 0 -95 -23 -175 -50z m319 -324 c331 -111 748 -221
1113 -295 176 -36 619 -110 656 -110 11 0 12 -156 9 -852 -4 -925 -3 -908 -63
-1176 -167 -747 -680 -1406 -1361 -1746 -107 -53 -484 -226 -493 -226 -14 0
-479 218 -570 267 -616 332 -1088 940 -1267 1633 -77 299 -76 294 -80 1246
l-4 852 88 12 c539 73 1155 216 1678 389 83 27 152 50 154 50 2 1 65 -19 140
-44z"/>
<path d="M2421 3985 c-177 -39 -347 -171 -429 -335 -53 -106 -72 -193 -72
-336 l0 -112 -47 -7 c-103 -15 -196 -84 -243 -180 l-25 -50 0 -645 0 -645 27
-51 c40 -76 70 -107 140 -145 l63 -34 725 0 725 0 63 34 c70 38 100 69 140
145 l27 51 0 645 0 645 -34 63 c-19 35 -48 74 -64 88 -44 37 -117 71 -169 79
l-46 7 -5 141 c-3 106 -10 158 -25 207 -102 315 -430 504 -751 435z m290 -346
c67 -36 98 -68 136 -143 23 -45 27 -66 31 -173 l4 -123 -322 0 -322 0 4 123
c5 141 24 193 93 262 100 100 249 121 376 54z m489 -1319 l0 -560 -640 0 -640
0 0 560 0 560 640 0 640 0 0 -560z"/>
</g>
</svg>
