<svg viewBox="0 0 50 50" version="1.1" xmlns="http://www.w3.org/2000/svg" xmlns:xlink="http://www.w3.org/1999/xlink">
    <path d="M1.45067698,39.3617021 C2.25183752,39.3617021 2.90135397,40.0112186 2.90135397,40.8123791 L2.90135397,40.8123791 L2.90135397,47.098646 L9.18762089,47.098646 C9.98878143,47.098646 10.6382979,47.7481625 10.6382979,48.549323 C10.6382979,49.3504836 9.98878143,50 9.18762089,50 L9.18762089,50 L1.45067698,50 C0.649516441,50 -1.77635684e-15,49.3504836 -1.77635684e-15,48.549323 L-1.77635684e-15,48.549323 L-1.77635684e-15,40.8123791 C-1.77635684e-15,40.0112186 0.649516441,39.3617021 1.45067698,39.3617021 Z M48.549323,39.3617021 C49.3504836,39.3617021 50,40.0112186 50,40.8123791 L50,40.8123791 L50,48.549323 C50,49.3504836 49.3504836,50 48.549323,50 L48.549323,50 L40.8123791,50 C40.0112186,50 39.3617021,49.3504836 39.3617021,48.549323 C39.3617021,47.7481625 40.0112186,47.098646 40.8123791,47.098646 L40.8123791,47.098646 L47.098646,47.098646 L47.098646,40.8123791 C47.098646,40.0112186 47.7481625,39.3617021 48.549323,39.3617021 Z M19.787234,28.7234043 C20.6097589,28.7234043 21.2765957,29.3902411 21.2765957,30.212766 L21.2765957,30.212766 L21.2765957,42.1276596 C21.2765957,42.9501844 20.6097589,43.6170213 19.787234,43.6170213 L19.787234,43.6170213 L7.87234043,43.6170213 C7.0498156,43.6170213 6.38297872,42.9501844 6.38297872,42.1276596 L6.38297872,42.1276596 L6.38297872,30.212766 C6.38297872,29.3902411 7.0498156,28.7234043 7.87234043,28.7234043 L7.87234043,28.7234043 Z M42.1276596,28.7234043 C42.9501844,28.7234043 43.6170213,29.3902411 43.6170213,30.212766 L43.6170213,30.212766 L43.6170213,42.1276596 C43.6170213,42.9501844 42.9501844,43.6170213 42.1276596,43.6170213 L42.1276596,43.6170213 L30.212766,43.6170213 C29.3902411,43.6170213 28.7234043,42.9501844 28.7234043,42.1276596 C28.7234043,41.3051348 29.3902411,40.6382979 30.212766,40.6382979 L30.212766,40.6382979 L40.6382979,40.6382979 L40.6382979,30.212766 C40.6382979,29.3902411 41.3051348,28.7234043 42.1276596,28.7234043 Z M33.643617,23.4042553 C34.4514539,23.4042553 35.106383,24.0506788 35.106383,24.8480243 C35.106383,25.6453698 34.4514539,26.2917933 33.643617,26.2917933 L33.643617,26.2917933 L26.3297872,26.2917933 L26.3297872,42.1732523 C26.3297872,42.9705978 25.6748582,43.6170213 24.8670213,43.6170213 C24.0591844,43.6170213 23.4042553,42.9705978 23.4042553,42.1732523 L23.4042553,42.1732523 L23.4042553,24.8480243 C23.4042553,24.0506788 24.0591844,23.4042553 24.8670213,23.4042553 L24.8670213,23.4042553 Z M18.2978723,31.7021277 L9.36170213,31.7021277 L9.36170213,40.6382979 L18.2978723,40.6382979 L18.2978723,31.7021277 Z M13.2978723,35.106383 C14.1791778,35.106383 14.893617,35.8208222 14.893617,36.7021277 C14.893617,37.5834331 14.1791778,38.2978723 13.2978723,38.2978723 C12.4165669,38.2978723 11.7021277,37.5834331 11.7021277,36.7021277 C11.7021277,35.8208222 12.4165669,35.106383 13.2978723,35.106383 Z M36.7021277,28.7234043 C37.5834043,28.7234043 38.2978723,29.358487 38.2978723,30.141844 L38.2978723,30.141844 L38.2978723,35.8156028 C38.2978723,36.5989598 37.5834043,37.2340426 36.7021277,37.2340426 C35.8208511,37.2340426 35.106383,36.5989598 35.106383,35.8156028 L35.106383,35.8156028 L35.106383,30.141844 C35.106383,29.358487 35.8208511,28.7234043 36.7021277,28.7234043 Z M30.3191489,28.7234043 C31.2004255,28.7234043 31.9148936,29.358487 31.9148936,30.141844 L31.9148936,30.141844 L31.9148936,35.8156028 C31.9148936,36.5989598 31.2004255,37.2340426 30.3191489,37.2340426 C29.4378723,37.2340426 28.7234043,36.5989598 28.7234043,35.8156028 L28.7234043,35.8156028 L28.7234043,30.141844 C28.7234043,29.358487 29.4378723,28.7234043 30.3191489,28.7234043 Z M10.106383,23.4042553 C10.9876596,23.4042553 11.7021277,24.1187234 11.7021277,25 C11.7021277,25.8812766 10.9876596,26.5957447 10.106383,26.5957447 L10.106383,26.5957447 L6.91489362,26.5957447 C6.03361702,26.5957447 5.31914894,25.8812766 5.31914894,25 C5.31914894,24.1187234 6.03361702,23.4042553 6.91489362,23.4042553 L6.91489362,23.4042553 Z M43.0851064,23.4042553 C43.966383,23.4042553 44.6808511,24.1187234 44.6808511,25 C44.6808511,25.8812766 43.966383,26.5957447 43.0851064,26.5957447 L43.0851064,26.5957447 L39.893617,26.5957447 C39.0123404,26.5957447 38.2978723,25.8812766 38.2978723,25 C38.2978723,24.1187234 39.0123404,23.4042553 39.893617,23.4042553 L39.893617,23.4042553 Z M19.6808511,23.4042553 C20.5621277,23.4042553 21.2765957,24.1187234 21.2765957,25 C21.2765957,25.8812766 20.5621277,26.5957447 19.6808511,26.5957447 L19.6808511,26.5957447 L16.4893617,26.5957447 C15.6080851,26.5957447 14.893617,25.8812766 14.893617,25 C14.893617,24.1187234 15.6080851,23.4042553 16.4893617,23.4042553 L16.4893617,23.4042553 Z M42.1276596,6.38297872 C42.9501844,6.38297872 43.6170213,7.0498156 43.6170213,7.87234043 L43.6170213,7.87234043 L43.6170213,19.787234 C43.6170213,20.6097589 42.9501844,21.2765957 42.1276596,21.2765957 L42.1276596,21.2765957 L30.212766,21.2765957 C29.3902411,21.2765957 28.7234043,20.6097589 28.7234043,19.787234 L28.7234043,19.787234 L28.7234043,7.87234043 C28.7234043,7.0498156 29.3902411,6.38297872 30.212766,6.38297872 L30.212766,6.38297872 Z M19.787234,6.38297872 C20.6097589,6.38297872 21.2765957,7.0498156 21.2765957,7.87234043 L21.2765957,7.87234043 L21.2765957,19.787234 C21.2765957,20.6097589 20.6097589,21.2765957 19.787234,21.2765957 L19.787234,21.2765957 L7.87234043,21.2765957 C7.0498156,21.2765957 6.38297872,20.6097589 6.38297872,19.787234 L6.38297872,19.787234 L6.38297872,7.87234043 C6.38297872,7.0498156 7.0498156,6.38297872 7.87234043,6.38297872 L7.87234043,6.38297872 Z M25,6.38297872 C25.8812766,6.38297872 26.5957447,7.0498156 26.5957447,7.87234043 L26.5957447,7.87234043 L26.5957447,19.787234 C26.5957447,20.6097589 25.8812766,21.2765957 25,21.2765957 C24.1187234,21.2765957 23.4042553,20.6097589 23.4042553,19.787234 L23.4042553,19.787234 L23.4042553,7.87234043 C23.4042553,7.0498156 24.1187234,6.38297872 25,6.38297872 Z M40.6382979,9.36170213 L31.7021277,9.36170213 L31.7021277,18.2978723 L40.6382979,18.2978723 L40.6382979,9.36170213 Z M18.2978723,9.36170213 L9.36170213,9.36170213 L9.36170213,18.2978723 L18.2978723,18.2978723 L18.2978723,9.36170213 Z M36.7021277,11.7021277 C37.5834331,11.7021277 38.2978723,12.4165669 38.2978723,13.2978723 C38.2978723,14.1791778 37.5834331,14.893617 36.7021277,14.893617 C35.8208222,14.893617 35.106383,14.1791778 35.106383,13.2978723 C35.106383,12.4165669 35.8208222,11.7021277 36.7021277,11.7021277 Z M13.2978723,11.7021277 C14.1791778,11.7021277 14.893617,12.4165669 14.893617,13.2978723 C14.893617,14.1791778 14.1791778,14.893617 13.2978723,14.893617 C12.4165669,14.893617 11.7021277,14.1791778 11.7021277,13.2978723 C11.7021277,12.4165669 12.4165669,11.7021277 13.2978723,11.7021277 Z M9.18762089,1.24344979e-14 C9.98878143,1.24344979e-14 10.6382979,0.649516441 10.6382979,1.45067698 C10.6382979,2.25183752 9.98878143,2.90135397 9.18762089,2.90135397 L9.18762089,2.90135397 L2.90135397,2.90135397 L2.90135397,9.18762089 C2.90135397,9.98878143 2.25183752,10.6382979 1.45067698,10.6382979 C0.649516441,10.6382979 -1.77635684e-15,9.98878143 -1.77635684e-15,9.18762089 L-1.77635684e-15,9.18762089 L-1.77635684e-15,1.45067698 C-1.77635684e-15,0.649516441 0.649516441,1.24344979e-14 1.45067698,1.24344979e-14 L1.45067698,1.24344979e-14 Z M48.549323,1.24344979e-14 C49.3504836,1.24344979e-14 50,0.649516441 50,1.45067698 L50,1.45067698 L50,9.18762089 C50,9.98878143 49.3504836,10.6382979 48.549323,10.6382979 C47.7481625,10.6382979 47.098646,9.98878143 47.098646,9.18762089 L47.098646,9.18762089 L47.098646,2.90135397 L40.8123791,2.90135397 C40.0112186,2.90135397 39.3617021,2.25183752 39.3617021,1.45067698 C39.3617021,0.649516441 40.0112186,1.24344979e-14 40.8123791,1.24344979e-14 L40.8123791,1.24344979e-14 Z"></path>
</svg>