<svg  viewBox="0 0 47 41" version="1.1" xmlns="http://www.w3.org/2000/svg" xmlns:xlink="http://www.w3.org/1999/xlink">
    <path d="M45.6230469,0 L12.484375,0 C11.7239297,0 11.1074219,0.61190216 11.1074219,1.36666653 L11.1074219,19.2228936 C9.2647832,19.5363158 7.56562305,20.4691113 6.32067383,21.8666645 L5.59960938,21.8666645 L5.59960938,20.5 C5.59960938,19.7452336 4.98310156,19.1333314 4.22265625,19.1333314 L1.37695312,19.1333314 C0.61650781,19.1333314 0,19.7452336 0,20.5 C0,21.2547623 0.61650781,21.8666645 1.37695312,21.8666645 L2.84570312,21.8666645 L2.84570312,38.2666628 L1.37695312,38.2666628 C0.61650781,38.2666628 0,38.878565 0,39.6333293 C0,40.3880937 0.61650781,41 1.37695312,41 L4.22265625,41 C4.98310156,41 5.59960938,40.3880937 5.59960938,39.6333293 L5.59960938,38.2666628 L6.7622168,38.2666628 C15.5437812,41.0252336 15.2119355,41 15.6054688,41 L34.515625,41 C37.3642656,41 39.3597461,38.1921339 38.4096484,35.5333298 L45.6230469,35.5333298 C46.3834922,35.5333298 47,34.9214276 47,34.1666632 L47,1.36666653 C47,0.61190216 46.3834922,0 45.6230469,0 Z M26,3 L32,3 L32,10 L26,10 L26,3 Z M36,36.6686323 C36,37.4027484 35.3882727,38 34.6363636,38 L16.1213636,38 C7.42481818,35.3126787 7.75345455,35.3372646 7.36363636,35.3372646 L6,35.3372646 L6,24.6863229 L7.36363636,24.6863229 C7.79672727,24.6863229 8.2040909,24.4854639 8.4610909,24.1451663 C10.6208182,21.2860985 15.0138182,21.2837908 17.1751818,24.1451663 C17.4322727,24.4854639 17.8396364,24.6863229 18.2727273,24.6863229 L25.0909091,24.6863229 C25.8428182,24.6863229 26.4545455,25.2835745 26.4545455,26.0176906 C26.4545455,26.7518068 25.8428182,27.3490583 25.0909091,27.3490583 L16.9090909,27.3490583 C16.156,27.3490583 15.5454545,27.945156 15.5454545,28.680426 C15.5454545,32.3510068 18.6040909,35.3372646 22.3636364,35.3372646 L34.6363636,35.3372646 C35.3882727,35.3372646 36,35.9345161 36,36.6686323 Z M44,33 C43.1757704,33 23.2768882,33 22.1570997,33 C20.3846526,33 18.8725982,31.8600909 18.3114804,30.2727273 L24.8761329,30.2727273 C27.1250453,30.2727273 28.9546828,28.4375455 28.9546828,26.1818182 C28.9546828,23.9260909 27.1250453,22.0909091 24.8761329,22.0909091 L18.7261329,22.0909091 C17.4970393,20.6964545 15.8193051,19.7657273 14,19.453 L14,3 L23.5166163,3 L23.5166163,11.1818182 C23.5166163,11.9349091 24.1253172,12.5454545 24.8761329,12.5454545 L33.0332326,12.5454545 C33.7840483,12.5454545 34.3927492,11.9349091 34.3927492,11.1818182 L34.3927492,3 L44,3 L44,33 Z"></path>
</svg>