<svg viewBox="0 0 42 42" version="1.1" xmlns="http://www.w3.org/2000/svg" xmlns:xlink="http://www.w3.org/1999/xlink">
    <path d="M29.859375,40.359375 C29.859375,41.265564 29.124939,42 28.21875,42 L8.203125,42 C4.58445742,42 1.640625,39.0561676 1.640625,35.4375 L1.640625,17.2265625 C1.640625,16.3203735 2.37506104,15.5859375 3.28125,15.5859375 C4.18743896,15.5859375 4.921875,16.3203735 4.921875,17.2265625 L4.921875,35.4375 C4.921875,37.2466736 6.3939514,38.71875 8.203125,38.71875 L28.21875,38.71875 C29.124939,38.71875 29.859375,39.453186 29.859375,40.359375 Z M42,4.921875 L42,9.84375 C42,10.749939 41.265564,11.484375 40.359375,11.484375 L40.359375,23.4609375 C40.359375,24.3671265 39.624939,25.1015625 38.71875,25.1015625 C37.812561,25.1015625 37.078125,24.3671265 37.078125,23.4609375 L37.078125,11.484375 L1.640625,11.484375 C0.73443604,11.484375 0,10.749939 0,9.84375 L0,4.921875 C0,2.20779415 2.20779415,0 4.921875,0 L37.078125,0 C39.7922059,0 42,2.20779415 42,4.921875 Z M3.28125,8.203125 L38.71875,8.203125 L38.71875,4.921875 C38.71875,4.01728819 37.9827118,3.28125 37.078125,3.28125 L4.921875,3.28125 C4.01728819,3.28125 3.28125,4.01728819 3.28125,4.921875 L3.28125,8.203125 Z M24.609375,18.046875 C25.515564,18.046875 26.25,17.312439 26.25,16.40625 C26.25,15.500061 25.515564,14.765625 24.609375,14.765625 L17.2265625,14.765625 C16.3203735,14.765625 15.5859375,15.500061 15.5859375,16.40625 C15.5859375,17.312439 16.3203735,18.046875 17.2265625,18.046875 L24.609375,18.046875 Z M34.7402344,27.4804688 L26.0865783,27.4804688 L28.1418457,25.4479523 C28.7862396,24.8106079 28.7920074,23.771759 28.1546631,23.1276855 C27.5176392,22.4836121 26.4787902,22.4775238 25.8347168,23.1148682 L22.7880249,26.127594 C22.0068055,26.9001617 21.5758209,27.9290771 21.5742098,29.0249634 C21.5726166,30.1208496 22.0007172,31.1507264 22.7796936,31.9255371 L25.831192,34.9600525 C26.1516266,35.2785645 26.5697937,35.4375 26.9882813,35.4375 C27.4096527,35.4375 27.8310242,35.276001 28.1517792,34.9536438 C28.7907257,34.3111725 28.7875214,33.272644 28.14505,32.6336975 L26.2628174,30.7617188 L34.7402344,30.7617188 C36.9339295,30.7617188 38.71875,32.5465393 38.71875,34.7402344 C38.71875,36.9339295 36.9544373,38.71875 34.7857361,38.71875 C33.8795471,38.71875 33.1451111,39.453186 33.1451111,40.359375 C33.1451111,41.265564 33.8795471,42 34.7857361,42 C36.7253266,42 38.5428314,41.2424927 39.9027558,39.8671875 C41.2553101,38.4995728 42,36.6788635 42,34.7402344 C42,30.7370453 38.7434234,27.4804688 34.7402344,27.4804688 Z" fill-rule="nonzero"></path>
</svg>