<svg width="50" height="50" viewBox="0 0 50 50" fill="none" xmlns="http://www.w3.org/2000/svg">
<rect width="50" height="50" fill="white" fill-opacity="0.01"/>
<path d="M6.58471 35.0845C8.07245 37.9501 10.2329 40.3712 12.8263 42.182L12.8599 42.1186C20.0599 47.2446 30.0552 47.5863 37.752 42.2171C42.1828 39.1263 45.0329 34.726 46.2212 29.8404L46.9452 30.8704C47.3071 31.3853 47.9866 31.5692 48.5773 31.1571C49.0204 30.848 49.1533 30.0975 48.7913 29.5825L46.1542 25.8305C45.7923 25.3155 45.0389 25.1832 44.522 25.5437L40.8297 28.1194C40.3128 28.48 40.1799 29.2305 40.5419 29.7455C40.9039 30.2605 41.6572 30.3928 42.1741 30.0322L43.2079 29.311C42.1524 33.4462 39.6641 37.2652 35.8979 39.8924C27.4795 45.7649 15.8029 43.7138 9.90827 35.3269C9.73492 35.0802 9.56845 34.8308 9.40882 34.5788C9.33471 34.4456 9.26234 34.3112 9.19174 34.1757C9.0831 34.0243 8.81354 33.3928 8.81354 33.3928C8.54399 32.7613 7.97054 32.3462 7.31049 32.4503C6.56793 32.5675 6.01242 33.3292 6.13003 34.069C6.15616 34.2334 6.1823 34.3978 6.27787 34.467C6.29974 34.513 6.32177 34.5589 6.34398 34.6047L6.33146 34.6135C6.41371 34.7712 6.49813 34.9282 6.58471 35.0845Z" fill="#202020"/>
<path d="M43.4153 15.0208C41.9275 12.1552 39.7671 9.73403 37.1737 7.92324L37.1401 7.98671C29.9401 2.86069 19.9448 2.51898 12.248 7.88814C7.81724 10.979 4.96711 15.3792 3.77876 20.2649L3.05485 19.2349C2.69289 18.7199 2.01342 18.5361 1.42265 18.9482C0.979569 19.2573 0.846738 20.0078 1.20869 20.5228L3.84578 24.2748C4.20774 24.7898 4.96106 24.9221 5.47798 24.5615L9.1703 21.9858C9.68722 21.6252 9.82005 20.8747 9.4581 20.3597C9.09614 19.8448 8.34282 19.7124 7.8259 20.073L6.79205 20.7942C7.84757 16.6591 10.3359 12.8401 14.1021 10.2129C22.5205 4.34033 34.197 6.39149 40.0917 14.7784C40.2651 15.025 40.4315 15.2745 40.5912 15.5265C40.6653 15.6597 40.7377 15.794 40.8083 15.9295C40.9169 16.0809 41.1865 16.7125 41.1865 16.7125C41.456 17.344 42.0295 17.7591 42.6895 17.6549C43.4321 17.5377 43.9876 16.776 43.87 16.0362C43.8438 15.8718 43.8177 15.7075 43.7221 15.6383C43.7003 15.5923 43.6782 15.5463 43.656 15.5005L43.6685 15.4918C43.5863 15.3341 43.5019 15.1771 43.4153 15.0208Z" fill="#202020"/>
</svg>