<svg  viewBox="0 0 50 50" version="1.1" xmlns="http://www.w3.org/2000/svg" xmlns:xlink="http://www.w3.org/1999/xlink">
    <path d="M21.6982891,1 C33.1112695,1 42.3965781,10.2852129 42.3965781,21.6982891 C42.3965781,26.7544358 40.5742534,31.3929661 37.5519085,34.9915752 L49.4696133,46.9097461 C50.1767637,47.616418 50.1767637,48.7629414 49.4696133,49.4696133 C49.1159902,49.8232363 48.6531699,50 48.1896797,50 C47.7261895,50 47.2633691,49.8232363 46.9097461,49.4696133 L46.9097461,49.4696133 L34.9915752,37.5519085 C31.3929661,40.5742534 26.7544358,42.3965781 21.6982891,42.3965781 C10.2852129,42.3965781 1,33.1113652 1,21.6982891 C1,10.2852129 10.2852129,1 21.6982891,1 Z M21.6982891,4.62073633 C12.2814844,4.62073633 4.62073633,12.2814844 4.62073633,21.6982891 C4.62073633,31.1150937 12.2814844,38.7758418 21.6982891,38.7758418 C26.3206488,38.7758418 30.5198931,36.9300125 33.5976645,33.9367113 C33.6440428,33.8725397 33.6969237,33.8121057 33.7544902,33.7545859 C33.8114476,33.6976286 33.8712466,33.6452582 33.9334294,33.5974748 C36.9292157,30.5217056 38.7758418,26.3216464 38.7758418,21.6982891 C38.7758418,12.2814844 31.1145195,4.62073633 21.6982891,4.62073633 Z"></path>
</svg>