<svg  viewBox="0 0 50 50" version="1.1" xmlns="http://www.w3.org/2000/svg" xmlns:xlink="http://www.w3.org/1999/xlink">
    <path d="M29.2331695,0 C29.9358368,0 30.5438995,0.489807129 30.6930542,1.17645264 L30.6930542,1.17645264 L31.5284729,5.01937871 C32.5515747,5.35354609 33.5494995,5.76744082 34.5108032,6.25610352 L34.5108032,6.25610352 L37.8200531,4.12864688 C38.4113312,3.74870303 39.1876221,3.83224492 39.6842957,4.32891846 L39.6842957,4.32891846 L45.6710815,10.3157043 C46.1677551,10.8123779 46.251297,11.5886688 45.8713531,12.1799469 L45.8713531,12.1799469 L43.7438965,15.4891968 C44.2325592,16.4505005 44.6464539,17.4484253 44.9806213,18.4715271 L44.9806213,18.4715271 L48.8235474,19.3069458 C49.5101929,19.4564819 50,20.0641632 50,20.7668305 L50,20.7668305 L50,29.2331695 C50,29.9358368 49.5101929,30.5435181 48.8235474,30.6930542 L48.8235474,30.6930542 L44.9806213,31.5284729 C44.6464539,32.5515747 44.2325592,33.5494995 43.7438965,34.5108032 L43.7438965,34.5108032 L45.8713531,37.8200531 C46.251297,38.4113312 46.1677551,39.1876221 45.6710815,39.6842957 L45.6710815,39.6842957 L39.6842957,45.6710815 C39.1876221,46.1681366 38.4113312,46.251297 37.8200531,45.8713531 L37.8200531,45.8713531 L34.5108032,43.7438965 C33.5494995,44.2325592 32.5515747,44.6464539 31.5284729,44.9806213 L31.5284729,44.9806213 L30.6930542,48.8235474 C30.5438995,49.5101929 29.9358368,50 29.2331695,50 L29.2331695,50 L20.7668305,50 C20.0641632,50 19.4561005,49.5101929 19.3069458,48.8235474 L19.3069458,48.8235474 L18.4715271,44.9806213 C17.4484253,44.6464539 16.4505005,44.2325592 15.4891968,43.7438965 L15.4891968,43.7438965 L12.1799469,45.8713531 C11.5886688,46.251297 10.8123779,46.1677551 10.3157043,45.6710815 L10.3157043,45.6710815 L4.32891846,39.6842957 C3.83224492,39.1876221 3.74870303,38.4113312 4.12864687,37.8200531 L4.12864687,37.8200531 L6.25610352,34.5108032 C5.76744082,33.5494995 5.35354609,32.5515747 5.01937871,31.5284729 L5.01937871,31.5284729 L1.17645264,30.6930542 C0.489807129,30.5435181 0,29.9358368 0,29.2331695 L0,29.2331695 L0,20.7668305 C0,20.0641632 0.489807129,19.4564819 1.17645264,19.3069458 L1.17645264,19.3069458 L5.01937871,18.4715271 C5.35354609,17.4484253 5.76744082,16.4505005 6.25610352,15.4891968 L6.25610352,15.4891968 L4.12864687,12.1799469 C3.74870303,11.5886688 3.83224492,10.8123779 4.32891846,10.3157043 L4.32891846,10.3157043 L10.3157043,4.32891846 C10.8123779,3.83224492 11.5886688,3.74870303 12.1799469,4.12864688 L12.1799469,4.12864688 L15.4891968,6.25610352 C16.4505005,5.76744082 17.4484253,5.35354609 18.4715271,5.01937871 L18.4715271,5.01937871 L19.3069458,1.17645264 C19.4561005,0.489807129 20.0641632,0 20.7668305,0 L20.7668305,0 L29.2331695,0 Z M28.0288696,2.98805234 L21.9711304,2.98805234 L21.2051392,6.51168828 C21.087265,7.05299375 20.6798554,7.48481748 20.1465606,7.63359072 C18.7576294,8.02078242 17.4144745,8.57772832 16.1540985,9.28878789 C15.6719208,9.56115723 15.0783539,9.54437256 14.6121979,9.2445373 L14.6121979,9.2445373 L11.5768433,7.29331973 L7.29331973,11.5772247 L9.2445373,14.6121979 C9.54437256,15.0783539 9.56115723,15.6719208 9.28878789,16.15448 C8.57772832,17.4144745 8.02078242,18.7576294 7.63359072,20.1465606 C7.48481748,20.6798554 7.05299375,21.087265 6.51168828,21.2051392 L6.51168828,21.2051392 L2.98805234,21.9711304 L2.98805234,28.0288696 L6.51206973,28.7948608 C7.0533752,28.912735 7.48481748,29.3201446 7.63359072,29.8534394 C8.02116396,31.2423706 8.57810977,32.5855255 9.28916934,33.84552 C9.56153867,34.3280792 9.54437256,34.9216461 9.2445373,35.3878021 L9.2445373,35.3878021 L7.29370117,38.4227753 L11.5772247,42.7066803 L14.6121979,40.7554627 C15.0783539,40.4560089 15.6719208,40.4388428 16.15448,40.7112121 C17.4144745,41.4222717 18.7576294,41.9792176 20.1465606,42.3664093 C20.6798554,42.5151825 21.087265,42.9470063 21.2051392,43.4883117 L21.2051392,43.4883117 L21.9711304,47.0119477 L28.0288696,47.0119477 L28.7948608,43.4883117 C28.912735,42.9470063 29.3201446,42.5151825 29.8534394,42.3664093 C31.2423706,41.9792176 32.5855255,41.4222717 33.8459015,40.7112121 C34.3280792,40.4388428 34.9216461,40.4556274 35.3878021,40.7554627 L35.3878021,40.7554627 L38.4231567,42.7066803 L42.7066803,38.4227753 L40.7554627,35.3878021 C40.4556274,34.9216461 40.4388428,34.3280792 40.7112121,33.84552 C41.4222717,32.5855255 41.9792176,31.2423706 42.3664093,29.8534394 C42.5151825,29.3201446 42.9470062,28.912735 43.4883117,28.7948608 L43.4883117,28.7948608 L47.0119477,28.0288696 L47.0119477,21.9711304 L43.4879303,21.2051392 C42.9466248,21.087265 42.5151825,20.6798554 42.3664093,20.1465606 C41.978836,18.7576294 41.4222717,17.4144745 40.7108307,16.15448 C40.4384613,15.6719208 40.4556274,15.0783539 40.7554627,14.6121979 L40.7554627,14.6121979 L42.7062988,11.5772247 L38.4227753,7.29331973 L35.3878021,9.2445373 C34.9216461,9.54399111 34.3280792,9.56115723 33.84552,9.28878789 C32.5855255,8.57772832 31.2423706,8.02078242 29.8534394,7.63359072 C29.3201446,7.48481748 28.912735,7.05299375 28.7948608,6.51168828 L28.7948608,6.51168828 L28.0288696,2.98805234 Z M24.9522095,13 C31.5424805,13 36.9044189,18.3619385 36.9044189,24.9522095 C36.9044189,31.5424805 31.5424805,36.9044189 24.9522095,36.9044189 C18.3619385,36.9044189 13,31.5424805 13,24.9522095 C13,18.3619385 18.3619385,13 24.9522095,13 Z M24.9522095,15.9880523 C20.0095062,15.9880523 15.9880523,20.0095062 15.9880523,24.9522095 C15.9880523,29.8949127 20.0095062,33.9163666 24.9522095,33.9163666 C29.8949127,33.9163666 33.9163666,29.8949127 33.9163666,24.9522095 C33.9163666,20.0095062 29.8949127,15.9880523 24.9522095,15.9880523 Z"></path>
</svg>