<svg  viewBox="0 0 50 50" version="1.1" xmlns="http://www.w3.org/2000/svg" xmlns:xlink="http://www.w3.org/1999/xlink">
    <path d="M12.330902,15.6249887 L12.330902,18.7500227 L9.20586794,18.7500227 L9.20586794,46.8750567 L40.455936,46.8750567 L40.455936,18.7500227 L37.330902,18.7500227 L37.330902,15.6249887 L42.0183623,15.6249887 C42.8820423,15.6249887 43.5808793,16.3238256 43.5808793,17.1875057 L43.5808793,17.1875057 L43.5808793,48.437483 C43.5808793,49.3011631 42.8820423,50 42.0183623,50 L42.0183623,50 L7.64335093,50 C6.77967086,50 6.08083392,49.3011631 6.08083392,48.437483 L6.08083392,48.437483 L6.08083392,17.1875057 C6.08083392,16.3238256 6.77967086,15.6249887 7.64335093,15.6249887 L7.64335093,15.6249887 L12.330902,15.6249887 Z M24.8308566,-4.08562073e-14 L35.3105982,10.4797416 L33.1011377,12.6892022 L26.3933736,5.98143814 L26.3933736,28.125034 L23.2683396,28.125034 L23.2683396,5.98143814 L16.5605755,12.6892022 L14.351115,10.4797416 L24.8308566,-4.08562073e-14 Z"></path>
</svg>