<svg viewBox="0 0 51 38" version="1.1" xmlns="http://www.w3.org/2000/svg" xmlns:xlink="http://www.w3.org/1999/xlink">
    <path d="M35.125034,6.5000454 L32,6.5000454 L32,3.37501134 L3.87496598,3.37501134 L3.87496598,34.6250794 L32,34.6250794 L32,31.5000454 L35.125034,31.5000454 L35.125034,36.1875057 C35.125034,37.0032035 34.5016887,37.6718654 33.7048458,37.7436435 L33.562517,37.7500227 L2.31253969,37.7500227 C1.49684184,37.7500227 0.828180004,37.1266774 0.75640183,36.3298345 L0.750022681,36.1875057 L0.750022681,1.81249433 C0.750022681,0.99679648 1.37336797,0.32813464 2.1702109,0.25635647 L2.31253969,0.24997732 L33.562517,0.24997732 C34.3782149,0.24997732 35.0468767,0.87332261 35.1186549,1.67016554 L35.125034,1.81249433 L35.125034,6.5000454 Z M50.7500227,19 L40.2702811,29.4797416 L38.0608205,27.2702811 L44.7685845,20.562517 L22.6249887,20.562517 L22.6249887,17.437483 L44.7685845,17.437483 L38.0608205,10.7297189 L40.2702811,8.5202584 L50.7500227,19 Z"></path>
</svg>