<svg viewBox="0 0 50 50" version="1.1" xmlns="http://www.w3.org/2000/svg" xmlns:xlink="http://www.w3.org/1999/xlink">
    <path d="M7.5,0 C7.96023729,0 8.33333333,0.373096042 8.33333333,0.833333333 L8.33333333,0.833333333 L8.33333333,49.1666667 C8.33333333,49.626904 7.96023729,50 7.5,50 L7.5,50 L0.833333333,50 C0.373096042,50 1.86517468e-14,49.626904 1.86517468e-14,49.1666667 L1.86517468e-14,49.1666667 L1.86517468e-14,0.833333333 C1.86517468e-14,0.373096042 0.373096042,0 0.833333333,0 L0.833333333,0 Z M6.66666667,1.66666667 L1.66666667,1.66666667 L1.66666667,48.3333333 L6.66666667,48.3333333 L6.66666667,45.8333333 L3.33333333,45.8333333 L3.33333333,44.1666667 L6.66666667,44.1666667 L6.66666667,42.5 L5,42.5 L5,40.8333333 L6.66666667,40.8333333 L6.66666667,39.1666667 L3.33333333,39.1666667 L3.33333333,37.5 L6.66666667,37.5 L6.66666667,35.8333333 L5,35.8333333 L5,34.1666667 L6.66666667,34.1666667 L6.66666667,32.5 L3.33333333,32.5 L3.33333333,30.8333333 L6.66666667,30.8333333 L6.66666667,29.1666667 L5,29.1666667 L5,27.5 L6.66666667,27.5 L6.66666667,25.8333333 L3.33333333,25.8333333 L3.33333333,24.1666667 L6.66666667,24.1666667 L6.66666667,22.5 L5,22.5 L5,20.8333333 L6.66666667,20.8333333 L6.66666667,19.1666667 L3.33333333,19.1666667 L3.33333333,17.5 L6.66666667,17.5 L6.66666667,15.8333333 L5,15.8333333 L5,14.1666667 L6.66666667,14.1666667 L6.66666667,12.5 L3.33333333,12.5 L3.33333333,10.8333333 L6.66666667,10.8333333 L6.66666667,9.16666667 L5,9.16666667 L5,7.5 L6.66666667,7.5 L6.66666667,5.83333333 L3.33333333,5.83333333 L3.33333333,4.16666667 L6.66666667,4.16666667 L6.66666667,1.66666667 Z M34.1666667,3.33333333 C34.626904,3.33333333 35,3.70642938 35,4.16666667 L35,4.16666667 L35,6.81666667 L42.665,8.35333333 C42.7446721,8.38006056 42.8223641,8.41236261 42.8975,8.45 C42.9291042,8.46498027 42.9597218,8.48195911 42.9891667,8.50083333 C43.0523381,8.54821187 43.1084548,8.60432861 43.1558333,8.6675 C43.2210419,8.76683511 43.27393,8.87373067 43.3133333,8.98583333 L43.3133333,8.98583333 L46.6466667,23.9858333 C46.6975171,24.2148644 46.6494696,24.4547207 46.5143245,24.6464935 C46.3791794,24.8382663 46.1694575,24.9641884 45.9366667,24.9933333 L45.9366667,24.9933333 L40,25.7358333 L40,45.8333333 C40,46.2935706 39.626904,46.6666667 39.1666667,46.6666667 L39.1666667,46.6666667 L17.5,46.6666667 C17.0397627,46.6666667 16.6666667,46.2935706 16.6666667,45.8333333 L16.6666667,45.8333333 L16.6666667,25.7358333 L10.7266667,24.9933333 C10.4938758,24.9641884 10.284154,24.8382663 10.1490089,24.6464935 C10.0138638,24.4547207 9.96581621,24.2148644 10.0166667,23.9858333 L10.0166667,23.9858333 L13.35,8.98583333 C13.3715288,8.8897064 13.4102022,8.79824519 13.4641667,8.71583333 C13.5293641,8.63804582 13.6001043,8.56507754 13.6758333,8.4975 C13.7052782,8.47862578 13.7358958,8.46164693 13.7675,8.44666667 C13.8426359,8.40902928 13.9203279,8.37672723 14,8.35 L14,8.35 L21.6666667,6.81666667 L21.6666667,4.16666667 C21.6666667,3.70642938 22.0397627,3.33333333 22.5,3.33333333 L22.5,3.33333333 Z M50,3.33333333 L50,46.6666667 L43.3333333,46.6666667 L43.3333333,45 L48.3333333,45 L48.3333333,5 L43.3333333,5 L43.3333333,3.33333333 L50,3.33333333 Z M34.0833333,8.33333333 L22.5833333,8.33333333 L15.1558333,9.81833333 L18.3158333,24.8283333 C18.3275093,24.8848085 18.3333732,24.9423305 18.3333333,25 L18.3333333,25 L18.3333333,45 L38.3333333,45 L38.3333333,25 C38.3332934,24.9423305 38.3391573,24.8848085 38.3508333,24.8283333 L38.3508333,24.8283333 L41.51,9.81833333 L34.0833333,8.33333333 Z M35,10 L35,24.1666667 L36.6666667,24.1666667 L36.6666667,25.8333333 L35,25.8333333 L35,43.3333333 L33.3333333,43.3333333 L33.3333333,25.8333333 L20,25.8333333 L20,24.1666667 L33.3333333,24.1666667 L33.3333333,10 L35,10 Z M31.6666667,40 L31.6666667,43.3333333 L30,43.3333333 L30,40 L31.6666667,40 Z M31.6666667,36.6666667 L31.6666667,38.3333333 L30,38.3333333 L30,36.6666667 L31.6666667,36.6666667 Z M42.5216667,13.1116667 L40.2233333,24.0283333 L44.8208333,23.4575 L42.5216667,13.1116667 Z M14.145,13.1075 L11.8458333,23.4533333 L16.4433333,24.0283333 L14.145,13.1075 Z M31.6666667,20.8333333 L31.6666667,22.5 L28.3333333,22.5 L28.3333333,20.8333333 L31.6666667,20.8333333 Z M26.6666667,20.8333333 L26.6666667,22.5 L25,22.5 L25,20.8333333 L26.6666667,20.8333333 Z M33.3333333,5 L23.3333333,5 L23.3333333,6.66666667 L33.3333333,6.66666667 L33.3333333,5 Z M41.6666667,3.33333333 L41.6666667,5 L38.3333333,5 L38.3333333,3.33333333 L41.6666667,3.33333333 Z"></path>
</svg>