<svg viewBox="0 0 17 32" version="1.1" xmlns="http://www.w3.org/2000/svg" xmlns:xlink="http://www.w3.org/1999/xlink">
        <path d="M11.9469398,0.75 C13.198385,0.75 14.2851935,0.819893957 15.0331468,0.90088503 L15.4064686,0.94580912 L16.2129307,1.05273953 L16.0607636,7.30430431 L14.021162,7.28761008 L12.1465025,7.28196824 C11.2114734,7.28196824 11.0771303,7.39119358 11.0668491,8.35946499 L11.066,11.123 L16.2618943,11.1231544 L15.9514184,17.8005207 L11.066,17.8 L11.0667624,31.25 L4.23654674,31.25 L4.236,17.799 L0.75,17.7991707 L0.75,11.1218044 L4.236,11.121 L4.23644474,7.90300927 C4.23644474,3.99230811 6.75169861,0.997939834 11.3600278,0.764647494 L11.6507699,0.753678554 L11.9469398,0.75 Z M11.9455142,2.58496705 C8.16014887,2.58496705 6.14121867,4.68163075 6.04722503,7.68188332 L6.04378509,7.90300927 L6.04378509,12.9567715 L2.557,12.956 L2.557,15.964 L6.04388709,15.9649296 L6.043,29.415 L9.256,29.415 L9.25606204,15.9649296 L14.223,15.964 L14.364,12.956 L9.25606204,12.9567715 L9.25606204,8.5023643 C9.25606204,6.50618883 9.99714881,5.44564819 12.1450772,5.44564819 L14.294,5.453 L14.362,2.685 L14.189142,2.67007305 C13.636516,2.62785565 13.0403891,2.59871825 12.4174679,2.58875199 L11.9455142,2.58496705 Z" fill-rule="nonzero"></path>
</svg>