<svg  viewBox="0 0 22 22" version="1.1" xmlns="http://www.w3.org/2000/svg" xmlns:xlink="http://www.w3.org/1999/xlink">
    <path d="M11,0 C17.0751322,-1.11598369e-15 22,4.92486775 22,11 C22,15.8894059 18.8099662,20.0337395 14.3976598,21.4652396 L14.3974359,14.03125 L16.9102564,14.03125 L17,11.1625 L14.3974359,11.1625 C14.3974359,9.56875 14.3974359,9.11652893 14.3974359,9.0375 L14.39839,8.89976852 C14.4099003,8.14158951 14.537037,7.7625 15.3846154,7.7625 L15.3846154,7.7625 L16.9102564,7.7625 L17,5.10625 C17,5.10625 16.2820513,5 15.2948718,5 C12.8717949,5 11.7948718,6.80625 11.7948718,8.71875 L11.7948718,8.71875 L11.7948718,11.1625 L10,11.1625 L10,14.03125 L11.7948718,14.03125 L11.7948952,21.9717193 C11.5323713,21.9904659 11.2672991,22 11,22 C4.92486775,22 7.43989126e-16,17.0751322 0,11 C-7.43989126e-16,4.92486775 4.92486775,1.11598369e-15 11,0 Z"></path>
</svg>