<svg viewBox="0 0 50 39" version="1.1" xmlns="http://www.w3.org/2000/svg" xmlns:xlink="http://www.w3.org/1999/xlink">
    <path d="M24.9998093,-0.00201575 C25.1085273,-0.0012348 35.0911325,0.06592675 41.7011894,0.5579237 L41.7011894,0.5579237 L41.7885453,0.56729507 C41.8629314,0.57744744 41.9460911,0.58720926 42.0368802,0.59775208 C43.1335973,0.72543705 45.414006,0.99174017 47.4254804,3.18386041 C49.1657322,5.0475921 49.5872529,8.7117986 49.6295958,9.1237486 L49.6295958,9.1237486 L49.6318846,9.147177 C49.6467617,9.3189855 50,13.3994372 50,17.4962888 L50,17.4962888 L50,21.3260562 C50,25.4229079 49.6467617,29.5033596 49.6318846,29.6751681 L49.6318846,29.6751681 L49.6261625,29.7274916 C49.5773348,30.1300702 49.097831,33.7157915 47.4403577,35.5599995 C45.4510082,37.8005383 43.2072203,38.0438036 42.1291951,38.1609457 C42.026199,38.171879 41.9323583,38.1820313 41.848817,38.1933551 L41.848817,38.1933551 L41.7614611,38.2027264 C35.3547906,38.6795852 25.7802787,38.7573498 25.1061437,38.7622756 L25.0387189,38.7622756 C24.531368,38.7548565 12.5651355,38.5717243 8.74856001,38.1999932 L8.74856001,38.1999932 L8.63297555,38.1835932 C8.51357645,38.1621172 8.33848317,38.1418126 8.13516138,38.1179936 C6.84885517,37.9672708 4.45743972,37.6869104 2.5661273,35.5681994 C0.833886412,33.7036869 0.412747047,30.1066417 0.370404302,29.70133 L0.370404302,29.70133 L0.367734011,29.6755586 C0.35285678,29.50375 0,25.4229079 0,21.3260562 L0.000590772028,17.2037363 C0.0166111054,13.2073276 0.353211,9.3145137 0.367734011,9.147177 L0.367734011,9.147177 L0.373456038,9.0948535 C0.422665232,8.6918845 0.901787554,5.1061631 2.55926084,3.26234562 C4.57645736,0.99095927 6.83245218,0.72426561 7.91658081,0.59619019 C8.00164794,0.58603781 8.0798486,0.57705699 8.15080149,0.56729507 L8.15080149,0.56729507 L8.23892034,0.5579237 C14.60066,0.0886343 23.9766774,0.0058697 24.9153389,-0.0011093 L24.9910355,-0.00162528 L24.9998093,-0.00201575 Z M25.062089,2.99766639 L24.9389478,2.99766639 C24.0416171,3.00484262 14.7719936,3.08572126 8.49145133,3.54622013 C8.41782826,3.55598196 8.33810162,3.56535333 8.25265306,3.57550559 C7.35773195,3.68132403 6.00466912,3.84141837 4.72141476,5.2861716 C3.94741862,6.1475568 3.43243845,8.2787632 3.28404779,9.4419847 C3.25276757,9.8078588 2.93004659,13.7086924 2.93004659,17.4962888 L2.93069038,21.6219708 C2.94686298,25.3712585 3.26251942,29.1292056 3.28519222,29.393246 C3.4099319,30.5388963 3.90087961,32.6603407 4.69433059,33.5064975 L4.69433059,33.5064975 L4.72141476,33.5361735 C5.87420753,34.8341086 7.37337206,35.0098218 8.46856332,35.1382876 C8.68447359,35.163278 8.88932125,35.1874875 9.07891023,35.2191158 C12.7791383,35.5709328 24.5702775,35.7556269 25.066566,35.7630458 C25.5090675,35.7603126 35.1147833,35.6876843 41.5081672,35.2144301 C41.602771,35.2023255 41.7072929,35.1906113 41.8202071,35.1785065 C42.7540379,35.0773738 44.0330961,34.938365 45.2782038,33.5361735 C46.0857691,32.6376933 46.5912124,30.3690402 46.7155707,29.3815318 C46.7460882,29.0230767 47.0695719,25.1179478 47.0695719,21.3260562 L47.0695719,21.3260562 L47.0695719,17.4962888 C47.0695719,13.6430928 46.7365514,9.6832976 46.7144264,9.4275372 C46.5896866,8.258849 46.0987389,6.1003095 45.305288,5.2541527 L45.305288,5.2541527 L45.2934624,5.2412671 C44.016693,3.8472754 42.6254835,3.68483827 41.7050041,3.57745804 C41.6123076,3.56652477 41.5260962,3.55637241 41.4471325,3.54622013 C35.2256549,3.08596478 25.9675267,3.0045626 25.062089,2.99766639 Z M19.6413449,10.9390615 C20.2638987,10.5614732 21.0146255,10.5481972 21.6497676,10.9039188 L21.6497676,10.9039188 L32.6959024,17.0905866 C33.3497364,17.456851 33.7540912,18.1577516 33.7514472,18.920347 C33.7483693,19.6829422 33.3390554,20.3807191 32.6833139,20.7419073 L32.6833139,20.7419073 L21.6367979,26.8219757 C21.3335316,26.9890985 21.0039444,27.0722695 20.6751199,27.0722695 C20.3161597,27.0722695 19.9579624,26.9730892 19.6348599,26.7755092 C19.0161208,26.3971402 18.6468609,25.7306013 18.6468609,24.9929962 L18.6468609,24.9929962 L18.6468609,12.7258698 C18.6468609,11.9847504 19.0184096,11.3170401 19.6413449,10.9390615 Z M21.5769076,14.2815176 L21.5769076,23.4498435 L29.8326124,18.905509 L21.5769076,14.2815176 Z"></path>
</svg>