<svg viewBox="0 0 50 50" version="1.1" xmlns="http://www.w3.org/2000/svg" xmlns:xlink="http://www.w3.org/1999/xlink">
    <path d="M25,0 C38.6995516,0 49.8430493,10.5381166 49.8206953,23.4753363 C49.8206953,36.4125561 38.6995516,46.9506726 25,46.9506726 C22.8699552,46.9506726 20.7623318,46.6816143 18.7219731,46.1883408 L18.7219731,46.1883408 L12.3318386,49.7757848 C12.0627803,49.9327354 11.793722,50 11.5022422,50 C11.4125561,50 11.32287,50 11.2331839,49.9775785 C10.7174888,49.955157 10.2242152,49.6860987 9.93273543,49.2825112 C9.77578475,49.058296 9.66367713,48.7892377 9.61883408,48.4977578 L9.61883408,48.4977578 L8.74439462,41.2331839 L8.76681614,41.2331839 C3.29596413,36.7713004 0.179372197,30.3139013 0.179372197,23.4753363 C0.179372197,10.5381166 11.32287,0 25,0 Z M25.1908604,3 C13.0592678,3 3.1793722,12.1687831 3.1793722,23.4079365 C3.1793722,29.4142857 6.02845836,35.1021164 10.9913826,38.9925926 C11.0832886,39.0608466 11.1522182,39.1291005 11.2211477,39.1973545 L11.2211477,39.1973545 L11.3385201,39.2932908 C11.6375613,39.5619374 11.8236426,39.9304527 11.8644897,40.3349206 L11.8644897,40.3349206 L12.5537847,46 L17.6315915,43.1333333 C18.022192,42.9058201 18.5046986,42.8603175 18.9412521,42.9740741 C20.9631842,43.5201058 23.0540458,43.7931217 25.1678839,43.7931217 C37.2994766,43.7931217 47.1793722,34.6470899 47.1793722,23.4079365 C47.1793722,12.1460317 37.3224531,3 25.1908604,3 Z M36.4798206,18.3183857 L30.3811659,28.8565022 C30.1121076,29.3946188 29.4170404,29.5964126 28.9013453,29.2825112 L22.1524664,25.2242152 C21.838565,25.044843 21.4573991,25.0224215 21.1434978,25.1793722 L14.9103139,29.9327354 C13.9910314,30.426009 13.0269058,29.4170404 13.5426009,28.4977578 L21.0762332,17.7578475 C21.3901345,17.1973094 22.1076233,17.0627803 22.6233184,17.4439462 L27.6681614,21.2331839 C28.0044843,21.4798206 28.4753363,21.5246637 28.8340807,21.3004484 L35,16.9506726 C35.896861,16.4125561 36.9506726,17.3766816 36.4798206,18.3183857 Z"></path>
</svg>