<svg viewBox="0 0 45 45" version="1.1" xmlns="http://www.w3.org/2000/svg" xmlns:xlink="http://www.w3.org/1999/xlink">
    <path d="M22.9428863,45 C22.7938843,45 22.6448822,45 22.4948501,44.9993134 C18.9675522,45.0078964 15.7083892,44.9182891 12.5388336,44.7253418 C9.6329498,44.5485306 6.98043823,43.5443115 4.86762996,41.821518 C2.82897949,40.1591492 1.4368057,37.9114151 0.72990422,35.1414871 C0.11466984,32.7299881 0.08205416,30.3627778 0.05081177,28.0731582 C0.02815242,26.4303589 0.00480652,24.4837188 0,22.5041199 C0.00480652,20.5162812 0.02815242,18.5696411 0.05081177,16.9268418 C0.08205416,14.6375656 0.11466984,12.2703552 0.72990422,9.8585129 C1.4368057,7.0885849 2.82897949,4.84085083 4.86762996,3.17848201 C6.98043823,1.45568848 9.6329498,0.45146944 12.539177,0.2746582 C15.7087326,0.08205416 18.9685821,-0.00789643 22.5034332,0.00068665 C26.0317612,-0.00686646 29.2898941,0.08205416 32.4594497,0.2746582 C35.3653335,0.45146944 38.0178452,1.45568848 40.1306534,3.17848201 C42.1696472,4.84085083 43.5614776,7.0885849 44.2683792,9.8585129 C44.8836136,12.2700119 44.9162292,14.6375656 44.9474716,16.9268418 C44.9701309,18.5696411 44.9938202,20.5162812 44.9982834,22.4958801 L44.9982834,22.5041199 C44.9938202,24.4837188 44.9701309,26.4303589 44.9474716,28.0731582 C44.9162292,30.3624344 44.883957,32.7296448 44.2683792,35.1414871 C43.5614776,37.9114151 42.1696472,40.1591492 40.1306534,41.821518 C38.0178452,43.5443115 35.3653335,44.5485306 32.4594497,44.7253418 C29.4241333,44.9100494 26.3060761,45 22.9428863,45 Z M22.4948501,41.4836884 C25.9648132,41.4919281 29.1508484,41.4043808 32.245903,41.21624 C34.4431687,41.0826874 36.3482666,40.369606 37.9090118,39.0969086 C39.3516541,37.9203415 40.3452301,36.2971115 40.8619309,34.2721939 C41.3741684,32.2647857 41.4036941,30.1094055 41.4321899,28.0250931 C41.4545059,26.39328 41.4778518,24.460373 41.4826584,22.5 C41.4778518,20.5392837 41.4545059,18.60672 41.4321899,16.9749069 C41.4036941,14.8905945 41.3741684,12.7352143 40.8619309,10.7274628 C40.3452301,8.7025452 39.3516541,7.0793152 37.9090118,5.90274809 C36.3482666,4.630394 34.4431687,3.91731258 32.245903,3.78376005 C29.1508484,3.59527588 25.9648132,3.50841524 22.5030899,3.5159683 C19.0338135,3.50772855 15.847435,3.59527588 12.7523804,3.78376005 C10.5551147,3.91731258 8.6500168,4.630394 7.0892715,5.90274809 C5.64662936,7.0793152 4.65305326,8.7025452 4.13635254,10.7274628 C3.62411499,12.7352143 3.59458928,14.8902512 3.56609347,16.9749069 C3.54377742,18.6080933 3.52043156,20.5420303 3.515625,22.5041199 C3.52043156,24.4576264 3.54377742,26.3919067 3.56609347,28.0250931 C3.59458928,30.1094055 3.62411499,32.2647857 4.13635254,34.2721939 C4.65305326,36.2971115 5.64662936,37.9203415 7.0892715,39.0969086 C8.6500168,40.3692627 10.5551147,41.082344 12.7523804,41.2158966 C15.847435,41.4043808 19.0345001,41.4922714 22.4948501,41.4836884 Z M22.4110794,33.4863281 C16.3534927,33.4863281 11.4247513,28.55793 11.4247513,22.5 C11.4247513,16.44207 16.3534927,11.5136719 22.4110794,11.5136719 C28.4690094,11.5136719 33.3974075,16.44207 33.3974075,22.5 C33.3974075,28.55793 28.4690094,33.4863281 22.4110794,33.4863281 Z M22.4110794,15.0292969 C18.291893,15.0292969 14.9403763,18.3808136 14.9403763,22.5 C14.9403763,26.6191864 18.291893,29.9707031 22.4110794,29.9707031 C26.5306091,29.9707031 29.8817825,26.6191864 29.8817825,22.5 C29.8817825,18.3808136 26.5306091,15.0292969 22.4110794,15.0292969 L22.4110794,15.0292969 Z M34.6278763,7.9980469 C33.1718445,7.9980469 31.9911575,9.1783905 31.9911575,10.6347656 C31.9911575,12.0911407 33.1718445,13.2714844 34.6278763,13.2714844 C36.0842514,13.2714844 37.264595,12.0911407 37.264595,10.6347656 C37.264595,9.1783905 36.0842514,7.9980469 34.6278763,7.9980469 Z"></path>
</svg>