<svg viewBox="0 0 18 19" version="1.1" xmlns="http://www.w3.org/2000/svg" xmlns:xlink="http://www.w3.org/1999/xlink">
    <path d="M5.54153464,1.2 C5.54874686,1.2 5.55590956,1.2002134 5.56301675,1.20063422 C5.57368081,1.20175798 5.58505165,1.20294276 5.59635535,1.204668 C5.61045219,1.20636797 5.62358467,1.20919262 5.63642973,1.21271461 C5.64732892,1.21607381 5.65905253,1.21988031 5.67059208,1.22430446 C5.68561736,1.22981265 5.69947117,1.2362666 5.71281225,1.24354376 C5.74193983,1.2594405 5.77002616,1.2801172 5.79526146,1.30534979 L5.73524683,1.25686354 C5.75683223,1.27076534 5.77683073,1.28692104 5.79490869,1.30499706 L9.37898484,4.88868733 C9.51874961,5.02843705 9.51874961,5.25559755 9.37901844,5.39538087 C9.30876648,5.4649198 9.21704584,5.5000252 9.12529161,5.5000252 C9.03353738,5.5000252 8.94181675,5.4648862 8.87156479,5.39538087 L8.87156479,5.39538087 L5.899,2.423 L5.89991706,18.0416562 C5.89991706,18.2147308 5.77698715,18.3592818 5.61373012,18.3927153 L5.54153464,18.4 C5.34371373,18.4 5.18315222,18.2394558 5.18315222,18.0416562 L5.18315222,18.0416562 L5.183,2.423 L2.21157168,5.39538087 C2.0917733,5.51516635 1.90772317,5.53227856 1.76956715,5.4467175 L1.70482358,5.39538087 C1.56505881,5.25563114 1.56505881,5.02843705 1.70482358,4.88868733 L1.70482358,4.88868733 L5.28369581,1.30954085 C5.30371069,1.28880897 5.32620087,1.2704817 5.35068858,1.25503678 C5.35470953,1.25308895 5.35831529,1.25090951 5.36195044,1.24879928 C5.37829521,1.23868767 5.39611914,1.2301583 5.41467752,1.22312631 C5.42483176,1.21991372 5.43453672,1.21673276 5.44433673,1.21397595 C5.47472366,1.20472978 5.5075803,1.2 5.54153464,1.2 L5.48741947,1.204668 C5.49839448,1.20299293 5.50943277,1.20182734 5.52049586,1.20117122 Z M14.7906671,18.3934235 C14.7806501,18.3914385 14.7734416,18.3897454 14.7663203,18.3878383 C14.7512574,18.3837924 14.7365566,18.3788328 14.7221605,18.3729037 C14.7159966,18.3703011 14.7094845,18.3673795 14.7030787,18.3642727 C14.6676852,18.3473104 14.6346863,18.3243162 14.6054147,18.2953557 L14.6054147,18.2953557 L11.0216913,14.7120181 C10.8819265,14.5722684 10.8819265,14.3450743 11.0216913,14.2053246 C11.1614561,14.0655749 11.3886746,14.0655749 11.5284394,14.2053246 L11.5284394,14.2053246 L14.5,17.176 L14.5007927,1.55834383 C14.5007927,1.38526917 14.6237226,1.24071817 14.7869796,1.20728471 L14.8591751,1.2 C15.056996,1.2 15.2175575,1.36054422 15.2175575,1.55834383 L15.2175575,1.55834383 L15.217,17.175 L18.1884325,14.2053246 C18.3082309,14.0855391 18.492281,14.0684269 18.6304371,14.153988 L18.6951806,14.2053246 C18.8349454,14.3450743 18.8349454,14.5722684 18.695147,14.7120181 L18.695147,14.7120181 L15.1170139,18.2904591 C15.0996103,18.3084862 15.0803352,18.3246952 15.0595026,18.338772 C15.0450715,18.3482105 15.0339405,18.3547276 15.0225453,18.3605926 C15.013719,18.365169 15.0048243,18.3692811 14.9957423,18.3730306 C14.9816218,18.3788366 14.9669518,18.383799 14.9520628,18.3877869 C14.9224115,18.3957704 14.8912841,18.4 14.8591751,18.4 L14.9306698,18.3928177 C14.9071016,18.3976019 14.8831227,18.4 14.8591415,18.4 L14.8591751,18.4 L14.7906671,18.3934235 L14.7906671,18.3934235 Z"></path>                
</svg>