<svg viewBox="0 0 50 50" version="1.1" xmlns="http://www.w3.org/2000/svg" xmlns:xlink="http://www.w3.org/1999/xlink">
    <path d="M49.7308163,18.8596491 C49.5459914,18.3040936 49.0693377,17.9044834 48.4856801,17.8167641 L33.1743961,15.4775828 L26.3164194,0.81871345 C25.8008552,-0.272904483 24.0109719,-0.272904483 23.4954077,0.81871345 L16.6374311,15.4678363 L1.32614704,17.8070175 C0.75221708,17.8947368 0.265835757,18.294347 0.0810108542,18.8499025 C-0.103814049,19.4054581 0.0323727219,20.0194932 0.440933033,20.4385965 L11.5693377,31.8615984 L8.94287856,48.0116959 C8.84560229,48.5964912 9.09852058,49.1910331 9.5849019,49.5419103 C10.0712832,49.8830409 10.7133066,49.9220273 11.2385984,49.6296296 L24.9059136,42.0565302 L38.5829564,49.6296296 C38.8164194,49.7563353 39.0790653,49.8245614 39.3319836,49.8245614 C39.6432677,49.8245614 39.9642793,49.7270955 40.2269253,49.5419103 C40.7133066,49.2007797 40.9662249,48.6062378 40.8689486,48.0116959 L38.2424895,31.8615984 L49.3611665,20.4385965 C49.7697268,20.0194932 49.9156412,19.4054581 49.7308163,18.8596491 Z M35.4701159,30.2436647 C35.1199214,30.5945419 34.9642793,31.0916179 35.0421003,31.588694 L37.2794544,45.3508772 L25.6549408,38.9181287 C25.4214778,38.791423 25.1588319,38.7231969 24.9059136,38.7231969 L24.9059136,5.15594542 L30.7133066,17.5438596 C30.937042,18.0116959 31.3747852,18.3430799 31.8903494,18.4210526 L45.0323727,20.4288499 L35.4701159,30.2436647 Z"></path>
</svg>