<svg viewBox="0 0 50 50" version="1.1" xmlns="http://www.w3.org/2000/svg" xmlns:xlink="http://www.w3.org/1999/xlink">
    <path d="M11.6123016,31.975981 L8.97263688,48.182542 C8.87680059,48.7730476 9.12472491,49.3677263 9.61432334,49.7141006 C10.1018384,50.0583883 10.7456082,50.095947 11.2706244,49.8038241 L25.0002146,42.2044556 L38.7298047,49.8059107 C38.967312,49.9352794 39.2277367,50 39.486078,50 C39.8027544,50 40.1173475,49.9039805 40.3861058,49.7141006 C40.8757042,49.3677263 41.1236285,48.7730476 41.0277922,48.182542 L38.3881275,31.975981 L49.5551386,20.5122439 C49.9634845,20.0928388 50.1051555,19.4772942 49.9197331,18.9222607 C49.7343108,18.3651406 49.2530459,17.9624283 48.6738614,17.8727048 L33.302554,15.5211155 L26.4127581,0.823160592 C25.8981589,-0.274386864 24.1001868,-0.274386864 23.5855876,0.823160592 L16.6978752,15.5211155 L1.32656772,17.8727048 C0.747383193,17.9624283 0.26611835,18.3651406 0.0806959642,18.9222607 C-0.104726421,19.4793808 0.0348612172,20.0928388 0.443207145,20.5122439 L11.6123016,31.975981 Z"></path>
</svg>