<svg  viewBox="0 0 50 43" version="1.1" xmlns="http://www.w3.org/2000/svg" xmlns:xlink="http://www.w3.org/1999/xlink">
    <path d="M41.3363302,0 C41.7756437,0 42.1843073,0.23998468 42.3988558,0.60996107 L42.3988558,0.60996107 L49.8365346,13.4091441 C49.9489171,13.5891326 50,13.7891199 50,13.9991064 C50,16.8789226 48.2223131,19.348765 45.6885983,20.4386954 C45.6988149,20.4786928 45.6988149,20.5186903 45.6988149,20.5686871 L45.6988149,20.5686871 L45.6988149,41.5273493 C45.6988149,42.1873072 45.1471189,42.7272727 44.4728239,42.7272727 L44.4728239,42.7272727 L5.51695955,42.7272727 C4.84266449,42.7272727 4.29096854,42.1873072 4.29096854,41.5273493 L4.29096854,41.5273493 L4.29096854,20.4186967 C1.76747037,19.3287663 0,16.8689233 0,13.9991064 C0,13.7891199 0.0612995505,13.5891326 0.163465468,13.4091441 L0.163465468,13.4091441 L7.59092765,0.60996107 C7.8054761,0.22998532 8.21413975,0 8.6534532,0 L8.6534532,0 L41.3363302,0 Z M36.8818962,17.9188562 C35.5946056,19.7887369 33.4184716,21.0186584 30.9460564,21.0186584 C28.4838578,21.0186584 26.2975071,19.7887369 25.0102166,17.9188562 C23.7127094,19.7887369 21.5365754,21.0186584 19.0641602,21.0186584 C16.591745,21.0186584 14.4053943,19.7887369 13.1181038,17.9188562 C11.8308132,19.7887369 9.6444626,21.0186584 7.1720474,21.0186584 C7.0290151,21.0186584 6.88598285,21.0186584 6.74295055,21.008659 L6.74295055,21.008659 L6.74295055,40.3374253 L11.085002,40.3374253 L11.085002,27.3782524 C11.085002,25.1083973 12.9750715,23.2685148 15.2840212,23.2685148 L15.2840212,23.2685148 L18.8496117,23.2685148 C21.1687781,23.2685148 23.048631,25.1183967 23.048631,27.3782524 L23.048631,27.3782524 L23.048631,40.3274259 L43.2468328,40.3274259 L43.2468328,21.008659 C43.1038005,21.008659 42.9709849,21.0186584 42.8279526,21.0186584 C40.3555374,21.0186584 38.1691867,19.7887369 36.8818962,17.9188562 Z M18.8598284,25.6683616 L15.2942379,25.6683616 C14.3236617,25.6683616 13.5472007,26.4383124 13.5472007,27.3782524 L13.5472007,27.3782524 L13.5472007,40.3274259 L20.6068656,40.3274259 L20.6068656,27.3782524 C20.6068656,26.4283131 19.820188,25.6683616 18.8598284,25.6683616 L18.8598284,25.6683616 Z M36.6037736,23.6363636 C38.4768439,23.6363636 40,25.016317 40,26.7132867 L40,26.7132867 L40,31.4685315 C40,33.1655012 38.4768439,34.5454545 36.6037736,34.5454545 L36.6037736,34.5454545 L29.7598628,34.5454545 C27.8867925,34.5454545 26.3636364,33.1655012 26.3636364,31.4685315 L26.3636364,31.4685315 L26.3636364,26.7132867 C26.3636364,25.016317 27.8867925,23.6363636 29.7598628,23.6363636 L29.7598628,23.6363636 L36.6037736,23.6363636 Z M36.6037736,25.8741259 L29.7598628,25.8741259 C29.2555746,25.8741259 28.8336192,26.2470862 28.8336192,26.7132867 L28.8336192,26.7132867 L28.8336192,31.4685315 C28.8336192,31.9254079 29.245283,32.3076923 29.7598628,32.3076923 L29.7598628,32.3076923 L36.6037736,32.3076923 C37.1080618,32.3076923 37.5300172,31.934732 37.5300172,31.4685315 L37.5300172,31.4685315 L37.5300172,26.7132867 C37.5300172,26.2564103 37.1183534,25.8741259 36.6037736,25.8741259 L36.6037736,25.8741259 Z M47.4765018,14.8190541 L38.1896199,14.8190541 C38.5778504,16.9789162 40.5087862,18.6188116 42.8279526,18.6188116 C45.1471189,18.6188116 47.0780547,16.9689169 47.4765018,14.8190541 L47.4765018,14.8190541 Z M35.584389,14.8090547 L26.3077237,14.8090547 C26.6959542,16.9689169 28.62689,18.6088122 30.9460564,18.6088122 C33.2652227,18.6088122 35.1961585,16.9689169 35.584389,14.8090547 L35.584389,14.8090547 Z M23.7024928,14.8090547 L14.415611,14.8090547 C14.8140581,16.9689169 16.7449939,18.6088122 19.0641602,18.6088122 C21.3833265,18.6088122 23.3142623,16.9689169 23.7024928,14.8090547 L23.7024928,14.8090547 Z M11.8205966,14.8090547 L2.53371476,14.8090547 C2.92194524,16.9689169 4.85288108,18.6188116 7.1720474,18.6088122 C9.49121375,18.6088122 11.4323662,16.9689169 11.8205966,14.8090547 L11.8205966,14.8090547 Z M40.6211688,2.40984618 L9.36861465,2.40984618 L3.56559052,12.4192073 L46.4344095,12.4192073 L40.6211688,2.40984618 Z"></path>
</svg>