<svg viewBox="0 0 20 20" version="1.1" xmlns="http://www.w3.org/2000/svg" xmlns:xlink="http://www.w3.org/1999/xlink">
    <path d="M9.95730023,4.11151588 C11.5174229,4.11495147 12.9798156,4.70979809 14.0765027,5.78734411 C15.1824536,6.87409257 15.7915334,8.33120914 15.7915334,9.89035024 C15.7915334,11.6410864 15.0584659,13.2001048 13.7274843,14.2802275 C13.5247849,14.444522 13.1850916,14.9700435 13.1850916,16.6452582 C13.1850916,16.6481417 13.1847235,16.6509637 13.1846622,16.6539085 L13.1848999,16.65818 L13.1850916,16.6624975 L13.1850916,19.3336631 C13.1850916,19.5369147 13.020245,19.7017613 12.8169935,19.7017613 L12.8169935,19.7017613 L7.08036772,19.7017613 C6.87711618,19.7017613 6.71226956,19.5369147 6.71226956,19.3336631 L6.71226956,19.3336631 L6.71226956,16.6624975 C6.71226956,15.0024975 6.37263766,14.4790619 6.17018367,14.3147674 C4.85840453,13.2507183 4.10601189,11.6380803 4.10601189,9.89041159 C4.10601189,8.33133184 4.71515299,6.87415392 5.82116526,5.78740546 C6.91791373,4.70979809 8.38030637,4.11495147 9.94036772,4.11151588 L9.94036772,4.11151588 L9.95730023,4.11151588 Z M10.9317788,17.0305956 L7.44858858,17.0305956 L7.44858858,18.965565 L12.449018,18.965565 L12.449018,17.0305956 L11.0307972,17.0305956 C11.0145395,17.0328656 10.9981591,17.034338 10.981288,17.034338 C10.9644168,17.034338 10.9480364,17.0328042 10.9317788,17.0305956 L10.9317788,17.0305956 Z M10.6757665,11.1560558 L9.22920207,11.1560558 C9.2642941,12.5856877 9.28680943,15.0185711 9.29073581,16.2943993 L9.29073581,16.2943993 L10.6137419,16.2943993 C10.6176683,14.9164852 10.6412266,12.5476509 10.6757665,11.1560558 L10.6757665,11.1560558 Z M9.94883397,4.8477122 C8.57987692,4.84900055 7.29736158,5.36912325 6.33717753,6.31255883 C5.37312845,7.25973674 4.84226956,8.53041159 4.84226956,9.89041159 C4.84226956,11.4151969 5.49539839,12.81943 6.63411005,13.7430496 C7.13637999,14.1505956 7.40134931,14.988019 7.44233091,16.2943993 L7.44233091,16.2943993 L8.55472354,16.2943993 C8.55073581,14.7876509 8.5240487,12.4710251 8.49276035,11.1560558 L8.49276035,11.1560558 L7.70552109,11.1560558 C7.04595054,11.1560558 6.48877262,10.5718226 6.48877262,9.88022754 C6.48877262,9.1885711 7.04595054,8.60427662 7.70552109,8.60427662 C8.62760698,8.60427662 9.07257631,9.35703736 9.18153336,10.0614545 C9.19006097,10.1165466 9.19822048,10.2411478 9.20601189,10.4198594 L9.20601189,10.4198594 L10.6993248,10.4198594 C10.7068708,10.2482644 10.7147235,10.1288165 10.7228831,10.0761785 C10.8883432,9.01249748 11.5939873,8.63360177 12.1992021,8.63360177 C12.8588953,8.63360177 13.4161959,9.20446067 13.4161959,9.88022754 C13.4161959,10.5718226 12.8588953,11.1560558 12.1992021,11.1560558 L12.1992021,11.1560558 L11.4120855,11.1560558 C11.3807972,12.4646447 11.3539873,14.7839699 11.3499383,16.2943993 L11.3499383,16.2943993 L12.4546622,16.2943993 C12.4934352,14.9664852 12.758834,14.1179576 13.2638033,13.7085711 C14.4190794,12.7709637 15.055337,11.4150128 15.055337,9.89041159 C15.055337,8.53035024 14.5244781,7.25973674 13.5604904,6.31255883 C12.6003677,5.36912325 11.3179137,4.84900055 9.94883397,4.8477122 Z M16.2525763,12.5551355 C16.332699,12.368203 16.5486499,12.2815772 16.7359505,12.3617613 L16.7359505,12.3617613 L19.6935579,13.6288778 C19.8804291,13.7089392 19.9669935,13.9253809 19.8869321,14.1121907 C19.8270548,14.2518226 19.6911653,14.3354423 19.5483432,14.3354423 C19.4999996,14.3354423 19.4509199,14.3258717 19.4035579,14.3056263 L19.4035579,14.3056263 L16.4459505,13.0385097 C16.2591407,12.9583871 16.172515,12.7420067 16.2525763,12.5551355 Z M3.21840453,12.3783257 C3.40699348,12.3028042 3.62141066,12.3945834 3.69687078,12.5832337 C3.77239226,12.7719453 3.68061312,12.9862398 3.49190146,13.0617613 L3.49190146,13.0617613 L0.504907594,14.2572828 C0.460122318,14.2752582 0.413803299,14.2837858 0.368281827,14.2837858 C0.222208207,14.2837858 0.0840486981,14.1963012 0.0264413361,14.0523748 C-0.0490801363,13.8636631 0.0426990048,13.6493686 0.231410661,13.5738472 L0.231410661,13.5738472 L3.21840453,12.3783257 Z M12.1991407,9.36973674 C11.9670548,9.36973674 11.5612266,9.47617846 11.4503064,10.1890005 C11.445153,10.2237858 11.4399383,10.3031723 11.4347849,10.4198594 L11.4347849,10.4197981 L12.1991407,10.4197981 C12.4507972,10.4197981 12.6799383,10.1626202 12.6799383,9.88016619 C12.6799383,9.60826435 12.4552757,9.36973674 12.1991407,9.36973674 Z M7.70545974,9.34047294 C7.453926,9.34047294 7.22490759,9.59777355 7.22490759,9.88022754 C7.22490759,10.1626815 7.453926,10.4198594 7.70545974,10.4198594 L7.70545974,10.4198594 L8.47018367,10.4198594 C8.46472354,10.2950742 8.45926342,10.2103502 8.45386465,10.1740926 C8.40576649,9.86268153 8.24447815,9.34047294 7.70545974,9.34047294 Z M0.0519014588,5.82501282 C0.132024158,5.638203 0.348343177,5.55176128 0.535337042,5.63182263 L0.535337042,5.63182263 L3.49196281,6.89973674 C3.67877262,6.97992079 3.76527569,7.19630116 3.68515299,7.38317233 C3.62527569,7.52268153 3.48938612,7.60630116 3.34662539,7.60630116 C3.29822048,7.60630116 3.24907937,7.59666926 3.20171741,7.57642386 L3.20171741,7.57642386 L0.245152993,6.3084484 C0.0583431766,6.2283257 -0.0281598909,6.01188398 0.0519014588,5.82501282 Z M19.4338646,5.68047294 C19.622699,5.60495147 19.8369321,5.69666926 19.9123923,5.88544227 C19.9879137,6.07415392 19.8961346,6.2884484 19.7074229,6.36396987 L19.7074229,6.36396987 L16.7196929,7.55973674 C16.6747849,7.5777122 16.6285272,7.58623981 16.5830058,7.58623981 C16.4369321,7.58623981 16.2987726,7.4986938 16.2411653,7.35476742 C16.1656438,7.16605576 16.2574229,6.95176128 16.4461346,6.87623981 L16.4461346,6.87623981 L19.4338646,5.68047294 Z M5.88650269,0.0264238603 C6.07539839,-0.0490976121 6.28957017,0.0428042284 6.36503029,0.231515885 L6.36503029,0.231515885 L7.55987692,3.21838705 C7.63533704,3.40716006 7.54349655,3.62139319 7.35478489,3.69691466 C7.30993827,3.71482877 7.26361925,3.72335638 7.21815913,3.72335638 C7.07202416,3.72335638 6.9338033,3.63581036 6.87625729,3.49188398 L6.87625729,3.49188398 L5.68141066,0.504951468 C5.60595054,0.316178462 5.69779103,0.101945333 5.88650269,0.0264238603 Z M13.6296315,0.244583369 C13.7096315,0.0577122038 13.9260119,-0.0290362624 14.1129444,0.051270486 C14.2998156,0.131331836 14.38638,0.347712204 14.3062573,0.534583369 L14.3062573,0.534583369 L13.039018,3.49145454 C12.9792021,3.63108644 12.8433125,3.71470607 12.7004904,3.71470607 C12.6521469,3.71470607 12.6029444,3.70507417 12.5557051,3.68482877 C12.368834,3.60476742 12.2822696,3.38838705 12.3623923,3.20145454 L12.3623923,3.20145454 L13.6296315,0.244583369 Z"></path>
</svg>