<svg  viewBox="0 0 45 45" version="1.1" xmlns="http://www.w3.org/2000/svg" xmlns:xlink="http://www.w3.org/1999/xlink">
    <path d="M1.58777949,9.6124028 L3.33046472,9.6124028 L7.3967294,43.6046496 C7.474182,44.4186028 8.1712563,45 8.9845093,45 L36.015489,45 C36.828742,45 37.4870897,44.4186028 37.6032689,43.6046496 L41.6695336,9.6124028 L43.4122188,9.6124028 C44.3029245,9.6124028 45,8.9147283 45,8.0232553 C45,7.1317829 44.3029245,6.43410831 43.4122188,6.43410831 L40.2366594,6.43410831 L31.2521501,6.43410831 L31.2521501,1.58914704 C31.2521501,0.69767457 30.5550762,0 29.6643706,0 L15.3356277,0 C14.4449221,0 13.7478482,0.69767457 13.7478482,1.58914704 L13.7478482,6.43410831 L4.76333892,6.43410831 L1.58777949,6.43410831 C0.69707382,6.43410831 0,7.1317829 0,8.0232553 C0,8.9147283 0.73580037,9.6124028 1.58777949,9.6124028 L1.58777949,9.6124028 Z M16.9234072,3.17829453 L28.0765911,3.17829453 L28.0765911,6.43410831 L16.9234072,6.43410831 L16.9234072,3.17829453 L16.9234072,3.17829453 Z M38.455248,9.6124028 L34.6213413,41.8604636 L10.378657,41.8604636 L6.54475025,9.6124028 L38.455248,9.6124028 L38.455248,9.6124028 Z M17.2332178,37.0155023 C18.1239235,37.0155023 18.8209977,36.3178282 18.8209977,35.4263553 L18.8209977,16.3953484 C18.8209977,15.5038755 18.1239235,14.8062009 17.2332178,14.8062009 C16.3425121,14.8062009 15.6454383,15.5038755 15.6454383,16.3953484 L15.6454383,35.4263553 C15.6454383,36.3178282 16.3425121,37.0155023 17.2332178,37.0155023 Z M27.7667805,37.0155023 C28.6574862,37.0155023 29.35456,36.3178282 29.35456,35.4263553 L29.35456,16.3953484 C29.35456,15.5038755 28.6574862,14.8062009 27.7667805,14.8062009 C26.8760748,14.8062009 26.1790006,15.5038755 26.1790006,16.3953484 L26.1790006,35.4263553 C26.1790006,36.3178282 26.9148009,37.0155023 27.7667805,37.0155023 Z"></path>
</svg>