<?xml version="1.0" standalone="no"?>
<!DOCTYPE svg PUBLIC "-//W3C//DTD SVG 20010904//EN"
 "http://www.w3.org/TR/2001/REC-SVG-20010904/DTD/svg10.dtd">
<svg version="1.0" xmlns="http://www.w3.org/2000/svg"
 width="512.000000pt" height="512.000000pt" viewBox="0 0 512.000000 512.000000"
 preserveAspectRatio="xMidYMid meet">

<g transform="translate(0.000000,512.000000) scale(0.100000,-0.100000)"
fill="#000000" stroke="none">
<path d="M2524 4911 c-12 -5 -31 -22 -43 -37 -20 -26 -21 -35 -21 -346 0 -339
3 -363 49 -388 28 -15 83 -12 107 5 42 29 45 55 42 393 l-3 322 -25 25 c-28
28 -74 39 -106 26z"/>
<path d="M1617 4305 c-26 -27 -35 -54 -29 -95 3 -16 54 -75 146 -167 139 -139
144 -143 185 -143 58 0 101 41 101 96 0 36 -9 48 -148 186 -142 142 -149 148
-189 148 -30 0 -47 -7 -66 -25z"/>
<path d="M3242 4176 c-152 -151 -155 -154 -155 -196 0 -36 6 -48 32 -72 35
-31 68 -35 109 -14 47 25 291 279 300 311 18 69 -23 125 -91 125 -39 0 -47 -6
-195 -154z"/>
<path d="M2460 3408 c-28 -8 -118 -92 -422 -396 l-388 -386 0 70 c0 167 -45
279 -155 389 -207 208 -503 208 -710 0 -125 -124 -162 -237 -153 -464 6 -136
27 -222 74 -293 13 -21 24 -39 24 -41 0 -2 -44 -7 -97 -10 -179 -10 -319 -71
-439 -191 -77 -78 -130 -163 -166 -271 l-23 -70 -3 -737 -3 -737 30 -33 29
-33 836 -3 835 -2 33 29 33 29 0 212 0 212 -34 30 c-28 25 -39 29 -70 24 -23
-3 -46 -17 -63 -36 -28 -30 -28 -32 -28 -165 l0 -135 -460 0 -460 0 -2 590 -3
590 -28 27 c-38 38 -96 38 -134 0 l-28 -27 -3 -590 -2 -590 -140 0 -140 0 0
628 c0 683 2 714 57 813 35 65 117 147 182 182 92 51 151 57 553 57 232 0 377
4 395 11 15 5 263 245 551 532 352 352 522 515 522 502 0 -49 -33 -215 -56
-284 -43 -128 -98 -224 -312 -541 -113 -168 -270 -401 -349 -517 l-143 -213 0
-85 c0 -78 2 -87 28 -115 17 -19 40 -33 63 -36 30 -5 42 -1 69 23 30 27 34 37
38 93 l5 63 333 495 c184 273 353 533 377 579 23 46 44 83 47 83 3 0 24 -37
47 -83 24 -46 194 -307 378 -580 l335 -498 0 -619 0 -620 29 -32 29 -33 836
-3 835 -2 33 29 33 29 0 739 0 738 -23 75 c-34 110 -86 196 -166 276 -120 120
-260 181 -438 191 -54 3 -98 8 -98 10 0 2 11 20 24 41 47 71 68 157 74 293 9
227 -28 340 -153 464 -207 208 -503 208 -710 0 -110 -110 -155 -222 -155 -389
l0 -71 -382 382 c-211 209 -394 386 -407 393 -30 15 -173 20 -221 8z m1267
-1317 c15 -7 143 -11 395 -11 409 0 467 -6 559 -57 65 -35 147 -117 182 -182
55 -99 57 -130 57 -813 l0 -628 -140 0 -139 0 -3 391 -3 391 -34 30 c-28 25
-39 29 -70 24 -23 -3 -46 -17 -63 -36 l-28 -30 0 -385 0 -385 -460 0 -460 0 0
585 0 585 -143 213 c-79 116 -236 349 -349 517 -214 317 -269 413 -312 541
-23 69 -56 235 -56 284 0 13 168 -148 523 -501 287 -287 532 -527 544 -533z
m-2461 920 c64 -28 127 -91 156 -155 21 -46 23 -66 23 -196 0 -130 -2 -150
-23 -196 -29 -64 -92 -126 -157 -156 -70 -32 -180 -32 -250 0 -65 30 -128 92
-157 156 -21 46 -23 66 -23 196 0 130 2 150 23 195 72 156 252 225 408 156z
m2840 0 c64 -28 127 -91 156 -155 21 -46 23 -66 23 -196 0 -130 -2 -150 -23
-196 -29 -64 -92 -126 -157 -156 -70 -32 -180 -32 -250 0 -65 30 -128 92 -157
156 -21 46 -23 66 -23 196 0 130 2 150 23 195 72 156 252 225 408 156z"/>
<path d="M4505 1631 c-32 -14 -55 -46 -62 -84 -5 -32 -1 -41 30 -72 25 -25 44
-35 67 -35 23 0 42 10 67 35 31 31 35 40 30 72 -11 64 -78 107 -132 84z"/>
<path d="M1665 1101 c-64 -27 -81 -110 -32 -158 60 -61 162 -19 162 67 0 66
-72 116 -130 91z"/>
</g>
</svg>
