<svg viewBox="0 0 48 42" version="1.1" xmlns="http://www.w3.org/2000/svg" xmlns:xlink="http://www.w3.org/1999/xlink">
    <path d="M22,24 C28.6257671,24 34,18.6175105 34,11.981566 C34,5.34562164 28.6257671,0 22,0 C15.3742329,0 10,5.38248954 10,11.981566 C10,18.5806425 15.3742329,24 22,24 L22,24 Z M22,3 C26.95,3 31,7.049997 31,12 C31,16.9499984 26.95,21 22,21 C17.05,21 13,16.9499984 13,12 C13,7.049997 17.05,3 22,3 Z M1.51806254,42 L1.51806254,42 C0.67077162,42 0,41.3274355 0,40.4778768 C0,32.4778768 6.49589476,26 14.4392448,26 L28.5607552,26 C36.5394087,26 43,32.5132722 43,40.4778768 C43,41.3274355 42.3292284,42 41.4819375,42 L1.51806254,42 Z M14.3846155,29 C8.55000013,29 3.74711542,33.3928579 3,39 L40,39 C39.2528846,33.3571421 34.4499999,29 28.6153845,29 L14.3846155,29 Z M42.0680921,10.8329386 C42.8412908,10.8329386 43.4680921,11.4597399 43.4680921,12.2329386 L43.468,15.5010307 L46.545263,15.5010307 C47.3184616,15.5010307 47.945263,16.1278321 47.945263,16.9010307 C47.945263,17.6742294 47.3184616,18.3010307 46.545263,18.3010307 L43.468,18.3010307 L43.4680921,21.5691228 C43.4680921,22.3423215 42.8412908,22.9691228 42.0680921,22.9691228 C41.2948935,22.9691228 40.6680921,22.3423215 40.6680921,21.5691228 L40.668,18.3010307 L37.4,18.3010307 C36.6268014,18.3010307 36,17.6742294 36,16.9010307 C36,16.1278321 36.6268014,15.5010307 37.4,15.5010307 L40.668,15.5010307 L40.6680921,12.2329386 C40.6680921,11.4597399 41.2948935,10.8329386 42.0680921,10.8329386 Z"></path>
</svg>