<svg  viewBox="0 0 50 50" version="1.1" xmlns="http://www.w3.org/2000/svg" xmlns:xlink="http://www.w3.org/1999/xlink">
    <path d="M26,28 C32.6257671,28 38,22.6175105 38,15.981566 C38,9.34562164 32.6257671,4 26,4 C19.3742329,4 14,9.38248954 14,15.981566 C14,22.5806425 19.3742329,28 26,28 L26,28 Z M26,7 C30.95,7 35,11.049997 35,16 C35,20.9499984 30.95,25 26,25 C21.05,25 17,20.9499984 17,16 C17,11.049997 21.05,7 26,7 Z M5.51806254,46 L5.51806254,46 C4.67077162,46 4,45.3274355 4,44.4778768 C4,36.4778768 10.4958948,30 18.4392448,30 L32.5607552,30 C40.5394087,30 47,36.5132722 47,44.4778768 C47,45.3274355 46.3292284,46 45.4819375,46 L5.51806254,46 Z M18.3846155,33 C12.5500001,33 7.74711542,37.3928579 7,43 L44,43 C43.2528846,37.3571421 38.4499999,33 32.6153845,33 L18.3846155,33 Z"></path>
</svg>