<svg viewBox="0 0 48 50" version="1.1" xmlns="http://www.w3.org/2000/svg" xmlns:xlink="http://www.w3.org/1999/xlink">
    <path d="M20.5757215,1.21048809 C22.2439221,-0.403543967 24.8574365,-0.403448094 26.525733,1.21048809 L26.525733,1.21048809 L29.5218789,4.10893878 C29.8450688,4.42158259 30.285608,4.56481774 30.7311326,4.50192466 L30.7311326,4.50192466 L34.8587787,3.91805444 C37.1565813,3.59294706 39.2713611,5.12922563 39.6724004,7.4154275 L39.6724004,7.4154275 L40.3926029,11.5215979 C40.4703564,11.9644381 40.7427333,12.3394956 41.1400335,12.5502258 L41.1400335,12.5502258 L44.8225385,14.5041298 C46.8728913,15.5920075 47.6805305,18.0775306 46.6612024,20.1628773 L46.6612024,20.1628773 L44.8304001,23.9081795 C44.6329005,24.3121908 44.6329005,24.7756438 44.8304001,25.179751 L44.8304001,25.179751 L46.6612024,28.9250532 C47.6805305,31.0103999 46.8728913,33.4961147 44.8225385,34.5838966 L44.8225385,34.5838966 L41.1400335,36.5378006 C40.7428292,36.7486266 40.4704523,37.1235883 40.3926988,37.5665243 L40.3926988,37.5665243 L39.6724004,41.672503 C39.2713611,43.9587048 37.1576359,45.4950793 34.8587787,45.169876 L34.8587787,45.169876 L30.7311326,44.5860058 C30.2857997,44.5234962 29.8451646,44.6663479 29.5218789,44.9789917 L29.5218789,44.9789917 L26.5256371,47.8774424 C25.6917285,48.6843146 24.6209163,49.0878466 23.5506793,49.0878466 C22.4801547,49.0878466 21.4100135,48.6845063 20.5757215,47.8774424 L20.5757215,47.8774424 L17.5795756,44.9789917 C17.2562898,44.6663479 16.815463,44.5228251 16.3703219,44.5860058 L16.3703219,44.5860058 L12.2426758,45.169876 C12.0366434,45.1990216 11.8316656,45.2132109 11.62966,45.2132109 C9.578636,45.2134027 7.79404484,43.753823 7.42895817,41.6725988 L7.42895817,41.6725988 L6.70875568,37.5664284 C6.63100219,37.1235883 6.35862529,36.7485307 5.96132509,36.5378006 L5.96132509,36.5378006 L2.27882011,34.5838966 C0.22846729,33.4960188 -0.579171915,31.0104958 0.4401562,28.9251491 L0.4401562,28.9251491 L2.27095847,25.1799428 C2.46845809,24.7759314 2.46845809,24.3124784 2.27095847,23.9083712 L2.27095847,23.9083712 L0.44025208,20.1631649 C-0.579076041,18.0778182 0.22856317,15.5921034 2.27891598,14.5043215 L2.27891598,14.5043215 L5.96142097,12.5504175 C6.35862529,12.3395915 6.63100219,11.9646298 6.70875568,11.5216938 L6.70875568,11.5216938 L7.42895817,7.41571512 C7.82999744,5.12951325 9.9440103,3.59304293 12.2425799,3.91834206 L12.2425799,3.91834206 L16.370226,4.50221228 C16.8156547,4.56491362 17.2561939,4.42196608 17.5794797,4.1092264 L17.5794797,4.1092264 L20.5757215,1.21048809 Z M24.5570645,3.24550113 C23.9925607,2.69959685 23.1083185,2.69959685 22.5440065,3.24550113 L22.5440065,3.24550113 L19.5477647,6.14395181 C18.5923843,7.06807745 17.2893662,7.49155114 15.973501,7.30526873 L15.973501,7.30526873 L11.8458549,6.72139851 C11.0680324,6.61152736 10.3530071,7.13116228 10.2172501,7.90467048 L10.2172501,7.90467048 L9.4970476,12.010745 C9.2674303,13.3199949 8.46218796,14.428102 7.28811985,15.0511845 L7.28811985,15.0511845 L3.60561486,17.0050885 C2.91187349,17.3731472 2.63863373,18.2140546 2.98349107,18.9195884 L2.98349107,18.9195884 L4.81429334,22.6648906 C5.39797182,23.8590922 5.39797182,25.2287424 4.81429334,26.422944 L4.81429334,26.422944 L2.98349107,30.1682462 C2.63863373,30.87378 2.91187349,31.7146874 3.60561486,32.0827461 L3.60561486,32.0827461 L7.28811985,34.0366501 C8.46228383,34.6595409 9.2674303,35.7677438 9.4971435,37.0769937 L9.4971435,37.0769937 L10.2174418,41.1831641 C10.3531988,41.9566723 11.0688953,42.4763072 11.8460467,42.3664361 L11.8460467,42.3664361 L15.9736928,41.7825659 C16.1775201,41.7537079 16.3810597,41.7395186 16.5829695,41.7395186 C17.6849407,41.7395186 18.740509,42.1628006 19.5479565,42.9438828 L19.5479565,42.9438828 L22.5441024,45.8423335 C23.1086061,46.3882377 23.9928483,46.3882377 24.5571603,45.8423335 L24.5571603,45.8423335 L27.5534021,42.9439787 C28.5087825,42.019853 29.8113213,41.5961876 31.1276658,41.7826617 L31.1276658,41.7826617 L35.2553119,42.366532 C36.0331344,42.4763072 36.7482556,41.9567682 36.8839167,41.18326 L36.8839167,41.18326 L37.6041192,37.0771854 C37.8337365,35.7679356 38.6389789,34.6598285 39.813047,34.036746 L39.813047,34.036746 L43.495552,32.082842 C44.1892933,31.7147832 44.4625331,30.87378 44.1175799,30.1680544 L44.1175799,30.1680544 L42.2867776,26.4228481 C41.7030991,25.2287424 41.7030991,23.8589004 42.2867776,22.6647947 L42.2867776,22.6647947 L44.1175799,18.9195884 C44.4624372,18.2140546 44.1891975,17.3731472 43.4954561,17.0050885 L43.4954561,17.0050885 L39.8129511,15.0511845 C38.6387871,14.4282937 37.8336406,13.3200908 37.6039275,12.0108409 L37.6039275,12.0108409 L36.883725,7.90467048 C36.7480639,7.13116228 36.0323674,6.61143149 35.2551202,6.72139851 L35.2551202,6.72139851 L31.127474,7.30526873 C29.8114171,7.49155114 28.5085908,7.06817332 27.5532104,6.14395181 L27.5532104,6.14395181 L24.5570645,3.24550113 Z M31.1939117,17.4541639 C31.7792386,16.8465185 32.7182006,16.8465185 33.3157218,17.4668231 C33.9010487,18.0744685 33.9010487,19.049233 33.3157218,19.6568783 L33.3157218,19.6568783 L20.7921646,32.5820018 C20.4995011,32.8858245 20.1214775,33.0377358 19.7434539,33.0377358 C19.3532359,33.0377358 18.9752123,32.8858245 18.6825488,32.5820018 L18.6825488,32.5820018 L13.4389952,27.1131935 C12.8536683,26.5055481 12.8536683,25.5307836 13.4389952,24.9231382 C14.0243221,24.3154929 14.963284,24.3154929 15.548611,24.9231382 L15.548611,24.9231382 L19.7312596,29.2905894 L31.1939117,17.4541639 Z"></path>
</svg>