<svg viewBox="0 0 20 20" version="1.1" xmlns="http://www.w3.org/2000/svg" xmlns:xlink="http://www.w3.org/1999/xlink">
    <path d="M12.2286706,0.634771064 C12.6278264,0.402451064 13.0941821,0.339867234 13.5401532,0.459029787 C13.9882485,0.579009362 14.3627302,0.867948936 14.5946417,1.27221106 L14.5946417,1.27221106 L17.0971779,5.64327489 C17.992674,5.71533617 18.70144,6.45845787 18.70144,7.37221447 L18.70144,7.37221447 L18.70144,10.0669549 C19.2075438,10.2474349 19.5729157,10.726577 19.5729157,11.2939166 L19.5729157,11.2939166 L19.5729157,13.9083847 C19.5729157,14.4757243 19.2075438,14.9548664 18.70144,15.1353464 L18.70144,15.1353464 L18.70144,17.8300868 C18.70144,18.791394 17.919714,19.5730791 16.9584477,19.5730791 L16.9584477,19.5730791 L2.14311489,19.5730791 C1.18180766,19.5730791 0.400122553,18.7913532 0.400122553,17.8300868 L0.400122553,17.8300868 L0.400122553,7.37221447 C0.400122553,6.41090723 1.18184851,5.62922213 2.14311489,5.62922213 L2.14311489,5.62922213 L3.64982468,5.62922213 L12.2286706,0.634771064 Z M16.9584477,6.50073872 L2.14311489,6.50073872 C1.66270638,6.50073872 1.27163915,6.89180596 1.27163915,7.37221447 L1.27163915,7.37221447 L1.27163915,17.8300868 C1.27163915,18.3104953 1.66270638,18.7015626 2.14311489,18.7015626 L2.14311489,18.7015626 L16.9584477,18.7015626 C17.4388562,18.7015626 17.8299234,18.3104953 17.8299234,17.8300868 L17.8299234,17.8300868 L17.8299234,15.2156187 L15.2154553,15.2156187 C13.7737396,15.2156187 12.6009872,14.0428664 12.6009872,12.6011506 C12.6009872,11.1594349 13.7737396,9.98668255 15.2154553,9.98668255 L15.2154553,9.98668255 L17.8299234,9.98668255 L17.8299234,7.37221447 C17.8299234,6.89180596 17.4388562,6.50073872 16.9584477,6.50073872 L16.9584477,6.50073872 Z M18.2656817,10.8581583 L15.2154553,10.8581583 C14.2541481,10.8581583 13.472463,11.6398843 13.472463,12.6011506 C13.472463,13.5624579 14.2541889,14.344143 15.2154553,14.344143 L15.2154553,14.344143 L18.2656817,14.344143 C18.5061311,14.344143 18.70144,14.1487932 18.70144,13.9083847 L18.70144,13.9083847 L18.70144,11.2939166 C18.70144,11.0534672 18.5060902,10.8581583 18.2656817,10.8581583 L18.2656817,10.8581583 Z M15.2154553,11.7296749 C15.6959047,11.7296749 16.0869719,12.1207421 16.0869311,12.6011506 C16.0869311,13.0815591 15.6958638,13.4726264 15.2154553,13.4726264 C14.7350468,13.4726264 14.3439796,13.0815591 14.3439796,12.6011506 C14.3439796,12.1207421 14.7350468,11.7296749 15.2154553,11.7296749 Z M15.1350604,3.97083234 L12.2865566,5.62922213 L16.0845209,5.62922213 L15.1350604,3.97083234 Z M14.2719183,2.46326468 L8.83415149,5.62922213 L10.5545123,5.62922213 L14.70208,3.2145566 L14.2719183,2.46326468 Z M13.3146145,1.30072511 C13.0945906,1.24198128 12.8643949,1.27261957 12.6673702,1.38794213 L12.6673702,1.38794213 L5.38190979,5.62922213 L7.10218894,5.62922213 L13.8389379,1.70698894 C13.7227166,1.50412255 13.5371711,1.36028596 13.3146145,1.30072511 Z"></path>
</svg>