<svg viewBox="0 0 56 49" version="1.1" xmlns="http://www.w3.org/2000/svg" xmlns:xlink="http://www.w3.org/1999/xlink">
    <path d="M27.9998975,0 C30.1250618,0 32.0951938,1.11265834 33.1925201,2.93251525 L33.1925201,2.93251525 L55.1290831,39.312366 C56.258283,41.1851522 56.2915212,43.5208591 55.2160392,45.4251813 C54.1405944,47.3292442 52.1232399,48.5068359 49.9364209,48.5068359 L49.9364209,48.5068359 L6.0634717,48.5068359 C3.87659313,48.5068359 1.85920967,47.3292808 0.783853427,45.4251813 C-0.291645378,43.5210226 -0.25829885,41.1851625 0.870940604,39.3123105 L0.870940604,39.3123105 L22.8071877,2.93265972 C23.9045055,1.11262368 25.8746703,0 27.9998975,0 Z M27.9998975,3 C26.926167,3 25.9307569,3.56210938 25.3763623,4.48164063 L25.3763623,4.48164063 L3.4400342,40.8614258 L3.33955327,41.0414683 C2.86960307,41.954287 2.88659182,43.0479187 3.39599124,43.9498047 C3.93935061,44.9119141 4.95858889,45.5068359 6.0634717,45.5068359 L6.0634717,45.5068359 L49.9364209,45.5068359 L50.1424875,45.4999187 C51.1668496,45.4310249 52.094502,44.8516907 52.6039014,43.9498047 C53.1472608,42.9876953 53.1304639,41.8076172 52.5599561,40.8614258 L52.5599561,40.8614258 L30.6234326,4.48164063 L30.5144041,4.31348312 C29.9443059,3.49412727 29.0065198,3 27.9998975,3 Z M28.048628,34.4172852 C29.373042,34.4172852 30.5037061,35.5478516 30.5037061,36.9045898 C30.5037061,38.2290039 29.373042,39.3918945 28.048628,39.3918945 C26.6273389,39.3918945 25.5612256,38.2290039 25.5612256,36.9045898 C25.5612256,35.5478516 26.6272412,34.4172852 28.048628,34.4172852 Z M28.0163037,15.5841797 C29.276167,15.5841797 30.3421826,16.2949219 30.3421826,17.5546875 C30.3421826,21.3987305 29.8899365,26.9227539 29.8899365,30.7667969 C29.8899365,31.7682617 28.7915967,32.1880859 28.0163037,32.1880859 C26.98271,32.1880859 26.1104444,31.7681641 26.1104444,30.7667969 C26.1104444,26.9227539 25.6582959,21.3987305 25.6582959,17.5546875 C25.6582959,16.2949219 26.6918897,15.5841797 28.0163037,15.5841797 Z" id="Combined-Shape" fill="#000204" fill-rule="nonzero"></path>
</svg>