<?xml version="1.0" encoding="UTF-8"?>
<svg viewBox="0 0 100 100" version="1.1" xmlns="http://www.w3.org/2000/svg" xmlns:xlink="http://www.w3.org/1999/xlink">
    <!-- Generator: Sketch 63.1 (92452) - https://sketch.com -->
    <title>bell (1)</title>
    <desc>Created with Sketch.</desc>
    <g id="12.-Null-Page" stroke="none" stroke-width="1" fill="none" fill-rule="evenodd" opacity="0.6">
        <g id="15.6-Null-notify" transform="translate(-138.000000, -190.000000)" fill-rule="nonzero">
            <g id="bell-(1)" transform="translate(138.000000, 190.000000)">
                <path d="M84.496124,46.7528152 L84.496124,75.1937984 L14.7286822,75.1937984 L14.7286822,46.7528152 C14.7286822,34.2082052 21.386178,22.6044408 32.1705426,16.3321358 C42.9549073,10.0598307 56.2698989,10.0598307 67.0542636,16.3321358 C77.8386282,22.6044408 84.496124,34.2082052 84.496124,46.7528152 Z" id="Shape" fill="#ECECEC"></path>
                <path d="M74.3216498,21.9184074 C67.8100353,15.3324871 58.9728442,11.627907 49.7674368,11.627907 C48.9341051,11.627907 48.1201533,11.6671089 47.2868217,11.7259117 C65.4650789,13.0391756 79.5348174,28.3279192 79.5348174,46.7528152 L79.5348174,75.1937984 L84.496124,75.1937984 L84.496124,46.7528152 C84.5154273,37.4423624 80.8526442,28.5043277 74.3216498,21.9184074 Z" id="Path" fill="#E2E2E2"></path>
                <path d="M91.4728682,81.7829457 C91.4728682,83.5413399 90.7729042,85.203119 89.5285237,86.4397918 C88.2841432,87.6764646 86.5925635,88.372093 84.8426535,88.372093 L15.1573465,88.372093 C11.4825354,88.372093 8.52713178,85.4156721 8.52713178,81.7829457 C8.52713178,78.1308964 11.5019789,75.1937984 15.1573465,75.1937984 L84.8426535,75.1937984 C88.5174646,75.1937984 91.4728682,78.1502194 91.4728682,81.7829457 Z" id="Path" fill="#F2F2F2"></path>
                <path d="M84.8311324,75.1937984 L79.8449612,75.1937984 C83.5261579,75.1937984 86.4866971,78.1502194 86.4866971,81.7829457 C86.4866971,85.4349951 83.5066807,88.372093 79.8449612,88.372093 L84.8311324,88.372093 C88.5123291,88.372093 91.4728682,85.4156721 91.4728682,81.7829457 C91.4728682,78.1502194 88.5123291,75.1937984 84.8311324,75.1937984 Z" id="Path" fill="#E2E2E2"></path>
                <path d="M59.6899225,88.372093 C59.6899225,93.9422844 55.1825945,98.4496124 49.6124031,98.4496124 C44.0422117,98.4496124 39.5348837,93.9422844 39.5348837,88.372093 L59.6899225,88.372093 Z" id="Path" fill="#E2E2E2"></path>
                <path d="M58.1395349,10.5420859 L58.1395349,13.1782946 C52.7958778,11.8698114 47.2041222,11.8698114 41.8604651,13.1782946 L41.8604651,10.5420859 C41.8604651,6.00087965 45.5056027,2.3255814 50.0095422,2.3255814 C54.5134818,2.3255814 58.1395349,6.00087965 58.1395349,10.5420859 Z" id="Path" fill="#E2E2E2"></path>
                <path d="M15.1911928,88.372093 L20.1941242,88.372093 C16.5005537,88.372093 13.5300632,85.3786425 13.5300632,81.7004157 C13.5300632,78.0026239 16.5200964,75.0287384 20.1941242,75.0287384 L20.1941242,46.620306 C20.1941242,30.4595862 31.1966647,16.4118903 46.8699108,12.5575782 L46.8699108,9.89673332 C46.8699108,6.25763661 49.2345776,3.04897069 52.7131783,1.97289371 C50.1921699,1.13159716 47.3975637,1.56202795 45.2478666,3.12723084 C43.0981695,4.69243372 41.8278939,7.21632338 41.8669793,9.89673332 L41.8669793,12.5771433 C26.1937333,16.4118903 15.1911928,30.4791513 15.1911928,46.620306 L15.1911928,75.0091734 C11.4976223,75.0091734 8.52713178,78.0026239 8.52713178,81.6808507 C8.52713178,85.3786425 11.4976223,88.372093 15.1911928,88.372093 Z" id="Path" fill="#FFFFFF"></path>
                <polygon id="Rectangle-path" fill="#FFFFFF" points="13.1782946 62.0155039 16.2790698 62.0155039 16.2790698 75.1937984 13.1782946 75.1937984"></polygon>
                <g id="Group" fill="#B7B7B7">
                    <path d="M12.202729,12.9296875 C12.6510721,12.9296875 13.0994152,12.734375 13.411306,12.421875 C14.9707602,10.78125 16.6471735,9.2578125 18.4210526,7.87109375 C18.9083821,7.51953125 19.1617934,6.9140625 19.0838207,6.30859375 C19.005848,5.703125 18.5964912,5.1953125 18.0506823,4.98046875 C17.5048733,4.765625 16.8421053,4.86328125 16.374269,5.25390625 C14.4639376,6.73828125 12.6900585,8.37890625 11.0136452,10.1367188 C10.545809,10.625 10.4288499,11.328125 10.6822612,11.9335938 C10.9356725,12.5195313 11.5204678,12.9296875 12.202729,12.9296875 Z" id="Path"></path>
                    <path d="M1.11111111,29.9023438 C1.96881092,30.2148438 2.92397661,29.765625 3.23586745,28.90625 C4.71734893,24.7460938 6.80311891,20.8203125 9.3957115,17.2460938 C9.94152047,16.5039063 9.76608187,15.4492188 9.02534113,14.921875 C8.28460039,14.375 7.23196881,14.5507812 6.70565302,15.2929688 C3.93762183,19.1210938 1.71539961,23.3398438 0.116959064,27.7929688 C-0.214424951,28.6328125 0.233918129,29.5898438 1.11111111,29.9023438 Z" id="Path"></path>
                    <path d="M7.42690058,27.3046875 C7.05653021,28.1445313 7.44639376,29.140625 8.28460039,29.4921875 C9.12280702,29.8632813 10.1169591,29.4726563 10.4678363,28.6328125 C12.9434698,22.9882812 16.6666667,17.96875 21.3840156,13.984375 C21.8518519,13.6132813 22.08577,13.0078125 21.9883041,12.4023438 C21.8908382,11.796875 21.4619883,11.3085938 20.8966862,11.1132813 C20.331384,10.9179688 19.6881092,11.0351563 19.2397661,11.4453125 C14.1520468,15.7617188 10.1169591,21.1914063 7.42690058,27.3046875 Z" id="Path"></path>
                    <path d="M86.4132554,12.4023438 C87.0565302,13.0664063 88.1091618,13.0859375 88.7719298,12.4609375 C89.4346979,11.8359375 89.454191,10.7617188 88.8304094,10.0976563 C87.1539961,8.33984375 85.3606238,6.71875 83.4697856,5.21484375 C83.0019493,4.82421875 82.3586745,4.7265625 81.7933723,4.94140625 C81.2280702,5.15625 80.8382066,5.6640625 80.7602339,6.26953125 C80.6822612,6.875 80.9356725,7.4609375 81.4230019,7.83203125 C83.1773879,9.2578125 84.8538012,10.7617188 86.4132554,12.4023438 Z" id="Path"></path>
                    <path d="M96.5692008,28.8867188 C96.7641326,29.4726563 97.251462,29.9023438 97.8362573,30.0195313 C98.4405458,30.1367188 99.0448343,29.921875 99.4346979,29.453125 C99.8245614,28.984375 99.9220273,28.3398438 99.7076023,27.7734375 C98.1091618,23.3203125 95.8869396,19.1015625 93.1189084,15.2734375 C92.5730994,14.53125 91.539961,14.3554688 90.7992203,14.9023438 C90.0584795,15.4492188 89.8830409,16.484375 90.4288499,17.2265625 C93.0214425,20.8007813 95.0877193,24.7265625 96.5692008,28.8867188 Z" id="Path"></path>
                    <path d="M89.3177388,28.6523438 C89.5516569,29.1992188 90.0584795,29.5703125 90.662768,29.6484375 C91.2475634,29.7070313 91.8323587,29.453125 92.1832359,28.984375 C92.5341131,28.4960938 92.6120858,27.8710938 92.3781676,27.3242188 C89.7076023,21.2109375 85.6530214,15.78125 80.5653021,11.4648438 C80.1169591,11.0742188 79.4931774,10.9570313 78.9278752,11.171875 C78.3625731,11.3867188 77.9532164,11.8554688 77.8557505,12.4414063 C77.7582846,13.0273438 77.9532164,13.6328125 78.4210526,14.0039063 C83.1189084,17.9882813 86.8615984,22.9882813 89.3177388,28.6523438 L89.3177388,28.6523438 Z" id="Path"></path>
                    <ellipse id="Oval" cx="14.9707602" cy="68.3398438" rx="1.65692008" ry="1.66015625"></ellipse>
                    <path d="M13.3138402,46.6601563 L13.3138402,61.6601563 C13.3138402,62.578125 14.0545809,63.3203125 14.9707602,63.3203125 C15.8869396,63.3203125 16.6276803,62.578125 16.6276803,61.6601563 L16.6276803,46.6601562 C16.6276803,28.2421875 31.5204678,13.3203125 49.9025341,13.3203125 C68.2846004,13.3203125 83.1773879,28.2421875 83.1773879,46.6601562 L83.1773879,73.3203125 L74.8538012,73.3203125 C73.9376218,73.3203125 73.1968811,74.0625 73.1968811,74.9804688 C73.1968811,75.8984375 73.9376218,76.640625 74.8538012,76.640625 L84.834308,76.640625 C87.582846,76.640625 89.8245614,78.8867188 89.8245614,81.640625 C89.8245614,84.3945313 87.582846,86.640625 84.834308,86.640625 L14.9707602,86.640625 C12.2222222,86.640625 9.98050682,84.3945313 9.98050682,81.640625 C9.98050682,78.8867188 12.2222222,76.640625 14.9707602,76.640625 L66.5302144,76.640625 C67.4463938,76.640625 68.1871345,75.8984375 68.1871345,74.9804688 C68.1871345,74.0625 67.4463938,73.3203125 66.5302144,73.3203125 L14.9707602,73.3203125 C10.3703704,73.3203125 6.64717349,77.0507813 6.64717349,81.6601562 C6.64717349,86.2695313 10.3703704,90 14.9707602,90 L38.3820663,90 C39.2007797,95.7421875 44.1130604,100 49.9025341,100 C55.6920078,100 60.5847953,95.7421875 61.4230019,90 L84.834308,90 C89.1033138,90 92.6900585,86.7578125 93.1189084,82.5 C93.5477583,78.2421875 90.6822612,74.3554688 86.4912281,73.4960938 L86.4912281,46.6601563 C86.4717349,30.2734375 75.6140351,15.8789063 59.8830409,11.40625 L59.8830409,10 C59.8830409,4.47265625 55.4191033,0 49.9025341,0 C44.3859649,0 39.9220273,4.47265625 39.9220273,10 L39.9220273,11.40625 C24.1910331,15.8789063 13.3333333,30.2734375 13.3138402,46.6601563 L13.3138402,46.6601563 Z M49.9025341,96.6601563 C45.9454191,96.6601563 42.5536062,93.8671875 41.754386,90 L58.0506823,90 C57.251462,93.8867188 53.8596491,96.6601563 49.9025341,96.6601563 L49.9025341,96.6601563 Z M43.2553606,10 C43.2553606,6.30859375 46.2378168,3.33984375 49.9025341,3.33984375 C53.5672515,3.33984375 56.5497076,6.328125 56.5497076,10 L56.5497076,10.625 C52.1442495,9.8046875 47.6413255,9.8046875 43.2358674,10.625 L43.2358674,10 L43.2553606,10 Z" id="Shape"></path>
                    <path d="M42.6315789,17.5585938 C41.5009747,17.8320313 40.4093567,18.1835938 39.3177388,18.59375 C38.5575049,18.8867188 38.128655,19.6679688 38.2651072,20.4492188 C38.4015595,21.25 39.1033138,21.8164063 39.9025341,21.8164063 C40.0974659,21.8164063 40.3118908,21.7773438 40.4873294,21.6992188 C41.4424951,21.328125 42.417154,21.0351563 43.4307992,20.78125 C44.0155945,20.6445313 44.4834308,20.2148438 44.6588694,19.6289063 C44.834308,19.0429688 44.6783626,18.4179688 44.2495127,17.9882813 C43.8401559,17.578125 43.2163743,17.4023438 42.6315789,17.5585938 Z" id="Path"></path>
                    <path d="M23.294347,46.6601563 C23.294347,38.7890625 26.7641326,31.328125 32.7680312,26.2695313 C33.4697856,25.6835938 33.5672515,24.6289063 32.962963,23.9257813 C32.3781676,23.2226563 31.3255361,23.125 30.6237817,23.7304688 C23.8596491,29.4335938 19.9610136,37.8125 19.9610136,46.6796875 C19.9610136,47.5976563 20.7017544,48.3398438 21.6179337,48.3398438 C22.5341131,48.3398438 23.294347,47.578125 23.294347,46.6601563 L23.294347,46.6601563 Z" id="Path"></path>
                    <path d="M74.8538012,70 L78.1871345,70 C79.1033138,70 79.8440546,69.2578125 79.8440546,68.3398438 C79.8440546,67.421875 79.1033138,66.6796875 78.1871345,66.6796875 L74.8538012,66.6796875 C73.9376218,66.6796875 73.1968811,67.421875 73.1968811,68.3398438 C73.1968811,69.2578125 73.9376218,70 74.8538012,70 Z" id="Path"></path>
                    <path d="M41.5789474,68.3398438 C41.5789474,69.2578125 42.3196881,70 43.2358674,70 L66.5302144,70 C67.4463938,70 68.1871345,69.2578125 68.1871345,68.3398438 C68.1871345,67.421875 67.4463938,66.6796875 66.5302144,66.6796875 L43.2553606,66.6796875 C42.3391813,66.6601563 41.5789474,67.421875 41.5789474,68.3398438 Z" id="Path"></path>
                </g>
            </g>
        </g>
    </g>
</svg>