<?xml version="1.0" encoding="UTF-8"?>
<svg viewBox="0 0 108 109" version="1.1" xmlns="http://www.w3.org/2000/svg" xmlns:xlink="http://www.w3.org/1999/xlink">
    <!-- Generator: Sketch 63.1 (92452) - https://sketch.com -->
    <title>coupons</title>
    <desc>Created with Sketch.</desc>
    <g id="12.-Null-Page" stroke="none" stroke-width="1" fill="none" fill-rule="evenodd" opacity="0.6">
        <g id="15.2-Null-discount-code" transform="translate(-134.000000, -221.000000)">
            <g id="coupons" transform="translate(134.000000, 221.000000)">
                <path d="M5.59272727,53 L102.407273,53 C104.382222,53 106,54.602499 106,56.6056228 L106,103.394377 C106,105.376415 104.403232,107 102.407273,107 L5.59272727,107 C3.61777778,107 2,105.397501 2,103.394377 L2,56.5845373 C2,54.602499 3.61777778,53 5.59272727,53 Z" id="Rectangle-path" fill="#ECECEC" fill-rule="nonzero"></path>
                <path d="M102.995316,53 L97,53 C99.2014052,53 100.981265,54.6235845 101.004684,56.6056228 L101.004684,103.394377 C101.004684,105.376415 99.2014052,106.978914 97,107 L102.995316,107 C105.196721,107 106.976581,105.376415 107,103.394377 L107,56.5845373 C106.976581,54.602499 105.196721,53 102.995316,53 Z" id="Shape" fill="#E2E2E2" fill-rule="nonzero"></path>
                <path d="M10.8114012,60 L47.1885988,60 C48.1901971,60 49,60.8098029 49,61.8114012 L49,98.1885988 C49,99.1901971 48.1901971,100 47.1885988,100 L10.8114012,100 C9.80980288,100 9,99.1901971 9,98.1885988 L9,61.8114012 C9,60.8098029 9.80980288,60 10.8114012,60 Z" id="Path" fill="#F2F2F2" fill-rule="nonzero"></path>
                <path d="M46.255132,60 L41,60 C41.9648094,60 42.744868,60.8098029 42.744868,61.8114012 L42.744868,98.1885988 C42.744868,99.1901971 41.9648094,100 41,100 L46.255132,100 C47.2199413,100 48,99.1901971 48,98.1885988 L48,61.8114012 C48,60.8098029 47.2199413,60 46.255132,60 Z" id="Path" fill="#E2E2E2" fill-rule="nonzero"></path>
                <circle id="Oval" fill="#FFFFFF" fill-rule="nonzero" cx="19.5" cy="70.5" r="3.5"></circle>
                <circle id="Oval" fill="#FFFFFF" fill-rule="nonzero" cx="37.5" cy="88.5" r="3.5"></circle>
                <line x1="16" y1="92" x2="41" y2="67" id="Path" stroke="#428DFF" stroke-width="2" stroke-linecap="round" stroke-linejoin="round"></line>
                <line x1="55.5" y1="52" x2="55.5" y2="56" id="Path" stroke="#428DFF" stroke-width="2" stroke-linecap="round" stroke-linejoin="round"></line>
                <line x1="55.5" y1="63" x2="55.5" y2="67" id="Path" stroke="#428DFF" stroke-width="2" stroke-linecap="round" stroke-linejoin="round"></line>
                <line x1="55.5" y1="74" x2="55.5" y2="78" id="Path" stroke="#428DFF" stroke-width="2" stroke-linecap="round" stroke-linejoin="round"></line>
                <line x1="55.5" y1="84" x2="55.5" y2="88" id="Path" stroke="#428DFF" stroke-width="2" stroke-linecap="round" stroke-linejoin="round"></line>
                <line x1="55.5" y1="96" x2="55.5" y2="100" id="Path" stroke="#428DFF" stroke-width="2" stroke-linecap="round" stroke-linejoin="round"></line>
                <path d="M104.919286,40.9330544 L93.7095238,52 L17,52 L66.5645238,3.06694561 C67.242619,2.39748954 68.1538095,2 69.1285714,2 C70.1033333,2 71.0145238,2.37656904 71.692619,3.06694561 L104.919286,35.8702929 C105.597381,36.539749 106,37.4393305 106,38.4016736 C106,39.3430962 105.618571,40.2635983 104.919286,40.9330544 L104.919286,40.9330544 Z" id="Path" fill="#F2F2F2" fill-rule="nonzero"></path>
                <path d="M104.907923,35.8702929 L71.3319058,3.06694561 C70.6466809,2.39748954 69.7259101,2 68.7408994,2 C67.7558887,2 66.8351178,2.37656904 66.1498929,3.06694561 L66,3.21338912 L99.4261242,35.8702929 C100.111349,36.539749 100.518201,37.4393305 100.518201,38.4016736 C100.518201,39.3640167 100.132762,40.2635983 99.4261242,40.9330544 L88.0985011,52 L93.5802998,52 L104.907923,40.9330544 C105.593148,40.2635983 106,39.3640167 106,38.4016736 C106,37.4393305 105.614561,36.539749 104.907923,35.8702929 L104.907923,35.8702929 Z" id="Path" fill="#E2E2E2" fill-rule="nonzero"></path>
                <line x1="33" y1="36" x2="36" y2="39" id="Path" stroke="#428DFF" stroke-width="2" stroke-linecap="round" stroke-linejoin="round"></line>
                <line x1="41" y1="44" x2="44" y2="47" id="Path" stroke="#428DFF" stroke-width="2" stroke-linecap="round" stroke-linejoin="round"></line>
                <line x1="51" y1="53" x2="49" y2="51" id="Path" stroke="#428DFF" stroke-width="2" stroke-linecap="round" stroke-linejoin="round"></line>
                <g id="Group" fill-rule="nonzero">
                    <path d="M66.5929688,84.8286505 L97.2,84.8286505 C98.1914063,84.8286505 98.9929688,85.6323127 98.9929688,86.6263158 L98.9929688,97.4546053 C98.9929688,98.4486084 98.1914063,99.2522705 97.2,99.2522705 L66.5929688,99.2522705 C65.6015625,99.2522705 64.8,98.4486084 64.8,97.4546053 L64.8,86.6263158 C64.8,85.6323127 65.6015625,84.8286505 66.5929688,84.8286505 Z" id="Path" fill="#F2F2F2"></path>
                    <path d="M97.2,84.8286505 L91.8,84.8286505 C92.7914063,84.8286505 93.5929688,85.6323127 93.5929688,86.6263158 L93.5929688,97.4546053 C93.5929688,98.4486084 92.7914063,99.2522705 91.8,99.2522705 L97.2,99.2522705 C98.1914063,99.2522705 98.9929688,98.4486084 98.9929688,97.4546053 L98.9929688,86.6263158 C98.9929688,85.6323127 98.1914063,84.8286505 97.2,84.8286505 Z" id="Path" fill="#E2E2E2"></path>
                    <path d="M5.4,106.485229 L10.8,106.485229 C8.8171875,106.485229 7.2140625,104.856756 7.19296875,102.86875 L7.19296875,55.9391126 C7.19296875,53.9511063 8.8171875,52.3437821 10.8,52.3226331 L5.4,52.3226331 C3.4171875,52.3226331 1.8140625,53.9511063 1.79296875,55.9391126 L1.79296875,102.86875 C1.8140625,104.856756 3.4171875,106.46408 5.4,106.485229 Z" id="Path" fill="#FFFFFF"></path>
                    <polygon id="Path" fill="#FFFFFF" points="0 55.9391126 3.60703125 55.9391126 3.60703125 70.3838816 0 70.3838816"></polygon>
                    <path d="M1.83515625,64.9697368 C0.84375,64.9697368 0.02109375,64.1660747 0.02109375,63.1720716 C0.02109375,62.1780685 0.82265625,61.3532573 1.8140625,61.3532573 L1.83515625,61.3532573 C2.8265625,61.3532573 3.628125,62.1569195 3.628125,63.1509226 C3.628125,64.1449257 2.8265625,64.9697368 1.83515625,64.9697368 Z" id="Path" fill="#B7B7B7"></path>
                    <path d="M46.8070313,101.071085 C48.7898438,101.071085 50.4140625,99.4637605 50.4140625,97.4546053 L50.4140625,61.3532573 C50.4140625,59.3652511 48.8109375,57.7367779 46.8070313,57.7367779 L10.8,57.7367779 C8.8171875,57.7367779 7.19296875,59.3441021 7.19296875,61.3532573 L7.19296875,97.4546053 C7.19296875,99.4426115 8.79609375,101.071085 10.8,101.071085 L46.8070313,101.071085 L46.8070313,101.071085 Z M10.8,61.3532573 L46.8070313,61.3532573 L46.8070313,97.4546053 L10.8,97.4546053 L10.8,61.3532573 Z" id="Shape" fill="#B7B7B7"></path>
                    <path d="M19.8070313,75.7980263 C22.78125,75.7980263 25.2070313,73.365891 25.2070313,70.3838816 C25.2070313,67.4018722 22.78125,64.9697368 19.8070313,64.9697368 C16.8328125,64.9697368 14.4070313,67.4018722 14.4070313,70.3838816 C14.4070313,73.365891 16.8117188,75.7980263 19.8070313,75.7980263 Z M19.8070313,68.5862163 C20.7984375,68.5862163 21.6,69.3898784 21.6,70.3838816 C21.6,71.3778847 20.7984375,72.1815468 19.8070313,72.1815468 C18.815625,72.1815468 18.0140625,71.3778847 18.0140625,70.3838816 C18.0140625,69.3898784 18.815625,68.5862163 19.8070313,68.5862163 Z" id="Shape" fill="#B7B7B7"></path>
                    <path d="M37.8,83.0098363 C34.8257813,83.0098363 32.4,85.4419716 32.4,88.423981 C32.4,91.4059904 34.8257813,93.8381258 37.8,93.8381258 C40.7742188,93.8381258 43.2,91.4059904 43.2,88.423981 C43.2,85.4419716 40.7742188,83.0098363 37.8,83.0098363 Z M37.8,90.2427953 C36.8085938,90.2427953 36.0070313,89.4391332 36.0070313,88.44513 C36.0070313,87.4511269 36.8085938,86.6474648 37.8,86.6474648 C38.7914063,86.6474648 39.5929688,87.4511269 39.5929688,88.44513 C39.5929688,89.4391332 38.7914063,90.2427953 37.8,90.2427953 Z" id="Shape" fill="#B7B7B7"></path>
                    <path d="M40.1203125,65.4984619 L14.934375,90.7715204 C14.4703125,91.2156494 14.2804687,91.8924175 14.4492187,92.5268876 C14.6179687,93.1613577 15.103125,93.6477847 15.7359375,93.8169768 C16.36875,93.9861688 17.04375,93.7958278 17.4867188,93.3305497 L42.69375,68.0574913 C43.36875,67.3595742 43.36875,66.217528 42.6726563,65.5196109 C41.9554688,64.8216938 40.8375,64.8216938 40.1203125,65.4984619 L40.1203125,65.4984619 Z" id="Path" fill="#B7B7B7"></path>
                    <path d="M55.7929688,68.5862163 C56.784375,68.5862163 57.5859375,67.7825542 57.5859375,66.7885511 L57.5859375,63.1720716 C57.5859375,62.1780685 56.784375,61.3744064 55.7929688,61.3744064 C54.8015625,61.3744064 54,62.1780685 54,63.1720716 L54,66.7885511 C54,67.7614052 54.8015625,68.5862163 55.7929688,68.5862163 Z" id="Path" fill="#B7B7B7"></path>
                    <path d="M54,77.5956916 C54,78.5896947 54.8015625,79.3933568 55.7929688,79.3933568 C56.784375,79.3933568 57.5859375,78.5896947 57.5859375,77.5956916 L57.5859375,73.9792121 C57.5859375,72.9852089 56.784375,72.1815468 55.7929688,72.1815468 C54.8015625,72.1815468 54,72.9852089 54,73.9792121 L54,77.5956916 Z" id="Path" fill="#B7B7B7"></path>
                    <path d="M54,88.423981 C54,89.4179842 54.8015625,90.2216463 55.7929688,90.2216463 C56.784375,90.2216463 57.5859375,89.4179842 57.5859375,88.423981 L57.5859375,84.8075015 C57.5859375,83.8134984 56.784375,83.0098363 55.7929688,83.0098363 C54.8015625,83.0098363 54,83.8134984 54,84.8075015 L54,88.423981 Z" id="Path" fill="#B7B7B7"></path>
                    <path d="M54,99.2522705 C54,100.246274 54.8015625,101.049936 55.7929688,101.049936 C56.784375,101.049936 57.5859375,100.246274 57.5859375,99.2522705 L57.5859375,95.635791 C57.5859375,94.6417879 56.784375,93.8381258 55.7929688,93.8381258 C54.8015625,93.8381258 54,94.6417879 54,95.635791 L54,99.2522705 Z" id="Path" fill="#B7B7B7"></path>
                    <path d="M108,38.5969303 C108,37.1587981 107.430469,35.7841129 106.396875,34.7689607 L73.3429687,1.60732422 C71.2125,-0.465278063 67.8375,-0.465278063 65.6859375,1.60732422 L32.6109375,34.7478117 L32.5898438,34.7689607 L32.5898438,34.7901097 L16.875,50.5249679 L5.4,50.5249679 C2.42578125,50.5249679 0,52.9571032 0,55.9391126 C0,56.9331157 0.8015625,57.7367779 1.79296875,57.7367779 C2.784375,57.7367779 3.5859375,56.9331157 3.5859375,55.9391126 C3.5859375,54.9451095 4.3875,54.1414474 5.37890625,54.1414474 L54,54.1414474 L54,55.9391126 C54,56.9331157 54.8015625,57.7367779 55.7929688,57.7367779 C56.784375,57.7367779 57.5859375,56.9331157 57.5859375,55.9391126 L57.5859375,54.1414474 L102.578906,54.1414474 C103.570312,54.1414474 104.371875,54.9451095 104.371875,55.9391126 L104.371875,102.86875 C104.371875,103.862753 103.570312,104.666415 102.578906,104.666415 L5.4,104.666415 C4.40859375,104.666415 3.60703125,103.862753 3.60703125,102.86875 L3.60703125,70.3838816 C3.60703125,69.3898784 2.80546875,68.5862163 1.8140625,68.5862163 C0.82265625,68.5862163 0,69.3898784 0,70.3838816 L0,102.86875 C0,105.850759 2.42578125,108.282895 5.4,108.282895 L102.6,108.282895 C105.574219,108.282895 108,105.850759 108,102.86875 L108,55.9391126 C108,52.9571032 105.574219,50.5249679 102.6,50.5249679 L98.3179687,50.5249679 L106.396875,42.4248998 C107.430469,41.4308966 108,40.0350624 108,38.5969303 L108,38.5969303 Z M103.865625,39.8658704 L93.234375,50.5249679 L50.8570312,50.5249679 L50.4140625,50.0808388 C49.7179687,49.3829217 48.5789062,49.3829217 47.8617187,50.0808388 C47.7351562,50.2077328 47.6507812,50.3557759 47.5664062,50.5249679 L21.9585938,50.5249679 L33.8554687,38.5969303 L35.1210937,39.8658704 C35.8171875,40.5426385 36.95625,40.5426385 37.6523437,39.8447214 C38.3484375,39.1468043 38.3484375,38.0259072 37.6734375,37.3068411 L36.4078125,36.0379009 L68.2171875,4.14520456 C68.934375,3.44728747 70.0523437,3.44728747 70.7484375,4.14520456 L103.865625,37.3279901 C104.203125,37.6663741 104.392969,38.1316522 104.392969,38.5969303 C104.392969,39.0622083 104.224219,39.5274864 103.865625,39.8658704 L103.865625,39.8658704 Z" id="Shape" fill="#B7B7B7"></path>
                    <path d="M42.778125,42.4248998 C42.3351563,41.9596217 41.6601563,41.7692807 41.0273438,41.9384727 C40.3945313,42.1076647 39.909375,42.5940918 39.740625,43.2285619 C39.571875,43.863032 39.7617188,44.5398001 40.2257813,44.9839291 L42.778125,47.5429585 C43.2210938,48.0082365 43.8960938,48.1985776 44.5289063,48.0293855 C45.1617187,47.8601935 45.646875,47.3737664 45.815625,46.7392964 C45.984375,46.1048263 45.7945312,45.4280582 45.3304687,44.9839291 L42.778125,42.4248998 Z" id="Path" fill="#B7B7B7"></path>
                    <path d="M64.8,63.1720716 L73.8070313,63.1720716 C74.7984375,63.1720716 75.6,62.3684095 75.6,61.3744064 C75.6,60.3804032 74.7984375,59.5767411 73.8070313,59.5767411 L64.8,59.5767411 C63.8085938,59.5767411 63.0070313,60.3804032 63.0070313,61.3744064 C63.0070313,62.3472605 63.8085938,63.1720716 64.8,63.1720716 Z" id="Path" fill="#B7B7B7"></path>
                    <path d="M98.9929688,59.5555921 L81,59.5555921 C80.0085937,59.5555921 79.2070312,60.3592542 79.2070312,61.3532573 C79.2070312,62.3472605 80.0085937,63.1509226 81,63.1509226 L98.9929688,63.1509226 C99.984375,63.1509226 100.785938,62.3472605 100.785938,61.3532573 C100.807031,60.3592542 99.984375,59.5555921 98.9929688,59.5555921 Z" id="Path" fill="#B7B7B7"></path>
                    <path d="M64.8,77.5956916 L73.8070313,77.5956916 C74.7984375,77.5956916 75.6,76.7920295 75.6,75.7980263 C75.6,74.8040232 74.7984375,74.0003611 73.8070313,74.0003611 L64.8,74.0003611 C63.8085938,74.0003611 63.0070313,74.8040232 63.0070313,75.7980263 C63.0070313,76.7920295 63.8085938,77.5956916 64.8,77.5956916 Z" id="Path" fill="#B7B7B7"></path>
                    <path d="M98.9929688,74.0003611 L81,74.0003611 C80.0085937,74.0003611 79.2070312,74.8040232 79.2070312,75.7980263 C79.2070312,76.7920295 80.0085937,77.5956916 81,77.5956916 L98.9929688,77.5956916 C99.984375,77.5956916 100.785938,76.7920295 100.785938,75.7980263 C100.785938,74.8040232 99.984375,74.0003611 98.9929688,74.0003611 Z" id="Path" fill="#B7B7B7"></path>
                    <path d="M64.8,70.3838816 L84.6070313,70.3838816 C85.5984375,70.3838816 86.4,69.5802195 86.4,68.5862163 C86.4,67.5922132 85.5984375,66.7885511 84.6070313,66.7885511 L64.8,66.7885511 C63.8085938,66.7885511 63.0070313,67.5922132 63.0070313,68.5862163 C63.0070313,69.5802195 63.8085938,70.3838816 64.8,70.3838816 Z" id="Path" fill="#B7B7B7"></path>
                    <path d="M98.9929688,66.7674021 L91.8,66.7674021 C90.8085938,66.7674021 90.0070313,67.5710642 90.0070313,68.5650673 C90.0070313,69.5590705 90.8085938,70.3627326 91.8,70.3627326 L98.9929688,70.3627326 C99.984375,70.3627326 100.785938,69.5590705 100.785938,68.5650673 C100.785938,67.5710642 99.984375,66.7674021 98.9929688,66.7674021 Z" id="Path" fill="#B7B7B7"></path>
                    <path d="M63.0070313,97.4546053 C63.0070313,99.4426115 64.6101563,101.071085 66.6140625,101.071085 L97.2210937,101.071085 C99.2039062,101.071085 100.828125,99.4637605 100.828125,97.4546053 L100.828125,86.6263158 C100.828125,84.6383095 99.225,83.0098363 97.2210937,83.0098363 L66.5929688,83.0098363 C64.6101563,83.0098363 62.9859375,84.6171605 62.9859375,86.6263158 L62.9859375,97.4546053 L63.0070313,97.4546053 Z M66.5929688,86.6263158 L97.2,86.6263158 L97.2,97.4546053 L66.5929688,97.4546053 L66.5929688,86.6263158 Z" id="Shape" fill="#B7B7B7"></path>
                </g>
            </g>
        </g>
    </g>
</svg>