<svg viewBox="0 0 96 96" fill="none" xmlns="http://www.w3.org/2000/svg">
<g clip-path="url(#clip0_1010_71309)">
<path d="M65.1262 29.0903C64.0912 29.0903 63.2512 29.9282 63.2512 30.9645C63.2512 32.0001 64.0912 32.8395 65.1262 32.8395C66.1633 32.8395 67.0012 32.0001 67.0012 30.9645C67.0012 29.9282 66.1633 29.0903 65.1262 29.0903Z" fill="#E9E9E9"/>
<path d="M31.0583 63.1575C30.0213 63.1575 29.1833 63.9975 29.1833 65.0325C29.1833 66.0695 30.0213 66.9075 31.0583 66.9075C32.0933 66.9075 32.9333 66.0695 32.9333 65.0325C32.9333 63.9975 32.0933 63.1575 31.0583 63.1575Z" fill="#E9E9E9"/>
<path d="M93.761 11.535C93.1282 11.3878 92.4631 11.5789 92.0062 12.0403L84.233 19.875H80.5064L76.4041 15.6247V11.8462L84.0659 4.07005C84.5193 3.61011 84.7038 2.9488 84.5538 2.31955C84.4044 1.69105 83.9414 1.18424 83.3293 0.977798C81.4044 0.32886 79.3903 -1.49423e-05 77.3416 -1.49423e-05C71.2348 -1.49423e-05 65.6866 2.84773 62.1196 7.81274C58.7812 12.4607 57.7522 18.1567 59.2265 23.6081L45.4153 37.4194L22.4054 14.3569V9.83042C22.4054 9.17192 22.0597 8.56105 21.4951 8.2228L8.23757 0.267173C7.49919 -0.17589 6.55513 -0.0594525 5.94726 0.549173L0.644568 5.85111C0.0366933 6.45973 -0.0797441 7.4038 0.362568 8.14217L8.31669 21.3997C8.65513 21.9645 9.26526 22.3095 9.92357 22.31L14.4485 22.3115L37.4604 45.374L23.7018 59.1326C18.2504 57.659 12.5514 58.6895 7.90119 62.03C2.93901 65.5948 0.0935059 71.1414 0.0935059 77.2483C0.0935059 79.2962 0.422381 81.3111 1.07132 83.2352C1.27851 83.8511 1.79057 84.3163 2.42338 84.4627C3.05694 84.6099 3.72126 84.4189 4.17894 83.9574L11.9514 76.1235H15.6984L19.9678 80.3929V84.1399L12.1338 91.9123C11.6724 92.37 11.4813 93.0343 11.6285 93.6679C11.7749 94.3007 12.2401 94.8126 12.8561 95.0199C14.7802 95.6689 16.7951 95.9977 18.8429 95.9977C24.9498 95.9977 30.4957 93.1515 34.0612 88.1893C37.4017 83.5391 38.4324 77.841 36.9586 72.3894L48.0088 61.3393L50.54 64.0888L49.3784 65.2496C48.6461 65.982 48.6461 67.1692 49.3784 67.9018C50.1108 68.6334 51.2973 68.6334 52.0306 67.9018L53.0823 66.8501L76.8318 92.6475C76.8494 92.6666 76.8676 92.6848 76.886 92.7032C81.2806 97.0978 88.4004 97.0991 92.7971 92.7024C97.1814 88.3159 97.1814 81.1785 92.7971 76.7921C92.7779 76.773 92.7583 76.7548 92.7384 76.7364L66.9007 53.0323L67.9408 51.9922C68.6731 51.2606 68.6731 50.0734 67.9408 49.3408C67.2084 48.6082 66.0219 48.6084 65.2886 49.3408L64.1351 50.4951L61.3805 47.9668L72.4841 36.8632C74.0624 37.2851 75.6913 37.499 77.3414 37.499C87.6804 37.499 96.0907 29.088 96.0907 18.7498C96.0907 16.7012 95.7618 14.687 95.1129 12.7622C94.9057 12.1462 94.3938 11.6814 93.761 11.535ZM16.5534 19.1126C16.2018 18.7603 15.725 18.5809 15.227 18.5809L10.9863 18.5794L4.33157 7.46849L7.56369 4.23636L18.6554 10.8926V15.1333C18.6554 15.6298 18.8525 16.106 19.2033 16.4576L42.7638 40.0715L40.1116 42.723L16.5534 19.1126ZM64.2464 55.6867L90.1721 79.4707C93.068 82.3974 93.0592 87.1363 90.1449 90.0521C87.224 92.973 82.4954 92.9818 79.5628 90.0778L55.7356 64.1962L64.2464 55.6867ZM61.4808 53.1489L53.1935 61.4347L50.6623 58.6852L58.7263 50.6207L61.4808 53.1489ZM77.3414 33.7492C75.7016 33.7492 74.0887 33.4864 72.5491 32.9677C71.8745 32.7414 71.129 32.9158 70.625 33.4189C61.2251 42.8188 40.9708 63.0724 33.5124 70.5315C33.0084 71.0355 32.8334 71.781 33.0613 72.4564C34.6199 77.0846 33.8743 82.0211 31.0149 86.0017C28.1636 89.9707 23.7266 92.2479 18.8428 92.2479C18.2941 92.2479 17.7485 92.2179 17.2079 92.16L23.1633 86.2507C23.5179 85.8992 23.7178 85.4201 23.7178 84.9199V79.6157C23.7178 79.1184 23.5199 78.6416 23.1684 78.29L17.8004 72.9221C17.4489 72.5705 16.9721 72.3727 16.4748 72.3727H11.1706C10.6704 72.3727 10.1913 72.5726 9.83901 72.9272L3.93051 78.8826C3.87182 78.342 3.84257 77.7964 3.84257 77.2477C3.84257 72.3632 6.11901 67.9269 10.0888 65.0756C14.0688 62.2162 19.0061 61.47 23.6349 63.0292C24.3095 63.2571 25.055 63.0819 25.559 62.5781C25.6623 62.4756 62.6452 25.4919 62.6716 25.4655C63.1756 24.9615 63.3498 24.2167 63.1228 23.5414C61.5635 18.9131 62.3075 13.9781 65.1648 10.0003C68.0184 6.02755 72.4561 3.7498 77.3407 3.7498C77.9062 3.7498 78.4679 3.7813 79.0244 3.8428L73.1928 9.76142C72.8471 10.1122 72.6538 10.5847 72.6538 11.0769V16.3811C72.6538 16.8675 72.842 17.334 73.1797 17.6833L78.3601 23.0512C78.7132 23.4174 79.2001 23.624 79.7092 23.624H85.0134C85.5129 23.624 85.9919 23.4247 86.3443 23.0696L92.2528 17.115C92.3114 17.6555 92.3407 18.2012 92.3407 18.7498C92.3407 27.0202 85.6119 33.7492 77.3414 33.7492Z" fill="#E9E9E9"/>
<path d="M58.4977 34.9416L35.0346 58.4048C34.3029 59.1364 34.3029 60.3236 35.0346 61.0562C35.7669 61.7886 36.9542 61.7886 37.6867 61.0562L61.1499 37.593C61.8823 36.8614 61.8823 35.6741 61.1499 34.9416C60.4176 34.209 59.2303 34.2092 58.4977 34.9416Z" fill="#E9E9E9"/>
<path d="M82.1915 84.75C82.9239 85.4803 84.1111 85.4803 84.8437 84.7457C85.5745 84.0126 85.5725 82.8253 84.8393 82.0943L67.9387 65.2478C67.2055 64.5169 66.0175 64.519 65.2872 65.2521C64.5556 65.986 64.5577 67.1725 65.291 67.9035L82.1915 84.75Z" fill="#E9E9E9"/>
</g>
<defs>
<clipPath id="clip0_1010_71309">
<rect width="96" height="96" fill="white"/>
</clipPath>
</defs>
</svg>
