<?xml version="1.0" encoding="UTF-8"?>
<svg viewBox="0 0 100 100" version="1.1" xmlns="http://www.w3.org/2000/svg" xmlns:xlink="http://www.w3.org/1999/xlink">
    <!-- Generator: Sketch 63.1 (92452) - https://sketch.com -->
    <title>make-up</title>
    <desc>Created with Sketch.</desc>
    <g id="12.-Null-Page" stroke="none" stroke-width="1" fill="none" fill-rule="evenodd" opacity="0.6">
        <g id="15.5-Null-product-Category" transform="translate(-138.000000, -190.000000)" fill-rule="nonzero">
            <g id="make-up" transform="translate(138.000000, 190.000000)">
                <g id="Group" transform="translate(2.000000, 2.000000)">
                    <g transform="translate(36.393443, 1.573770)" id="Path">
                        <path d="M18.1770492,6.76721311 C18.1770492,6.76721311 13.2196721,10.7213115 13.2196721,14.695082 C13.2196721,18.6688525 14.8721311,19.9868852 14.8721311,19.9868852 L14.8721311,33.1868852 L21.4819672,33.1868852 L21.4819672,19.9868852 C21.4819672,19.9868852 23.1344262,18.6688525 23.1344262,14.695082 C23.1344262,10.7213115 18.1770492,6.76721311 18.1770492,6.76721311 Z" fill="#F2F2F2"></path>
                        <path d="M36.3344262,0.157377049 C29.9606557,0.157377049 24.7672131,1.63278689 24.7672131,3.46229508 L31.3770492,15.0295082 L31.3770492,33.1868852 L41.2918033,33.1868852 L41.2918033,15.0098361 L47.9016393,3.44262295 C47.9016393,1.63278689 42.7278689,0.157377049 36.3344262,0.157377049 Z" fill="#F2F2F2"></path>
                        <path d="M1.71147541,8.00655738 L0.0196721311,16.6622951 L0.0196721311,33.1672131 L6.6295082,33.1672131 L6.6295082,16.6622951 L4.93770492,8.00655738 C4.76065574,7.27868852 4.09180328,6.74754098 3.3442623,6.74754098 C2.59672131,6.74754098 1.88852459,7.27868852 1.71147541,8.00655738 Z" fill="#ECECEC"></path>
                    </g>
                    <path d="M29.8032787,24.8655738 L29.8032787,33.1278689 L14.9311475,33.1278689 L14.9311475,24.8655738 C14.9311475,23.9606557 15.6786885,23.2131148 16.5836066,23.2131148 C17.4885246,23.2131148 18.2360656,22.4655738 18.2360656,21.5606557 L18.2360656,16.6032787 C17.3311475,16.6032787 16.5836066,15.8557377 16.5836066,14.9508197 L16.5836066,1.75081967 C16.5836066,0.845901639 17.3311475,0.0983606557 18.2360656,0.0983606557 L26.4983607,0.0983606557 C27.4032787,0.0983606557 28.1508197,0.845901639 28.1508197,1.75081967 L28.1508197,14.9508197 C28.1508197,15.8557377 27.4032787,16.6032787 26.4983607,16.6032787 L26.4983607,21.5606557 C26.4983607,22.4655738 27.2459016,23.2131148 28.1508197,23.2131148 C29.0557377,23.2131148 29.8032787,23.9409836 29.8032787,24.8655738 Z" id="Path" fill="#E2E2E2"></path>
                    <g transform="translate(14.754098, 0.000000)">
                        <path d="M10.0918033,24.8655738 L10.0918033,33.1278689 L0.17704918,33.1278689 L0.17704918,24.8655738 C0.17704918,23.9606557 0.924590164,23.2131148 1.8295082,23.2131148 C2.73442623,23.2131148 3.48196721,22.4655738 3.48196721,21.5606557 L3.48196721,16.6032787 C2.57704918,16.6032787 1.8295082,15.8557377 1.8295082,14.9508197 L1.8295082,1.75081967 C1.8295082,0.845901639 2.57704918,0.0983606557 3.48196721,0.0983606557 L6.78688525,0.0983606557 C7.69180328,0.0983606557 8.43934426,0.845901639 8.43934426,1.75081967 L8.43934426,14.9508197 C8.43934426,15.8557377 7.69180328,16.6032787 6.78688525,16.6032787 L6.78688525,21.5606557 C6.78688525,22.4655738 7.53442623,23.2131148 8.43934426,23.2131148 C9.3442623,23.2131148 10.0918033,23.9409836 10.0918033,24.8655738 Z" id="Path" fill="#F2F2F2"></path>
                        <rect id="Rectangle" fill="#ECECEC" x="53.0163934" y="23.1934426" width="9.9147541" height="11.5672131"></rect>
                        <rect id="Rectangle" fill="#ECECEC" x="53.0163934" y="16.5836066" width="9.9147541" height="6.60983607"></rect>
                        <rect id="Rectangle" fill="#F2F2F2" x="21.6393443" y="18.2360656" width="6.60983607" height="16.504918"></rect>
                        <rect id="Rectangle" fill="#ECECEC" x="36.5114754" y="28.1508197" width="6.60983607" height="6.60983607"></rect>
                        <rect id="Rectangle" fill="#ECECEC" x="36.5114754" y="21.5409836" width="6.60983607" height="6.60983607"></rect>
                    </g>
                    <path d="M14.9311475,33.1081967 L14.9311475,24.8459016 C14.9311475,23.9409836 15.6786885,23.1934426 16.5836066,23.1934426 C17.4885246,23.1934426 18.2360656,22.4459016 18.2360656,21.5409836 L18.2360656,16.6032787 L26.4983607,16.6032787 L26.4983607,21.5606557 C26.4983607,22.4655738 27.2459016,23.2131148 28.1508197,23.2131148 C29.0557377,23.2131148 29.8032787,23.9606557 29.8032787,24.8655738 L29.8032787,33.1278689" id="Path" fill="#E2E2E2"></path>
                    <path d="M24.8459016,24.8655738 L24.8459016,33.1278689 L14.9311475,33.1278689 L14.9311475,24.8655738 C14.9311475,23.9606557 15.6786885,23.2131148 16.5836066,23.2131148 C17.4885246,23.2131148 18.2360656,22.4655738 18.2360656,21.5606557 L18.2360656,16.6032787 L21.5409836,16.6032787 L21.5409836,21.5606557 C21.5409836,22.4655738 22.2885246,23.2131148 23.1934426,23.2131148 C24.0983607,23.2131148 24.8459016,23.9409836 24.8459016,24.8655738 Z" id="Path" fill="#F2F2F2"></path>
                    <path d="M79.3180328,33.1081967 L16.6032787,33.1081967 C12.2163934,33.1081967 8.02622951,34.8590164 4.91803279,37.947541 C1.80983607,41.0360656 0.0786885246,45.2459016 0.098194813,49.6327869 L0.137704918,94.1704918 C0.118032787,94.6229508 0.295081967,95.0557377 0.609836066,95.3704918 C0.924590164,95.6852459 1.35737705,95.8622951 1.79016393,95.8622951 L94.1704918,95.8622951 C94.6229508,95.8622951 95.0360656,95.6852459 95.3508197,95.3704918 C95.6655738,95.0557377 95.8229508,94.6229508 95.8229508,94.1704918 L95.8622951,49.6327869 C95.8622951,45.2459016 94.1311475,41.0557377 91.0229508,37.947541 C87.895082,34.8393443 83.704918,33.1081967 79.3180328,33.1081967 Z" id="Path" fill="#E2E2E2"></path>
                    <path d="M75.2262295,33.1081967 L15.7377049,33.1081967 C6.84590164,33.3442623 -0.157377049,40.7409836 0.0786885246,49.6327869 L0.118032787,94.1704918 C0.0983606557,94.6032787 0.255737705,95.0360656 0.550819672,95.3508197 C0.845901639,95.6655738 1.25901639,95.8622951 1.69180328,95.8622951 L89.3114754,95.8622951 C89.7442623,95.842623 90.157377,95.6655738 90.452459,95.3508197 C90.747541,95.0360656 90.904918,94.6032787 90.8852459,94.1704918 L90.9245902,49.6327869 C91.1213115,40.7409836 84.1180328,33.3442623 75.2262295,33.1081967 Z" id="Path" fill="#F2F2F2"></path>
                    <path d="M66.8262295,62.5180328 L60.5311475,69.2262295 L47.9606557,82.642623 L45.4819672,80.0065574 L55.5737705,69.2262295 L61.8688525,62.5180328 C65.3508197,58.7213115 65.3508197,52.8983607 61.8688525,49.1016393 C60.8262295,47.9803279 59.5278689,47.1540984 58.0721311,46.7016393 C61.2,45.7377049 64.6032787,46.6819672 66.8262295,49.1016393 C70.3081967,52.8983607 70.3081967,58.7213115 66.8262295,62.5180328 Z" id="Path" fill="#E2E2E2"></path>
                    <path d="M61.8688525,62.5180328 L55.5737705,69.2262295 L45.4819672,80.0065574 L35.3901639,69.2262295 L29.095082,62.5180328 C25.6131148,58.7213115 25.6131148,52.8983607 29.095082,49.1016393 C30.1377049,47.9803279 31.4557377,47.1540984 32.9114754,46.7016393 C36.0393443,45.7377049 39.442623,46.6819672 41.6655738,49.1016393 L45.4819672,53.1737705 L47.9606557,55.8098361 L54.2557377,49.0819672 C55.2983607,47.9606557 56.6163934,47.1344262 58.0721311,46.6819672 C59.5278689,47.1344262 60.8262295,47.9606557 61.8688525,49.0819672 C65.3508197,52.8983607 65.3508197,58.7213115 61.8688525,62.5180328 Z" id="Path" fill="#FFFFFF"></path>
                </g>
                <path d="M21.4590698,35 L22,35 C13.3837548,35.3951082 6.66076527,42.7638758 6.87327356,51.5747883 L6.91191143,96.3010348 C6.89259249,96.7356538 7.02782504,97.1702728 7.31760907,97.4863594 C7.60739311,97.8024459 8.01309075,98 8.43810733,98 L3.5697356,98 C3.14471902,98 2.73902138,97.8024459 2.44923735,97.4863594 C2.15945331,97.1702728 2.00490183,96.7356538 2.0435397,96.3010348 L2.00490183,51.5945437 C1.79239354,42.7836312 8.51538307,35.3951082 17.1316283,35.0197554 L21.4590698,35 L21.4590698,35 Z" id="Path" fill="#FFFFFF"></path>
                <g id="Group">
                    <polygon id="Path" fill="#FFFFFF" points="3.3531746 51.6468254 3.3531746 73.2936508 3.37301587 96.547619 0.0396825397 96.5674603 0.0396825397 73.2936508 0.0198412698 51.6468254"></polygon>
                    <g fill="#B7B7B7">
                        <path d="M1.68650794,66.6269841 C2.12301587,66.6269841 2.53968254,66.4484127 2.87698413,66.1507937 C3.51190476,65.4960317 3.51190476,64.4444444 2.87698413,63.7896825 L2.61904762,63.5912698 C2.51984127,63.531746 2.42063492,63.4722222 2.32142857,63.4325397 C2.22222222,63.3928571 2.12301587,63.3531746 2.02380952,63.3333333 C1.9047619,63.3134921 1.80555556,63.3134921 1.68650794,63.2936508 C1.25,63.2936508 0.833333333,63.4722222 0.496031746,63.7698413 C-0.138888889,64.4246032 -0.138888889,65.4761905 0.496031746,66.1309524 C0.654761905,66.2896825 0.833333333,66.4087302 1.0515873,66.4880952 C1.25,66.5873016 1.46825397,66.6269841 1.68650794,66.6269841 Z" id="Path"></path>
                        <path d="M99.9206349,31.6468254 C99.9007937,28.8888889 97.6785714,26.6468254 94.9206349,26.6468254 L94.9007937,26.6468254 C93.5714286,26.6468254 92.3214286,27.1825397 91.3888889,28.1150794 L85.7142857,33.7896825 C84.3650794,33.4722222 82.9761905,33.3134921 81.5873016,33.3134921 L81.5873016,17.1031746 L88.0357143,5.83333333 C88.0555556,5.81349206 88.0555556,5.77380952 88.0753968,5.73412698 C88.1150794,5.63492063 88.1547619,5.53571429 88.1746032,5.41666667 C88.2142857,5.31746032 88.234127,5.1984127 88.234127,5.09920635 C88.234127,5.05952381 88.2539683,5.03968254 88.2539683,5 C88.234127,4.90079365 88.234127,4.78174603 88.1944444,4.68253968 C88.1944444,4.62301587 88.1944444,4.58333333 88.1746032,4.52380952 C87.4206349,0.138888889 76.25,0 74.9404762,0 C73.6309524,0 62.4603175,0.138888889 61.6865079,4.52380952 C61.6666667,4.56349206 61.6666667,4.62301587 61.6666667,4.68253968 C61.6468254,4.78174603 61.6269841,4.90079365 61.6071429,5 C61.6071429,5.03968254 61.6269841,5.05952381 61.6269841,5.09920635 C61.6468254,5.21825397 61.6666667,5.31746032 61.6865079,5.41666667 C61.7063492,5.51587302 61.7460317,5.63492063 61.7857143,5.73412698 C61.8055556,5.75396825 61.8055556,5.79365079 61.8253968,5.83333333 L68.2738095,17.1031746 L68.2738095,33.3134921 L61.6071429,33.3134921 L61.6071429,22.281746 C62.8174603,20.5357143 63.3928571,18.452381 63.2738095,16.3293651 C63.2738095,11.6666667 58.234127,7.5 57.6587302,7.04365079 C57.6190476,7.00396825 57.5595238,7.00396825 57.5198413,6.96428571 C57.3412698,6.8452381 57.1428571,6.76587302 56.9246032,6.72619048 C56.5079365,6.6468254 56.0714286,6.74603175 55.7142857,6.96428571 C55.6746032,6.98412698 55.6150794,7.00396825 55.5753968,7.04365079 C55,7.5 49.9603175,11.6666667 49.9603175,16.3293651 C49.8412698,18.4325397 50.4166667,20.5357143 51.6269841,22.281746 L51.6269841,33.3134921 L46.6269841,33.3134921 L46.6269841,18.3134921 C46.6269841,18.2539683 46.6071429,18.2142857 46.5873016,18.1547619 C46.5873016,18.0952381 46.5873016,18.0555556 46.5873016,17.9960317 L44.8611111,9.18650794 C44.484127,7.67857143 43.1349206,6.6468254 41.5873016,6.66666667 C40.0396825,6.68650794 38.7103175,7.75793651 38.3730159,9.26587302 L36.6666667,17.9960317 C36.6666667,18.0555556 36.6666667,18.0952381 36.6666667,18.1547619 C36.6468254,18.2142857 36.6468254,18.2539683 36.6269841,18.3134921 L36.6269841,33.2936508 L33.2936508,33.2936508 L33.2936508,26.6269841 C33.2936508,24.781746 31.8055556,23.2936508 29.9603175,23.2936508 L29.9603175,19.5238095 C30.9920635,18.9285714 31.6269841,17.8373016 31.6269841,16.6468254 L31.6269841,3.33333333 C31.6468254,1.48809524 30.1587302,0 28.3134921,0 L19.9801587,0 C18.1349206,0 16.6468254,1.48809524 16.6468254,3.33333333 L16.6468254,16.6468254 C16.6468254,17.8373016 17.281746,18.9285714 18.3134921,19.5238095 L18.3134921,23.3134921 C16.468254,23.3134921 14.9801587,24.8015873 14.9801587,26.6468254 L14.9801587,33.6309524 C6.30952381,35.218254 2.42861287e-15,42.8174603 0.0197946058,51.6468254 L0.0197946058,51.6468254 L0.0197946058,58.3134921 C0.0197946058,58.9087302 0.337301587,59.4642857 0.853174603,59.7619048 C1.36904762,60.0595238 2.00396825,60.0595238 2.51984127,59.7619048 C3.03571429,59.4642857 3.3531746,58.9087302 3.3531746,58.3134921 L3.3531746,51.6468254 L3.3531746,51.6468254 C3.3531746,47.6785714 4.92063492,43.8492063 7.73809524,41.031746 C10.5555556,38.2142857 14.3650794,36.6468254 18.3333333,36.6468254 L81.5873016,36.6468254 C85.5555556,36.6468254 89.3849206,38.234127 92.1825397,41.031746 C94.9801587,43.8293651 96.5674603,47.6587302 96.5674603,51.6468254 L96.5277778,96.6071429 L3.3531746,96.6071429 L3.3531746,96.6071429 C3.3531746,96.5873016 3.3531746,96.5674603 3.3531746,96.5674603 L3.3531746,96.5674603 L3.3531746,71.6269841 C3.3531746,71.031746 3.03571429,70.4761905 2.51984127,70.1785714 C2.00396825,69.8809524 1.36904762,69.8809524 0.853174603,70.1785714 C0.337301587,70.4761905 0.0197946058,71.031746 0.0197946058,71.6269841 L0.0396825397,96.5674603 L0.0396825397,96.5674603 C0.0197946058,97.4603175 0.376984127,98.3134921 0.992063492,98.9484127 C1.62698413,99.5833333 2.48015873,99.9404762 3.3531746,99.9404762 L96.5277778,99.9404762 C97.4206349,99.9404762 98.2738095,99.5833333 98.9087302,98.9484127 C99.5436508,98.3134921 99.8809524,97.4603175 99.8611111,96.5674603 L99.9007937,51.6468254 C99.9206349,46.8849206 98.0555556,42.3015873 94.7420635,38.8888889 L98.452381,35.1785714 C99.3849206,34.2460317 99.9206349,32.9761905 99.9206349,31.6468254 Z M78.2738095,21.6468254 L71.6071429,21.6468254 L71.6071429,18.3134921 L78.2738095,18.3134921 L78.2738095,21.6468254 Z M84.6626984,5.01984127 L78.968254,14.9801587 L70.9126984,14.9801587 L65.218254,5.01984127 C66.2896825,4.32539683 69.6428571,3.33333333 74.9404762,3.33333333 C80.2380952,3.33333333 83.5912698,4.32539683 84.6626984,5.01984127 L84.6626984,5.01984127 Z M58.2936508,26.6468254 L54.9603175,26.6468254 L54.9603175,23.3134921 L58.2936508,23.3134921 L58.2936508,26.6468254 Z M56.6269841,10.5753968 C58.0555556,11.9642857 59.9603175,14.2857143 59.9603175,16.3293651 C60.0396825,17.5992063 59.7619048,18.8690476 59.1666667,20 L54.1071429,20 C53.5119048,18.8690476 53.234127,17.5992063 53.3134921,16.3293651 C53.2936508,14.2857143 55.1984127,11.9642857 56.6269841,10.5753968 Z M42.9365079,16.6468254 L40.3174603,16.6468254 L41.6071429,9.90079365 L42.9365079,16.6468254 Z M19.9801587,3.33333333 L28.3134921,3.33333333 L28.3134921,16.6468254 L19.9801587,16.6468254 L19.9801587,3.33333333 L19.9801587,3.33333333 Z M18.3134921,33.3134921 L18.3134921,26.6468254 C20.1587302,26.6468254 21.6468254,25.1587302 21.6468254,23.3134921 L21.6468254,19.9801587 L26.6468254,19.9801587 L26.6468254,23.3134921 C26.6468254,25.1587302 28.1349206,26.6468254 29.9801587,26.6468254 L29.9801587,33.3134921 L18.3134921,33.3134921 L18.3134921,33.3134921 Z M39.9603175,33.3134921 L39.9603175,20 L43.2936508,20 L43.2936508,33.3134921 L39.9603175,33.3134921 Z M54.9603175,33.3134921 L54.9603175,29.9801587 L58.2936508,29.9801587 L58.2936508,33.3134921 L54.9603175,33.3134921 Z M71.6071429,33.3134921 L71.6071429,24.9801587 L78.2738095,24.9801587 L78.2738095,33.3134921 L71.6071429,33.3134921 Z M96.0912698,32.8174603 L92.202381,36.7063492 C91.2698413,36.031746 90.2777778,35.4563492 89.2261905,34.9801587 L93.75,30.4563492 C94.047619,30.1388889 94.4642857,29.9603175 94.9007937,29.9603175 L94.9007937,29.9603175 C95.5753968,29.9603175 96.1904762,30.3571429 96.4484127,30.9722222 C96.7261905,31.6269841 96.5873016,32.3412698 96.0912698,32.8174603 L96.0912698,32.8174603 Z" id="Shape"></path>
                        <path d="M49.9603175,86.6071429 C50.4166667,86.6071429 50.8531746,86.4087302 51.1706349,86.0714286 L70.1785714,65.7738095 C74.265873,61.2896825 74.265873,54.4444444 70.1785714,49.9603175 C68.234127,47.8571429 65.515873,46.6468254 62.6388889,46.6269841 L62.6190476,46.6269841 C59.7420635,46.6269841 57.0039683,47.8373016 55.0595238,49.9603175 L49.9404762,55.4365079 L44.8412698,49.9603175 C42.8968254,47.8571429 40.1587302,46.6468254 37.281746,46.6468254 L37.2619048,46.6468254 C34.4047619,46.6468254 31.6666667,47.8571429 29.7222222,49.9801587 C25.6349206,54.4642857 25.6349206,61.3095238 29.7222222,65.7936508 L48.7301587,86.0912698 C49.0674603,86.4285714 49.5039683,86.6071429 49.9603175,86.6071429 Z M32.1626984,52.2420635 C33.4722222,50.8134921 35.3373016,49.9801587 37.281746,49.9801587 L37.281746,49.9801587 C39.2261905,49.9801587 41.0912698,50.8134921 42.4007937,52.2420635 L48.75,59.0277778 C49.0674603,59.3452381 49.5039683,59.5238095 49.9603175,59.5238095 C50.4166667,59.5238095 50.8531746,59.3452381 51.1706349,59.0277778 L57.5,52.2619048 C58.8095238,50.8134921 60.6746032,50 62.6388889,49.9801587 L62.6388889,49.9801587 C64.5833333,50 66.4285714,50.8134921 67.7579365,52.2420635 C70.6746032,55.4365079 70.6746032,60.3174603 67.7579365,63.4920635 L67.7579365,63.4920635 L49.9603175,82.5 L32.1626984,63.4920635 C29.2460317,60.3174603 29.2460317,55.4365079 32.1626984,52.2420635 Z" id="Shape"></path>
                        <path d="M8.33333333,76.6269841 C8.76984127,76.6269841 9.20634921,76.4484127 9.50396825,76.1309524 C9.82142857,75.8134921 10,75.3968254 10,74.9603175 L10,53.3134921 C10,52.4007937 9.24603175,51.6468254 8.33333333,51.6468254 C7.42063492,51.6468254 6.66666667,52.4007937 6.66666667,53.3134921 L6.66666667,74.9603175 C6.66666667,75.3968254 6.8452381,75.8333333 7.16269841,76.1309524 C7.46031746,76.4484127 7.87698413,76.6269841 8.33333333,76.6269841 Z" id="Path"></path>
                        <path d="M6.66666667,88.2738095 C6.66666667,89.1865079 7.42063492,89.9404762 8.33333333,89.9404762 C9.24603175,89.9404762 10,89.1865079 10,88.2738095 L10,81.6071429 C10,80.6944444 9.24603175,79.9404762 8.33333333,79.9404762 C7.42063492,79.9404762 6.66666667,80.6944444 6.66666667,81.6071429 L6.66666667,88.2738095 Z" id="Path"></path>
                    </g>
                </g>
            </g>
        </g>
    </g>
</svg>