<?xml version="1.0" encoding="UTF-8"?>
<svg viewBox="0 0 153 196" version="1.1" xmlns="http://www.w3.org/2000/svg" xmlns:xlink="http://www.w3.org/1999/xlink">
    <!-- Generator: Sketch 63.1 (92452) - https://sketch.com -->
    <title>3515946</title>
    <desc>Created with Sketch.</desc>
    <defs>
        <linearGradient x1="87.5098532%" y1="-946.068031%" x2="65.4112052%" y2="-351.64809%" id="linearGradient-1">
            <stop stop-color="#EDBBA0" offset="0.000163%"></stop>
            <stop stop-color="#E4877D" offset="100%"></stop>
        </linearGradient>
    </defs>
    <g id="12.-Null-Page" stroke="none" stroke-width="1" fill="none" fill-rule="evenodd">
        <g id="15.6-empty-anything" transform="translate(-110.000000, -144.000000)">
            <g id="3515946" transform="translate(111.000000, 145.000000)">
                <g id="OBJECTS">
                    <path d="M22.4089902,121.780662 C0.593615635,158.359288 36.7052334,205.254962 72.7673833,191.383715 C108.829533,177.512468 57.6796526,105.490585 82.8588491,77.1063613 C108.038046,48.7221374 139.153398,63.2844784 141.775201,79.7226463 C144.347535,96.2101781 137.026276,100.554198 137.026276,100.554198" id="Path" stroke="#B5B5B5" stroke-width="1.0895" stroke-linecap="round" stroke-linejoin="round" stroke-dasharray="4,5"></path>
                    <g id="Group" transform="translate(83.106189, 87.374046)">
                        <g transform="translate(7.914875, 0.000000)" id="Path">
                            <path d="M24.6350489,33.2712468 L2.02818675,33.0737913 C0.890423453,33.0737913 2.77555756e-17,32.0371501 0.0989359392,30.9017812 L0.148403909,30.3587786 L3.56169381,2.07328244 C3.66062975,1.08600509 4.50158523,0.345547074 5.5404126,0.345547074 L20.4797394,0.493638677 C21.4690988,0.493638677 22.2605863,1.23409669 22.4089902,2.17201018 L26.4158958,29.7664122 L26.6137676,31.0992366 C26.7621716,32.2346056 25.8222801,33.3206107 24.6350489,33.2712468 Z" fill="#E0E0E0" fill-rule="nonzero"></path>
                            <path d="M18.2042128,2.96183206 L18.1547448,7.50330789 C18.1547448,10.0208651 16.0770901,12.0447837 13.5542237,11.9954198 L13.5542237,11.9954198 C11.0313572,11.9954198 9.00317047,9.9221374 9.05263844,7.40458015 L9.10210641,2.86310433" stroke="#FFFFFF" stroke-width="2.1791" stroke-linecap="round" stroke-linejoin="round"></path>
                            <path d="M24.6350489,33.2712468 L2.02818675,33.0737913 C0.890423453,33.0737913 -1.80411242e-16,32.0371501 0.0989359392,30.9017812 L0.247339848,29.7170483 L26.3664278,29.7664122 L26.5642997,31.0992366 C26.7621716,32.2346056 25.8222801,33.3206107 24.6350489,33.2712468 Z" fill="#E0E0E0" fill-rule="nonzero"></path>
                        </g>
                        <g transform="translate(0.000000, 20.732824)" fill-rule="nonzero">
                            <path d="M67.6227144,1.6783715 L56.4924213,0.296183206 C54.0190228,-2.75890422e-14 51.7434962,1.33282443 50.7046688,3.55419847 L47.7365907,10.2676845 L4.69945711,4.98575064 C3.46275787,4.83765903 2.2755266,5.23256997 1.43457112,6.12111959 C0.593615635,7.00966921 0.148403909,8.19440204 0.346275787,9.37913486 L3.16595005,30.5068702 C3.4132899,32.2839695 4.79839305,33.6661578 6.57923996,33.8636132 L36.8041694,37.5659033 L36.1116178,39.4910941 C35.765342,40.3796438 34.8749186,40.9720102 33.8855592,40.8239186 L4.89732899,37.2697201 C4.40264929,37.2203562 4.00690554,37.5659033 3.9079696,38.0101781 C3.85850163,38.5038168 4.20477742,38.8987277 4.64998914,38.9974555 L33.6382193,42.5516539 C35.4190662,42.7491094 37.0515092,41.7618321 37.6945928,40.0834606 L39.2775679,35.7888041 L47.192443,15.7964377 L52.2876439,4.29465649 C52.9801954,2.76437659 54.5631705,1.8264631 56.2450814,2.07328244 L67.3753746,3.45547074 C67.8700543,3.50483461 68.265798,3.15928753 68.364734,2.71501272 C68.414202,2.17201018 68.0679262,1.72773537 67.6227144,1.6783715 Z M44.0759609,19.0050891 L36.3589577,18.0671756 L38.3871444,10.9094148 L46.8461672,11.946056 L44.0759609,19.0050891 Z M40.8605429,27.1994911 L34.0339631,26.3603053 L35.9137459,19.7455471 L43.4328773,20.6834606 L40.8605429,27.1994911 Z M37.397785,35.9862595 L31.5605646,35.2951654 L33.5887514,28.1374046 L40.2174593,28.9272265 L37.397785,35.9862595 Z M22.3100543,34.1104326 L23.2004777,26.8045802 L31.8079045,27.8412214 L29.7797177,34.9989822 L22.3100543,34.1104326 Z M13.010076,32.9750636 L12.8122041,25.5211196 L21.4690988,26.5577608 L20.5786754,33.8636132 L13.010076,32.9750636 Z M2.96807818,15.7470738 L10.8334853,16.6849873 L11.0313572,23.5465649 L3.9079696,22.6580153 L2.96807818,15.7470738 Z M12.5648643,16.9318066 L22.5079262,18.1659033 L21.6669707,24.8793893 L12.7627362,23.7933842 L12.5648643,16.9318066 Z M24.437177,16.6356234 L25.3276004,9.32977099 L36.6062975,10.7119593 L34.5781107,17.8697201 L24.437177,16.6356234 Z M34.132899,19.5480916 L32.2531162,26.1628499 L23.3488817,25.0768448 L24.1898371,18.3633588 L34.132899,19.5480916 Z M22.705798,16.4381679 L12.5153963,15.2040712 L12.3175244,7.75012723 L23.6456895,9.13231552 L22.705798,16.4381679 Z M2.67127036,7.40458015 C3.16595005,6.91094148 3.80903366,6.71348601 4.50158523,6.76284987 L10.4872096,7.50330789 L10.6850814,14.9572519 L2.67127036,13.9699746 L2.02818675,9.23104326 C1.97871878,8.53994911 2.22605863,7.89821883 2.67127036,7.40458015 Z M4.89732899,30.3587786 L4.10584148,24.4844784 L11.0313572,25.3236641 L11.2292291,32.7776081 L6.72764387,32.2346056 C5.78775244,32.086514 4.99626493,31.346056 4.89732899,30.3587786 Z" id="Shape" fill="#E0E0E0"></path>
                            <path d="M12.2185885,41.1201018 C10.9818893,40.9720102 9.84412595,41.8605598 9.69572204,43.0946565 C9.54731813,44.3287532 10.4377416,45.4641221 11.6744408,45.6122137 C12.9111401,45.7603053 14.0489034,44.8717557 14.1973073,43.637659 C14.3457112,42.4035623 13.4552877,41.2681934 12.2185885,41.1201018 Z" id="Path" fill="#B5B5B5"></path>
                            <path d="M29.7797177,43.2427481 C28.5430185,43.0946565 27.4052552,43.9832061 27.2568512,45.2173028 C27.1084473,46.4513995 27.9988708,47.5867684 29.23557,47.7348601 C30.4722693,47.8829517 31.6100326,46.994402 31.7584365,45.7603053 C31.9068404,44.5262087 31.0164169,43.3908397 29.7797177,43.2427481 Z" id="Path" fill="#B5B5B5"></path>
                        </g>
                    </g>
                    <g id="Group" transform="translate(71.233876, 17.277354)" fill-rule="nonzero">
                        <ellipse id="Oval" fill="#B5B5B5" transform="translate(5.433443, 6.861025) rotate(-8.013417) translate(-5.433443, -6.861025) " cx="5.43344306" cy="6.86102473" rx="4.60016868" ry="6.07178733"></ellipse>
                        <path d="M10.9818893,6.12111959 C11.427101,9.42849873 9.79465798,12.3903308 7.27179153,12.7358779 C4.74892508,13.0814249 2.32499457,10.7119593 1.87978284,7.40458015 C1.43457112,4.09720102 3.06701412,1.13536896 5.58988056,0.789821883 C8.11274701,0.394910941 10.5366775,2.76437659 10.9818893,6.12111959 Z" id="Path" fill="#E0E0E0"></path>
                        <ellipse id="Oval" fill="#F2F2F2" transform="translate(6.422199, 6.715865) rotate(-8.013417) translate(-6.422199, -6.715865) " cx="6.42219894" cy="6.71586534" rx="2.8689224" ry="3.75167348"></ellipse>
                        <path d="M6.52977199,8.34249364 L6.48030402,7.9475827 C6.28243214,7.9475827 6.08456026,7.89821883 5.98562432,7.84885496 L6.03509229,7.55267176 C6.1834962,7.65139949 6.33190011,7.70076336 6.52977199,7.65139949 C6.77711183,7.60203562 6.87604777,7.40458015 6.8265798,7.20712468 C6.77711183,6.96030534 6.62870793,6.86157761 6.38136808,6.76284987 C6.03509229,6.66412214 5.78775244,6.46666667 5.73828447,6.12111959 C5.6888165,5.77557252 5.83722041,5.47938931 6.13402823,5.38066158 L6.08456026,4.98575064 L6.28243214,4.93638677 L6.33190011,5.33129771 C6.52977199,5.33129771 6.6781759,5.38066158 6.77711183,5.43002545 L6.72764387,5.72620865 C6.6781759,5.67684478 6.52977199,5.62748092 6.33190011,5.62748092 C6.08456026,5.67684478 6.03509229,5.87430025 6.03509229,6.02239186 C6.08456026,6.21984733 6.1834962,6.31857506 6.48030402,6.4173028 C6.8265798,6.5653944 7.02445168,6.76284987 7.07391965,7.10839695 C7.12338762,7.45394402 6.97498371,7.75012723 6.6781759,7.89821883 L6.72764387,8.34249364 L6.52977199,8.34249364 Z" id="Path" fill="#B5B5B5"></path>
                    </g>
                    <g id="Group" transform="translate(89.042345, 10.860051)" fill-rule="nonzero">
                        <ellipse id="Oval" fill="#B5B5B5" transform="translate(9.581263, 9.829304) rotate(-73.250268) translate(-9.581263, -9.829304) " cx="9.58126305" cy="9.82930372" rx="7.75170645" ry="6.23205403"></ellipse>
                        <ellipse id="Oval" fill="#E0E0E0" transform="translate(8.246212, 9.414973) rotate(-73.250268) translate(-8.246212, -9.414973) " cx="8.2462116" cy="9.41497303" rx="7.75170645" ry="6.23205403"></ellipse>
                        <path d="M11.9712486,10.5638677 C11.1797611,13.1307888 8.90423453,14.6610687 6.87604777,14.0687023 C4.84786102,13.4763359 3.80903366,10.9094148 4.5510532,8.34249364 C5.34254072,5.77557252 7.61806732,4.24529262 9.64625407,4.83765903 C11.6744408,5.43002545 12.7132682,7.99694656 11.9712486,10.5638677 Z" id="Path" fill="#F2F2F2"></path>
                        <path d="M7.51913138,11.3536896 L7.66753529,10.8600509 C7.42019544,10.7613232 7.22232356,10.6132316 7.12338762,10.4651399 L7.3212595,10.1689567 C7.42019544,10.3170483 7.61806732,10.5145038 7.86540717,10.5638677 C8.16221498,10.6625954 8.40955483,10.5145038 8.50849077,10.2183206 C8.60742671,9.9221374 8.50849077,9.72468193 8.21168295,9.4778626 C7.86540717,9.13231552 7.66753529,8.83613232 7.8159392,8.39185751 C7.96434311,7.9475827 8.26115092,7.70076336 8.70636265,7.75012723 L8.85476656,7.25648855 L9.10210641,7.35521628 L8.9537025,7.84885496 C9.20104235,7.9475827 9.34944625,8.04631043 9.44838219,8.19440204 L9.25051031,8.49058524 C9.20104235,8.39185751 9.05263844,8.2437659 8.80529859,8.14503817 C8.50849077,8.04631043 8.31061889,8.2437659 8.21168295,8.44122137 C8.11274701,8.68804071 8.26115092,8.88549618 8.55795874,9.18167939 C8.90423453,9.52722646 9.05263844,9.87277354 8.90423453,10.3170483 C8.80529859,10.7119593 8.4590228,11.0575064 7.96434311,11.0081425 L7.8159392,11.551145 L7.51913138,11.3536896 Z" id="Path" fill="#B5B5B5"></path>
                    </g>
                    <g id="Group" transform="translate(67.276439, 35.048346)" fill-rule="nonzero">
                        <path d="M36.0621498,3.55419847 L5.44147666,10.4157761 C1.68191097,11.2549618 -0.643083605,14.9572519 0.197871878,18.7089059 L6.13402823,44.9211196 L43.5318132,36.5292621 C44.6201086,36.2824427 45.3126602,35.1964377 45.0653203,34.1104326 L38.5355483,5.0351145 C38.2387405,3.99847328 37.1504452,3.30737913 36.0621498,3.55419847 Z" id="Path" fill="#B5B5B5"></path>
                        <g transform="translate(6.430836, 0.000000)">
                            <ellipse id="Oval" fill="#F2F2F2" transform="translate(10.711097, 10.758687) rotate(-72.740993) translate(-10.711097, -10.758687) " cx="10.7110966" cy="10.7586871" rx="8.44302583" ry="8.45769369"></ellipse>
                            <path d="M15.3845385,8.29312977 C16.7696417,10.8600509 15.7802823,14.0193384 13.2079479,15.4015267 C10.6356135,16.783715 7.46966341,15.7964377 6.08456026,13.2295165 C4.69945711,10.6625954 5.6888165,7.50330789 8.26115092,6.12111959 C10.8334853,4.78829517 13.9994354,5.77557252 15.3845385,8.29312977 Z" id="Path" fill="#FFFFFF"></path>
                            <path d="M11.5755049,12.8346056 L11.2786971,12.2916031 C10.9818893,12.4396947 10.6356135,12.5384224 10.3882736,12.4890585 L10.3388056,12.0941476 C10.5861455,12.1435115 10.9324213,12.0941476 11.1797611,11.946056 C11.5260369,11.7486005 11.6744408,11.4030534 11.5260369,11.1068702 C11.377633,10.810687 11.0808252,10.7613232 10.6356135,10.810687 C9.99252986,10.8600509 9.54731813,10.810687 9.29997828,10.3664122 C9.05263844,9.9221374 9.20104235,9.42849873 9.64625407,9.13231552 L9.34944625,8.58931298 L9.64625407,8.44122137 L9.89359392,8.93486005 C10.1904017,8.78676845 10.4872096,8.73740458 10.6850814,8.73740458 L10.7345494,9.13231552 C10.5861455,9.13231552 10.3388056,9.13231552 9.99252986,9.28040712 C9.5967861,9.4778626 9.54731813,9.82340967 9.69572204,10.0208651 C9.84412595,10.2676845 10.0914658,10.3170483 10.6356135,10.2676845 C11.2786971,10.2183206 11.6744408,10.3170483 11.9217807,10.810687 C12.1196526,11.205598 12.0701846,11.7486005 11.5755049,12.1435115 L11.8723127,12.686514 L11.5755049,12.8346056 Z" id="Path" fill="#B5B5B5"></path>
                        </g>
                        <g transform="translate(20.281868, 2.961832)">
                            <ellipse id="Oval" fill="#F2F2F2" transform="translate(11.771764, 11.658798) rotate(-28.887101) translate(-11.771764, -11.658798) " cx="11.7717641" cy="11.6587978" rx="8.45512963" ry="8.4456366"></ellipse>
                            <ellipse id="Oval" fill="#FFFFFF" transform="translate(11.753392, 11.658561) rotate(-77.502265) translate(-11.753392, -11.658561) " cx="11.7533917" cy="11.6585608" rx="5.23306279" ry="5.24306404"></ellipse>
                            <path d="M11.5260369,13.8712468 L11.5260369,13.2788804 C11.1797611,13.2788804 10.8334853,13.1801527 10.6356135,13.0320611 L10.7840174,12.6371501 C10.9818893,12.7852417 11.2786971,12.8839695 11.6249729,12.8839695 C12.0207166,12.8839695 12.3175244,12.6371501 12.3175244,12.3409669 C12.3175244,11.9954198 12.1196526,11.7979644 11.6744408,11.6498728 C11.0808252,11.4030534 10.7345494,11.1562341 10.7345494,10.6132316 C10.7345494,10.1195929 11.0808252,9.7740458 11.6249729,9.67531807 L11.6249729,9.08295165 L11.9712486,9.08295165 L11.9712486,9.6259542 C12.3175244,9.6259542 12.5648643,9.72468193 12.7132682,9.82340967 L12.5648643,10.2183206 C12.4659283,10.1689567 12.2185885,10.0208651 11.8228447,10.0208651 C11.377633,10.0208651 11.1797611,10.2676845 11.1797611,10.5145038 C11.1797611,10.810687 11.377633,10.9587786 11.9217807,11.205598 C12.5153963,11.4524173 12.8122041,11.7486005 12.8122041,12.2916031 C12.8122041,12.7358779 12.4659283,13.1801527 11.8723127,13.2788804 L11.8723127,13.8712468 L11.5260369,13.8712468 Z" id="Path" fill="url(#linearGradient-1)"></path>
                        </g>
                        <path d="M51.1993485,41.0707379 L14.7414549,49.2651399 C10.6850814,50.1536896 6.6781759,47.6361323 5.78775244,43.5882952 L0,17.919084 L43.7791531,8.0956743 C44.9663844,7.84885496 46.1041477,8.58931298 46.4009555,9.72468193 L52.8812595,38.5038168 C53.1285993,39.6391858 52.3865798,40.8239186 51.1993485,41.0707379 Z" id="Path" fill="#E0E0E0"></path>
                        <path d="M53.5738111,26.3603053 L46.9945711,27.8412214 C45.3621281,28.2361323 43.6802172,27.1501272 43.3339414,25.5211196 L43.3339414,25.5211196 C42.9381976,23.892112 44.0264929,22.2137405 45.6589359,21.8681934 L52.2381759,20.3872774 C53.8706189,19.9923664 55.5525299,21.0783715 55.8988056,22.7073791 L55.8988056,22.7073791 C56.2945494,24.3363868 55.255722,25.9653944 53.5738111,26.3603053 Z" id="Path" fill="#B5B5B5"></path>
                        <path d="M54.3652986,23.0529262 C54.5137025,23.6452926 54.1179587,24.237659 53.5243431,24.3857506 C52.9307275,24.5338422 52.3371118,24.1389313 52.1887079,23.5465649 C52.040304,22.9541985 52.4360478,22.3618321 53.0296634,22.2137405 C53.623279,22.0656489 54.2168947,22.4605598 54.3652986,23.0529262 Z" id="Path" fill="#FFFFFF"></path>
                    </g>
                    <g id="Group" stroke="#B5B5B5" stroke-linecap="round" stroke-linejoin="round" stroke-width="1.0895">
                        <path d="M15.4834745,108.403053 C14.9887948,108.008142 14.4941151,107.613232 14.0489034,107.168957" id="Path"></path>
                        <path d="M11.377633,104.552672 C-11.9217807,79.8707379 5.78775244,39.3923664 24.2393051,40.5770992 C43.6802172,41.8111959 18.1052769,74.4407125 10.5366775,41.2188295 C3.26488599,9.23104326 68.5626059,-15.7964377 82.908317,12.4396947" id="Path" stroke-dasharray="4,5"></path>
                        <path d="M83.6998046,14.16743 C83.9471444,14.7597964 84.1450163,15.3521628 84.3428882,15.9445293" id="Path"></path>
                    </g>
                    <path d="M16.5223018,19.4987277 L8.06327904,22.3124682 L13.5047557,23.9414758 L15.2856026,29.0259542 C15.2856026,28.9765903 16.1265581,19.9430025 16.5223018,19.4987277 Z" id="Path" fill="#B5B5B5" fill-rule="nonzero"></path>
                    <g id="Group" transform="translate(12.366992, 70.590331)" fill-rule="nonzero">
                        <g>
                            <g id="Path">
                                <path d="M67.1775027,90.8788804 L29.1366341,101.245293 C25.9212161,102.133842 22.6068621,100.208651 21.7164387,97 L0.346275787,18.9063613 C-0.544147666,15.6977099 1.38510315,12.3903308 4.60052117,11.5017812 L42.6413898,1.13536896 C45.8568078,0.246819338 49.1711618,2.17201018 50.0615852,5.38066158 L71.4317481,83.4743003 C72.2727036,86.6829517 70.3929207,89.9903308 67.1775027,90.8788804 Z" fill="#B5B5B5"></path>
                                <path d="M69.3540934,90.286514 L31.3132248,100.652926 C28.0978067,101.541476 24.7834528,99.616285 23.8930293,96.4076336 L2.47339848,18.3139949 C1.58297503,15.1053435 3.51222584,11.7979644 6.72764387,10.9094148 L44.7685125,0.543002545 C47.9839305,-0.345547074 51.2982845,1.57964377 52.1887079,4.78829517 L73.5588708,82.8819338 C74.4492942,86.0905852 72.5695114,89.3979644 69.3540934,90.286514 Z" fill="#E0E0E0"></path>
                                <path d="M50.457329,10.5145038 L69.1562215,78.7847328 C69.947709,81.6478372 68.265798,84.6096692 65.3966558,85.3994911 L32.2036482,94.4330789 C31.1153529,94.7292621 30.0270575,94.6798982 29.0376982,94.3343511 C27.4052552,93.7913486 26.06962,92.4585242 25.5749403,90.6320611 L6.87604777,22.3618321 C6.62870793,21.4732824 6.62870793,20.5847328 6.8265798,19.7455471 C7.27179153,17.8697201 8.65689468,16.2900763 10.6850814,15.7470738 L43.878089,6.71348601 C45.1642562,6.36793893 46.4998914,6.51603053 47.6376547,7.05903308 C48.2312704,7.35521628 48.775418,7.75012723 49.2206298,8.2437659 C49.5174376,8.53994911 49.7647774,8.88549618 49.9626493,9.23104326 L49.9626493,9.23104326 C50.1605212,9.6259542 50.3583931,10.070229 50.457329,10.5145038 Z" fill="#FFFFFF"></path>
                                <g transform="translate(7.420195, 6.417303)" fill="#F2F2F2">
                                    <path d="M43.0371336,4.09720102 L50.506797,31.4447837 L21.5680347,87.9170483 C19.9355917,87.3740458 18.5999566,86.0412214 18.1052769,84.2147583 L12.0701846,62.1984733 L42.5424539,2.86310433 C42.7403257,3.2086514 42.9381976,3.65292621 43.0371336,4.09720102 Z"></path>
                                    <polygon points="53.2770033 41.4656489 61.1918784 70.2941476 56.5418893 79.3770992 30.1754615 86.5842239"></polygon>
                                    <path d="M40.1679913,0.64173028 L10.8829533,57.8050891 L0.148403909,18.659542 L5.19413681,8.83613232 L36.4084256,0.345547074 C37.7440608,-0.0493638677 39.030228,0.0987277354 40.1679913,0.64173028 Z"></path>
                                </g>
                                <path d="M49.1711618,8.2437659 L6.77711183,19.7949109 C7.22232356,17.919084 8.60742671,16.3394402 10.6356135,15.7964377 L43.8286211,6.76284987 C45.1147883,6.4173028 46.4504235,6.5653944 47.5881868,7.10839695 C48.1818024,7.35521628 48.7259501,7.75012723 49.1711618,8.2437659 Z" fill="#B5B5B5"></path>
                            </g>
                            <g transform="translate(18.797828, 22.707379)">
                                <ellipse id="Oval" fill="#DBDBDB" transform="translate(16.036764, 16.307117) rotate(-60.712782) translate(-16.036764, -16.307117) " cx="16.0367638" cy="16.3071167" rx="11.7054352" ry="11.7182994"></ellipse>
                                <ellipse id="Oval" fill="#C1C1C1" transform="translate(16.030808, 16.299959) rotate(-27.367073) translate(-16.030808, -16.299959) " cx="16.0308079" cy="16.299959" rx="7.31817374" ry="7.30927793"></ellipse>
                                <path d="M16.5717698,19.3506361 L16.3738979,18.5608142 C15.9286862,18.659542 15.3845385,18.659542 15.0877307,18.5608142 L15.1371987,17.9684478 C15.4834745,18.0671756 15.9286862,18.1165394 16.3738979,18.0178117 C16.9180456,17.8697201 17.2148534,17.4254453 17.1159175,16.9811705 C17.0169815,16.5368957 16.6212378,16.3888041 15.9781542,16.2900763 C15.0877307,16.1913486 14.4941151,15.9938931 14.2962432,15.302799 C14.0983713,14.6610687 14.4446471,14.0193384 15.1371987,13.7231552 L14.9393268,12.9333333 L15.4340065,12.7852417 L15.6318784,13.5256997 C16.1265581,13.426972 16.4728339,13.426972 16.7201737,13.5256997 L16.6707058,14.1180662 C16.4728339,14.0687023 16.1265581,13.9699746 15.6318784,14.1180662 C15.0382628,14.2661578 14.8898588,14.7104326 14.9887948,15.0066158 C15.0877307,15.4015267 15.4340065,15.5496183 16.225494,15.6483461 C17.1159175,15.7470738 17.6600651,16.043257 17.857937,16.7343511 C18.0063409,17.3760814 17.7590011,18.0671756 16.9675136,18.4127226 L17.2148534,19.2025445 L16.5717698,19.3506361 Z" id="Path" fill="#FFFFFF"></path>
                            </g>
                            <g transform="translate(29.186102, 58.249364)">
                                <path d="M22.1616504,8.2437659 L5.34254072,12.8346056 C3.21541802,13.426972 1.03882736,12.1928753 0.494679696,10.070229 L0.494679696,10.070229 C-0.0989359392,7.9475827 1.1377633,5.77557252 3.26488599,5.23256997 L20.0839957,0.64173028 C22.2111183,0.0493638677 24.387709,1.28346056 24.9318567,3.40610687 L24.9318567,3.40610687 C25.5254723,5.52875318 24.2887731,7.70076336 22.1616504,8.2437659 Z" id="Path" fill="#C6C6C6"></path>
                                <g transform="translate(5.936156, 3.949109)" fill="#FFFFFF">
                                    <path d="M1.18723127,5.08447837 C0.840955483,5.18320611 0.544147666,4.93638677 0.445211726,4.49211196 C0.346275787,4.04783715 0.494679696,3.70229008 0.791487514,3.60356234 C0.939891422,3.55419847 1.08829533,3.60356234 1.18723127,3.65292621 L1.28616721,3.40610687 C1.1377633,3.30737913 0.939891422,3.25801527 0.692551574,3.30737913 C0.197871878,3.45547074 -0.0494679696,3.89974555 0.0989359392,4.54147583 C0.247339848,5.18320611 0.742019544,5.43002545 1.23669924,5.28193384 C1.48403909,5.23256997 1.632443,5.08447837 1.78084691,4.83765903 L1.58297503,4.68956743 C1.48403909,4.93638677 1.33563518,5.0351145 1.18723127,5.08447837 Z" id="Path"></path>
                                    <path d="M2.02818675,3.0605598 L1.92925081,5.13384224 L2.22605863,5.0351145 L2.22605863,4.44274809 L2.86914224,4.24529262 L3.16595005,4.7389313 L3.46275787,4.64020356 L2.32499457,2.91246819 L2.02818675,3.0605598 Z M2.7702063,4.09720102 L2.22605863,4.24529262 L2.22605863,3.94910941 C2.22605863,3.70229008 2.22605863,3.50483461 2.22605863,3.25801527 L2.22605863,3.25801527 C2.32499457,3.45547074 2.47339848,3.65292621 2.57233442,3.85038168 L2.7702063,4.09720102 Z" id="Shape"></path>
                                    <path d="M4.30371336,3.356743 L4.00690554,3.30737913 C3.85850163,3.30737913 3.66062975,3.25801527 3.61116178,3.10992366 C3.56169381,2.96183206 3.66062975,2.81374046 3.85850163,2.76437659 C4.00690554,2.71501272 4.15530945,2.76437659 4.30371336,2.81374046 L4.40264929,2.56692112 C4.20477742,2.46819338 4.00690554,2.41882952 3.75956569,2.46819338 C3.4132899,2.56692112 3.21541802,2.86310433 3.26488599,3.15928753 C3.36382193,3.45547074 3.56169381,3.50483461 3.80903366,3.55419847 L4.10584148,3.60356234 C4.30371336,3.65292621 4.45211726,3.65292621 4.50158523,3.80101781 C4.5510532,3.94910941 4.45211726,4.09720102 4.20477742,4.14656489 C4.00690554,4.19592875 3.80903366,4.14656489 3.61116178,4.04783715 L3.51222584,4.29465649 C3.75956569,4.44274809 4.00690554,4.44274809 4.25424539,4.39338422 C4.64998914,4.29465649 4.84786102,3.94910941 4.79839305,3.65292621 C4.79839305,3.50483461 4.5510532,3.40610687 4.30371336,3.356743 Z" id="Path"></path>
                                    <polygon id="Path" points="6.1834962 2.76437659 5.34254072 3.01119593 5.14466884 2.22137405 4.84786102 2.32010178 5.34254072 4.19592875 5.63934853 4.14656489 5.44147666 3.25801527 6.23296417 3.0605598 6.48030402 3.89974555 6.77711183 3.80101781 6.23296417 1.92519084 5.93615635 1.97455471"></polygon>
                                    <path d="M8.01381107,2.41882952 L8.01381107,2.41882952 C8.16221498,2.32010178 8.21168295,2.12264631 8.16221498,1.92519084 C8.06327904,1.57964377 7.76647123,1.5302799 7.37072747,1.62900763 L6.77711183,1.77709924 L7.3212595,3.70229008 L7.96434311,3.50483461 C8.40955483,3.40610687 8.65689468,3.10992366 8.55795874,2.76437659 C8.40955483,2.51755725 8.21168295,2.36946565 8.01381107,2.41882952 Z M7.12338762,1.92519084 L7.37072747,1.87582697 C7.61806732,1.8264631 7.8159392,1.8264631 7.86540717,2.02391858 C7.91487514,2.22137405 7.8159392,2.32010178 7.51913138,2.41882952 L7.27179153,2.46819338 L7.12338762,1.92519084 Z M7.8159392,3.30737913 L7.51913138,3.40610687 L7.3212595,2.76437659 L7.61806732,2.66564885 C7.91487514,2.56692112 8.11274701,2.61628499 8.16221498,2.86310433 C8.26115092,3.0605598 8.11274701,3.2086514 7.8159392,3.30737913 Z" id="Shape"></path>
                                    <path d="M8.85476656,1.18473282 L8.75583062,3.25801527 L9.05263844,3.15928753 L9.05263844,2.56692112 L9.69572204,2.36946565 L9.99252986,2.86310433 L10.2893377,2.76437659 L9.15157438,1.03664122 L8.85476656,1.18473282 Z M9.5967861,2.22137405 L9.05263844,2.36946565 L9.05263844,2.07328244 C9.05263844,1.8264631 9.05263844,1.62900763 9.05263844,1.3821883 L9.05263844,1.3821883 C9.15157438,1.57964377 9.29997828,1.77709924 9.39891422,1.97455471 L9.5967861,2.22137405 Z" id="Shape"></path>
                                    <path d="M11.2786971,2.36946565 C10.9324213,2.46819338 10.6356135,2.22137405 10.5366775,1.77709924 C10.4377416,1.33282443 10.5861455,0.987277354 10.8829533,0.888549618 C11.0313572,0.839185751 11.1797611,0.888549618 11.2786971,0.937913486 L11.377633,0.691094148 C11.2292291,0.592366412 11.0313572,0.543002545 10.7840174,0.592366412 C10.2893377,0.740458015 10.0419978,1.18473282 10.1904017,1.8264631 C10.3388056,2.46819338 10.8334853,2.71501272 11.328165,2.56692112 C11.5755049,2.51755725 11.7239088,2.36946565 11.8723127,2.12264631 L11.6744408,1.97455471 C11.5755049,2.17201018 11.4765689,2.32010178 11.2786971,2.36946565 Z" id="Path"></path>
                                    <polygon id="Path" points="12.7132682 0.937913486 13.1090119 0.0493638677 12.7627362 0.148091603 12.3175244 1.23409669 12.2680565 1.23409669 12.0207166 0.345547074 11.7239088 0.394910941 12.2680565 2.32010178 12.5648643 2.22137405 12.4164604 1.6783715 12.6143322 1.23409669 13.4058198 2.02391858 13.7520955 1.92519084"></polygon>
                                </g>
                            </g>
                            <path d="M44.7685125,7.9475827 C44.8179805,8.19440204 44.7190445,8.39185751 44.4717047,8.49058524 C44.2243648,8.53994911 44.0264929,8.44122137 43.927557,8.19440204 C43.878089,7.9475827 43.977025,7.75012723 44.2243648,7.65139949 C44.4717047,7.60203562 44.7190445,7.75012723 44.7685125,7.9475827 Z" id="Path" fill="#FFFFFF"></path>
                            <path d="M40.712139,9.08295165 C40.7616069,9.32977099 40.662671,9.52722646 40.4153312,9.6259542 C40.1679913,9.67531807 39.9701194,9.57659033 39.8711835,9.32977099 C39.8217155,9.08295165 39.9206515,8.88549618 40.1679913,8.78676845 C40.4153312,8.68804071 40.662671,8.83613232 40.712139,9.08295165 Z" id="Path" fill="#FFFFFF"></path>
                            <path d="M36.7052334,10.1689567 C36.7547014,10.4157761 36.6557655,10.6132316 36.4084256,10.7119593 C36.1610858,10.7613232 35.9632139,10.6625954 35.864278,10.4157761 C35.81481,10.1689567 35.9137459,9.97150127 36.1610858,9.87277354 C36.4084256,9.82340967 36.6557655,9.9221374 36.7052334,10.1689567 Z" id="Path" fill="#FFFFFF"></path>
                        </g>
                        <path d="M23.8930293,9.28040712 C23.8930293,9.72468193 23.5467535,10.070229 23.1015418,10.070229 C22.6563301,10.070229 22.3100543,9.72468193 22.3100543,9.28040712 C22.3100543,8.83613232 22.6563301,8.49058524 23.1015418,8.49058524 C23.5467535,8.49058524 23.8930293,8.83613232 23.8930293,9.28040712 Z" id="Path" fill="#B5B5B5"></path>
                        <path d="M32.549924,7.15776081 L26.1685559,8.83613232 C25.8717481,8.93486005 25.5749403,8.73740458 25.4760043,8.44122137 L25.4760043,8.44122137 C25.3770684,8.14503817 25.5749403,7.84885496 25.8717481,7.75012723 L32.2531162,6.07175573 C32.549924,5.97302799 32.8467318,6.17048346 32.9456678,6.46666667 L32.9456678,6.46666667 C32.9951357,6.76284987 32.7972638,7.05903308 32.549924,7.15776081 Z" id="Path" fill="#B5B5B5"></path>
                    </g>
                </g>
            </g>
        </g>
    </g>
</svg>