<svg viewBox="0 0 490 490" width="240" xmlns="http://www.w3.org/2000/svg">
  <g fill="#E2E2E2">
    <path d="m140.1 364.15c4.396-3.26 108.773-78.91 214.584 0l18.303-24.554c-124.399-92.81-249.965-.912-251.221.015z"/>
    <path d="m138.171 228.76 28.278-28.28 28.277 28.28 21.653-21.653-28.278-28.28 28.278-28.281-21.653-21.653-28.277 28.28-28.278-28.28-21.652 21.653 28.278 28.281-28.278 28.28z"/>
    <path d="m295.274 228.76 28.277-28.28 28.278 28.28 21.652-21.653-28.278-28.28 28.278-28.281-21.652-21.653-28.278 28.28-28.277-28.28-21.653 21.653 28.278 28.281-28.278 28.28z"/>
    <path d="m69.086 490h351.829c38.086 0 69.085-30.999 69.085-69.086v-351.828c0-38.095-30.999-69.086-69.086-69.086h-351.828c-38.087 0-69.086 30.991-69.086 69.086v351.829c0 38.086 30.999 69.085 69.086 69.085zm-38.461-420.914c0-21.204 17.256-38.461 38.461-38.461h351.829c21.204 0 38.461 17.257 38.461 38.461v351.829c0 21.204-17.257 38.461-38.461 38.461h-351.829c-21.204 0-38.461-17.257-38.461-38.461z"/>
  </g>
</svg>
