<?xml version="1.0" encoding="UTF-8"?>
<svg viewBox="0 0 122 103" version="1.1" xmlns="http://www.w3.org/2000/svg" xmlns:xlink="http://www.w3.org/1999/xlink">
    <!-- Generator: Sketch 63.1 (92452) - https://sketch.com -->
    <title>shipment</title>
    <desc>Created with Sketch.</desc>
    <g id="12.-Null-Page" stroke="none" stroke-width="1" fill="none" fill-rule="evenodd" opacity="0.6">
        <g id="15.4-Null-wishlist" transform="translate(-127.000000, -145.000000)" fill-rule="nonzero">
            <g id="shipment" transform="translate(127.000000, 145.000000)">
                <polygon id="Path" fill="#F2F2F2" points="75.8011696 15 66 19.9691358 68.4093567 36.5092593 74.0233918 38 83.9883041 35.0421811 90 33.409465 85.8128655 22.9742798 79.122807 24.1100823"></polygon>
                <polygon id="Path" fill="#F2F2F2" points="37.1415929 10.1889927 37.9539823 3.42679128 43.2823009 0 51 4.27206646 50.2831858 12.7248183 43.4734513 22 32.8168142 22 24 17.430945 26.819469 8.52128764 27.9185841 6.48805815"></polygon>
                <rect id="Rectangle" fill="#ECECEC" x="86" y="40" width="18" height="60"></rect>
                <polygon id="Path" fill="#E2E2E2" points="105.069878 40 120.622795 53.6043478 122 57.2336957 108.631615 61 98.6112619 52.3945652 87 40"></polygon>
                <rect id="Rectangle" fill="#ECECEC" x="17" y="41" width="65" height="59"></rect>
                <polygon id="Path" fill="#E2E2E2" points="63.17042 60.0972079 6.67620207 62 2 54.8407446 17.5003043 39 80 41.2595657"></polygon>
                <path d="M28.1645277,23.2641509 C30.9542692,24.8652291 39.3711815,27 42.9477732,27 C43.7823112,27 44.3545659,26.8787062 44.8314448,26.6361186 C45.3083237,26.393531 46.5720527,25.7385445 49.1710426,19.6010782 C50.3393959,16.8355795 51.6746568,13.0997305 51.9130962,10.9407008 C52.0800038,9.38814016 52.1515357,7.03504043 50.720899,4.53638814 C49.1233547,1.74663073 46.1667056,0 43.019305,0 C41.6840441,0 40.3964711,0.315363881 39.18043,0.921832884 C36.5337522,2.28032345 35.4846186,5.09433962 34.9600519,6.88948787 C33.9347622,6.50134771 32.5518135,6.08894879 31.049645,6.08894879 C29.8336038,6.08894879 28.7129385,6.35579515 27.6876489,6.88948787 C23.5864904,9.02425876 21.8697265,14.1185984 23.777242,18.4851752 C24.9217513,21.1536388 26.8292669,22.4878706 28.1645277,23.2641509 Z M29.2851931,10.1401617 C29.8097599,9.87331536 30.3820146,9.7277628 31.025801,9.7277628 C32.313374,9.7277628 33.5771031,10.2371968 34.4354851,10.5768194 C35.0792716,10.8436658 35.4846186,11.0134771 35.9853415,11.0134771 C36.2953127,11.0134771 36.605284,10.9407008 36.8675674,10.7951482 C37.7021054,10.3584906 37.9167009,9.58221024 38.2028283,8.56334232 C38.5604874,7.22911051 39.18043,4.99730458 40.8018182,4.14824798 C41.4932926,3.78436658 42.2324548,3.61455526 42.9954611,3.61455526 C44.8791327,3.61455526 46.6435845,4.65768194 47.5973423,6.33153639 C48.3126606,7.56873315 48.5272561,8.83018868 48.3365046,10.5283019 C48.0026894,13.5606469 44.5453174,21.7843666 43.1862126,23.3369272 C43.1146808,23.3369272 43.043149,23.3369272 42.9477732,23.3369272 C40.0626559,23.3369272 32.1464664,21.3477089 29.9289796,20.0619946 C28.474499,19.212938 27.616117,18.2911051 27.0438624,17.0053908 C25.899353,14.458221 26.9246426,11.3773585 29.2851931,10.1401617 Z" id="Shape" fill="#B7B7B7"></path>
                <path d="M89.633094,34.1540638 C92.1184407,30.077383 91.124302,24.7874042 87.3844471,22.0938829 C86.4613183,21.4144361 85.3724998,21.0019149 84.1890014,20.8320532 C82.6977934,20.6136595 81.3012653,20.8320532 80.2361168,21.0747127 C79.9757471,19.2305 79.312988,16.2943191 76.8986513,14.5714361 C75.8098327,13.7949255 74.5789944,13.2853404 73.2534762,13.0912127 C70.1527104,12.6301595 67.0282746,13.9405212 65.0636673,16.4884468 C63.3120896,18.7694468 63.05172,21.0989787 63.0043801,22.6762659 C62.9333702,24.8602021 63.7381491,28.7427553 64.519258,31.6304042 C66.2234957,38.0851489 67.3833241,38.9101915 67.8093836,39.2256489 C68.235443,39.5411064 68.8035222,39.735234 69.6083011,39.8565638 C73.1114564,40.3661489 81.6799848,39.4440425 84.6387308,38.2550106 C86.0825988,37.6483617 88.1418861,36.6049255 89.633094,34.1540638 Z M86.6270081,32.2127872 C85.8932391,33.4260851 84.8991004,34.2025957 83.3605525,34.8335106 C80.9935557,35.779883 72.9694366,36.6291915 70.1290404,36.2166702 C70.0343605,36.1924042 69.9396807,36.1924042 69.8923407,36.1681383 C68.7798522,34.4209893 66.4838653,25.8065744 66.5785452,22.7490638 C66.6258852,21.0504468 67.0282746,19.8371489 67.8803935,18.7209149 C69.0402219,17.1921595 70.9338193,16.4156489 72.7800768,16.6825744 C73.5375158,16.8039042 74.2476149,17.0708297 74.863034,17.5318829 C76.330572,18.5995851 76.6382816,20.904851 76.8039714,22.2637446 C76.9459912,23.2829149 77.0406711,24.1079574 77.7981101,24.6660744 C78.0348097,24.8359361 78.3188493,24.9572659 78.6265589,25.0057978 C79.1236283,25.0785957 79.5496877,24.9572659 80.2124468,24.8116702 C81.0882356,24.5932766 82.4137538,24.2535532 83.6682621,24.4476808 C84.3073512,24.5447446 84.8517605,24.7631383 85.3251599,25.1028617 C87.5027969,26.631617 88.0945461,29.8347234 86.6270081,32.2127872 Z" id="Shape" fill="#B7B7B7"></path>
                <path d="M83.5098308,65.8895966 L47.9535831,103 C46.8818944,101.66879 43.6430132,102.416136 43,100.921444 L83.5098308,59 C85.0340102,59.6539278 82.3905116,63.3205945 83.7479838,64.3715499 L83.5098308,65.8895966 Z" id="Path" fill="#F2F2F2"></path>
                <path d="M86,82.2163202 L66.4421613,102 C62.6202435,101.498845 57.9961948,103.073903 55,100.210162 L82.7678843,71 C85.5989346,74.0307929 85.3394216,76.9183988 85.8348554,80.8083141 L86,82.2163202 Z" id="Path" fill="#F2F2F2"></path>
                <path d="M34.2886855,38.1177536 L20.3492394,38.1177536 C16.8941631,38.1177536 13.6535397,39.4365942 11.1992441,41.8623188 L1.95393629,51 C0.0238591429,52.9076087 -0.524187453,55.6394928 0.524249513,58.1358696 C1.57268648,60.6322464 3.90784154,62.1865942 6.64807452,62.1865942 L13.9394771,62.1865942 L13.9394771,92.2137681 C13.9394771,98.1721014 18.8480683,103 24.8527528,103 L97.1234191,103 C103.151932,103 108.036695,98.1485507 108.036695,92.2137681 L108.036695,62.0217391 C108.703882,62.115942 109.394897,62.1865942 110.109741,62.1865942 L115.351925,62.1865942 C118.092158,62.1865942 120.427314,60.6322464 121.47575,58.1358696 C122.524187,55.6394928 121.976141,52.9076087 120.046064,51 L110.800756,41.8623188 C108.34646,39.4365942 105.105837,38.1177536 101.650761,38.1177536 L87.6874864,38.1177536 M84.1370976,38.1507246 L37.8629024,38.1507246 M3.81252909,56.7934783 C3.31213872,55.615942 3.57424796,54.3913043 4.47971625,53.4963768 L13.725024,44.3586957 C15.4883044,42.615942 17.8472876,41.6503623 20.3492394,41.6503623 L80.2531152,41.6503623 L65.9085913,55.8278986 C64.0738266,57.6413043 61.6195309,58.6539855 58.9984385,58.6539855 L6.64807452,58.6539855 C5.36135643,58.6539855 4.31291946,57.9474638 3.81252909,56.7934783 Z M24.8527528,99.490942 C20.8019736,99.490942 17.513694,96.240942 17.513694,92.2373188 L17.513694,62.1865942 L59.0222666,62.1865942 C62.5726555,62.1865942 65.9324194,60.8206522 68.4581993,58.3242754 L82.8027233,44.1467391 L82.8027233,99.490942 L24.8527528,99.490942 Z M118.187471,56.7934783 C117.687081,57.9474638 116.638644,58.6539855 115.375754,58.6539855 L110.133569,58.6539855 C107.536304,58.6539855 105.082009,57.6413043 103.223416,55.8278986 L100.530839,53.1666667 C99.839824,52.4836957 98.6960746,52.4836957 98.0050593,53.1666667 C97.314044,53.8496377 97.314044,54.9800725 98.0050593,55.6630435 L100.697636,58.3242754 C101.817557,59.4311594 103.104275,60.3025362 104.486306,60.9619565 L104.486306,92.2137681 C104.486306,96.2173913 101.198026,99.4673913 97.1472472,99.4673913 L86.3769402,99.4673913 L86.3769402,44.1231884 L93.0011556,50.6702899 C93.6921709,51.3532609 94.8359203,51.3532609 95.5269356,50.6702899 C96.2179508,49.9873188 96.2179508,48.8568841 95.5269356,48.173913 L88.8788921,41.6503623 L101.650761,41.6503623 C104.152712,41.6503623 106.511696,42.615942 108.274976,44.3586957 L117.520284,53.4963768 C118.425752,54.3913043 118.664033,55.615942 118.187471,56.7934783 Z" id="Shape" fill="#B7B7B7"></path>
                <rect id="Rectangle" fill="#ECECEC" x="15" y="73" width="3" height="13"></rect>
                <circle id="Oval" fill="#B7B7B7" cx="16.5" cy="72.5" r="1.5"></circle>
                <circle id="Oval" fill="#B7B7B7" cx="16.5" cy="85.5" r="1.5"></circle>
                <circle id="Oval" fill="#B7B7B7" cx="16" cy="80" r="2"></circle>
            </g>
        </g>
    </g>
</svg>