<?xml version="1.0" encoding="UTF-8"?>
<svg viewBox="0 0 122 88" version="1.1" xmlns="http://www.w3.org/2000/svg" xmlns:xlink="http://www.w3.org/1999/xlink">
    <!-- Generator: Sketch 63.1 (92452) - https://sketch.com -->
    <title>technology</title>
    <desc>Created with Sketch.</desc>
    <g id="12.-Null-Page" stroke="none" stroke-width="1" fill="none" fill-rule="evenodd" opacity="0.6">
        <g id="15.6-wifi-error" transform="translate(-127.000000, -190.000000)" fill-rule="nonzero">
            <g id="technology" transform="translate(127.000000, 190.000000)">
                <circle id="Oval" fill="#E2E2E2" cx="61.5" cy="72.6871345" r="12.5"></circle>
                <ellipse id="Oval" fill="#F2F2F2" cx="58" cy="72.6871345" rx="9" ry="12.5"></ellipse>
                <path d="M61.1028197,85.1871345 C61.7352131,85.1871345 62.3676066,85.1145718 63,85.0178215 C58.7840438,84.0745065 55.5518107,78.922555 55.5518107,72.682163 C55.5518107,66.4417711 58.7840438,61.2898196 63,60.3465045 C58.50298,59.59669 53.9825381,61.5316953 51.3124325,65.3291431 C48.6423269,69.1265909 48.2441533,74.1576045 50.3287094,78.3420534 C52.3898435,82.5506898 56.5589558,85.1871345 61.1028197,85.1871345 Z" id="Path" fill="#FFFFFF"></path>
                <g id="Group" transform="translate(0.000000, 0.187135)" fill="#B7B7B7">
                    <path d="M119.574269,28.8172603 C118.979727,28.8172603 118.432749,28.5789041 118.004678,28.1736986 C86.5177388,-3.3369863 35.5298246,-3.3369863 4.01910331,28.1736986 C3.16296296,29.0317808 1.75984405,29.0317808 0.879922027,28.1736986 C3.88578059e-16,27.3156164 0.0237816764,25.9093151 0.879922027,25.0273973 C34.102924,-8.19945205 87.9208577,-8.19945205 121.14386,25.0273973 C121.785965,25.6709589 121.976218,26.6243836 121.619493,27.4347945 C121.28655,28.2690411 120.477973,28.8172603 119.574269,28.8172603 L119.574269,28.8172603 Z" id="Path"></path>
                    <path d="M15.4580897,41.8553425 C14.554386,41.8553425 13.745809,41.3071233 13.4128655,40.4967123 C13.079922,39.6624658 13.2701754,38.7090411 13.888499,38.0893151 C39.9294347,12.0608219 82.094347,12.0608219 108.111501,38.0893151 C108.682261,38.6613699 108.896296,39.4717808 108.682261,40.2345205 C108.468226,40.9972603 107.873684,41.5931507 107.112671,41.8076712 C106.351657,42.0221918 105.54308,41.7838356 104.97232,41.2356164 C80.6674464,16.9232877 41.3087719,16.9232877 17.0038986,41.2356164 C16.6233918,41.6169863 16.0526316,41.8553425 15.4580897,41.8553425 L15.4580897,41.8553425 Z" id="Path"></path>
                    <path d="M93.557115,54.8934247 C92.9625731,54.8934247 92.4155945,54.6550685 91.9875244,54.249863 C74.8647173,37.1358904 47.1590643,37.1358904 30.0362573,54.249863 C29.180117,55.1079452 27.7769981,55.1079452 26.897076,54.249863 C26.017154,53.3917808 26.0409357,51.9854795 26.897076,51.1035616 C45.7321637,32.249589 76.2440546,32.249589 95.102924,51.1035616 C95.7450292,51.7471233 95.9352827,52.7005479 95.5785575,53.5109589 C95.2218324,54.3213699 94.437037,54.8934247 93.557115,54.8934247 L93.557115,54.8934247 Z" id="Path"></path>
                    <path d="M61.0237817,86.9284932 C53.0093567,86.9284932 46.5169591,80.4213699 46.5169591,72.3887671 C46.5169591,64.3561644 53.0093567,57.8490411 61.0237817,57.8490411 C69.0382066,57.8490411 75.5306043,64.3561644 75.5306043,72.3887671 C75.5068226,80.4213699 69.014425,86.9284932 61.0237817,86.9284932 L61.0237817,86.9284932 Z M61.0237817,62.2824658 C55.4588694,62.2824658 50.9403509,66.8112329 50.9403509,72.3887671 C50.9403509,77.9663014 55.4588694,82.4950685 61.0237817,82.4950685 C66.588694,82.4950685 71.1072125,77.9663014 71.1072125,72.3887671 C71.0834308,66.8112329 66.588694,62.3063014 61.0237817,62.2824658 Z" id="Shape"></path>
                </g>
            </g>
        </g>
    </g>
</svg>